<svg width="762" height="103" viewBox="0 0 762 103" fill="none" xmlns="http://www.w3.org/2000/svg">
<path d="M6.70408 50.024V25.976C6.70408 22.136 6.70408 18.776 6.70408 15.896C6.75208 12.968 6.58408 10.544 6.20008 8.62399C5.86408 6.65599 5.21608 5.19199 4.25608 4.23199C3.34408 3.22399 1.95208 2.71999 0.0800781 2.71999V1.99999H30.1761C33.5361 1.99999 36.4881 2.47999 39.0321 3.43999C41.5761 4.35199 43.7121 5.57599 45.4401 7.11199C47.1681 8.59999 48.4641 10.328 49.3281 12.296C50.2401 14.216 50.6961 16.16 50.6961 18.128C50.6961 21.008 50.0961 23.36 48.8961 25.184C47.7441 27.008 46.3521 28.448 44.7201 29.504C43.1361 30.512 41.5041 31.232 39.8241 31.664C38.1441 32.048 36.8001 32.288 35.7921 32.384C38.6241 33.92 41.2641 35.384 43.7121 36.776C46.2081 38.168 48.3681 39.704 50.1921 41.384C52.0161 43.016 53.4321 44.912 54.4401 47.072C55.4961 49.184 56.0241 51.728 56.0241 54.704C56.0241 57.392 55.4961 59.912 54.4401 62.264C53.4321 64.616 51.8721 66.656 49.7601 68.384C47.6961 70.112 45.1041 71.48 41.9841 72.488C38.9121 73.496 35.2881 74 31.1121 74H0.0800781V73.28C1.95208 73.28 3.34408 72.8 4.25608 71.84C5.21608 70.832 5.86408 69.368 6.20008 67.448C6.58408 65.48 6.75208 63.056 6.70408 60.176C6.70408 57.248 6.70408 53.864 6.70408 50.024ZM13.9041 72.56H28.6641C31.6881 72.56 34.4241 72.128 36.8721 71.264C39.3201 70.352 41.4321 69.104 43.2081 67.52C44.9841 65.936 46.3521 64.064 47.3121 61.904C48.2721 59.696 48.7521 57.296 48.7521 54.704C48.7521 51.68 48.0561 49.088 46.6641 46.928C45.3201 44.72 43.5681 42.68 41.4081 40.808C39.2961 38.888 36.9201 37.04 34.2801 35.264C31.6401 33.44 29.0241 31.424 26.4321 29.216C23.8401 27.008 21.4161 24.488 19.1601 21.656C16.9521 18.824 15.2001 15.416 13.9041 11.432V72.56ZM13.9041 3.15199C13.9041 3.87199 14.0001 5.28799 14.1921 7.39999C14.4321 9.46399 15.1521 11.864 16.3521 14.6C17.6001 17.288 19.5441 20.096 22.1841 23.024C24.8721 25.952 28.6401 28.64 33.4881 31.088L33.7761 31.232C36.8001 30.656 39.1761 29.12 40.9041 26.624C42.6801 24.128 43.5681 21.152 43.5681 17.696C43.5681 15.92 43.2321 14.168 42.5601 12.44C41.9361 10.664 40.9041 9.10399 39.4641 7.75999C38.0721 6.36799 36.2481 5.26399 33.9921 4.44799C31.7841 3.58399 29.1201 3.15199 26.0001 3.15199H13.9041Z" fill="#FE79F3"/>
<path d="M59.6263 26.048C61.9783 26.048 64.3783 25.568 66.8263 24.608C69.2743 23.648 71.5063 22.472 73.5223 21.08C73.5223 23.768 73.5223 26.624 73.5223 29.648C73.4743 32.24 73.4503 35.168 73.4503 38.432C73.4503 41.696 73.4503 45.08 73.4503 48.584V60.896C73.4503 64.496 74.1703 67.112 75.6103 68.744C77.0503 70.328 78.8983 71.12 81.1543 71.12C83.1223 71.12 85.2103 70.544 87.4183 69.392C89.6743 68.24 91.7383 66.632 93.6103 64.568C95.5303 62.504 97.1383 60.08 98.4343 57.296C99.7303 54.512 100.426 51.464 100.522 48.152V43.904C100.522 41.696 100.498 39.56 100.45 37.496C100.45 35.432 100.258 33.608 99.8743 32.024C99.4903 30.44 98.8423 29.168 97.9303 28.208C97.0183 27.248 95.6743 26.768 93.8983 26.768V26.048C96.2503 26.048 98.6503 25.568 101.098 24.608C103.546 23.648 105.778 22.472 107.794 21.08C107.794 23.288 107.794 25.736 107.794 28.424C107.746 30.68 107.722 33.32 107.722 36.344C107.722 39.368 107.722 42.632 107.722 46.136C107.722 49.976 107.722 53.36 107.722 56.288C107.722 59.168 107.89 61.592 108.226 63.56C108.61 65.48 109.258 66.944 110.17 67.952C111.082 68.912 112.474 69.392 114.346 69.392V70.112C111.994 70.112 109.594 70.592 107.146 71.552C104.698 72.512 102.466 73.688 100.45 75.08C100.45 73.544 100.45 71.792 100.45 69.824C100.45 68.144 100.45 66.152 100.45 63.848C100.498 61.496 100.522 58.904 100.522 56.072C99.7543 58.232 98.6983 60.44 97.3543 62.696C96.0583 64.904 94.5223 66.944 92.7463 68.816C90.9703 70.64 88.9783 72.152 86.7703 73.352C84.6103 74.504 82.2583 75.08 79.7143 75.08C77.8903 75.08 76.3063 74.864 74.9623 74.432C73.6183 74.048 72.4423 73.52 71.4343 72.848C70.4743 72.176 69.6583 71.408 68.9863 70.544C68.3623 69.68 67.8583 68.792 67.4743 67.88C66.5623 65.768 66.1303 63.368 66.1783 60.68C66.1783 59.768 66.2023 58.736 66.2503 57.584V50.024C66.2503 46.184 66.2503 42.824 66.2503 39.944C66.2983 37.016 66.1303 34.592 65.7463 32.672C65.4103 30.704 64.7623 29.24 63.8023 28.28C62.8903 27.272 61.4983 26.768 59.6263 26.768V26.048Z" fill="#FE79F3"/>
<path d="M115.806 74V73.28C117.678 73.28 119.07 72.8 119.982 71.84C120.942 70.832 121.59 69.368 121.926 67.448C122.31 65.48 122.478 63.056 122.43 60.176C122.43 57.248 122.43 53.864 122.43 50.024C122.43 46.184 122.43 42.824 122.43 39.944C122.478 37.016 122.31 34.592 121.926 32.672C121.59 30.704 120.942 29.24 119.982 28.28C119.07 27.272 117.678 26.768 115.806 26.768V26.048C118.158 26.048 120.558 25.568 123.006 24.608C125.454 23.648 127.686 22.472 129.702 21.08C129.702 23.768 129.702 26.672 129.702 29.792C129.654 32.48 129.63 35.552 129.63 39.008C129.63 42.464 129.63 46.136 129.63 50.024C129.63 53.864 129.63 57.248 129.63 60.176C129.63 63.056 129.798 65.48 130.134 67.448C130.518 69.368 131.166 70.832 132.078 71.84C132.99 72.8 134.382 73.28 136.254 73.28V74H115.806ZM125.526 5.95999C127.35 5.95999 128.91 6.60799 130.206 7.90399C131.502 9.15199 132.15 10.688 132.15 12.512C132.15 14.336 131.502 15.896 130.206 17.192C128.91 18.488 127.35 19.136 125.526 19.136C123.702 19.136 122.142 18.488 120.846 17.192C119.598 15.896 118.974 14.336 118.974 12.512C118.974 10.688 119.598 9.15199 120.846 7.90399C122.142 6.60799 123.702 5.95999 125.526 5.95999Z" fill="#FE79F3"/>
<path d="M137.673 73.28C139.545 73.28 140.937 72.8 141.849 71.84C142.809 70.832 143.457 69.368 143.793 67.448C144.177 65.48 144.345 63.056 144.297 60.176C144.297 57.248 144.297 53.864 144.297 50.024V26.552C144.297 23.24 144.273 20.36 144.225 17.912C144.225 15.416 144.009 13.328 143.577 11.648C143.193 9.96799 142.545 8.71999 141.633 7.90399C140.721 7.03999 139.401 6.60799 137.673 6.60799V5.88799C140.025 5.88799 142.425 5.40799 144.873 4.44799C147.321 3.48799 149.553 2.31199 151.569 0.919983C151.569 3.22398 151.569 5.71999 151.569 8.40799C151.521 10.76 151.497 13.472 151.497 16.544C151.497 19.616 151.497 22.88 151.497 26.336V50.024C151.497 53.864 151.497 57.248 151.497 60.176C151.497 63.056 151.665 65.48 152.001 67.448C152.385 69.368 153.033 70.832 153.945 71.84C154.857 72.8 156.249 73.28 158.121 73.28V74H137.673V73.28Z" fill="#FE79F3"/>
<path d="M161.7 50.816C161.7 46.304 162.516 42.272 164.148 38.72C165.78 35.168 167.916 32.144 170.556 29.648C173.196 27.104 176.196 25.112 179.556 23.672C182.916 22.232 186.348 21.392 189.852 21.152C189.708 20.576 189.564 20.072 189.42 19.64C189.324 19.208 189.228 18.824 189.132 18.488C189.036 18.104 188.94 17.768 188.844 17.48C188.22 15.512 187.692 13.784 187.26 12.296C186.828 10.808 186.372 9.55999 185.892 8.55199C185.412 7.54399 184.836 6.79999 184.164 6.31999C183.492 5.79199 182.58 5.52799 181.428 5.52799C180.564 5.52799 179.748 5.62399 178.98 5.81599C178.26 5.95999 177.42 6.15199 176.46 6.39199V5.67199C177.708 5.23999 178.956 4.75999 180.204 4.23199C181.452 3.65599 182.652 3.12799 183.804 2.64799C184.956 2.16799 185.988 1.75999 186.9 1.42399C187.86 1.08799 188.628 0.919983 189.204 0.919983C189.972 0.919983 190.596 1.11198 191.076 1.49598C191.556 1.83199 191.94 2.33599 192.228 3.00799C192.564 3.63199 192.852 4.39999 193.092 5.31199C193.332 6.17599 193.596 7.11199 193.884 8.11999C194.94 12.296 196.02 16.472 197.124 20.648C198.036 24.152 199.02 27.896 200.076 31.88C201.132 35.864 202.116 39.464 203.028 42.68C203.94 45.848 204.852 49.232 205.764 52.832C206.676 56.432 207.684 59.744 208.788 62.768C209.94 65.792 211.236 68.312 212.676 70.328C214.164 72.296 215.916 73.28 217.932 73.28V74H208.572C206.652 74 205.14 73.16 204.036 71.48C202.932 69.8 201.972 67.568 201.156 64.784C199.284 67.664 196.836 70.112 193.812 72.128C190.788 74.096 187.26 75.08 183.228 75.08C179.34 75.08 176.028 74.432 173.292 73.136C170.604 71.84 168.396 70.088 166.668 67.88C164.94 65.624 163.668 63.032 162.852 60.104C162.084 57.176 161.7 54.08 161.7 50.816ZM168.324 48.656C168.324 51.536 168.66 54.416 169.332 57.296C170.004 60.128 171.036 62.696 172.428 65C173.868 67.256 175.668 69.104 177.828 70.544C179.988 71.936 182.556 72.632 185.532 72.632C187.26 72.632 188.868 72.368 190.356 71.84C191.844 71.312 193.212 70.616 194.46 69.752C195.708 68.84 196.836 67.808 197.844 66.656C198.9 65.504 199.836 64.28 200.652 62.984C200.364 61.88 200.076 60.728 199.788 59.528C199.5 58.328 199.212 57.08 198.924 55.784C197.676 50.168 196.308 44.624 194.82 39.152C193.332 33.632 191.82 28.112 190.284 22.592C186.828 22.784 183.732 23.672 180.996 25.256C178.308 26.792 176.004 28.784 174.084 31.232C172.212 33.632 170.772 36.344 169.764 39.368C168.804 42.392 168.324 45.488 168.324 48.656Z" fill="#FE79F3"/>
<path d="M219.728 74V73.28C221.6 73.28 222.992 72.8 223.904 71.84C224.864 70.832 225.512 69.368 225.848 67.448C226.232 65.48 226.4 63.056 226.352 60.176C226.352 57.248 226.352 53.864 226.352 50.024C226.352 46.184 226.352 42.824 226.352 39.944C226.4 37.016 226.232 34.592 225.848 32.672C225.512 30.704 224.864 29.24 223.904 28.28C222.992 27.272 221.6 26.768 219.728 26.768V26.048C222.08 26.048 224.48 25.568 226.928 24.608C229.376 23.648 231.608 22.472 233.624 21.08C233.624 23.768 233.624 26.672 233.624 29.792C233.576 32.48 233.552 35.552 233.552 39.008C233.552 42.464 233.552 46.136 233.552 50.024C233.552 53.864 233.552 57.248 233.552 60.176C233.552 63.056 233.72 65.48 234.056 67.448C234.44 69.368 235.088 70.832 236 71.84C236.912 72.8 238.304 73.28 240.176 73.28V74H219.728ZM229.448 5.95999C231.272 5.95999 232.832 6.60799 234.128 7.90399C235.424 9.15199 236.072 10.688 236.072 12.512C236.072 14.336 235.424 15.896 234.128 17.192C232.832 18.488 231.272 19.136 229.448 19.136C227.624 19.136 226.064 18.488 224.768 17.192C223.52 15.896 222.896 14.336 222.896 12.512C222.896 10.688 223.52 9.15199 224.768 7.90399C226.064 6.60799 227.624 5.95999 229.448 5.95999Z" fill="#FE79F3"/>
<path d="M241.595 26.048C243.947 26.048 246.347 25.568 248.795 24.608C251.243 23.648 253.475 22.472 255.491 21.08C255.491 22.76 255.491 24.632 255.491 26.696C255.443 28.424 255.419 30.488 255.419 32.888C255.419 35.24 255.419 37.808 255.419 40.592C256.139 38.432 257.075 36.2 258.227 33.896C259.379 31.592 260.723 29.504 262.259 27.632C263.795 25.712 265.499 24.152 267.371 22.952C269.243 21.704 271.259 21.08 273.419 21.08C275.483 21.08 277.187 21.8 278.531 23.24C279.875 24.632 281.003 26.408 281.915 28.568C282.827 30.728 283.595 33.08 284.219 35.624C284.843 38.12 285.467 40.472 286.091 42.68C287.003 45.848 287.915 49.232 288.827 52.832C289.739 56.432 290.747 59.744 291.851 62.768C293.003 65.792 294.299 68.312 295.739 70.328C297.227 72.296 298.979 73.28 300.995 73.28V74H291.635C290.195 74 288.995 73.544 288.035 72.632C287.123 71.672 286.307 70.376 285.587 68.744C284.915 67.064 284.291 65.12 283.715 62.912C283.187 60.704 282.611 58.328 281.987 55.784C281.459 53.624 280.883 51.248 280.259 48.656C279.635 46.016 279.059 43.616 278.531 41.456C277.955 39.2 277.379 37.136 276.803 35.264C276.227 33.392 275.579 31.784 274.859 30.44C274.187 29.096 273.419 28.04 272.555 27.272C271.739 26.504 270.803 26.12 269.747 26.12C267.923 26.12 266.147 26.912 264.419 28.496C262.739 30.032 261.227 31.952 259.883 34.256C258.539 36.56 257.459 39.032 256.643 41.672C255.827 44.264 255.419 46.616 255.419 48.728V50.024C255.419 53.864 255.419 57.248 255.419 60.176C255.419 63.056 255.587 65.48 255.923 67.448C256.307 69.368 256.955 70.832 257.867 71.84C258.779 72.8 260.171 73.28 262.043 73.28V74H241.595V73.28C243.467 73.28 244.859 72.8 245.771 71.84C246.731 70.832 247.379 69.368 247.715 67.448C248.099 65.48 248.267 63.056 248.219 60.176C248.219 57.248 248.219 53.864 248.219 50.024C248.219 46.184 248.219 42.824 248.219 39.944C248.267 37.016 248.099 34.592 247.715 32.672C247.379 30.704 246.731 29.24 245.771 28.28C244.859 27.272 243.467 26.768 241.595 26.768V26.048Z" fill="#FE79F3"/>
<path d="M296.63 44.696C296.63 41.288 297.134 38.36 298.142 35.912C299.198 33.416 300.638 31.28 302.462 29.504C304.286 27.68 306.446 26.12 308.942 24.824C311.438 23.528 314.102 22.352 316.934 21.296C319.814 20.192 322.814 19.136 325.934 18.128C329.054 17.12 332.174 16.016 335.294 14.816L336.23 17.768L320.03 22.16C323.198 22.112 326.246 22.64 329.174 23.744C332.102 24.848 334.67 26.408 336.878 28.424C339.134 30.44 340.91 32.84 342.206 35.624C343.55 38.408 344.222 41.432 344.222 44.696C344.222 47.096 343.838 49.4 343.07 51.608C342.302 53.768 341.246 55.784 339.902 57.656C338.558 59.48 336.95 61.088 335.078 62.48C333.206 63.872 331.142 64.976 328.886 65.792C325.766 67.136 322.79 68.384 319.958 69.536C317.126 70.688 314.63 71.816 312.47 72.92C310.31 74.024 308.582 75.104 307.286 76.16C305.99 77.216 305.342 78.32 305.342 79.472C305.342 80.288 305.606 80.912 306.134 81.344C306.71 81.824 307.43 82.064 308.294 82.064C310.694 82.064 313.022 81.488 315.278 80.336C317.582 79.184 319.934 77.888 322.334 76.448C324.782 75.056 327.35 73.784 330.038 72.632C332.774 71.48 335.726 70.904 338.894 70.904C341.486 70.904 343.502 71.648 344.942 73.136C346.43 74.624 347.174 76.424 347.174 78.536C347.174 80.792 346.478 82.616 345.086 84.008C343.694 85.448 341.918 86.6 339.758 87.464C337.598 88.376 335.222 89.12 332.63 89.696C330.038 90.32 327.566 90.968 325.214 91.64C322.862 92.312 320.774 93.08 318.95 93.944C317.174 94.856 315.974 96.08 315.35 97.616C315.158 98.096 315.014 98.624 314.918 99.2C314.87 99.776 314.774 100.304 314.63 100.784C314.534 101.312 314.366 101.744 314.126 102.08C313.886 102.416 313.502 102.584 312.974 102.584C312.446 102.584 311.966 102.392 311.534 102.008C311.15 101.624 310.958 101.096 310.958 100.424C310.958 98.264 311.75 96.512 313.334 95.168C314.966 93.824 316.982 92.696 319.382 91.784C321.782 90.872 324.374 90.104 327.158 89.48C329.99 88.856 332.606 88.184 335.006 87.464C337.454 86.744 339.47 85.88 341.054 84.872C342.686 83.912 343.502 82.64 343.502 81.056C343.502 80.192 343.166 79.352 342.494 78.536C341.87 77.768 340.79 77.384 339.254 77.384C336.854 77.384 334.406 77.96 331.91 79.112C329.414 80.264 326.846 81.536 324.206 82.928C321.614 84.368 318.95 85.664 316.214 86.816C313.478 87.968 310.646 88.544 307.718 88.544C305.366 88.544 303.398 87.944 301.814 86.744C300.278 85.592 299.51 84.008 299.51 81.992C299.51 80.168 300.206 78.584 301.598 77.24C303.038 75.896 304.814 74.696 306.926 73.64C309.038 72.536 311.318 71.504 313.766 70.544C316.262 69.536 318.59 68.456 320.75 67.304C317.582 67.352 314.534 66.824 311.606 65.72C308.726 64.568 306.158 62.984 303.902 60.968C301.694 58.952 299.918 56.552 298.574 53.768C297.278 50.984 296.63 47.96 296.63 44.696ZM302.678 40.376C302.678 43.448 303.302 46.424 304.55 49.304C305.846 52.136 307.55 54.656 309.662 56.864C311.774 59.072 314.222 60.848 317.006 62.192C319.79 63.488 322.718 64.136 325.79 64.136C327.806 64.136 329.582 63.752 331.118 62.984C332.654 62.168 333.926 61.064 334.934 59.672C335.99 58.28 336.782 56.648 337.31 54.776C337.838 52.856 338.102 50.816 338.102 48.656C338.102 45.584 337.478 42.632 336.23 39.8C334.982 36.92 333.278 34.376 331.118 32.168C329.006 29.96 326.558 28.208 323.774 26.912C320.99 25.568 318.062 24.896 314.99 24.896C312.974 24.896 311.198 25.304 309.662 26.12C308.126 26.888 306.83 27.968 305.774 29.36C304.766 30.752 303.998 32.384 303.47 34.256C302.942 36.128 302.678 38.168 302.678 40.376Z" fill="#FE79F3"/>
<path d="M373.439 1.99999H400.799V2.71999C399.791 2.71999 398.807 2.76799 397.847 2.86399C396.935 2.91199 396.071 3.07999 395.255 3.36799C394.487 3.65599 393.815 4.06399 393.239 4.59199C392.663 5.11999 392.231 5.86399 391.943 6.82399C391.415 8.55199 391.511 10.976 392.231 14.096C392.951 17.168 394.079 21.272 395.615 26.408C396.335 28.76 397.295 31.856 398.495 35.696C399.743 39.536 401.015 43.592 402.311 47.864C403.655 52.136 404.975 56.36 406.271 60.536C407.567 64.664 408.647 68.216 409.511 71.192C410.135 68.984 410.855 66.296 411.671 63.128C412.487 59.96 413.327 56.6 414.191 53.048C415.055 49.448 415.919 45.824 416.783 42.176C417.695 38.528 418.511 35.12 419.231 31.952C419.999 28.736 420.647 25.904 421.175 23.456C421.703 21.008 422.063 19.232 422.255 18.128C422.735 15.392 422.975 13.064 422.975 11.144C422.975 9.17599 422.615 7.56799 421.895 6.31999C421.175 5.07199 420.023 4.15999 418.439 3.58399C416.903 3.00799 414.767 2.71999 412.031 2.71999V1.99999H439.391V2.71999C437.519 2.71999 435.911 3.31999 434.567 4.51999C433.271 5.67199 432.095 7.32799 431.039 9.48799C429.983 11.6 428.975 14.12 428.015 17.048C427.103 19.976 426.095 23.216 424.991 26.768C424.415 28.64 423.743 30.824 422.975 33.32C422.207 35.768 421.391 38.36 420.527 41.096C419.711 43.784 418.871 46.544 418.007 49.376C417.143 52.208 416.303 54.92 415.487 57.512C414.671 60.104 413.927 62.528 413.255 64.784C412.583 66.992 412.007 68.84 411.527 70.328C411.335 70.904 411.167 71.432 411.023 71.912C410.927 72.344 410.831 72.704 410.735 72.992C410.639 73.376 410.543 73.712 410.447 74H402.383C402.287 73.712 402.191 73.376 402.095 72.992C401.999 72.704 401.879 72.344 401.735 71.912C401.639 71.432 401.495 70.904 401.303 70.328C400.823 68.84 400.247 66.992 399.575 64.784C398.903 62.528 398.159 60.104 397.343 57.512C396.527 54.92 395.687 52.208 394.823 49.376C393.959 46.544 393.095 43.784 392.231 41.096C391.415 38.36 390.623 35.768 389.855 33.32C389.087 30.824 388.415 28.64 387.839 26.768C386.735 23.216 385.703 19.976 384.743 17.048C383.831 14.12 382.847 11.6 381.791 9.48799C380.735 7.32799 379.535 5.67199 378.191 4.51999C376.895 3.31999 375.311 2.71999 373.439 2.71999V1.99999Z" fill="#FE79F3"/>
<path d="M429.661 48.08C429.661 44.336 430.381 40.832 431.821 37.568C433.261 34.304 435.205 31.448 437.653 29C440.149 26.552 443.029 24.632 446.293 23.24C449.605 21.8 453.109 21.08 456.805 21.08C460.501 21.08 463.669 21.632 466.309 22.736C468.949 23.84 471.109 25.208 472.789 26.84C474.469 28.424 475.693 30.152 476.461 32.024C477.277 33.896 477.685 35.6 477.685 37.136C477.685 38.672 477.397 39.92 476.821 40.88C476.245 41.84 475.501 42.608 474.589 43.184C473.677 43.712 472.645 44.072 471.493 44.264C470.389 44.456 469.285 44.552 468.181 44.552H435.781C435.781 48.008 436.453 51.248 437.797 54.272C439.141 57.248 440.941 59.84 443.197 62.048C445.501 64.256 448.141 65.984 451.117 67.232C454.093 68.48 457.237 69.104 460.549 69.104C462.997 69.104 465.301 68.768 467.461 68.096C469.621 67.376 471.565 66.44 473.293 65.288C475.069 64.088 476.581 62.696 477.829 61.112C479.125 59.48 480.133 57.776 480.853 56L481.573 56.288C480.853 59.024 479.701 61.544 478.117 63.848C476.581 66.104 474.709 68.072 472.501 69.752C470.341 71.432 467.917 72.752 465.229 73.712C462.589 74.624 459.781 75.08 456.805 75.08C453.109 75.08 449.605 74.384 446.293 72.992C443.029 71.552 440.149 69.608 437.653 67.16C435.205 64.712 433.261 61.856 431.821 58.592C430.381 55.328 429.661 51.824 429.661 48.08ZM455.221 42.68C457.093 42.68 458.917 42.632 460.693 42.536C462.517 42.44 464.125 42.176 465.517 41.744C466.957 41.312 468.109 40.664 468.973 39.8C469.885 38.936 470.341 37.736 470.341 36.2C470.341 34.232 469.933 32.48 469.117 30.944C468.349 29.408 467.221 28.088 465.733 26.984C464.293 25.88 462.541 25.04 460.477 24.464C458.461 23.888 456.205 23.6 453.709 23.6C451.021 23.6 448.597 24.08 446.437 25.04C444.325 25.952 442.501 27.248 440.965 28.928C439.429 30.608 438.205 32.648 437.293 35.048C436.429 37.448 435.925 40.112 435.781 43.04C437.557 42.992 439.189 42.944 440.677 42.896C442.213 42.848 443.725 42.824 445.213 42.824C446.701 42.776 448.237 42.752 449.821 42.752C451.453 42.704 453.253 42.68 455.221 42.68Z" fill="#FE79F3"/>
<path d="M483.4 26.048C485.752 26.048 488.152 25.568 490.6 24.608C493.048 23.648 495.28 22.472 497.296 21.08C497.296 22.76 497.296 24.632 497.296 26.696C497.248 28.424 497.224 30.488 497.224 32.888C497.224 35.24 497.224 37.808 497.224 40.592C497.944 38.432 498.88 36.2 500.032 33.896C501.184 31.592 502.528 29.504 504.064 27.632C505.6 25.712 507.304 24.152 509.176 22.952C511.048 21.704 513.064 21.08 515.224 21.08C517.288 21.08 518.992 21.8 520.336 23.24C521.68 24.632 522.808 26.408 523.72 28.568C524.632 30.728 525.4 33.08 526.024 35.624C526.648 38.12 527.272 40.472 527.896 42.68C528.808 45.848 529.72 49.232 530.632 52.832C531.544 56.432 532.552 59.744 533.656 62.768C534.808 65.792 536.104 68.312 537.544 70.328C539.032 72.296 540.784 73.28 542.8 73.28V74H533.44C532 74 530.8 73.544 529.84 72.632C528.928 71.672 528.112 70.376 527.392 68.744C526.72 67.064 526.096 65.12 525.52 62.912C524.992 60.704 524.416 58.328 523.792 55.784C523.264 53.624 522.688 51.248 522.064 48.656C521.44 46.016 520.864 43.616 520.336 41.456C519.76 39.2 519.184 37.136 518.608 35.264C518.032 33.392 517.384 31.784 516.664 30.44C515.992 29.096 515.224 28.04 514.36 27.272C513.544 26.504 512.608 26.12 511.552 26.12C509.728 26.12 507.952 26.912 506.224 28.496C504.544 30.032 503.032 31.952 501.688 34.256C500.344 36.56 499.264 39.032 498.448 41.672C497.632 44.264 497.224 46.616 497.224 48.728V50.024C497.224 53.864 497.224 57.248 497.224 60.176C497.224 63.056 497.392 65.48 497.728 67.448C498.112 69.368 498.76 70.832 499.672 71.84C500.584 72.8 501.976 73.28 503.848 73.28V74H483.4V73.28C485.272 73.28 486.664 72.8 487.576 71.84C488.536 70.832 489.184 69.368 489.52 67.448C489.904 65.48 490.072 63.056 490.024 60.176C490.024 57.248 490.024 53.864 490.024 50.024C490.024 46.184 490.024 42.824 490.024 39.944C490.072 37.016 489.904 34.592 489.52 32.672C489.184 30.704 488.536 29.24 487.576 28.28C486.664 27.272 485.272 26.768 483.4 26.768V26.048Z" fill="#FE79F3"/>
<path d="M552.494 24.32V63.128C552.494 64.136 552.566 65.192 552.71 66.296C552.902 67.4 553.19 68.432 553.574 69.392C553.958 70.352 554.486 71.144 555.158 71.768C555.878 72.392 556.742 72.704 557.75 72.704C559.478 72.704 561.014 72.272 562.358 71.408C563.702 70.496 564.782 69.368 565.598 68.024L566.318 68.528C565.982 69.152 565.478 69.848 564.806 70.616C564.134 71.336 563.342 72.032 562.43 72.704C561.566 73.376 560.582 73.928 559.478 74.36C558.374 74.84 557.246 75.08 556.094 75.08C553.934 75.08 552.158 74.72 550.766 74C549.374 73.232 548.27 72.248 547.454 71.048C546.638 69.8 546.062 68.384 545.726 66.8C545.438 65.168 545.294 63.464 545.294 61.688V24.32H537.734V22.16C538.886 22.16 540.182 21.656 541.622 20.648C543.062 19.64 544.454 18.368 545.798 16.832C547.142 15.296 548.366 13.64 549.47 11.864C550.574 10.088 551.366 8.43199 551.846 6.89599H552.566C552.566 8.14399 552.566 9.55999 552.566 11.144C552.518 12.536 552.494 14.168 552.494 16.04C552.494 17.864 552.494 19.904 552.494 22.16H563.942V24.32H552.494Z" fill="#FE79F3"/>
<path d="M567.072 26.048C569.424 26.048 571.824 25.568 574.272 24.608C576.72 23.648 578.952 22.472 580.968 21.08C580.968 23.768 580.968 26.624 580.968 29.648C580.92 32.24 580.896 35.168 580.896 38.432C580.896 41.696 580.896 45.08 580.896 48.584V60.896C580.896 64.496 581.616 67.112 583.056 68.744C584.496 70.328 586.344 71.12 588.6 71.12C590.568 71.12 592.656 70.544 594.864 69.392C597.12 68.24 599.184 66.632 601.056 64.568C602.976 62.504 604.584 60.08 605.88 57.296C607.176 54.512 607.872 51.464 607.968 48.152V43.904C607.968 41.696 607.944 39.56 607.896 37.496C607.896 35.432 607.704 33.608 607.32 32.024C606.936 30.44 606.288 29.168 605.376 28.208C604.464 27.248 603.12 26.768 601.344 26.768V26.048C603.696 26.048 606.096 25.568 608.544 24.608C610.992 23.648 613.224 22.472 615.24 21.08C615.24 23.288 615.24 25.736 615.24 28.424C615.192 30.68 615.168 33.32 615.168 36.344C615.168 39.368 615.168 42.632 615.168 46.136C615.168 49.976 615.168 53.36 615.168 56.288C615.168 59.168 615.336 61.592 615.672 63.56C616.056 65.48 616.704 66.944 617.616 67.952C618.528 68.912 619.92 69.392 621.792 69.392V70.112C619.44 70.112 617.04 70.592 614.592 71.552C612.144 72.512 609.912 73.688 607.896 75.08C607.896 73.544 607.896 71.792 607.896 69.824C607.896 68.144 607.896 66.152 607.896 63.848C607.944 61.496 607.968 58.904 607.968 56.072C607.2 58.232 606.144 60.44 604.8 62.696C603.504 64.904 601.968 66.944 600.192 68.816C598.416 70.64 596.424 72.152 594.216 73.352C592.056 74.504 589.704 75.08 587.16 75.08C585.336 75.08 583.752 74.864 582.408 74.432C581.064 74.048 579.888 73.52 578.88 72.848C577.92 72.176 577.104 71.408 576.432 70.544C575.808 69.68 575.304 68.792 574.92 67.88C574.008 65.768 573.576 63.368 573.624 60.68C573.624 59.768 573.648 58.736 573.696 57.584V50.024C573.696 46.184 573.696 42.824 573.696 39.944C573.744 37.016 573.576 34.592 573.192 32.672C572.856 30.704 572.208 29.24 571.248 28.28C570.336 27.272 568.944 26.768 567.072 26.768V26.048Z" fill="#FE79F3"/>
<path d="M623.251 26.048C625.603 26.048 628.003 25.568 630.451 24.608C632.899 23.648 635.131 22.472 637.147 21.08C637.147 23 637.147 25.112 637.147 27.416C637.099 29.384 637.075 31.688 637.075 34.328C637.075 36.92 637.075 39.752 637.075 42.824C637.171 40.28 637.771 37.736 638.875 35.192C640.027 32.6 641.539 30.272 643.411 28.208C645.283 26.096 647.443 24.392 649.891 23.096C652.339 21.752 654.931 21.08 657.667 21.08C658.531 21.08 659.515 21.128 660.619 21.224C661.771 21.32 662.707 21.632 663.427 22.16C664.195 24.32 664.003 26.024 662.851 27.272C661.747 28.52 660.163 29.144 658.099 29.144C657.379 29.144 656.731 29.072 656.155 28.928C655.579 28.784 655.003 28.616 654.427 28.424C653.851 28.232 653.203 28.064 652.483 27.92C651.811 27.776 650.947 27.704 649.891 27.704C647.827 27.704 646.003 28.4 644.419 29.792C642.835 31.184 641.491 33.032 640.387 35.336C639.331 37.64 638.515 40.28 637.939 43.256C637.363 46.184 637.075 49.208 637.075 52.328C637.075 55.592 637.075 58.52 637.075 61.112C637.075 63.704 637.243 65.912 637.579 67.736C637.963 69.512 638.611 70.88 639.523 71.84C640.435 72.8 641.827 73.28 643.699 73.28V74H623.251V73.28C625.123 73.28 626.515 72.8 627.427 71.84C628.387 70.832 629.035 69.368 629.371 67.448C629.755 65.48 629.923 63.056 629.875 60.176C629.875 57.248 629.875 53.864 629.875 50.024C629.875 46.184 629.875 42.824 629.875 39.944C629.923 37.016 629.755 34.592 629.371 32.672C629.035 30.704 628.387 29.24 627.427 28.28C626.515 27.272 625.123 26.768 623.251 26.768V26.048Z" fill="#FE79F3"/>
<path d="M661.693 48.08C661.693 44.336 662.413 40.832 663.853 37.568C665.293 34.304 667.237 31.448 669.685 29C672.181 26.552 675.061 24.632 678.325 23.24C681.637 21.8 685.141 21.08 688.837 21.08C692.533 21.08 695.701 21.632 698.341 22.736C700.981 23.84 703.141 25.208 704.821 26.84C706.501 28.424 707.725 30.152 708.493 32.024C709.309 33.896 709.717 35.6 709.717 37.136C709.717 38.672 709.429 39.92 708.853 40.88C708.277 41.84 707.533 42.608 706.621 43.184C705.709 43.712 704.677 44.072 703.525 44.264C702.421 44.456 701.317 44.552 700.213 44.552H667.813C667.813 48.008 668.485 51.248 669.829 54.272C671.173 57.248 672.973 59.84 675.229 62.048C677.533 64.256 680.173 65.984 683.149 67.232C686.125 68.48 689.269 69.104 692.581 69.104C695.029 69.104 697.333 68.768 699.493 68.096C701.653 67.376 703.597 66.44 705.325 65.288C707.101 64.088 708.613 62.696 709.861 61.112C711.157 59.48 712.165 57.776 712.885 56L713.605 56.288C712.885 59.024 711.733 61.544 710.149 63.848C708.613 66.104 706.741 68.072 704.533 69.752C702.373 71.432 699.949 72.752 697.261 73.712C694.621 74.624 691.813 75.08 688.837 75.08C685.141 75.08 681.637 74.384 678.325 72.992C675.061 71.552 672.181 69.608 669.685 67.16C667.237 64.712 665.293 61.856 663.853 58.592C662.413 55.328 661.693 51.824 661.693 48.08ZM687.253 42.68C689.125 42.68 690.949 42.632 692.725 42.536C694.549 42.44 696.157 42.176 697.549 41.744C698.989 41.312 700.141 40.664 701.005 39.8C701.917 38.936 702.373 37.736 702.373 36.2C702.373 34.232 701.965 32.48 701.149 30.944C700.381 29.408 699.253 28.088 697.765 26.984C696.325 25.88 694.573 25.04 692.509 24.464C690.493 23.888 688.237 23.6 685.741 23.6C683.053 23.6 680.629 24.08 678.469 25.04C676.357 25.952 674.533 27.248 672.997 28.928C671.461 30.608 670.237 32.648 669.325 35.048C668.461 37.448 667.957 40.112 667.813 43.04C669.589 42.992 671.221 42.944 672.709 42.896C674.245 42.848 675.757 42.824 677.245 42.824C678.733 42.776 680.269 42.752 681.853 42.752C683.485 42.704 685.285 42.68 687.253 42.68Z" fill="#FE79F3"/>
<path d="M740.127 21.08C744.159 21.08 747.735 21.584 750.855 22.592C753.975 23.552 756.927 25.112 759.711 27.272C759.951 28.712 759.615 29.936 758.703 30.944C757.791 31.952 756.591 32.456 755.103 32.456C753.519 32.456 752.151 31.976 750.999 31.016C749.895 30.008 748.695 28.904 747.399 27.704C746.103 26.504 744.567 25.424 742.791 24.464C741.063 23.456 738.783 22.952 735.951 22.952C734.655 22.952 733.263 23.168 731.775 23.6C730.287 23.984 728.919 24.584 727.671 25.4C726.423 26.216 725.391 27.248 724.575 28.496C723.759 29.696 723.351 31.112 723.351 32.744C723.351 35.384 724.287 37.4 726.159 38.792C728.079 40.136 730.455 41.24 733.287 42.104C736.167 42.968 739.263 43.736 742.575 44.408C745.935 45.08 749.031 46.016 751.863 47.216C754.743 48.368 757.119 50 758.991 52.112C760.911 54.176 761.871 57.032 761.871 60.68C761.871 63.176 761.223 65.336 759.927 67.16C758.679 68.984 757.023 70.496 754.959 71.696C752.895 72.848 750.591 73.688 748.047 74.216C745.551 74.792 743.031 75.08 740.487 75.08C738.135 75.08 736.023 74.936 734.151 74.648C732.327 74.408 730.599 74.024 728.967 73.496C727.335 72.968 725.727 72.272 724.143 71.408C722.607 70.544 720.951 69.512 719.175 68.312V53.48H719.895C720.423 56.216 721.311 58.808 722.559 61.256C723.807 63.656 725.367 65.768 727.239 67.592C729.111 69.416 731.247 70.856 733.647 71.912C736.095 72.968 738.759 73.496 741.639 73.496C743.463 73.496 745.263 73.256 747.039 72.776C748.863 72.296 750.471 71.6 751.863 70.688C753.303 69.728 754.455 68.552 755.319 67.16C756.231 65.72 756.687 64.088 756.687 62.264C756.687 60.392 756.111 58.856 754.959 57.656C753.855 56.408 752.391 55.376 750.567 54.56C748.743 53.696 746.655 52.976 744.303 52.4C741.951 51.824 739.551 51.248 737.103 50.672C734.703 50.048 732.327 49.376 729.975 48.656C727.623 47.936 725.535 47.024 723.711 45.92C721.887 44.816 720.399 43.448 719.247 41.816C718.143 40.184 717.591 38.192 717.591 35.84C717.591 33.296 718.287 31.112 719.679 29.288C721.071 27.416 722.847 25.88 725.007 24.68C727.215 23.48 729.639 22.592 732.279 22.016C734.967 21.392 737.583 21.08 740.127 21.08Z" fill="#FE79F3"/>
</svg>
