<svg width="676" height="133" viewBox="0 0 676 133" fill="none" xmlns="http://www.w3.org/2000/svg">
<path d="M0.627441 98.0001V97.0401C3.12344 97.0401 4.97944 96.4001 6.19544 95.1201C7.47544 93.7761 8.33944 91.8241 8.78744 89.2641C9.29944 86.6401 9.52344 83.4081 9.45944 79.5681C9.45944 75.6641 9.45944 71.1521 9.45944 66.0321V33.9681C9.45944 28.8481 9.45944 24.3681 9.45944 20.5281C9.52344 16.6241 9.29944 13.3921 8.78744 10.8321C8.33944 8.20806 7.47544 6.25606 6.19544 4.97606C4.97944 3.63206 3.12344 2.96006 0.627441 2.96006V2.00007H19.0594V42.3201C19.3794 37.8401 20.4674 33.1681 22.3234 28.3041C24.2434 23.3761 26.9314 18.8641 30.3874 14.7681C33.9074 10.6721 38.1954 7.28006 43.2514 4.59206C48.3714 1.90406 54.2274 0.560059 60.8194 0.560059C63.1234 0.560059 65.4914 0.688061 67.9234 0.944065C70.4194 1.13607 72.3714 1.48807 73.7794 2.00007V11.0241C71.4754 10.4481 68.9474 10.0001 66.1954 9.68007C63.4434 9.29606 60.7234 9.10406 58.0354 9.10406C51.6994 9.10406 46.1954 10.1601 41.5234 12.2721C36.8514 14.3201 32.9154 17.1361 29.7154 20.7201C26.5794 24.2401 24.1474 28.3681 22.4194 33.1041C20.6914 37.7761 19.6354 42.7681 19.2514 48.0801H68.9794V50.0001H19.1554C19.0914 50.5121 19.0594 51.0561 19.0594 51.6321C19.0594 52.1441 19.0594 52.6561 19.0594 53.1681V96.0801H27.3154C32.5634 96.0801 37.6514 95.8241 42.5794 95.3121C47.5074 94.7361 52.1154 93.7761 56.4034 92.4321C60.7554 91.0881 64.6914 89.2641 68.2114 86.9601C71.7314 84.5921 74.7394 81.5841 77.2354 77.9361H77.7154L70.7075 98.0001H0.627441Z" fill="#FE79F3"/>
<path d="M106.742 28.8801V29.8401C105.526 29.8401 104.502 30.1281 103.67 30.7041C102.902 31.2801 102.486 32.2721 102.422 33.6801C102.358 34.8321 102.838 36.4641 103.862 38.5761C104.95 40.6881 106.294 43.0241 107.894 45.5841C109.558 48.1441 111.318 50.8001 113.174 53.5521C115.03 56.2401 116.758 58.7681 118.358 61.1361C119.83 58.8321 121.302 56.4641 122.774 54.0321C124.31 51.6001 125.686 49.2641 126.902 47.0241C128.118 44.7201 129.11 42.5761 129.878 40.5921C130.646 38.6081 131.03 36.9121 131.03 35.5041C131.03 34.2881 130.838 33.3281 130.454 32.6241C130.07 31.8561 129.59 31.2801 129.014 30.8961C128.438 30.4481 127.798 30.1601 127.094 30.0321C126.39 29.9041 125.75 29.8401 125.174 29.8401V28.8801H149.654V29.8401C147.286 29.8401 144.822 30.8321 142.262 32.8161C139.766 34.8001 137.238 37.3921 134.678 40.5921C132.182 43.7281 129.654 47.2801 127.094 51.2481C124.534 55.1521 122.006 59.0561 119.51 62.9601C122.07 66.8641 124.63 70.8641 127.19 74.9601C129.814 78.9921 132.438 82.6401 135.062 85.9041C137.686 89.1681 140.278 91.8561 142.838 93.9681C145.398 96.0161 147.894 97.0401 150.326 97.0401V98.0001H121.334V97.0401C122.55 97.0401 123.542 96.7521 124.31 96.1761C125.142 95.5361 125.59 94.5121 125.654 93.1041C125.718 91.9521 125.206 90.3521 124.118 88.3041C123.094 86.1921 121.782 83.8881 120.182 81.3921C118.582 78.8321 116.854 76.2081 114.998 73.5201C113.142 70.8321 111.414 68.3041 109.814 65.9361C108.342 68.1761 106.838 70.5121 105.302 72.9441C103.83 75.3761 102.486 77.7441 101.27 80.0481C100.118 82.2881 99.1579 84.4001 98.3899 86.3841C97.6219 88.3681 97.2379 90.0321 97.2379 91.3761C97.2379 93.7441 97.9099 95.2801 99.2539 95.9841C100.598 96.6881 101.878 97.0401 103.094 97.0401V98.0001H78.6139V97.0401C80.9819 97.0401 83.4139 96.0481 85.9099 94.0641C88.4059 92.0801 90.9019 89.5201 93.3979 86.3841C95.9579 83.2481 98.5179 79.7281 101.078 75.8241C103.638 71.9201 106.166 68.0161 108.662 64.1121C106.102 60.1441 103.51 56.1441 100.886 52.1121C98.2619 48.0161 95.6379 44.3361 93.0139 41.0721C90.4539 37.7441 87.8619 35.0561 85.2379 33.0081C82.6779 30.8961 80.1819 29.8401 77.7499 29.8401V28.8801H106.742Z" fill="#FE79F3"/>
<path d="M151.272 34.0641C154.408 34.0641 157.608 33.4241 160.872 32.1441C164.136 30.8641 167.112 29.2961 169.8 27.4401C169.8 28.5281 169.8 29.7761 169.8 31.1841C169.8 32.4641 169.8 33.9681 169.8 35.6961C169.8 37.3601 169.768 39.2481 169.704 41.3601C172.264 37.3281 175.528 34.0001 179.496 31.3761C183.528 28.7521 188.168 27.4401 193.416 27.4401C198.152 27.4401 202.344 28.3041 205.992 30.0321C209.704 31.6961 212.808 34.0001 215.304 36.9441C217.864 39.8881 219.784 43.3441 221.064 47.3121C222.408 51.2801 223.08 55.5361 223.08 60.0801C223.08 65.2641 222.056 70.2241 220.008 74.9601C217.96 79.6961 215.144 83.8881 211.56 87.5361C208.04 91.1201 203.848 94.0001 198.984 96.1761C194.184 98.3521 189 99.4401 183.432 99.4401C180.616 99.4401 178.184 99.2161 176.136 98.7681C174.152 98.3201 172.008 97.4561 169.704 96.1761V100.784C169.704 105.904 169.704 110.384 169.704 114.224C169.704 118.128 169.928 121.36 170.376 123.92C170.888 126.544 171.752 128.496 172.968 129.776C174.184 131.12 176.04 131.792 178.536 131.792V132.752H151.272V131.792C153.768 131.792 155.624 131.12 156.84 129.776C158.12 128.496 158.984 126.544 159.432 123.92C159.944 121.36 160.168 118.128 160.104 114.224C160.104 110.384 160.104 105.904 160.104 100.784V61.6161C160.104 57.3281 160.072 53.5521 160.008 50.2881C159.944 46.9601 159.656 44.1761 159.144 41.9361C158.632 39.6321 157.768 37.9041 156.552 36.7521C155.336 35.6001 153.576 35.0241 151.272 35.0241V34.0641ZM184.488 97.3281C189.032 97.3281 193.096 96.3041 196.68 94.2561C200.264 92.2081 203.272 89.5201 205.704 86.1921C208.2 82.8641 210.088 79.0561 211.368 74.7681C212.712 70.4801 213.384 66.0961 213.384 61.6161C213.384 57.4561 212.904 53.5201 211.944 49.8081C211.048 46.0961 209.672 42.8321 207.816 40.0161C205.96 37.1361 203.624 34.8321 200.808 33.1041C197.992 31.3761 194.664 30.4481 190.824 30.3201C188.264 30.2561 185.896 30.6401 183.72 31.4721C181.608 32.3041 179.656 33.4561 177.864 34.9281C176.136 36.4001 174.568 38.1601 173.16 40.2081C171.816 42.1921 170.664 44.3361 169.704 46.6401V89.7441C171.496 91.6641 173.672 93.4241 176.232 95.0241C178.856 96.5601 181.608 97.3281 184.488 97.3281Z" fill="#FE79F3"/>
<path d="M230.746 63.4401C230.746 58.4481 231.706 53.7761 233.626 49.4241C235.546 45.0721 238.138 41.2641 241.402 38.0001C244.73 34.7361 248.57 32.1761 252.922 30.3201C257.338 28.4001 262.01 27.4401 266.938 27.4401C271.866 27.4401 276.09 28.1761 279.61 29.6481C283.13 31.1201 286.01 32.9441 288.25 35.1201C290.49 37.2321 292.122 39.5361 293.146 42.0321C294.234 44.5281 294.778 46.8001 294.778 48.8481C294.778 50.8961 294.394 52.5601 293.626 53.8401C292.858 55.1201 291.866 56.1441 290.65 56.9121C289.434 57.6161 288.058 58.0961 286.522 58.3521C285.05 58.6081 283.578 58.7361 282.106 58.7361H238.906C238.906 63.3441 239.802 67.6641 241.594 71.6961C243.386 75.6641 245.786 79.1201 248.794 82.0641C251.866 85.0081 255.386 87.3121 259.354 88.9761C263.322 90.6401 267.514 91.4721 271.93 91.4721C275.194 91.4721 278.266 91.0241 281.146 90.1281C284.026 89.1681 286.618 87.9201 288.922 86.3841C291.29 84.7841 293.306 82.9281 294.97 80.8161C296.698 78.6401 298.042 76.3681 299.002 74.0001L299.962 74.3841C299.002 78.0321 297.466 81.3921 295.354 84.4641C293.306 87.4721 290.81 90.0961 287.866 92.3361C284.986 94.5761 281.754 96.3361 278.17 97.6161C274.65 98.8321 270.906 99.4401 266.938 99.4401C262.01 99.4401 257.338 98.5121 252.922 96.6561C248.57 94.7361 244.73 92.1441 241.402 88.8801C238.138 85.6161 235.546 81.8081 233.626 77.4561C231.706 73.1041 230.746 68.4321 230.746 63.4401ZM264.826 56.2401C267.322 56.2401 269.754 56.1761 272.122 56.0481C274.554 55.9201 276.698 55.5681 278.554 54.9921C280.474 54.4161 282.01 53.5521 283.162 52.4001C284.378 51.2481 284.986 49.6481 284.986 47.6001C284.986 44.9761 284.442 42.6401 283.354 40.5921C282.33 38.5441 280.826 36.7841 278.842 35.3121C276.922 33.8401 274.586 32.7201 271.834 31.9521C269.146 31.1841 266.138 30.8001 262.81 30.8001C259.226 30.8001 255.994 31.4401 253.114 32.7201C250.298 33.9361 247.866 35.6641 245.818 37.9041C243.77 40.1441 242.138 42.8641 240.922 46.0641C239.77 49.2641 239.098 52.8161 238.906 56.7201C241.274 56.6561 243.45 56.5921 245.434 56.5281C247.482 56.4641 249.498 56.4321 251.482 56.4321C253.466 56.3681 255.514 56.3361 257.626 56.3361C259.802 56.2721 262.202 56.2401 264.826 56.2401Z" fill="#FE79F3"/>
<path d="M295.554 34.0641C298.69 34.0641 301.89 33.4241 305.154 32.1441C308.418 30.8641 311.394 29.2961 314.082 27.4401C314.082 30.0001 314.082 32.8161 314.082 35.8881C314.018 38.5121 313.986 41.5841 313.986 45.1041C313.986 48.5601 313.986 52.3361 313.986 56.4321C314.114 53.0401 314.914 49.6481 316.386 46.2561C317.922 42.8001 319.938 39.6961 322.434 36.9441C324.93 34.1281 327.81 31.8561 331.074 30.1281C334.338 28.3361 337.794 27.4401 341.442 27.4401C342.594 27.4401 343.906 27.5041 345.378 27.6321C346.914 27.7601 348.162 28.1761 349.122 28.8801C350.146 31.7601 349.89 34.0321 348.354 35.6961C346.882 37.3601 344.77 38.1921 342.018 38.1921C341.058 38.1921 340.194 38.0961 339.426 37.9041C338.658 37.7121 337.89 37.4881 337.122 37.2321C336.354 36.9761 335.49 36.7521 334.53 36.5601C333.634 36.3681 332.482 36.2721 331.074 36.2721C328.322 36.2721 325.89 37.2001 323.778 39.0561C321.666 40.9121 319.874 43.3761 318.402 46.4481C316.994 49.5201 315.906 53.0401 315.138 57.0081C314.37 60.9121 313.986 64.9441 313.986 69.1041C313.986 73.4561 313.986 77.3601 313.986 80.8161C313.986 84.2721 314.21 87.2161 314.658 89.6481C315.17 92.0161 316.034 93.8401 317.25 95.1201C318.466 96.4001 320.322 97.0401 322.818 97.0401V98.0001H295.554V97.0401C298.05 97.0401 299.906 96.4001 301.122 95.1201C302.402 93.7761 303.266 91.8241 303.714 89.2641C304.226 86.6401 304.45 83.4081 304.386 79.5681C304.386 75.6641 304.386 71.1521 304.386 66.0321C304.386 60.9121 304.386 56.4321 304.386 52.5921C304.45 48.6881 304.226 45.4561 303.714 42.8961C303.266 40.2721 302.402 38.3201 301.122 37.0401C299.906 35.6961 298.05 35.0241 295.554 35.0241V34.0641Z" fill="#FE79F3"/>
<path d="M351.616 98.0001V97.0401C354.112 97.0401 355.968 96.4001 357.184 95.1201C358.464 93.7761 359.328 91.8241 359.776 89.2641C360.288 86.6401 360.512 83.4081 360.448 79.5681C360.448 75.6641 360.448 71.1521 360.448 66.0321C360.448 60.9121 360.448 56.4321 360.448 52.5921C360.512 48.6881 360.288 45.4561 359.776 42.8961C359.328 40.2721 358.464 38.3201 357.184 37.0401C355.968 35.6961 354.112 35.0241 351.616 35.0241V34.0641C354.752 34.0641 357.952 33.4241 361.216 32.1441C364.48 30.8641 367.456 29.2961 370.144 27.4401C370.144 31.0241 370.144 34.8961 370.144 39.0561C370.08 42.6401 370.048 46.7361 370.048 51.3441C370.048 55.9521 370.048 60.8481 370.048 66.0321C370.048 71.1521 370.048 75.6641 370.048 79.5681C370.048 83.4081 370.272 86.6401 370.72 89.2641C371.232 91.8241 372.096 93.7761 373.312 95.1201C374.528 96.4001 376.384 97.0401 378.88 97.0401V98.0001H351.616ZM364.576 7.28006C367.008 7.28006 369.088 8.14406 370.816 9.87206C372.544 11.5361 373.408 13.5841 373.408 16.0161C373.408 18.4481 372.544 20.5281 370.816 22.2561C369.088 23.9841 367.008 24.8481 364.576 24.8481C362.144 24.8481 360.064 23.9841 358.336 22.2561C356.672 20.5281 355.84 18.4481 355.84 16.0161C355.84 13.5841 356.672 11.5361 358.336 9.87206C360.064 8.14406 362.144 7.28006 364.576 7.28006Z" fill="#FE79F3"/>
<path d="M383.652 63.4401C383.652 58.4481 384.612 53.7761 386.532 49.4241C388.452 45.0721 391.044 41.2641 394.308 38.0001C397.636 34.7361 401.476 32.1761 405.828 30.3201C410.244 28.4001 414.916 27.4401 419.844 27.4401C424.772 27.4401 428.996 28.1761 432.516 29.6481C436.036 31.1201 438.916 32.9441 441.156 35.1201C443.396 37.2321 445.028 39.5361 446.052 42.0321C447.14 44.5281 447.684 46.8001 447.684 48.8481C447.684 50.8961 447.3 52.5601 446.532 53.8401C445.764 55.1201 444.772 56.1441 443.556 56.9121C442.34 57.6161 440.964 58.0961 439.428 58.3521C437.956 58.6081 436.484 58.7361 435.012 58.7361H391.812C391.812 63.3441 392.708 67.6641 394.5 71.6961C396.292 75.6641 398.692 79.1201 401.7 82.0641C404.772 85.0081 408.292 87.3121 412.26 88.9761C416.228 90.6401 420.42 91.4721 424.836 91.4721C428.1 91.4721 431.172 91.0241 434.052 90.1281C436.932 89.1681 439.524 87.9201 441.828 86.3841C444.196 84.7841 446.212 82.9281 447.876 80.8161C449.604 78.6401 450.948 76.3681 451.908 74.0001L452.868 74.3841C451.908 78.0321 450.372 81.3921 448.26 84.4641C446.212 87.4721 443.716 90.0961 440.772 92.3361C437.892 94.5761 434.66 96.3361 431.076 97.6161C427.556 98.8321 423.812 99.4401 419.844 99.4401C414.916 99.4401 410.244 98.5121 405.828 96.6561C401.476 94.7361 397.636 92.1441 394.308 88.8801C391.044 85.6161 388.452 81.8081 386.532 77.4561C384.612 73.1041 383.652 68.4321 383.652 63.4401ZM417.732 56.2401C420.228 56.2401 422.66 56.1761 425.028 56.0481C427.46 55.9201 429.604 55.5681 431.46 54.9921C433.38 54.4161 434.916 53.5521 436.068 52.4001C437.284 51.2481 437.892 49.6481 437.892 47.6001C437.892 44.9761 437.348 42.6401 436.26 40.5921C435.236 38.5441 433.732 36.7841 431.748 35.3121C429.828 33.8401 427.492 32.7201 424.74 31.9521C422.052 31.1841 419.044 30.8001 415.716 30.8001C412.132 30.8001 408.9 31.4401 406.02 32.7201C403.204 33.9361 400.772 35.6641 398.724 37.9041C396.676 40.1441 395.044 42.8641 393.828 46.0641C392.676 49.2641 392.004 52.8161 391.812 56.7201C394.18 56.6561 396.356 56.5921 398.34 56.5281C400.388 56.4641 402.404 56.4321 404.388 56.4321C406.372 56.3681 408.42 56.3361 410.532 56.3361C412.708 56.2721 415.108 56.2401 417.732 56.2401Z" fill="#FE79F3"/>
<path d="M455.304 34.0641C458.44 34.0641 461.64 33.4241 464.904 32.1441C468.168 30.8641 471.144 29.2961 473.832 27.4401C473.832 29.6801 473.832 32.1761 473.832 34.9281C473.768 37.2321 473.736 39.9841 473.736 43.1841C473.736 46.3201 473.736 49.7441 473.736 53.4561C474.696 50.5761 475.944 47.6001 477.48 44.5281C479.016 41.4561 480.808 38.6721 482.856 36.1761C484.904 33.6161 487.176 31.5361 489.672 29.9361C492.168 28.2721 494.856 27.4401 497.736 27.4401C500.488 27.4401 502.76 28.4001 504.552 30.3201C506.344 32.1761 507.848 34.5441 509.064 37.4241C510.28 40.3041 511.304 43.4401 512.136 46.8321C512.968 50.1601 513.8 53.2961 514.632 56.2401C515.848 60.4641 517.064 64.9761 518.28 69.7761C519.496 74.5761 520.84 78.9921 522.312 83.0241C523.848 87.0561 525.576 90.4161 527.496 93.1041C529.48 95.7281 531.816 97.0401 534.504 97.0401V98.0001H522.024C520.104 98.0001 518.504 97.3921 517.224 96.1761C516.008 94.8961 514.92 93.1681 513.96 90.9921C513.064 88.7521 512.232 86.1601 511.464 83.2161C510.76 80.2721 509.992 77.1041 509.16 73.7121C508.456 70.8321 507.688 67.6641 506.856 64.2081C506.024 60.6881 505.256 57.4881 504.552 54.6081C503.784 51.6001 503.016 48.8481 502.248 46.3521C501.48 43.8561 500.616 41.7121 499.656 39.9201C498.76 38.1281 497.736 36.7201 496.584 35.6961C495.496 34.6721 494.248 34.1601 492.84 34.1601C490.408 34.1601 488.04 35.2161 485.736 37.3281C483.496 39.3761 481.48 41.9361 479.688 45.0081C477.896 48.0801 476.456 51.3761 475.368 54.8961C474.28 58.3521 473.736 61.4881 473.736 64.3041V66.0321C473.736 71.1521 473.736 75.6641 473.736 79.5681C473.736 83.4081 473.96 86.6401 474.408 89.2641C474.92 91.8241 475.784 93.7761 477 95.1201C478.216 96.4001 480.072 97.0401 482.568 97.0401V98.0001H455.304V97.0401C457.8 97.0401 459.656 96.4001 460.872 95.1201C462.152 93.7761 463.016 91.8241 463.464 89.2641C463.976 86.6401 464.2 83.4081 464.136 79.5681C464.136 75.6641 464.136 71.1521 464.136 66.0321C464.136 60.9121 464.136 56.4321 464.136 52.5921C464.2 48.6881 463.976 45.4561 463.464 42.8961C463.016 40.2721 462.152 38.3201 460.872 37.0401C459.656 35.6961 457.8 35.0241 455.304 35.0241V34.0641Z" fill="#FE79F3"/>
<path d="M531.59 63.4401C531.59 58.4481 532.55 53.7761 534.47 49.4241C536.39 45.0721 538.982 41.2641 542.246 38.0001C545.574 34.7361 549.414 32.1761 553.766 30.3201C558.182 28.4001 562.854 27.4401 567.782 27.4401C572.07 27.4401 575.974 28.0161 579.494 29.1681C583.014 30.2561 586.086 31.6961 588.71 33.4881C591.398 35.2161 593.638 37.1361 595.43 39.2481C597.222 41.2961 598.534 43.2801 599.366 45.2001C599.11 45.9681 598.758 46.6401 598.31 47.2161C597.862 47.7281 597.286 48.2081 596.582 48.6561C595.878 49.1041 594.95 49.3281 593.798 49.3281C592.39 49.3281 591.078 48.8801 589.862 47.9841C588.71 47.0881 587.526 45.9681 586.31 44.6241C585.158 43.2161 583.91 41.7441 582.566 40.2081C581.222 38.6081 579.654 37.1361 577.862 35.7921C576.134 34.3841 574.118 33.2321 571.814 32.3361C569.51 31.3761 566.79 30.8641 563.654 30.8001C559.942 30.8001 556.614 31.4721 553.67 32.8161C550.726 34.1601 548.198 36.0481 546.086 38.4801C544.038 40.9121 542.47 43.8561 541.382 47.3121C540.294 50.7041 539.75 54.5121 539.75 58.7361C539.75 63.3441 540.646 67.6641 542.438 71.6961C544.23 75.6641 546.63 79.1201 549.638 82.0641C552.71 85.0081 556.23 87.3121 560.198 88.9761C564.166 90.6401 568.358 91.4721 572.774 91.4721C576.038 91.4721 579.11 91.0241 581.99 90.1281C584.87 89.1681 587.462 87.9201 589.766 86.3841C592.134 84.7841 594.15 82.9281 595.814 80.8161C597.542 78.6401 598.886 76.3681 599.846 74.0001L600.806 74.3841C599.846 78.0321 598.31 81.3921 596.198 84.4641C594.15 87.4721 591.654 90.0961 588.71 92.3361C585.83 94.5761 582.598 96.3361 579.014 97.6161C575.494 98.8321 571.75 99.4401 567.782 99.4401C562.854 99.4401 558.182 98.5121 553.766 96.6561C549.414 94.7361 545.574 92.1441 542.246 88.8801C538.982 85.6161 536.39 81.8081 534.47 77.4561C532.55 73.1041 531.59 68.4321 531.59 63.4401Z" fill="#FE79F3"/>
<path d="M606.121 63.4401C606.121 58.4481 607.081 53.7761 609.001 49.4241C610.921 45.0721 613.513 41.2641 616.777 38.0001C620.105 34.7361 623.945 32.1761 628.297 30.3201C632.713 28.4001 637.385 27.4401 642.313 27.4401C647.241 27.4401 651.465 28.1761 654.985 29.6481C658.505 31.1201 661.385 32.9441 663.625 35.1201C665.865 37.2321 667.497 39.5361 668.521 42.0321C669.609 44.5281 670.153 46.8001 670.153 48.8481C670.153 50.8961 669.769 52.5601 669.001 53.8401C668.233 55.1201 667.241 56.1441 666.025 56.9121C664.809 57.6161 663.433 58.0961 661.897 58.3521C660.425 58.6081 658.953 58.7361 657.481 58.7361H614.281C614.281 63.3441 615.177 67.6641 616.969 71.6961C618.761 75.6641 621.161 79.1201 624.169 82.0641C627.241 85.0081 630.761 87.3121 634.729 88.9761C638.697 90.6401 642.889 91.4721 647.305 91.4721C650.569 91.4721 653.641 91.0241 656.521 90.1281C659.401 89.1681 661.993 87.9201 664.297 86.3841C666.665 84.7841 668.681 82.9281 670.345 80.8161C672.073 78.6401 673.417 76.3681 674.377 74.0001L675.337 74.3841C674.377 78.0321 672.841 81.3921 670.729 84.4641C668.681 87.4721 666.185 90.0961 663.241 92.3361C660.361 94.5761 657.129 96.3361 653.545 97.6161C650.025 98.8321 646.281 99.4401 642.313 99.4401C637.385 99.4401 632.713 98.5121 628.297 96.6561C623.945 94.7361 620.105 92.1441 616.777 88.8801C613.513 85.6161 610.921 81.8081 609.001 77.4561C607.081 73.1041 606.121 68.4321 606.121 63.4401ZM640.201 56.2401C642.697 56.2401 645.129 56.1761 647.497 56.0481C649.929 55.9201 652.073 55.5681 653.929 54.9921C655.849 54.4161 657.385 53.5521 658.537 52.4001C659.753 51.2481 660.361 49.6481 660.361 47.6001C660.361 44.9761 659.817 42.6401 658.729 40.5921C657.705 38.5441 656.201 36.7841 654.217 35.3121C652.297 33.8401 649.961 32.7201 647.209 31.9521C644.521 31.1841 641.513 30.8001 638.185 30.8001C634.601 30.8001 631.369 31.4401 628.489 32.7201C625.673 33.9361 623.241 35.6641 621.193 37.9041C619.145 40.1441 617.513 42.8641 616.297 46.0641C615.145 49.2641 614.473 52.8161 614.281 56.7201C616.649 56.6561 618.825 56.5921 620.809 56.5281C622.857 56.4641 624.873 56.4321 626.857 56.4321C628.841 56.3681 630.889 56.3361 633.001 56.3361C635.177 56.2721 637.577 56.2401 640.201 56.2401Z" fill="#FE79F3"/>
</svg>
