<svg width="341" height="236" viewBox="0 0 341 236" fill="none" xmlns="http://www.w3.org/2000/svg">
<path d="M48.192 0.560059C52.992 0.560059 57.056 1.07206 60.384 2.09606C63.712 3.05606 66.432 4.11207 68.544 5.26407C70.976 6.67206 72.992 8.27206 74.592 10.0641C74.08 12.4321 73.152 13.9361 71.808 14.5761C70.528 15.2161 69.344 15.5361 68.256 15.5361C66.528 15.5361 64.544 14.9601 62.304 13.8081C60.128 12.6561 57.728 11.4081 55.104 10.0641C52.544 8.72006 49.824 7.47206 46.944 6.32006C44.064 5.16806 41.024 4.59206 37.824 4.59206C35.072 4.59206 32.192 5.55206 29.184 7.47207C26.24 9.39207 23.52 12.1441 21.024 15.7281C18.592 19.2481 16.576 23.5361 14.976 28.5921C13.44 33.6481 12.672 39.3441 12.672 45.6801C12.672 52.5281 13.824 59.0241 16.128 65.1681C18.496 71.3121 21.6 76.6881 25.44 81.2961C29.344 85.9041 33.792 89.5521 38.784 92.2401C43.776 94.9281 48.96 96.2721 54.336 96.2721C55.04 96.2721 55.84 96.2081 56.736 96.0801C57.696 95.9521 58.624 95.7601 59.52 95.5041C60.48 95.1841 61.344 94.8321 62.112 94.4481C62.88 94.0641 63.456 93.6481 63.84 93.2001V50.0001H73.44V90.1281C70.624 93.0081 67.008 95.2801 62.592 96.9441C58.176 98.6081 53.376 99.4401 48.192 99.4401C42.048 99.4401 36.288 98.1601 30.912 95.6001C25.536 92.9761 20.832 89.4241 16.8 84.9441C12.832 80.4641 9.664 75.2161 7.296 69.2001C4.992 63.1841 3.84 56.7841 3.84 50.0001C3.84 43.1521 4.928 36.7521 7.104 30.8001C9.28 24.7841 12.32 19.5361 16.224 15.0561C20.192 10.5761 24.896 7.05607 30.336 4.49607C35.776 1.87206 41.728 0.560059 48.192 0.560059Z" fill="#FE79F3"/>
<path d="M84.1838 63.4401C84.1838 58.4481 85.1438 53.7761 87.0638 49.4241C88.9838 45.0721 91.5758 41.2641 94.8398 38.0001C98.1678 34.7361 102.008 32.1761 106.36 30.3201C110.776 28.4001 115.448 27.4401 120.376 27.4401C125.304 27.4401 129.528 28.1761 133.048 29.6481C136.568 31.1201 139.448 32.9441 141.688 35.1201C143.928 37.2321 145.56 39.5361 146.584 42.0321C147.672 44.5281 148.216 46.8001 148.216 48.8481C148.216 50.8961 147.832 52.5601 147.064 53.8401C146.296 55.1201 145.304 56.1441 144.088 56.9121C142.872 57.6161 141.496 58.0961 139.96 58.3521C138.488 58.6081 137.016 58.7361 135.544 58.7361H92.3438C92.3438 63.3441 93.2398 67.6641 95.0318 71.6961C96.8238 75.6641 99.2238 79.1201 102.232 82.0641C105.304 85.0081 108.824 87.3121 112.792 88.9761C116.76 90.6401 120.952 91.4721 125.368 91.4721C128.632 91.4721 131.704 91.0241 134.584 90.1281C137.464 89.1681 140.056 87.9201 142.36 86.3841C144.728 84.7841 146.744 82.9281 148.408 80.8161C150.136 78.6401 151.48 76.3681 152.44 74.0001L153.4 74.3841C152.44 78.0321 150.904 81.3921 148.792 84.4641C146.744 87.4721 144.248 90.0961 141.304 92.3361C138.424 94.5761 135.192 96.3361 131.608 97.6161C128.088 98.8321 124.344 99.4401 120.376 99.4401C115.448 99.4401 110.776 98.5121 106.36 96.6561C102.008 94.7361 98.1678 92.1441 94.8398 88.8801C91.5758 85.6161 88.9838 81.8081 87.0638 77.4561C85.1438 73.1041 84.1838 68.4321 84.1838 63.4401ZM118.264 56.2401C120.76 56.2401 123.192 56.1761 125.56 56.0481C127.992 55.9201 130.136 55.5681 131.992 54.9921C133.912 54.4161 135.448 53.5521 136.6 52.4001C137.816 51.2481 138.424 49.6481 138.424 47.6001C138.424 44.9761 137.88 42.6401 136.792 40.5921C135.768 38.5441 134.264 36.7841 132.28 35.3121C130.36 33.8401 128.024 32.7201 125.272 31.9521C122.584 31.1841 119.576 30.8001 116.248 30.8001C112.664 30.8001 109.432 31.4401 106.552 32.7201C103.736 33.9361 101.304 35.6641 99.2558 37.9041C97.2078 40.1441 95.5757 42.8641 94.3597 46.0641C93.2077 49.2641 92.5358 52.8161 92.3438 56.7201C94.7118 56.6561 96.8877 56.5921 98.8717 56.5281C100.92 56.4641 102.936 56.4321 104.92 56.4321C106.904 56.3681 108.952 56.3361 111.064 56.3361C113.24 56.2721 115.64 56.2401 118.264 56.2401Z" fill="#FE79F3"/>
<path d="M174.555 31.7601V83.5041C174.555 84.8481 174.651 86.2561 174.843 87.7281C175.099 89.2001 175.483 90.5761 175.995 91.8561C176.507 93.1361 177.211 94.1921 178.107 95.0241C179.067 95.8561 180.219 96.2721 181.563 96.2721C183.867 96.2721 185.915 95.6961 187.707 94.5441C189.499 93.3281 190.939 91.8241 192.027 90.0321L192.987 90.7041C192.539 91.5361 191.867 92.4641 190.971 93.4881C190.075 94.4481 189.019 95.3761 187.803 96.2721C186.651 97.1681 185.339 97.9041 183.867 98.4801C182.395 99.1201 180.891 99.4401 179.355 99.4401C176.475 99.4401 174.107 98.9601 172.251 98.0001C170.395 96.9761 168.923 95.6641 167.835 94.0641C166.747 92.4001 165.979 90.5121 165.531 88.4001C165.147 86.2241 164.955 83.9521 164.955 81.5841V31.7601H154.875V28.8801C156.411 28.8801 158.139 28.2081 160.059 26.8641C161.979 25.5201 163.835 23.8241 165.627 21.7761C167.419 19.7281 169.051 17.5201 170.523 15.1521C171.995 12.7841 173.051 10.5761 173.691 8.52806H174.651C174.651 10.1921 174.651 12.0801 174.651 14.1921C174.587 16.0481 174.555 18.2241 174.555 20.7201C174.555 23.1521 174.555 25.8721 174.555 28.8801H189.819V31.7601H174.555Z" fill="#FE79F3"/>
<path d="M227.554 98.0001V97.0401C230.05 97.0401 231.906 96.4001 233.122 95.1201C234.402 93.7761 235.266 91.8241 235.714 89.2641C236.226 86.6401 236.45 83.4081 236.386 79.5681C236.386 75.6641 236.386 71.1521 236.386 66.0321C236.386 60.9121 236.386 56.4321 236.386 52.5921C236.45 48.6881 236.226 45.4561 235.714 42.8961C235.266 40.2721 234.402 38.3201 233.122 37.0401C231.906 35.6961 230.05 35.0241 227.554 35.0241V34.0641C230.69 34.0641 233.89 33.4241 237.154 32.1441C240.418 30.8641 243.394 29.2961 246.082 27.4401C246.082 31.0241 246.082 34.8961 246.082 39.0561C246.018 42.6401 245.986 46.7361 245.986 51.3441C245.986 55.9521 245.986 60.8481 245.986 66.0321C245.986 71.1521 245.986 75.6641 245.986 79.5681C245.986 83.4081 246.21 86.6401 246.658 89.2641C247.17 91.8241 248.034 93.7761 249.25 95.1201C250.466 96.4001 252.322 97.0401 254.818 97.0401V98.0001H227.554ZM240.514 7.28006C242.946 7.28006 245.026 8.14406 246.754 9.87206C248.482 11.5361 249.346 13.5841 249.346 16.0161C249.346 18.4481 248.482 20.5281 246.754 22.2561C245.026 23.9841 242.946 24.8481 240.514 24.8481C238.082 24.8481 236.002 23.9841 234.274 22.2561C232.61 20.5281 231.778 18.4481 231.778 16.0161C231.778 13.5841 232.61 11.5361 234.274 9.87206C236.002 8.14406 238.082 7.28006 240.514 7.28006Z" fill="#FE79F3"/>
<path d="M256.71 34.0641C259.846 34.0641 263.046 33.4241 266.31 32.1441C269.574 30.8641 272.55 29.2961 275.238 27.4401C275.238 29.6801 275.238 32.1761 275.238 34.9281C275.174 37.2321 275.142 39.9841 275.142 43.1841C275.142 46.3201 275.142 49.7441 275.142 53.4561C276.102 50.5761 277.35 47.6001 278.886 44.5281C280.422 41.4561 282.214 38.6721 284.262 36.1761C286.31 33.6161 288.582 31.5361 291.078 29.9361C293.574 28.2721 296.262 27.4401 299.142 27.4401C301.894 27.4401 304.166 28.4001 305.958 30.3201C307.75 32.1761 309.254 34.5441 310.47 37.4241C311.686 40.3041 312.71 43.4401 313.542 46.8321C314.374 50.1601 315.206 53.2961 316.038 56.2401C317.254 60.4641 318.47 64.9761 319.686 69.7761C320.902 74.5761 322.246 78.9921 323.718 83.0241C325.254 87.0561 326.982 90.4161 328.902 93.1041C330.886 95.7281 333.222 97.0401 335.91 97.0401V98.0001H323.43C321.51 98.0001 319.91 97.3921 318.63 96.1761C317.414 94.8961 316.326 93.1681 315.366 90.9921C314.47 88.7521 313.638 86.1601 312.87 83.2161C312.166 80.2721 311.398 77.1041 310.566 73.7121C309.862 70.8321 309.094 67.6641 308.262 64.2081C307.43 60.6881 306.662 57.4881 305.958 54.6081C305.19 51.6001 304.422 48.8481 303.654 46.3521C302.886 43.8561 302.022 41.7121 301.062 39.9201C300.166 38.1281 299.142 36.7201 297.99 35.6961C296.902 34.6721 295.654 34.1601 294.246 34.1601C291.814 34.1601 289.446 35.2161 287.142 37.3281C284.902 39.3761 282.886 41.9361 281.094 45.0081C279.302 48.0801 277.862 51.3761 276.774 54.8961C275.686 58.3521 275.142 61.4881 275.142 64.3041V66.0321C275.142 71.1521 275.142 75.6641 275.142 79.5681C275.142 83.4081 275.366 86.6401 275.814 89.2641C276.326 91.8241 277.19 93.7761 278.406 95.1201C279.622 96.4001 281.478 97.0401 283.974 97.0401V98.0001H256.71V97.0401C259.206 97.0401 261.062 96.4001 262.278 95.1201C263.558 93.7761 264.422 91.8241 264.87 89.2641C265.382 86.6401 265.606 83.4081 265.542 79.5681C265.542 75.6641 265.542 71.1521 265.542 66.0321C265.542 60.9121 265.542 56.4321 265.542 52.5921C265.606 48.6881 265.382 45.4561 264.87 42.8961C264.422 40.2721 263.558 38.3201 262.278 37.0401C261.062 35.6961 259.206 35.0241 256.71 35.0241V34.0641Z" fill="#FE79F3"/>
<path d="M19.68 167.76V219.504C19.68 220.848 19.776 222.256 19.968 223.728C20.224 225.2 20.608 226.576 21.12 227.856C21.632 229.136 22.336 230.192 23.232 231.024C24.192 231.856 25.344 232.272 26.688 232.272C28.992 232.272 31.04 231.696 32.832 230.544C34.624 229.328 36.064 227.824 37.152 226.032L38.112 226.704C37.664 227.536 36.992 228.464 36.096 229.488C35.2 230.448 34.144 231.376 32.928 232.272C31.776 233.168 30.464 233.904 28.992 234.48C27.52 235.12 26.016 235.44 24.48 235.44C21.6 235.44 19.232 234.96 17.376 234C15.52 232.976 14.048 231.664 12.96 230.064C11.872 228.4 11.104 226.512 10.656 224.4C10.272 222.224 10.08 219.952 10.08 217.584V167.76H0V164.88C1.536 164.88 3.264 164.208 5.184 162.864C7.104 161.52 8.96 159.824 10.752 157.776C12.544 155.728 14.176 153.52 15.648 151.152C17.12 148.784 18.176 146.576 18.816 144.528H19.776C19.776 146.192 19.776 148.08 19.776 150.192C19.712 152.048 19.68 154.224 19.68 156.72C19.68 159.152 19.68 161.872 19.68 164.88H34.944V167.76H19.68Z" fill="#FE79F3"/>
<path d="M34.3088 199.44C34.3088 194.448 35.2688 189.776 37.1888 185.424C39.1088 181.072 41.7008 177.264 44.9648 174C48.2928 170.736 52.1328 168.176 56.4848 166.32C60.9008 164.4 65.5728 163.44 70.5008 163.44C75.4288 163.44 80.0688 164.4 84.4208 166.32C88.8368 168.176 92.6768 170.736 95.9408 174C99.2687 177.264 101.893 181.072 103.813 185.424C105.733 189.776 106.693 194.448 106.693 199.44C106.693 204.432 105.733 209.104 103.813 213.456C101.893 217.808 99.2687 221.616 95.9408 224.88C92.6768 228.144 88.8368 230.736 84.4208 232.656C80.0688 234.512 75.4288 235.44 70.5008 235.44C65.5728 235.44 60.9008 234.512 56.4848 232.656C52.1328 230.736 48.2928 228.144 44.9648 224.88C41.7008 221.616 39.1088 217.808 37.1888 213.456C35.2688 209.104 34.3088 204.432 34.3088 199.44ZM40.0687 194.736C40.2607 199.024 41.4768 203.28 43.7168 207.504C45.9568 211.664 48.8368 215.408 52.3568 218.736C55.9408 222 60.0048 224.656 64.5488 226.704C69.0928 228.688 73.7648 229.68 78.5648 229.68C81.8288 229.68 84.9007 229.104 87.7807 227.952C90.6607 226.8 93.1248 225.136 95.1728 222.96C97.2208 220.72 98.7568 218.032 99.7808 214.896C100.869 211.76 101.253 208.176 100.933 204.144C100.741 199.856 99.5247 195.632 97.2848 191.472C95.1088 187.248 92.2288 183.504 88.6448 180.24C85.1248 176.912 81.0928 174.256 76.5488 172.272C72.0048 170.224 67.3328 169.2 62.5328 169.2C59.2688 169.2 56.1968 169.776 53.3167 170.928C50.4367 172.08 47.9408 173.776 45.8288 176.016C43.7808 178.192 42.2128 180.848 41.1248 183.984C40.1008 187.12 39.7487 190.704 40.0687 194.736Z" fill="#FE79F3"/>
<path d="M111.491 170.064C114.627 170.064 117.827 169.424 121.091 168.144C124.355 166.864 127.331 165.296 130.019 163.44C130.019 167.024 130.019 170.832 130.019 174.864C129.955 178.32 129.923 182.224 129.923 186.576C129.923 190.928 129.923 195.44 129.923 200.112V216.528C129.923 221.328 130.883 224.816 132.803 226.992C134.723 229.104 137.187 230.16 140.195 230.16C142.819 230.16 145.603 229.392 148.547 227.856C151.555 226.32 154.307 224.176 156.803 221.424C159.363 218.672 161.507 215.44 163.235 211.728C164.963 208.016 165.891 203.952 166.019 199.536V193.872C166.019 190.928 165.987 188.08 165.923 185.328C165.923 182.576 165.667 180.144 165.155 178.032C164.643 175.92 163.779 174.224 162.563 172.944C161.347 171.664 159.555 171.024 157.187 171.024V170.064C160.323 170.064 163.523 169.424 166.787 168.144C170.051 166.864 173.027 165.296 175.715 163.44C175.715 166.384 175.715 169.648 175.715 173.232C175.651 176.24 175.619 179.76 175.619 183.792C175.619 187.824 175.619 192.176 175.619 196.848C175.619 201.968 175.619 206.48 175.619 210.384C175.619 214.224 175.843 217.456 176.291 220.08C176.803 222.64 177.667 224.592 178.883 225.936C180.099 227.216 181.955 227.856 184.451 227.856V228.816C181.315 228.816 178.115 229.456 174.851 230.736C171.587 232.016 168.611 233.584 165.923 235.44C165.923 233.392 165.923 231.056 165.923 228.432C165.923 226.192 165.923 223.536 165.923 220.464C165.987 217.328 166.019 213.872 166.019 210.096C164.995 212.976 163.587 215.92 161.795 218.928C160.067 221.872 158.019 224.592 155.651 227.088C153.283 229.52 150.627 231.536 147.683 233.136C144.803 234.672 141.667 235.44 138.275 235.44C135.843 235.44 133.731 235.152 131.939 234.576C130.147 234.064 128.579 233.36 127.235 232.464C125.955 231.568 124.867 230.544 123.971 229.392C123.139 228.24 122.467 227.056 121.955 225.84C120.739 223.024 120.163 219.824 120.227 216.24C120.227 215.024 120.259 213.648 120.323 212.112V202.032C120.323 196.912 120.323 192.432 120.323 188.592C120.387 184.688 120.163 181.456 119.651 178.896C119.203 176.272 118.339 174.32 117.059 173.04C115.843 171.696 113.987 171.024 111.491 171.024V170.064Z" fill="#FE79F3"/>
<path d="M189.277 199.44C189.277 194.448 190.238 189.776 192.158 185.424C194.078 181.072 196.67 177.264 199.934 174C203.262 170.736 207.102 168.176 211.454 166.32C215.87 164.4 220.541 163.44 225.469 163.44C229.757 163.44 233.662 164.016 237.182 165.168C240.702 166.256 243.774 167.696 246.398 169.488C249.086 171.216 251.326 173.136 253.118 175.248C254.91 177.296 256.221 179.28 257.053 181.2C256.797 181.968 256.445 182.64 255.997 183.216C255.549 183.728 254.974 184.208 254.27 184.656C253.566 185.104 252.638 185.328 251.486 185.328C250.078 185.328 248.765 184.88 247.549 183.984C246.397 183.088 245.213 181.968 243.997 180.624C242.845 179.216 241.598 177.744 240.254 176.208C238.91 174.608 237.341 173.136 235.549 171.792C233.822 170.384 231.805 169.232 229.501 168.336C227.197 167.376 224.478 166.864 221.342 166.8C217.63 166.8 214.301 167.472 211.357 168.816C208.413 170.16 205.885 172.048 203.773 174.48C201.725 176.912 200.158 179.856 199.07 183.312C197.982 186.704 197.438 190.512 197.438 194.736C197.438 199.344 198.334 203.664 200.126 207.696C201.918 211.664 204.318 215.12 207.326 218.064C210.398 221.008 213.917 223.312 217.885 224.976C221.853 226.64 226.046 227.472 230.462 227.472C233.726 227.472 236.798 227.024 239.678 226.128C242.558 225.168 245.15 223.92 247.454 222.384C249.822 220.784 251.838 218.928 253.502 216.816C255.23 214.64 256.574 212.368 257.534 210L258.493 210.384C257.534 214.032 255.997 217.392 253.885 220.464C251.837 223.472 249.342 226.096 246.398 228.336C243.518 230.576 240.286 232.336 236.702 233.616C233.182 234.832 229.437 235.44 225.469 235.44C220.541 235.44 215.87 234.512 211.454 232.656C207.102 230.736 203.262 228.144 199.934 224.88C196.67 221.616 194.078 217.808 192.158 213.456C190.238 209.104 189.277 204.432 189.277 199.44Z" fill="#FE79F3"/>
<path d="M260.929 233.04C263.425 233.04 265.281 232.4 266.497 231.12C267.777 229.776 268.641 227.824 269.089 225.264C269.601 222.64 269.825 219.408 269.761 215.568C269.761 211.664 269.761 207.152 269.761 202.032V170.736C269.761 166.32 269.729 162.48 269.665 159.216C269.665 155.888 269.377 153.104 268.801 150.864C268.289 148.624 267.425 146.96 266.209 145.872C264.993 144.72 263.233 144.144 260.929 144.144V143.184C264.065 143.184 267.265 142.544 270.529 141.264C273.793 139.984 276.769 138.416 279.457 136.56C279.457 139.632 279.457 142.96 279.457 146.544C279.393 149.68 279.361 153.296 279.361 157.392C279.361 161.488 279.361 165.84 279.361 170.448V189.456C280.321 186.576 281.569 183.6 283.105 180.528C284.641 177.456 286.433 174.672 288.481 172.176C290.529 169.616 292.801 167.536 295.297 165.936C297.793 164.272 300.481 163.44 303.361 163.44C306.113 163.44 308.385 164.4 310.177 166.32C311.969 168.176 313.473 170.544 314.689 173.424C315.905 176.304 316.929 179.44 317.761 182.832C318.593 186.16 319.425 189.296 320.257 192.24C321.473 196.464 322.689 200.976 323.905 205.776C325.121 210.576 326.465 214.992 327.937 219.024C329.473 223.056 331.201 226.416 333.121 229.104C335.105 231.728 337.441 233.04 340.129 233.04V234H327.649C325.729 234 324.129 233.392 322.849 232.176C321.633 230.896 320.545 229.168 319.585 226.992C318.689 224.752 317.857 222.16 317.089 219.216C316.385 216.272 315.617 213.104 314.785 209.712C314.081 206.832 313.313 203.664 312.481 200.208C311.649 196.688 310.881 193.488 310.177 190.608C309.409 187.6 308.641 184.848 307.873 182.352C307.105 179.856 306.241 177.712 305.281 175.92C304.385 174.128 303.361 172.72 302.209 171.696C301.121 170.672 299.873 170.16 298.465 170.16C296.033 170.16 293.665 171.216 291.361 173.328C289.057 175.44 287.009 178.032 285.217 181.104C283.489 184.176 282.081 187.472 280.993 190.992C279.905 194.448 279.361 197.584 279.361 200.4V202.032C279.361 207.152 279.361 211.664 279.361 215.568C279.361 219.408 279.585 222.64 280.033 225.264C280.545 227.824 281.409 229.776 282.625 231.12C283.841 232.4 285.697 233.04 288.193 233.04V234H260.929V233.04Z" fill="#FE79F3"/>
</svg>
