<svg width="561" height="793" viewBox="0 0 561 793" fill="none" xmlns="http://www.w3.org/2000/svg">
<path d="M0 280.5C0 125.584 125.584 0 280.5 0V0C435.416 0 561 125.584 561 280.5V793H0V280.5Z" fill="#DBF4FE"/>
<mask id="mask0_12_67" style="mask-type:alpha" maskUnits="userSpaceOnUse" x="0" y="0" width="561" height="793">
<path d="M0 280.5C0 125.584 125.584 0 280.5 0V0C435.416 0 561 125.584 561 280.5V793H0V280.5Z" fill="#D9D9D9"/>
</mask>
<g mask="url(#mask0_12_67)">
<path d="M349.156 385.902C344.059 385.394 341.406 379.733 342.317 375.336C342.504 374.111 342.868 372.921 343.368 371.785C343.364 371.798 343.355 371.811 343.351 371.823C343.745 369.175 351.028 362.049 346.965 367.336C346.974 367.324 346.982 367.315 346.995 367.302C346.936 367.379 346.872 367.455 346.813 367.531L346.821 367.523C346.715 367.658 346.605 367.794 346.499 367.93V367.921C344.398 370.815 342.961 374.67 343.495 378.272C343.843 379.653 344.368 381.064 345.41 382.076C345.385 382.051 345.359 382.026 345.334 381.996L345.376 382.038C346.321 383.009 347.478 383.822 348.787 384.208H348.766C348.8 384.208 348.829 384.22 348.863 384.229C348.846 384.225 348.829 384.216 348.813 384.212C349.262 384.339 349.715 384.424 350.177 384.496L350.084 384.479C350.13 384.487 350.181 384.496 350.228 384.5L350.134 384.483C350.685 384.585 351.249 384.576 351.8 384.517H351.783C351.812 384.517 351.838 384.517 351.867 384.508C351.855 384.508 351.842 384.508 351.829 384.508C352.49 384.449 353.138 384.297 353.795 384.246C353.787 384.246 353.778 384.246 353.774 384.246C353.795 384.246 353.816 384.241 353.837 384.237H353.812C356.697 384.97 350.325 386.449 349.164 385.873L349.156 385.902Z" fill="#C9A1F2"/>
<path d="M374.738 393.092C370.59 389.851 369.955 373.912 373.115 387.186C373.111 387.165 373.107 387.148 373.098 387.127C373.107 387.169 373.119 387.212 373.128 387.25V387.233C372.891 389.029 376.462 392.287 374.738 393.092Z" fill="#C9A1F2"/>
<path d="M504.962 567.575C501.141 566.766 503.547 556.572 504.352 564.181C504.352 564.173 504.348 564.16 504.344 564.151C504.352 564.181 504.356 564.211 504.365 564.24C504.365 564.223 504.356 564.202 504.352 564.185C504.598 566.863 507.237 566.054 508.085 564.168L508.076 564.181C508.229 563.927 508.373 563.668 508.5 563.397L508.491 563.41L508.5 563.389V563.401C509.157 562.054 509.563 560.186 507.428 560.982C507.466 560.974 507.5 560.965 507.534 560.957C506.661 561.359 505.848 560.169 506.687 559.597C513.389 556.885 509.275 568.498 504.962 567.575Z" fill="#C9A1F2"/>
<path d="M490.875 801.818C488.345 798.899 485.85 795.938 483.515 792.857L483.528 792.874C483.38 792.684 483.231 792.493 483.087 792.298L483.121 792.345C483.075 792.285 483.028 792.222 482.981 792.162L483.015 792.209C482.947 792.12 482.88 792.035 482.816 791.946C468.271 772.724 456.853 751.111 448.824 728.389V728.406C448.79 728.266 448.752 728.127 448.726 727.987V727.999C449.336 727.936 449.688 730.351 450.218 731.092L450.23 731.113C450.243 731.139 450.252 731.164 450.264 731.19C450.264 731.19 450.273 731.202 450.277 731.211C450.302 731.266 450.328 731.325 450.353 731.385V731.376L450.408 731.52C450.408 731.52 450.429 731.567 450.442 731.592V731.584C459.674 756.556 476.774 782.231 490.883 801.81L490.875 801.818Z" fill="#C9A1F2"/>
<path d="M471.36 822.037C465.038 812.334 459.115 802.378 453.103 792.484V792.493C421.445 731.325 400.341 662.057 389.101 594.809C389.194 595.907 389.253 597.025 389.419 598.127V598.14C392.355 615.24 396.782 632.081 401.18 648.863V648.851C417.34 701.201 432.774 754.81 460.594 802.378C460.585 802.361 460.573 802.344 460.564 802.327C462.657 808.267 472.754 818.113 471.364 822.041L471.36 822.037Z" fill="#C9A1F2"/>
<path d="M489.731 820.011C464.699 793.222 447.222 760.933 433.868 727.004C433.88 727.033 433.893 727.063 433.906 727.093C433.859 726.983 433.813 726.872 433.766 726.762C433.779 726.792 433.791 726.822 433.804 726.851C433.74 726.699 433.677 726.546 433.613 726.394C433.626 726.423 433.639 726.453 433.652 726.483L433.397 725.881C433.41 725.911 433.423 725.94 433.435 725.97C415.899 684.118 399.511 625.671 393.715 588.068C393.715 588.064 393.715 588.06 393.715 588.052C397.596 609.825 404.129 631.022 409.62 652.422V652.41C417.225 680.555 427.296 707.972 438.719 734.783C438.71 734.766 438.706 734.753 438.698 734.736C444.413 748.383 450.523 761.903 457.958 774.711C457.954 774.702 457.95 774.694 457.941 774.685C457.963 774.724 457.984 774.757 458.005 774.796C458.001 774.787 457.997 774.779 457.988 774.77C458.005 774.796 458.018 774.821 458.035 774.851V774.842C458.196 775.126 458.361 775.41 458.526 775.694C464.449 785.684 470.974 795.332 477.99 804.589L477.982 804.576C480.736 809.576 489.324 816.096 489.735 820.011H489.731Z" fill="#C9A1F2"/>
<path d="M-47.9655 726.783C-33.2212 646.529 9.15594 617.9 73.1665 576.129C73.1495 576.142 73.1368 576.154 73.1241 576.167C80.9454 569.774 88.3895 562.914 95.2956 555.534H95.2914C100.587 549.814 105.951 544.128 111.133 538.294C92.0629 562.821 68.1034 583.785 41.0256 599.224H41.0299C25.1967 609.202 9.96942 620.349 -2.90641 634.005C-2.90217 633.996 -2.8937 633.992 -2.88946 633.983C-2.98267 634.085 -3.08012 634.187 -3.17757 634.293C-3.16486 634.28 -3.15638 634.267 -3.14367 634.255C-3.19451 634.305 -3.24112 634.36 -3.28772 634.411C-3.28772 634.411 -3.28349 634.403 -3.27925 634.403C-9.28289 641.034 -14.74 648.156 -20.0276 655.367C-20.0149 655.35 -20.0064 655.337 -19.9937 655.32C-21.8833 657.951 -23.5611 660.731 -25.0567 663.599L-25.0271 663.544C-29.4038 672.374 -32.8737 681.657 -36.4242 690.846C-41.089 702.332 -43.0253 716.03 -47.9655 726.788V726.783Z" fill="#C9A1F2"/>
<path d="M-35.2845 732.385C-33.5432 709.188 -26.3278 683.788 -15.5492 662.341C-15.5577 662.358 -15.5662 662.37 -15.5704 662.387C-15.4391 662.137 -15.3077 661.883 -15.1764 661.633L-15.2018 661.68C-15.1764 661.629 -15.151 661.578 -15.1213 661.527C-15.1213 661.536 -15.1298 661.544 -15.134 661.548C-9.32529 650.787 -2.55902 640.385 5.99098 631.59C6.11384 631.462 6.224 631.327 6.32993 631.183C4.10557 634.687 -0.817666 639.436 -3.49113 643.72C-3.48689 643.715 -3.48265 643.707 -3.47842 643.703C-7.12212 648.927 -10.4862 654.35 -13.4647 659.981C-13.4605 659.972 -13.4562 659.964 -13.452 659.951C-16.7949 666.239 -19.642 672.78 -22.0359 679.487C-22.0274 679.466 -22.0189 679.441 -22.0105 679.42C-24.7517 687.186 -27.2896 695.041 -29.0309 703.099C-29.0309 703.087 -29.0267 703.078 -29.0225 703.07C-31.5688 712.463 -31.6536 723.966 -35.2761 732.385H-35.2845Z" fill="#C9A1F2"/>
<path d="M180.046 741.316C158.696 713.836 157.853 678.517 158.243 645.262C158.243 645.287 158.243 645.313 158.243 645.342C156.603 624.039 157.654 602.156 154.129 581.167C162.941 599.538 163.505 620.684 164.018 640.741C164.018 640.712 164.018 640.686 164.018 640.656C164.598 659.921 167.454 679.013 170.674 697.985C170.665 697.952 170.661 697.918 170.657 697.884C173.021 711.645 175.338 725.567 180.664 738.549C181.228 739.494 182.117 742.625 180.05 741.312L180.046 741.316ZM175.792 730.834C176.245 731.69 176.703 732.546 177.173 733.393C173.415 722.267 171.368 710.645 169.347 699.1V699.108C169.297 698.807 169.25 698.515 169.199 698.214C169.203 698.248 169.212 698.282 169.216 698.316C165.284 676.259 162.412 654.011 162.556 631.568C162.556 631.594 162.556 631.619 162.556 631.649C162.556 631.526 162.547 631.399 162.543 631.276C162.543 631.301 162.543 631.331 162.543 631.357C162.543 631.268 162.535 631.174 162.535 631.085C162.535 631.115 162.535 631.14 162.535 631.166C162.221 623.018 162.03 614.829 160.628 606.778V606.749H160.624C160.615 606.702 160.607 606.656 160.598 606.605C160.59 606.55 160.581 606.495 160.569 606.44C159.408 599.627 157.743 592.907 155.688 586.31C159.154 621.722 158.353 657.473 162.221 692.783C162.221 692.783 162.221 692.774 162.221 692.77C162.23 692.812 162.234 692.859 162.242 692.897V692.863C163.742 703.019 166.89 712.827 171.368 722.059C171.347 722.013 171.326 721.97 171.305 721.928C172.712 724.94 174.241 727.893 175.792 730.838V730.834Z" fill="#C9A1F2"/>
<path d="M122.335 526.325C142.613 492.608 162.649 458.692 182.702 424.835L182.668 424.898C192.765 405.155 199.171 383.691 204.513 362.235V362.244C209.941 340.398 212.042 317.952 215.949 295.831C215.792 299.941 214.601 305.491 214.08 310.109C209.11 350.164 201.103 390.732 182.85 427.042C161.518 461.941 142.329 498.442 119.047 532.04C120.174 530.151 121.276 528.248 122.344 526.32L122.335 526.325Z" fill="#C9A1F2"/>
<path d="M70.5565 524.494C77.505 502.543 88.542 481.973 99.0452 461.518C110.959 439.143 122.64 416.556 131.766 392.872C131.754 392.902 131.745 392.927 131.733 392.957C154.544 339.928 155.112 281.438 166.839 225.961C163.221 248.844 158.641 272.316 156.777 295.687C156.777 295.661 156.781 295.64 156.785 295.615C156.667 296.801 156.548 297.987 156.429 299.174C156.429 299.148 156.434 299.123 156.438 299.097C153.472 336.323 142.282 372.404 127.58 406.578L127.589 406.557C126.898 408.036 126.119 409.464 125.475 410.963C125.479 410.951 125.487 410.942 125.492 410.929C117.31 430.033 106.981 448.167 97.3462 466.572C97.3504 466.564 97.3547 466.555 97.3589 466.551C87.6607 485.096 78.4201 503.933 71.0353 523.528C70.9336 523.821 70.7895 524.113 70.7514 524.422C70.7853 524.532 70.6158 524.617 70.5565 524.503V524.494Z" fill="#C9A1F2"/>
<path d="M126.691 406.777C129.046 398.833 131.067 390.792 132.991 382.733C132.982 382.763 132.978 382.788 132.97 382.818C133.004 382.67 133.042 382.521 133.076 382.373C133.067 382.403 133.063 382.428 133.055 382.458C138.588 358.015 143.287 333.306 145.901 308.363C145.901 308.372 145.901 308.38 145.901 308.389C146.155 305.855 146.413 303.322 146.672 300.788C147.112 295.983 147.714 291.17 147.718 286.336V286.344C147.706 286.078 147.689 285.806 147.651 285.544C147.651 285.548 147.651 285.552 147.651 285.561C146.066 324.472 139.901 368.252 127.576 406.578V406.57C126.89 408.04 126.115 409.468 125.475 410.963C125.483 410.942 125.492 410.925 125.5 410.904C125.369 411.209 125.246 411.518 125.123 411.823C125.657 410.146 126.187 408.464 126.691 406.777Z" fill="#C9A1F2"/>
<path d="M321.735 342.534C321.845 342.58 321.959 342.623 322.074 342.657C321.887 342.644 321.523 342.813 321.735 342.534Z" fill="#C9A1F2"/>
<path d="M321.027 335.361C320.4 335.085 320.968 335.06 321.209 335.433C321.15 335.412 321.087 335.386 321.027 335.361Z" fill="#C9A1F2"/>
<path d="M316.481 359.668C312.846 359.422 309.122 358.634 305.978 356.867L306.037 356.893C306.037 356.893 305.999 356.871 305.978 356.863C306.003 356.876 306.029 356.888 306.054 356.901C293.335 350.741 286.552 337.708 281.624 325.048L281.646 325.099V325.091C281.646 325.091 281.646 325.099 281.654 325.108C274.112 306.626 284.654 279.01 307.44 281.243H307.431C309.617 281.353 311.88 281.824 314.028 282.286H313.99C338.377 286.654 349.808 314.287 346.105 336.755V336.721C346.105 336.721 346.105 336.742 346.101 336.755C346.101 336.742 346.109 336.729 346.109 336.712C342.656 349.83 330.543 360.947 316.485 359.672L316.481 359.668ZM330.721 345.123C330.819 345.139 330.929 344.974 331.043 344.932C330.937 344.995 330.831 345.059 330.721 345.123ZM322.735 320.443C310.473 321.036 312.448 333.933 318.1 341.042C331.899 351.262 347.436 317.307 322.735 320.443ZM316.892 316.964C317.032 316.926 317.155 316.829 317.294 316.774C317.159 316.833 317.028 316.897 316.892 316.964Z" fill="#C9A1F2"/>
<path d="M356.888 381.894C353.503 375.658 375.882 368.226 375.873 375.586C375.89 375.573 375.907 375.564 375.924 375.552C372.124 377.92 367.323 377.42 363.137 378.691L363.265 378.657C362.345 378.907 361.417 379.14 360.54 379.522C360.549 379.517 360.561 379.513 360.57 379.509C359.803 379.75 355.986 381.382 357.676 381.216H357.668C358.943 380.771 358.608 381.725 357.579 381.776H357.587C357.354 381.831 357.13 381.89 356.888 381.898V381.894Z" fill="#C9A1F2"/>
<path d="M89.1098 482.236C94.9228 461.937 104.413 442.935 111.353 423.03C111.345 423.055 111.336 423.081 111.324 423.106C118.586 402.35 124.263 381.077 128.771 359.558C130.118 353.143 131.042 346.648 132.466 340.25V340.259C127.381 388.559 107.722 438.427 89.1056 482.232L89.1098 482.236Z" fill="#C9A1F2"/>
<path d="M235.116 836.785C229.926 825.096 225.66 812.94 218.563 802.306C221.592 810.135 224.918 818.02 229.007 825.803C229.011 825.803 229.007 825.803 229.007 825.803C229.011 825.803 229.007 825.803 229.007 825.803C229.011 825.803 229.007 825.803 229.007 825.803C229.011 825.803 229.007 825.803 229.007 825.803C229.011 825.803 229.007 825.803 229.007 825.803C229.926 827.439 228.32 827.265 227.931 825.812C223.16 816.516 219.313 807.674 215.72 798.136C211.966 792.802 207.704 787.26 204.806 781.384C177.033 711.158 184.956 630.67 164.835 557.707C162.564 541.866 153.68 526.579 155.074 510.348C152.053 514.245 148.574 518.114 145.782 521.651C133.097 539.747 149.583 558.177 149.926 578.311C151.854 592.377 151.443 606.355 151.455 620.192C145.278 697.036 179.482 764.509 221.673 825.803C221.991 827.019 228.113 834.074 225.244 833.773C198.51 797.535 185.041 753.836 146.57 728.372C150.811 748.968 158.895 769.949 162.556 789.752C140.427 729.94 133.533 635.356 53.4481 629.903C45.11 629.136 36.3016 626.128 29.4463 631.598C49.7748 643.915 99.6977 638.182 86.6651 674.445C74.2893 705.519 54.0625 734.905 48.1944 768.461C43.7754 779.778 47.9445 817.41 39.9834 821.715C20.0108 816.804 1.1483 808.962 -19.303 806.22C-22.4383 808.894 -28.2344 816.766 -30.8612 814.27C-34.3778 798.899 -35.0515 782.714 -33.6109 766.902C-39.3053 784.545 -30.9629 739.536 -29.48 732.791C-18.8624 692.821 -14.4349 646.118 22.142 620.074C35.2212 607.922 53.016 603.656 67.5527 594.034C84.1527 585.082 104.676 567.308 116.344 559.021C83.8985 618.396 -0.838791 592.043 -17.2482 688.758C18.6677 588.907 121.255 639.085 143.846 523.749C125.962 542.853 105.54 560.372 86.0296 577.561C63.0658 593.644 34.9288 604.478 14.1851 623.967C-33.0135 662.659 -61.4895 754.209 -41.0466 811.927C-50.3677 805.31 -54.7359 780.121 -54.5199 764.326C-57.8712 765.28 -54.8334 755.128 -55.1003 753.361C-53.9521 744.104 -52.5963 733.134 -51.177 723.606C-59.6592 747.684 -61.9428 780.689 -64.6205 801.623C-66.8661 769.309 -58.833 737.693 -48.7747 707.273C-41.7203 685.889 -34.1702 662.824 -20.0021 644.809C-12.4224 612.02 -4.40623 580.633 23.3537 557.881C61.4346 528.329 76.6873 520.355 86.9448 470.178C42.123 401.13 48.1521 367.48 81.9919 295.318C99.2105 217.538 158.938 153.943 244.12 169.305C293.882 177.546 343.576 177.508 365.069 235.193C366.599 250.725 369.183 265.139 377.683 278.65C387.334 273.842 397.545 276.32 407.099 279.938C428.521 285.963 412.12 315.685 423.403 327.989C445.049 349.292 450.086 349.783 448.26 382.216C462.433 401.397 465.165 423.907 465.504 447.129C469.525 511.64 457.776 485.473 501.446 495.896C519.041 500.145 519.329 499.916 523.931 517.482C527.146 528.426 533.731 542.861 537.548 553.619C548.517 582.434 559.88 611.075 572.485 639.284C584.115 659.392 584.84 684.754 605.389 698.765C634.822 727.991 620.387 771.317 624.582 807.614C617.167 753.721 636.246 729.902 589.949 686.258C591.852 703.498 603.118 725.195 604.698 739.223C597.288 719.445 590.42 700.095 586.318 679.292C564.194 620.252 537.145 561.372 515.715 502.433C517.215 507.903 505.691 514.792 501.374 516.792C524.058 552.619 539.349 593.928 552.267 634.242C558.503 657.049 576.163 677.682 578.014 701.447C576.531 703.091 577.01 699.401 576.743 698.583C575.938 700.557 574.341 701.943 572.727 703.252C588.852 736.821 590.504 775.944 609.625 808.449C613.443 814.571 611.621 814.237 608.761 808.411C589.488 776.245 588.5 736.982 572.1 703.663C570.913 705.175 566.138 705.942 566.812 706.938C572.371 710.234 574.26 721.314 576.705 727.898C580.51 748.349 588.5 773.948 592.089 790.942C582.111 763.725 577.493 734.647 566.426 707.853C551.123 708.218 538.781 663.413 529.35 649.253C513.737 608.863 492.425 570.367 478.545 529.312C468.826 532.244 462.03 540.463 452.256 543.026C458.437 577.845 473.376 609.99 502.581 631.348C522.033 652.24 539.463 678.331 544.437 707.184C521.88 673.585 482.477 650.355 456.81 616.943C414.963 561.889 463.568 666.103 480.655 678.199C491.188 701.964 577.273 734.664 569.303 750.222C524.638 729.745 484.672 701.278 545.784 763.064C560.491 772.897 575.603 790.43 593.114 792.599C596.686 794.2 591.911 795.984 589.856 795.399C569.68 793.196 546.717 793.739 527.82 792.179C502.598 812.296 477.507 770.118 466.059 750.154C442.782 711.391 440.028 664.743 422.034 623.9C399.901 579.493 387.423 531.358 375.31 483.778C358.718 494.044 382.008 542.98 377.653 567.541C382.716 643.097 391.054 724.695 433.931 789.231C436.897 795.217 445.04 800.708 446.888 805.733C442.871 804.513 440.24 799.069 436.927 796.052C368.171 713.861 395.579 577.959 359.913 494.489C371.005 530.901 372.878 569.316 374.84 607.312C370.171 588.318 373.785 499.874 350.376 496.442C365.048 531.752 356.693 570.503 363.557 607.499C367.556 645.092 388.296 677.674 398.236 713.687C403.896 740.481 409.679 773.592 423.699 794.505C424.703 797.471 429.406 801.263 428.381 803.725C419.645 780.939 380.67 805.157 389.609 820.719C350.385 771.228 345.406 700.659 285.463 669.243C270.507 660.667 255.504 627.077 237.218 644.419C232.117 649.012 227.092 654.625 223.825 660.858C231.617 682.542 231.824 724.093 247.683 735.088C295.394 735.211 338.394 767.097 368.908 801.539C373.378 807.369 380.61 811.686 382.979 817.198C365.451 800.068 349.584 780.888 329.107 767.042C302.3 751.34 274.706 733.783 242.522 736.825C246.323 758.857 250.784 781.536 252.017 803.089C245.213 772.465 242.565 739.024 232.761 708.789C237.057 741.312 237.095 775.762 250.873 806.161C228.808 774.957 239.014 721.212 226.02 682.813C229.337 726.495 227.342 772.148 238.074 814.961C218.016 764.186 232.422 693.02 217.177 636.941C208.089 584.976 180.113 538.662 176.046 485.498C170.458 558.542 219.037 621.319 217.25 694.422C221.355 737.545 210.072 787.311 233.248 825.812C244.658 844.365 234.116 829.858 229.541 821.172C231.392 825.875 233.18 830.565 235.337 835.167L235.311 835.112C235.68 835.667 236.502 837.662 235.121 836.777L235.116 836.785ZM223.012 808.271C223.38 808.911 224.418 810.724 224.774 811.334C224.461 810.08 223.749 809.114 222.935 808.135L223.012 808.275V808.271ZM174.902 483.045C148.498 523.617 179.8 576.163 194.29 616.773C217.347 677.229 192.252 749.497 223.202 806.509C209.818 743.837 223.363 678.475 204.069 616.337C188.786 573.24 169.708 530.036 175.288 482.486L174.902 483.045V483.045ZM173.402 590.941C190.578 657.515 176.94 733.588 214.08 793.667C185.138 716.941 198.929 632.386 165.725 554.957C168.377 565.177 171.224 577.51 172.856 587.602C173.042 588.713 173.229 589.827 173.402 590.941ZM521.537 793.184C531.498 790.408 504.712 775.359 500.569 770.66C485.701 755.666 478.406 732.389 473.182 712.154C478.533 742.642 491.692 775.079 519.562 792.146C520.359 792.599 520.956 792.925 521.537 793.184ZM179.181 588.641C201.628 653.155 187.062 725.203 212.89 788.604C197.701 722.606 213.691 650.287 179.147 588.535L179.177 588.641H179.181ZM-51.321 747.222C-52.5667 759.568 -52.9734 772.969 -50.6558 785.519C-52.4311 715.674 -23.6797 637.136 41.2078 601.656C163.547 537.985 209.072 437.863 226.244 306.669C235.625 279.167 243.044 250.492 255.08 223.707C249.844 233.985 244.065 247.518 240.273 256.742C242.234 246.154 246.204 235.422 250.674 225.63C248.729 228.761 247.06 231.909 245.001 234.989C240.891 238.862 248.204 221.91 248.348 221.067C246.615 224.008 245.272 226.74 243.734 229.448C243.717 227.092 245.348 224.448 246.09 222.084C239.62 232.274 235.358 244.336 230.375 255.343C228.558 248.446 233.057 237.337 234.362 229.638C231.905 235.506 229.947 243.294 228.015 248.573C228.24 242.713 229.676 237.167 230.998 231.642C223.592 241.26 236.93 205.975 237.921 204.255C234.392 210.975 231.1 217.745 229.053 225.143C228.888 219.961 231.562 213.75 233.29 208.615C218.965 242.764 216.589 243.544 228.816 207.31C225.77 213.657 222.732 219.449 221.075 225.728C220.681 220.487 223.715 214.22 225.503 208.801C223.584 211.657 222.592 215.364 220.025 217.788C219.093 212.865 222.969 206.437 223.8 201.124C213.894 222.779 212.343 225.728 221.16 200.857C211.682 214.881 206.734 231.197 200.988 246.823C200.988 246.823 200.988 246.823 200.988 246.815C200.988 246.815 200.984 246.823 200.988 246.802V246.815C201.277 244.196 201.632 241.637 202.069 239.048C202.908 220.584 210.009 203.882 218.177 187.477C210.665 196.459 206.45 207.467 200.205 217.093C199.048 208.814 203.166 198.811 205.149 190.405C199.95 202.925 198.124 206.848 202.522 190.718C198.294 197.235 195.824 205.331 192.396 212.102C191.722 205.925 194.964 198.362 196.37 191.748C192.794 198.574 189.773 206.183 188.634 213.653C187.922 207.895 192.142 196.858 194.637 189.964C172.94 224.33 165.928 256.559 177.41 189.778C173.364 198.925 170.839 207.776 170.093 217.877C169.021 209.907 171.186 199.561 174.156 191.422C166.721 209.132 167.399 205.009 172.457 189.697C172.186 190.024 171.644 190.617 171.377 190.909H171.373C171.373 190.909 171.381 190.892 171.373 190.909C171.385 190.892 171.385 190.888 171.373 190.909C167.721 195.002 163.763 199.874 161.785 204.967C162.645 199.989 165.687 195.269 168.377 191.074C164.975 194.337 162.425 198.027 159.166 200.993C160.387 194.705 167.373 187.782 171.191 181.711C152.663 193.727 137.376 209.746 127.051 229.367V229.354C127.051 229.354 127.051 229.363 127.051 229.367C127.051 229.359 127.055 229.35 127.059 229.346L127.051 229.367C127.051 229.367 127.059 229.346 127.064 229.338C127.059 229.346 127.055 229.354 127.047 229.367C127.449 228.236 127.915 227.079 128.394 225.897C97.7784 281.226 101.24 346.584 102.545 407.998C114.434 348.682 123.988 286.916 145.812 230.74C102.939 349.325 112.057 485.168 30.2047 588.085C71.2303 519.279 135.419 464.009 163.518 387.58C168.538 349.978 171.182 310.592 184.066 274.096V274.108C184.066 274.108 184.066 274.1 184.066 274.096C184.066 274.1 184.066 274.104 184.066 274.113V274.125C184.066 274.125 184.071 274.108 184.075 274.104C168.343 325.527 168.924 379.568 157.323 431.656C191.184 371.603 180.986 297.195 214.949 235.727C188.494 291.67 188.261 354.058 169.343 411.768C153.209 438.537 139.774 465.547 126.839 494.108C71.0989 582.171 -53.8674 626.149 -51.321 747.222ZM163.407 740.511C167.687 744.328 171.775 748.222 175.851 752.222C163.505 729.114 155.658 704.269 152.574 678.348C141.85 710.285 131.402 717.14 163.407 740.507V740.511ZM442.557 683.008C450.197 703.065 446.049 731.893 472.55 709.433C472.241 690.351 454.404 692.732 442.545 682.97L442.557 683.008V683.008ZM350.029 518.677C340.224 588.679 345.182 656.528 396.304 710.561C388.004 681.186 370.624 653.6 365.04 623.688C354.316 587.187 363.981 545.124 349.897 509.992C350.029 512.851 350.054 515.614 350.037 518.664V518.677H350.029ZM146.621 611.875C134.537 664.942 108.32 656.185 139.901 708.489C157.281 678.924 151.354 644.398 146.621 611.875ZM547.089 680.428C591.504 763.259 513.995 588.95 506.962 570.854C496.76 576.159 501.535 552.788 489.116 537.154C460.793 503.331 541.12 669.005 547.089 680.428ZM512.423 558.025C512.957 562.982 513.322 568.969 507.725 570.617C521.113 600 532.21 630.132 546.352 659.201C554.127 667.709 558.673 712.154 571.392 701.905C555.296 652.092 530.849 605.037 512.169 556.029C512.279 556.788 512.356 557.411 512.423 558.025V558.025ZM532.443 598.114C542.276 626.467 555.19 653.49 567.409 680.987C569.774 687.652 571.447 694.168 572.595 701.095C574.18 700.434 574.998 697.286 576.654 697.82C551.767 639.568 534.858 576.701 502.67 521.698C502.259 513.847 479.808 523.795 483.549 526.952C479.774 524.295 472.703 529.21 467.72 533.265C473.474 528.668 479.507 528.901 485.185 528.125C490.879 527.96 498.082 520.541 501.636 521.033C496.755 524.291 504.051 523.384 504.289 532.392C504.873 532.557 505.513 533.964 504.454 533.777C504.157 537.298 506.793 540.387 505.454 543.899C504.475 546.619 499.293 546.047 499.844 542.793C494.251 519.741 499.022 594.076 511.627 563.3C512.186 553.314 507.165 542.802 505.733 533.951C512.885 555.415 523.371 576.79 532.362 597.885L532.354 597.873L532.447 598.11L532.443 598.114ZM457.84 688.796C477.698 701.133 460.958 680.61 463.178 668.493C449.087 651.973 437.168 634.153 431.453 613.308C424.381 592.352 418.59 571.269 407.527 552.081C397.524 530.731 394.537 506.687 378.479 487.714C391.152 539.535 406.519 590.06 429.885 638.182C439.664 656.172 433.423 684.283 457.836 688.796H457.84ZM266.418 640.656C272.769 645.707 277.947 652.681 284.027 657.901C289.59 659.239 304.694 668.15 296.356 656.596C289.963 647.393 280.502 639.669 271.774 632.7C254.966 616.854 246.526 629.276 266.418 640.656ZM283.311 540.052C276.176 560.648 284.823 569.363 294.072 586.844C298.657 598.173 299.847 603.245 310.27 610.922C327.357 621.54 337.225 638.547 354.778 648.312C319.591 620.175 298.449 578.561 283.912 536.536C283.684 537.841 283.493 538.942 283.311 540.052ZM293.882 508.204C265.228 538.993 322.235 617.799 347.766 640.267C321.832 610.465 305.664 572.024 296.746 533.799C305.22 563.512 317.155 592.229 333.204 618.625C319.286 581.925 299.945 547.496 293.882 508.208V508.204ZM66.8324 523.511C28.5311 555.741 -14.0366 584.293 -16.0237 639.237C-8.22364 586.785 30.2598 553.496 68.9254 521.27C68.2263 522.045 67.506 522.804 66.8324 523.511ZM17.6509 569.354C1.45759 587.958 -8.27873 611.414 -13.1426 635.259C0.495818 621.078 4.3895 602.482 15.5325 586.823C30.4716 565.113 49.5926 548.441 64.9978 526.778C50.3425 542.488 31.0987 552.653 17.6509 569.35V569.354ZM309.884 496.76C295.907 506.78 324.76 549.568 321.688 569.757C324.777 592.784 329.086 617.451 345.465 634.924C332.276 600.233 325.989 563.368 321.887 526.698C321.887 526.698 321.896 526.715 321.887 526.698C321.892 526.715 321.896 526.715 321.892 526.698C321.892 526.706 321.9 526.723 321.904 526.731C319.595 516.677 316.456 503.492 309.88 496.764L309.884 496.76ZM284.048 607.719C302.076 611.825 316.019 624.395 332.302 631.7C328.344 623.739 318.964 623.654 312.376 618.608C303.546 613.075 294.174 607.465 283.497 607.605C283.679 607.639 283.866 607.681 284.052 607.719H284.048ZM262.19 621.171C278.476 637.483 281.264 623.645 261.923 620.976C262.012 621.04 262.105 621.103 262.19 621.171ZM16.0748 588.759C9.82116 597.665 4.89369 606.406 1.42793 616.693C29.1201 591.183 47.1394 559.105 66.4722 526.994C52.2703 549.801 31.6622 566.96 16.0748 588.759V588.759ZM210.576 600.665C232.184 601.305 252.327 606.779 273.244 610.854C264.029 605.914 257.19 597.076 251.178 588.713C233.697 566.033 207.772 551.771 187.481 531.765C195.256 554.258 203.781 578.307 210.572 600.66L210.576 600.665ZM318.439 493.684C329.48 526.104 329.145 573.04 339.386 609.727C338.411 571.557 345.55 523.77 318.439 493.684V493.684ZM198.751 436.003C179.592 475.215 171.466 484.511 186.52 528.265C217.775 552.53 247.352 578.192 272.299 608.791C269.249 578.408 280.455 548.297 286.124 518.686C280.455 526.104 272.74 537.383 266.202 541.416C270.223 537.514 273.998 532.786 277.294 528.062C281.777 520.846 286.848 514.411 291.873 507.322C255.86 494.099 220.237 467.856 198.756 436.003H198.751ZM301.228 501.043C303.885 531.367 310.473 566.85 325.112 595.915C318.35 565.986 315.604 523.8 301.228 501.043ZM155.413 510.339C156.268 526.812 163.962 541.823 169.86 556.928C164.39 537.701 161.158 516.567 165.267 496.73C162.039 501.319 158.505 505.928 155.226 510.191C155.324 510.191 155.4 510.25 155.413 510.339ZM496.493 524.706C478.571 529.43 494.951 540.056 497.544 552.127C496.967 546.789 495.12 540.743 496.76 535.447C496.247 533.667 490.006 527.257 492.641 527.579C497.467 531.18 498.463 537.908 502.068 542.234C504.784 537.141 503.297 524.249 496.489 524.706H496.493ZM322.841 495.595C333.945 512.326 338.348 532.231 341.063 551.784C338.051 534.421 343.809 490.964 322.841 495.595ZM430.55 544.899C437.215 544.823 450.671 542.226 450.671 542.226L451.997 541.849C463.284 538.959 469.127 527.956 480.626 523.931C460.162 494.133 465.568 457.861 462.454 424.009C462.039 393.961 438.066 371.916 419.742 350.364C417.666 347.601 421.136 350.249 421.818 351.363C424.314 352.202 426.762 352.558 429.436 352.795C431.677 354.16 424.534 354.143 423.458 353.3C430.885 362.761 441.325 369.345 447.057 380.06C450.472 350.397 438.147 345.436 419.928 326.497C419.577 340.204 422.072 359.769 406.659 366.269C417.679 372.654 422.704 386.779 435.13 391.431C436.168 392.198 442.316 393.516 439.85 394.643C434.232 392.152 428.326 390.673 423.674 386.856C422.475 395.973 423.542 406.866 426.373 415.111C417.28 403.93 426.309 383.187 413.404 374.365C395.405 381.898 387.665 371.417 389.02 391.406C386.716 404.443 393.486 406.057 400.892 414.794C408.756 424.284 413.954 435.77 417.246 447.574C417.391 448.057 418.378 450.54 417.174 449.625C412.471 433.491 404.659 416.429 389.359 407.968C389.503 420.297 386.584 432.288 382.364 443.752C378.924 457.641 386.381 469.852 376.153 482.655C398.045 500.743 394.007 546.276 430.542 544.908L430.55 544.899ZM501.119 543.331C503.513 545.924 505 542.209 504.327 539.972C504.034 541.582 503.043 544.361 501.094 543.298C501.102 543.315 501.119 543.331 501.119 543.331V543.331ZM288.615 484.066C319.358 493.781 385.889 509.475 379.271 456.933C378.687 449.328 380.869 442.015 383.712 435.016C367.777 440.888 348.533 429.453 332.141 429.258C348.715 418.429 363.807 397.994 384.805 402.968C392.325 409.269 377.399 421.433 386.207 427.157C390.152 409.811 386.313 392.287 388.728 374.683C387.029 377.471 367.641 386.144 377.403 378.937C419.505 362.282 354.795 334.598 356.337 310.088C347.796 309.944 355.299 348.279 339.678 357.426C306.063 385.313 268.943 349.626 266.13 313.575C250.606 316.947 236.332 324.43 222.944 332.721C218.19 363.727 214.517 394.575 203.425 423.75C229.625 465.06 245.111 467.504 288.619 484.066H288.615ZM162.035 181.541C38.5301 253.132 115.883 372.641 86.3601 478.304C124.598 382.729 67.3705 253.568 162.056 181.529L162.035 181.541V181.541ZM79.7124 452.298C82.4283 457.522 84.9069 463.356 87.2414 468.839C88.9658 459.514 80.3438 453.688 76.3992 445.858C77.5347 448.019 78.649 450.184 79.7124 452.298ZM69.9422 402.816C71.0226 422.005 77.6957 440.693 85.9703 458.018C67.523 408.328 87.2371 359.045 83.818 308.571C77.0559 339.072 67.1968 369.294 69.8067 400.888L69.7982 400.875C69.8448 401.519 69.8914 402.168 69.9422 402.816ZM82.8901 308.919C67.3535 363.633 46.792 404.138 84.2756 456.052C57.5833 404.972 69.9338 361.29 82.9621 308.677L82.8901 308.919V308.919ZM156.912 427.881C155.357 431.843 152.739 437.698 151.239 441.011C155.442 434.584 156.116 434.537 157.412 426.648C157.243 427.059 157.078 427.466 156.912 427.881V427.881ZM85.6059 290.081C68.3958 338.971 38.8776 387.055 71.7175 437.092C46.1946 388.487 78.2338 337.818 85.8813 289.276C85.7924 289.543 85.6991 289.815 85.6059 290.081ZM335.755 428.436C408.946 450.396 389.876 404.951 335.708 428.445C335.721 428.445 335.742 428.436 335.755 428.436ZM365.976 413.853C360.112 414.624 354.816 417.946 349.901 421.178C357.176 421.013 364.743 420.734 372.018 420.297C373.708 414.205 372.056 413.272 365.972 413.857L365.976 413.853ZM393.795 361.405C394.376 374.7 415.615 362.282 417.225 353.516C418.903 338.755 423.542 289.391 409.934 282.167C391.952 271.397 361.921 280.154 362.362 302.313C371.238 285.412 373.251 320.316 364.133 313.253C365.569 323.057 367.874 332.12 375.111 339.221C363.527 322.193 368.722 282.345 395.613 287.887C418.941 298.534 426.203 361.845 393.8 361.405H393.795ZM279.18 341.826C289.323 360.197 307.147 369.79 327.573 362.464H327.565C348.296 355.465 352.723 329.603 350.588 310.452C347.3 322.46 344.758 311.363 342.068 305.262C337.123 297.055 345.898 292.463 348.029 302.275C339.085 267.287 290.153 262.834 260.249 274.689C269.422 295.92 267.372 321.311 279.188 341.826L279.18 341.818V341.826C279.18 341.826 279.18 341.818 279.176 341.814C279.176 341.818 279.176 341.822 279.184 341.826H279.18ZM378.801 342.597C387.347 351.677 390.308 345.898 391.851 336.31C389.224 331.586 378.547 322.409 376.445 332.17C375.484 335.433 375.734 340.229 378.801 342.593V342.597ZM229.973 305.118C225.893 312.037 225.401 323.447 223.228 331.264C235.722 323.294 248.624 315.092 263.105 311.058C254.864 282.353 252.009 297.149 229.969 305.118H229.973ZM386.618 324.578C388.143 325.413 390.711 328.506 392.427 327.548C394.257 323.252 378.111 317.943 386.618 324.578ZM347.169 313.727C350.486 312.321 346.368 301.949 344.762 298.237C339.716 299.839 345.758 309.817 347.169 313.727ZM367.323 299.33C359.146 299.771 368.179 307.698 364.086 311.376C368.438 316.46 368.582 309.762 368.582 306.474C368.226 304.474 370.09 299.792 367.323 299.33ZM357.121 308.308C369.713 312.537 363.273 299.22 353.376 302.737C352.397 302.233 350.668 302.394 349.584 302.758C349.609 302.745 349.63 302.733 349.656 302.72C347.101 303.487 349.931 307.198 349.571 309.44C351.935 308.77 354.507 308.084 357.121 308.304V308.308ZM306.863 198.663C264.55 228.223 241.607 251.678 229.579 303.881C237.879 292.645 267.333 293.81 258 277.714C257.254 275.913 256.017 273.015 258.589 272.922C371.908 242.658 327.959 342.021 376.382 279.265C371.632 269.346 366.379 259.563 364.125 248.941C358.553 220.44 330.344 207.721 306.859 198.663H306.863Z" fill="#C9A1F2"/>
<path d="M348.376 304.249C345.334 301.775 355.871 299.805 357.197 301.707C355.214 303.288 351.092 303.279 348.393 304.249C348.414 304.249 348.436 304.249 348.452 304.249C348.419 304.249 348.385 304.249 348.351 304.249H348.376Z" fill="#C9A1F2"/>
<path d="M349.855 310.096C346.414 306.152 366.84 308.774 359.023 309.808H359.053C359.019 309.808 358.989 309.804 358.956 309.8C358.973 309.8 358.989 309.804 359.006 309.808C355.935 309.334 352.901 310.198 349.851 310.096H349.855Z" fill="#C9A1F2"/>
<path d="M360.447 310.423C359.867 310.19 357.718 309.533 359.151 308.978L359.095 309.003C361.172 307.614 363.951 311.219 360.447 310.423V310.423Z" fill="#C9A1F2"/>
<path d="M363.383 311.177C363.171 311.13 362.972 311.054 362.765 310.995L362.883 311.024C361.866 310.821 357.185 309.16 359.934 308.677C359.909 308.681 359.883 308.685 359.858 308.69C361.371 307.944 366.785 310.257 363.383 311.177V311.177Z" fill="#C9A1F2"/>
<path d="M368.811 332.281C368.48 331.929 368.217 331.518 368.014 331.077V331.086C368.014 331.086 368.006 331.056 368.001 331.043V331.052C367.662 328.883 370.302 332.937 368.811 332.276V332.281Z" fill="#C9A1F2"/>
<path d="M360.108 302.449C358.947 300.763 361.366 298.051 361.68 296.11C361.667 296.144 361.65 296.178 361.638 296.216C362.527 294.03 363.87 292.056 365.243 290.145L365.226 290.166L365.37 289.971L365.362 289.98C365.362 289.98 365.391 289.942 365.404 289.92C365.531 289.751 365.654 289.581 365.781 289.416C365.764 289.437 365.747 289.463 365.73 289.484C369.073 284.917 373.569 281.37 378.496 278.646C378.496 278.646 378.517 278.629 378.53 278.621H378.534C378.534 278.621 378.513 278.638 378.517 278.65C378.53 278.616 378.56 278.591 378.602 278.583H378.589C378.589 278.583 378.606 278.583 378.615 278.583H378.606C378.797 278.6 378.699 278.807 378.577 278.854L378.585 278.845C377.441 279.921 376.107 280.773 374.895 281.773L374.907 281.76C372.009 283.955 369.527 286.641 367.357 289.552L367.37 289.535C366.726 290.399 366.15 291.314 365.625 292.255L365.608 292.28L365.62 292.259C363.354 295.221 362.722 300.275 360.112 302.44L360.108 302.449Z" fill="#C9A1F2"/>
</g>
</svg>
