<?xml version="1.0" encoding="utf-8"?>
<!-- Generator: Adobe Illustrator 26.3.1, SVG Export Plug-In . SVG Version: 6.00 Build 0)  -->
<svg version="1.1" id="Layer_1" xmlns="http://www.w3.org/2000/svg" xmlns:xlink="http://www.w3.org/1999/xlink" x="0px" y="0px"
	 viewBox="0 0 561 793" style="enable-background:new 0 0 561 793;" xml:space="preserve">
<style type="text/css">
	.st0{fill:url(#SVGID_1_);}
	.st1{fill:#D9D9D9;filter:url(#Adobe_OpacityMaskFilter);}
	.st2{mask:url(#mask0_12_67_00000122702123064147121760000003410580676161725827_);}
	.st3{fill:#C9A1F2;}
</style>
<linearGradient id="SVGID_1_" gradientUnits="userSpaceOnUse" x1="280.5163" y1="9.4375" x2="280.4922" y2="790.6808">
	<stop  offset="0" style="stop-color:#DBF4FE"/>
	<stop  offset="1" style="stop-color:#DBF4FE;stop-opacity:0.5"/>
</linearGradient>
<path class="st0" d="M0,280.5C0,125.58,125.58,0,280.5,0l0,0C435.42,0,561,125.58,561,280.5V793H0V280.5z"/>
<defs>
	<filter id="Adobe_OpacityMaskFilter" filterUnits="userSpaceOnUse" x="-65" y="167" width="689.58" height="670">
		<feColorMatrix  type="matrix" values="1 0 0 0 0  0 1 0 0 0  0 0 1 0 0  0 0 0 1 0"/>
	</filter>
</defs>
<mask maskUnits="userSpaceOnUse" x="-65" y="167" width="689.58" height="670" id="mask0_12_67_00000122702123064147121760000003410580676161725827_">
	<path class="st1" d="M0,280.5C0,125.58,125.58,0,280.5,0l0,0C435.42,0,561,125.58,561,280.5V793H0V280.5z"/>
</mask>
<g class="st2">
	<path class="st3" d="M349.16,385.9c-5.1-0.51-7.75-6.17-6.84-10.57c0.19-1.23,0.55-2.42,1.05-3.55c0,0.01-0.01,0.03-0.02,0.04
		c0.39-2.65,7.68-9.77,3.61-4.49c0.01-0.01,0.02-0.02,0.03-0.03c-0.06,0.08-0.12,0.15-0.18,0.23l0.01-0.01
		c-0.11,0.13-0.22,0.27-0.32,0.41v-0.01c-2.1,2.89-3.54,6.75-3,10.35c0.35,1.38,0.87,2.79,1.92,3.8c-0.02-0.02-0.05-0.05-0.08-0.08
		l0.04,0.04c0.95,0.97,2.1,1.78,3.41,2.17h-0.02c0.03,0,0.06,0.01,0.1,0.02c-0.02,0-0.03-0.01-0.05-0.02
		c0.45,0.13,0.9,0.21,1.36,0.28l-0.09-0.02c0.05,0.01,0.1,0.02,0.14,0.02l-0.09-0.02c0.55,0.1,1.11,0.09,1.67,0.03h-0.02
		c0.03,0,0.06,0,0.08-0.01c-0.01,0-0.02,0-0.04,0c0.66-0.06,1.31-0.21,1.97-0.26c-0.01,0-0.02,0-0.02,0c0.02,0,0.04-0.01,0.06-0.01
		h-0.02c2.88,0.73-3.49,2.21-4.65,1.64L349.16,385.9z"/>
	<path class="st3" d="M374.74,393.09c-4.15-3.24-4.78-19.18-1.62-5.91c0-0.02-0.01-0.04-0.02-0.06c0.01,0.04,0.02,0.08,0.03,0.12
		v-0.02C372.89,389.03,376.46,392.29,374.74,393.09z"/>
	<path class="st3" d="M504.96,567.58c-3.82-0.81-1.42-11-0.61-3.39c0-0.01,0-0.02-0.01-0.03c0.01,0.03,0.01,0.06,0.02,0.09
		c0-0.02-0.01-0.04-0.01-0.05c0.25,2.68,2.89,1.87,3.73-0.02l-0.01,0.01c0.15-0.25,0.3-0.51,0.42-0.78l-0.01,0.01l0.01-0.02v0.01
		c0.66-1.35,1.06-3.22-1.07-2.42c0.04-0.01,0.07-0.02,0.11-0.03c-0.87,0.4-1.69-0.79-0.85-1.36
		C513.39,556.89,509.27,568.5,504.96,567.58z"/>
	<path class="st3" d="M490.88,801.82c-2.53-2.92-5.02-5.88-7.36-8.96l0.01,0.02c-0.15-0.19-0.3-0.38-0.44-0.58l0.03,0.05
		c-0.05-0.06-0.09-0.12-0.14-0.18l0.03,0.05c-0.07-0.09-0.14-0.17-0.2-0.26c-14.55-19.22-25.96-40.83-33.99-63.56v0.02
		c-0.03-0.14-0.07-0.28-0.1-0.42V728c0.61-0.06,0.96,2.35,1.49,3.09l0.01,0.02c0.01,0.03,0.02,0.05,0.03,0.08
		c0,0,0.01,0.01,0.01,0.02c0.02,0.05,0.05,0.11,0.08,0.17v-0.01l0.05,0.14c0,0,0.02,0.05,0.03,0.07v-0.01
		C459.67,756.56,476.77,782.23,490.88,801.82L490.88,801.82z"/>
	<path class="st3" d="M471.36,822.04c-6.32-9.7-12.24-19.66-18.26-29.55v0.01c-31.66-61.17-52.76-130.44-64-197.68
		c0.09,1.1,0.15,2.22,0.32,3.32v0.01c2.94,17.1,7.36,33.94,11.76,50.72v-0.01c16.16,52.35,31.59,105.96,59.41,153.53
		c-0.01-0.02-0.02-0.03-0.03-0.05C462.66,808.27,472.75,818.11,471.36,822.04L471.36,822.04z"/>
	<path class="st3" d="M489.73,820.01c-25.03-26.79-42.51-59.08-55.86-93.01c0.01,0.03,0.02,0.06,0.04,0.09
		c-0.05-0.11-0.09-0.22-0.14-0.33c0.01,0.03,0.02,0.06,0.04,0.09c-0.06-0.15-0.13-0.3-0.19-0.46c0.01,0.03,0.03,0.06,0.04,0.09
		l-0.26-0.6c0.01,0.03,0.03,0.06,0.04,0.09c-17.54-41.85-33.92-100.3-39.72-137.9c0,0,0-0.01,0-0.02
		c3.88,21.77,10.41,42.97,15.9,64.37v-0.01c7.61,28.15,17.68,55.56,29.1,82.37c-0.01-0.02-0.01-0.03-0.02-0.05
		c5.71,13.65,11.83,27.17,19.26,39.97c0-0.01-0.01-0.02-0.02-0.03c0.02,0.04,0.04,0.07,0.06,0.11c0-0.01-0.01-0.02-0.02-0.03
		c0.02,0.03,0.03,0.05,0.05,0.08v-0.01c0.16,0.28,0.33,0.57,0.49,0.85c5.92,9.99,12.45,19.64,19.46,28.9l-0.01-0.01
		C480.74,809.58,489.32,816.1,489.73,820.01L489.73,820.01z"/>
	<path class="st3" d="M-47.97,726.78C-33.22,646.53,9.16,617.9,73.17,576.13c-0.02,0.01-0.03,0.02-0.04,0.04
		c7.82-6.39,15.27-13.25,22.17-20.63h0c5.3-5.72,10.66-11.41,15.84-17.24c-19.07,24.53-43.03,45.49-70.11,60.93h0
		C25.2,609.2,9.97,620.35-2.91,634.01c0-0.01,0.01-0.01,0.02-0.02c-0.09,0.1-0.19,0.2-0.29,0.31c0.01-0.01,0.02-0.03,0.03-0.04
		c-0.05,0.05-0.1,0.1-0.14,0.16c0,0,0-0.01,0.01-0.01c-6,6.63-11.46,13.75-16.75,20.96c0.01-0.02,0.02-0.03,0.03-0.05
		c-1.89,2.63-3.57,5.41-5.06,8.28l0.03-0.05c-4.38,8.83-7.85,18.11-11.4,27.3C-41.09,702.33-43.03,716.03-47.97,726.78
		L-47.97,726.78z"/>
	<path class="st3" d="M-35.28,732.39c1.74-23.2,8.96-48.6,19.74-70.04c-0.01,0.02-0.02,0.03-0.02,0.05c0.13-0.25,0.26-0.5,0.39-0.75
		l-0.03,0.05c0.03-0.05,0.05-0.1,0.08-0.15c0,0.01-0.01,0.02-0.01,0.02c5.81-10.76,12.57-21.16,21.12-29.96
		c0.12-0.13,0.23-0.26,0.34-0.41c-2.22,3.5-7.15,8.25-9.82,12.54c0,0,0.01-0.01,0.01-0.02c-3.64,5.22-7.01,10.65-9.99,16.28
		c0-0.01,0.01-0.02,0.01-0.03c-3.34,6.29-6.19,12.83-8.58,19.54c0.01-0.02,0.02-0.05,0.03-0.07c-2.74,7.77-5.28,15.62-7.02,23.68
		c0-0.01,0-0.02,0.01-0.03C-31.57,712.46-31.65,723.97-35.28,732.39L-35.28,732.39z"/>
	<path class="st3" d="M180.05,741.32c-21.35-27.48-22.19-62.8-21.8-96.05c0,0.02,0,0.05,0,0.08c-1.64-21.3-0.59-43.19-4.11-64.17
		c8.81,18.37,9.38,39.52,9.89,59.57c0-0.03,0-0.06,0-0.09c0.58,19.27,3.44,38.36,6.66,57.33c-0.01-0.03-0.01-0.07-0.02-0.1
		c2.36,13.76,4.68,27.68,10.01,40.67C181.23,739.49,182.12,742.62,180.05,741.32L180.05,741.32z M175.79,730.83
		c0.45,0.86,0.91,1.71,1.38,2.56c-3.76-11.13-5.81-22.75-7.83-34.29v0.01c-0.05-0.3-0.1-0.59-0.15-0.89c0,0.03,0.01,0.07,0.02,0.1
		c-3.93-22.06-6.8-44.3-6.66-66.75c0,0.03,0,0.05,0,0.08c0-0.12-0.01-0.25-0.01-0.37c0,0.03,0,0.05,0,0.08
		c0-0.09-0.01-0.18-0.01-0.27c0,0.03,0,0.05,0,0.08c-0.31-8.15-0.51-16.34-1.91-24.39v-0.03h0c-0.01-0.05-0.02-0.09-0.03-0.14
		c-0.01-0.05-0.02-0.11-0.03-0.16c-1.16-6.81-2.83-13.53-4.88-20.13c3.47,35.41,2.66,71.16,6.53,106.47c0,0,0-0.01,0-0.01
		c0.01,0.04,0.01,0.09,0.02,0.13v-0.03c1.5,10.16,4.65,19.96,9.13,29.2c-0.02-0.05-0.04-0.09-0.06-0.13
		C172.71,724.94,174.24,727.89,175.79,730.83L175.79,730.83z"/>
	<path class="st3" d="M122.33,526.33c20.28-33.72,40.31-67.63,60.37-101.49l-0.03,0.06c10.1-19.74,16.5-41.21,21.85-62.66v0.01
		c5.43-21.85,7.53-44.29,11.44-66.41c-0.16,4.11-1.35,9.66-1.87,14.28c-4.97,40.05-12.98,80.62-31.23,116.93
		c-21.33,34.9-40.52,71.4-63.8,105C120.17,530.15,121.28,528.25,122.33,526.33L122.33,526.33z"/>
	<path class="st3" d="M70.56,524.49c6.95-21.95,17.99-42.52,28.49-62.98c11.91-22.38,23.59-44.96,32.72-68.65
		c-0.01,0.03-0.02,0.05-0.03,0.08c22.81-53.03,23.38-111.52,35.11-167c-3.62,22.88-8.2,46.36-10.06,69.73c0-0.03,0-0.05,0.01-0.07
		c-0.12,1.19-0.24,2.37-0.36,3.56c0-0.03,0.01-0.05,0.01-0.08c-2.97,37.23-14.16,73.31-28.86,107.48l0.01-0.02
		c-0.69,1.48-1.47,2.91-2.11,4.41c0-0.01,0.01-0.02,0.02-0.03c-8.18,19.1-18.51,37.24-28.15,55.64c0-0.01,0.01-0.02,0.01-0.02
		c-9.7,18.55-18.94,37.38-26.32,56.98c-0.1,0.29-0.25,0.58-0.28,0.89C70.79,524.53,70.62,524.62,70.56,524.49L70.56,524.49z"/>
	<path class="st3" d="M126.69,406.78c2.36-7.94,4.38-15.99,6.3-24.04c-0.01,0.03-0.01,0.05-0.02,0.08c0.03-0.15,0.07-0.3,0.11-0.45
		c-0.01,0.03-0.01,0.06-0.02,0.09c5.53-24.44,10.23-49.15,12.85-74.1c0,0.01,0,0.02,0,0.03c0.25-2.53,0.51-5.07,0.77-7.6
		c0.44-4.8,1.04-9.62,1.05-14.45v0.01c-0.01-0.27-0.03-0.54-0.07-0.8c0,0,0,0.01,0,0.02c-1.59,38.91-7.75,82.69-20.08,121.02v-0.01
		c-0.69,1.47-1.46,2.9-2.1,4.39c0.01-0.02,0.02-0.04,0.03-0.06c-0.13,0.31-0.25,0.61-0.38,0.92
		C125.66,410.15,126.19,408.46,126.69,406.78z"/>
	<path class="st3" d="M321.73,342.53c0.11,0.05,0.22,0.09,0.34,0.12C321.89,342.64,321.52,342.81,321.73,342.53z"/>
	<path class="st3" d="M321.03,335.36c-0.63-0.28-0.06-0.3,0.18,0.07C321.15,335.41,321.09,335.39,321.03,335.36z"/>
	<path class="st3" d="M316.48,359.67c-3.63-0.25-7.36-1.03-10.5-2.8l0.06,0.03c0,0-0.04-0.02-0.06-0.03
		c0.02,0.01,0.05,0.02,0.08,0.04c-12.72-6.16-19.5-19.19-24.43-31.85l0.02,0.05v-0.01c0,0,0,0.01,0.01,0.02
		c-7.54-18.48,3-46.1,25.79-43.86h-0.01c2.19,0.11,4.45,0.58,6.6,1.04h-0.04c24.39,4.37,35.82,32,32.12,54.47v-0.03
		c0,0,0,0.02,0,0.03c0-0.01,0.01-0.03,0.01-0.04C342.66,349.83,330.54,360.95,316.48,359.67L316.48,359.67z M330.72,345.12
		c0.1,0.02,0.21-0.15,0.32-0.19C330.94,344.99,330.83,345.06,330.72,345.12z M322.73,320.44c-12.26,0.59-10.29,13.49-4.63,20.6
		C331.9,351.26,347.44,317.31,322.73,320.44z M316.89,316.96c0.14-0.04,0.26-0.13,0.4-0.19
		C317.16,316.83,317.03,316.9,316.89,316.96z"/>
	<path class="st3" d="M356.89,381.89c-3.39-6.24,18.99-13.67,18.98-6.31c0.02-0.01,0.03-0.02,0.05-0.03
		c-3.8,2.37-8.6,1.87-12.79,3.14l0.13-0.03c-0.92,0.25-1.85,0.48-2.73,0.86c0.01-0.01,0.02-0.01,0.03-0.01
		c-0.77,0.24-4.58,1.87-2.89,1.71h-0.01c1.27-0.45,0.94,0.51-0.09,0.56h0.01C357.35,381.83,357.13,381.89,356.89,381.89
		L356.89,381.89z"/>
	<path class="st3" d="M89.11,482.24c5.81-20.3,15.3-39.3,22.24-59.21c-0.01,0.02-0.02,0.05-0.03,0.08
		c7.26-20.76,12.94-42.03,17.45-63.55c1.35-6.42,2.27-12.91,3.7-19.31v0.01C127.38,388.56,107.72,438.43,89.11,482.24L89.11,482.24z
		"/>
	<path class="st3" d="M235.12,836.78c-5.19-11.69-9.46-23.84-16.55-34.48c3.03,7.83,6.35,15.71,10.44,23.5c0,0,0,0,0,0c0,0,0,0,0,0
		c0,0,0,0,0,0c0,0,0,0,0,0c0,0,0,0,0,0c0.92,1.64-0.69,1.46-1.08,0.01c-4.77-9.3-8.62-18.14-12.21-27.68
		c-3.75-5.33-8.02-10.88-10.91-16.75c-27.77-70.23-19.85-150.71-39.97-223.68c-2.27-15.84-11.16-31.13-9.76-47.36
		c-3.02,3.9-6.5,7.77-9.29,11.3c-12.68,18.1,3.8,36.53,4.14,56.66c1.93,14.07,1.52,28.04,1.53,41.88
		c-6.18,76.84,28.03,144.32,70.22,205.61c0.32,1.22,6.44,8.27,3.57,7.97c-26.73-36.24-40.2-79.94-78.67-105.4
		c4.24,20.6,12.32,41.58,15.99,61.38c-22.13-59.81-29.02-154.4-109.11-159.85c-8.34-0.77-17.15-3.78-24,1.7
		c20.33,12.32,70.25,6.58,57.22,42.85c-12.38,31.07-32.6,60.46-38.47,94.02c-4.42,11.32-0.25,48.95-8.21,53.25
		c-19.97-4.91-38.84-12.75-59.29-15.5c-3.14,2.67-8.93,10.55-11.56,8.05c-3.52-15.37-4.19-31.56-2.75-47.37
		c-5.69,17.64,2.65-27.37,4.13-34.11c10.62-39.97,15.05-86.67,51.62-112.72c13.08-12.15,30.87-16.42,45.41-26.04
		c16.6-8.95,37.12-26.73,48.79-35.01C83.9,618.4-0.84,592.04-17.25,688.76c35.92-99.85,138.5-49.67,161.09-165.01
		c-17.88,19.1-38.31,36.62-57.82,53.81c-22.96,16.08-51.1,26.92-71.84,46.41c-47.2,38.69-75.67,130.24-55.23,187.96
		c-9.32-6.62-13.69-31.81-13.47-47.6c-3.35,0.95-0.31-9.2-0.58-10.96c1.15-9.26,2.5-20.23,3.92-29.76
		c-8.48,24.08-10.77,57.08-13.44,78.02c-2.25-32.31,5.79-63.93,15.85-94.35c7.05-21.38,14.6-44.45,28.77-62.46
		c7.58-32.79,15.6-64.18,43.36-86.93c38.08-29.55,53.33-37.53,63.59-87.7c-44.82-69.05-38.79-102.7-4.95-174.86
		c17.22-77.78,76.95-141.38,162.13-126.01c49.76,8.24,99.46,8.2,120.95,65.89c1.53,15.53,4.11,29.95,12.61,43.46
		c9.65-4.81,19.86-2.33,29.42,1.29c21.42,6.03,5.02,35.75,16.3,48.05c21.65,21.3,26.68,21.79,24.86,54.23
		c14.17,19.18,16.9,41.69,17.24,64.91c4.02,64.51-7.73,38.34,35.94,48.77c17.6,4.25,17.88,4.02,22.49,21.59
		c3.21,10.94,9.8,25.38,13.62,36.14c10.97,28.82,22.33,57.46,34.94,85.66c11.63,20.11,12.36,45.47,32.9,59.48
		c29.43,29.23,15,72.55,19.19,108.85c-7.41-53.89,11.66-77.71-34.63-121.36c1.9,17.24,13.17,38.94,14.75,52.97
		c-7.41-19.78-14.28-39.13-18.38-59.93c-22.12-59.04-49.17-117.92-70.6-176.86c1.5,5.47-10.02,12.36-14.34,14.36
		c22.68,35.83,37.98,77.14,50.89,117.45c6.24,22.81,23.9,43.44,25.75,67.21c-1.48,1.64-1-2.05-1.27-2.86
		c-0.8,1.97-2.4,3.36-4.02,4.67c16.12,33.57,17.78,72.69,36.9,105.2c3.82,6.12,2,5.79-0.86-0.04
		c-19.27-32.17-20.26-71.43-36.66-104.75c-1.19,1.51-5.96,2.28-5.29,3.27c5.56,3.3,7.45,14.38,9.89,20.96
		c3.8,20.45,11.79,46.05,15.38,63.04c-9.98-27.22-14.6-56.3-25.66-83.09c-15.3,0.36-27.65-44.44-37.08-58.6
		c-15.61-40.39-36.92-78.89-50.8-119.94c-9.72,2.93-16.52,11.15-26.29,13.71c6.18,34.82,21.12,66.96,50.32,88.32
		c19.45,20.89,36.88,46.98,41.86,75.84c-22.56-33.6-61.96-56.83-87.63-90.24c-41.85-55.05,6.76,49.16,23.85,61.26
		c10.53,23.77,96.62,56.47,88.65,72.02c-44.66-20.48-84.63-48.94-23.52,12.84c14.71,9.83,29.82,27.37,47.33,29.53
		c3.57,1.6-1.2,3.39-3.26,2.8c-20.18-2.2-43.14-1.66-62.04-3.22c-25.22,20.12-50.31-22.06-61.76-42.03
		c-23.28-38.76-26.03-85.41-44.02-126.25c-22.13-44.41-34.61-92.54-46.72-140.12c-16.59,10.27,6.7,59.2,2.34,83.76
		c5.06,75.56,13.4,157.15,56.28,221.69c2.97,5.99,11.11,11.48,12.96,16.5c-4.02-1.22-6.65-6.66-9.96-9.68
		c-68.76-82.19-41.35-218.09-77.01-301.56c11.09,36.41,12.96,74.83,14.93,112.82c-4.67-18.99-1.05-107.44-24.46-110.87
		c14.67,35.31,6.32,74.06,13.18,111.06c4,37.59,24.74,70.17,34.68,106.19c5.66,26.79,11.44,59.9,25.46,80.82
		c1,2.97,5.71,6.76,4.68,9.22c-8.74-22.79-47.71,1.43-38.77,16.99c-39.22-49.49-44.2-120.06-104.15-151.48
		c-14.96-8.58-29.96-42.17-48.25-24.82c-5.1,4.59-10.13,10.21-13.39,16.44c7.79,21.68,8,63.24,23.86,74.23
		c47.71,0.12,90.71,32.01,121.22,66.45c4.47,5.83,11.7,10.15,14.07,15.66c-17.53-17.13-33.39-36.31-53.87-50.16
		c-26.81-15.7-54.4-33.26-86.58-30.22c3.8,22.03,8.26,44.71,9.49,66.26c-6.8-30.62-9.45-64.07-19.26-94.3
		c4.3,32.52,4.33,66.97,18.11,97.37c-22.07-31.2-11.86-84.95-24.85-123.35c3.32,43.68,1.32,89.34,12.05,132.15
		c-20.06-50.78-5.65-121.94-20.9-178.02c-9.09-51.96-37.06-98.28-41.13-151.44c-5.59,73.04,42.99,135.82,41.2,208.92
		c4.1,43.12-7.18,92.89,16,131.39c11.41,18.55,0.87,4.05-3.71-4.64c1.85,4.7,3.64,9.39,5.8,13.99l-0.03-0.05
		C235.68,835.67,236.5,837.66,235.12,836.78L235.12,836.78z M223.01,808.27c0.37,0.64,1.41,2.45,1.76,3.06
		c-0.31-1.25-1.03-2.22-1.84-3.2L223.01,808.27L223.01,808.27z M174.9,483.05c-26.4,40.57,4.9,93.12,19.39,133.73
		c23.06,60.46-2.04,132.72,28.91,189.74c-13.38-62.67,0.16-128.03-19.13-190.17c-15.28-43.1-34.36-86.3-28.78-133.85L174.9,483.05
		L174.9,483.05z M173.4,590.94c17.18,66.57,3.54,142.65,40.68,202.73c-28.94-76.73-15.15-161.28-48.35-238.71
		c2.65,10.22,5.5,22.55,7.13,32.65C173.04,588.71,173.23,589.83,173.4,590.94z M521.54,793.18c9.96-2.78-16.82-17.83-20.97-22.52
		c-14.87-14.99-22.16-38.27-27.39-58.51c5.35,30.49,18.51,62.92,46.38,79.99C520.36,792.6,520.96,792.92,521.54,793.18z
		 M179.18,588.64c22.45,64.51,7.88,136.56,33.71,199.96c-15.19-66,0.8-138.32-33.74-200.07L179.18,588.64L179.18,588.64z
		 M-51.32,747.22c-1.25,12.35-1.65,25.75,0.67,38.3c-1.78-69.84,26.98-148.38,91.86-183.86
		c122.34-63.67,167.86-163.79,185.04-294.99c9.38-27.5,16.8-56.18,28.84-82.96c-5.24,10.28-11.01,23.81-14.81,33.04
		c1.96-10.59,5.93-21.32,10.4-31.11c-1.94,3.13-3.61,6.28-5.67,9.36c-4.11,3.87,3.2-13.08,3.35-13.92
		c-1.73,2.94-3.08,5.67-4.61,8.38c-0.02-2.36,1.61-5,2.36-7.36c-6.47,10.19-10.73,22.25-15.71,33.26
		c-1.82-6.9,2.68-18.01,3.99-25.71c-2.46,5.87-4.41,13.66-6.35,18.93c0.23-5.86,1.66-11.41,2.98-16.93
		c-7.41,9.62,5.93-25.67,6.92-27.39c-3.53,6.72-6.82,13.49-8.87,20.89c-0.16-5.18,2.51-11.39,4.24-16.53
		c-14.32,34.15-16.7,34.93-4.47-1.31c-3.05,6.35-6.08,12.14-7.74,18.42c-0.39-5.24,2.64-11.51,4.43-16.93
		c-1.92,2.86-2.91,6.56-5.48,8.99c-0.93-4.92,2.94-11.35,3.78-16.66c-9.91,21.66-11.46,24.6-2.64-0.27
		c-9.48,14.02-14.43,30.34-20.17,45.97c0,0,0,0,0-0.01c0,0,0,0.01,0-0.01v0.01c0.29-2.62,0.64-5.18,1.08-7.77
		c0.84-18.46,7.94-35.17,16.11-51.57c-7.51,8.98-11.73,19.99-17.97,29.62c-1.16-8.28,2.96-18.28,4.94-26.69
		c-5.2,12.52-7.03,16.44-2.63,0.31c-4.23,6.52-6.7,14.61-10.13,21.38c-0.67-6.18,2.57-13.74,3.97-20.35
		c-3.58,6.83-6.6,14.43-7.74,21.9c-0.71-5.76,3.51-16.79,6-23.69c-21.7,34.37-28.71,66.59-17.23-0.19c-4.05,9.15-6.57,18-7.32,28.1
		c-1.07-7.97,1.09-18.32,4.06-26.46c-7.44,17.71-6.76,13.59-1.7-1.72c-0.27,0.33-0.81,0.92-1.08,1.21h0c0,0,0.01-0.02,0,0
		c0.01-0.02,0.01-0.02,0,0c-3.65,4.09-7.61,8.96-9.59,14.06c0.86-4.98,3.9-9.7,6.59-13.89c-3.4,3.26-5.95,6.95-9.21,9.92
		c1.22-6.29,8.21-13.21,12.02-19.28c-18.53,12.02-33.81,28.04-44.14,47.66v-0.01c0,0,0,0.01,0,0.01c0-0.01,0-0.02,0.01-0.02
		l-0.01,0.02c0,0,0.01-0.02,0.01-0.03c-0.01,0.01-0.01,0.02-0.02,0.03c0.4-1.13,0.87-2.29,1.35-3.47
		c-30.62,55.33-27.15,120.69-25.85,182.1c11.89-59.32,21.44-121.08,43.27-177.26C102.94,349.33,112.06,485.17,30.2,588.09
		c41.03-68.81,105.21-124.08,133.31-200.51c5.02-37.6,7.66-76.99,20.55-113.48v0.01c0,0,0-0.01,0-0.01c0,0,0,0.01,0,0.02v0.01
		c0,0,0.01-0.02,0.01-0.02c-15.73,51.42-15.15,105.46-26.75,157.55c33.86-60.05,23.66-134.46,57.63-195.93
		c-26.46,55.94-26.69,118.33-45.61,176.04c-16.13,26.77-29.57,53.78-42.5,82.34C71.1,582.17-53.87,626.15-51.32,747.22z
		 M163.41,740.51c4.28,3.82,8.37,7.71,12.44,11.71c-12.35-23.11-20.19-47.95-23.28-73.87C141.85,710.28,131.4,717.14,163.41,740.51
		L163.41,740.51z M442.56,683.01c7.64,20.06,3.49,48.89,29.99,26.42c-0.31-19.08-18.15-16.7-30-26.46L442.56,683.01L442.56,683.01z
		 M350.03,518.68c-9.8,70-4.85,137.85,46.27,191.88c-8.3-29.38-25.68-56.96-31.26-86.87c-10.72-36.5-1.06-78.56-15.14-113.7
		c0.13,2.86,0.16,5.62,0.14,8.67L350.03,518.68L350.03,518.68z M146.62,611.88c-12.08,53.07-38.3,44.31-6.72,96.61
		C157.28,678.92,151.35,644.4,146.62,611.88z M547.09,680.43c44.42,82.83-33.09-91.48-40.13-109.57c-10.2,5.3-5.43-18.07-17.85-33.7
		C460.79,503.33,541.12,669.01,547.09,680.43z M512.42,558.03c0.53,4.96,0.9,10.94-4.7,12.59c13.39,29.38,24.49,59.52,38.63,88.58
		c7.78,8.51,12.32,52.95,25.04,42.7c-16.1-49.81-40.54-96.87-59.22-145.88C512.28,556.79,512.36,557.41,512.42,558.03L512.42,558.03
		z M532.44,598.11c9.83,28.35,22.75,55.38,34.97,82.87c2.36,6.66,4.04,13.18,5.19,20.11c1.59-0.66,2.4-3.81,4.06-3.27
		c-24.89-58.25-41.8-121.12-73.98-176.12c-0.41-7.85-22.86,2.1-19.12,5.25c-3.78-2.66-10.85,2.26-15.83,6.31
		c5.75-4.6,11.79-4.36,17.46-5.14c5.69-0.16,12.9-7.58,16.45-7.09c-4.88,3.26,2.42,2.35,2.65,11.36c0.58,0.16,1.22,1.57,0.17,1.38
		c-0.3,3.52,2.34,6.61,1,10.12c-0.98,2.72-6.16,2.15-5.61-1.11c-5.59-23.05-0.82,51.28,11.78,20.51c0.56-9.99-4.46-20.5-5.89-29.35
		c7.15,21.46,17.64,42.84,26.63,63.93l-0.01-0.01L532.44,598.11L532.44,598.11z M457.84,688.8c19.86,12.34,3.12-8.19,5.34-20.3
		c-14.09-16.52-26.01-34.34-31.73-55.18c-7.07-20.96-12.86-42.04-23.93-61.23c-10-21.35-12.99-45.39-29.05-64.37
		c12.67,51.82,28.04,102.35,51.41,150.47C439.66,656.17,433.42,684.28,457.84,688.8L457.84,688.8z M266.42,640.66
		c6.35,5.05,11.53,12.03,17.61,17.24c5.56,1.34,20.67,10.25,12.33-1.3c-6.39-9.2-15.85-16.93-24.58-23.9
		C254.97,616.85,246.53,629.28,266.42,640.66z M283.31,540.05c-7.14,20.6,1.51,29.31,10.76,46.79c4.59,11.33,5.77,16.4,16.2,24.08
		c17.09,10.62,26.96,27.62,44.51,37.39c-35.19-28.14-56.33-69.75-70.87-111.78C283.68,537.84,283.49,538.94,283.31,540.05z
		 M293.88,508.2c-28.65,30.79,28.35,109.6,53.88,132.06c-25.93-29.8-42.1-68.24-51.02-106.47c8.47,29.71,20.41,58.43,36.46,84.83
		C319.29,581.92,299.95,547.5,293.88,508.2L293.88,508.2z M66.83,523.51c-38.3,32.23-80.87,60.78-82.86,115.73
		c7.8-52.45,46.28-85.74,84.95-117.97C68.23,522.04,67.51,522.8,66.83,523.51z M17.65,569.35c-16.19,18.6-25.93,42.06-30.79,65.9
		c13.64-14.18,17.53-32.78,28.68-48.44c14.94-21.71,34.06-38.38,49.47-60.04C50.34,542.49,31.1,552.65,17.65,569.35L17.65,569.35z
		 M309.88,496.76c-13.98,10.02,14.88,52.81,11.8,73c3.09,23.03,7.4,47.69,23.78,65.17c-13.19-34.69-19.48-71.56-23.58-108.23
		c0,0,0.01,0.02,0,0c0.01,0.02,0.01,0.02,0.01,0c0,0.01,0.01,0.03,0.01,0.03C319.6,516.68,316.46,503.49,309.88,496.76
		L309.88,496.76z M284.05,607.72c18.03,4.11,31.97,16.68,48.25,23.98c-3.96-7.96-13.34-8.05-19.93-13.09
		c-8.83-5.53-18.2-11.14-28.88-11C283.68,607.64,283.87,607.68,284.05,607.72L284.05,607.72z M262.19,621.17
		c16.29,16.31,19.07,2.47-0.27-0.2C262.01,621.04,262.11,621.1,262.19,621.17z M16.07,588.76c-6.25,8.91-11.18,17.65-14.65,27.93
		c27.69-25.51,45.71-57.59,65.04-89.7C52.27,549.8,31.66,566.96,16.07,588.76L16.07,588.76z M210.58,600.66
		c21.61,0.64,41.75,6.11,62.67,10.19c-9.21-4.94-16.05-13.78-22.07-22.14c-17.48-22.68-43.41-36.94-63.7-56.95
		C195.26,554.26,203.78,578.31,210.58,600.66L210.58,600.66z M318.44,493.68c11.04,32.42,10.71,79.36,20.95,116.04
		C338.41,571.56,345.55,523.77,318.44,493.68L318.44,493.68z M198.75,436c-19.16,39.21-27.29,48.51-12.23,92.26
		c31.25,24.27,60.83,49.93,85.78,80.53c-3.05-30.38,8.16-60.49,13.82-90.11c-5.67,7.42-13.38,18.7-19.92,22.73
		c4.02-3.9,7.8-8.63,11.09-13.35c4.48-7.22,9.55-13.65,14.58-20.74C255.86,494.1,220.24,467.86,198.75,436L198.75,436z
		 M301.23,501.04c2.66,30.32,9.24,65.81,23.88,94.87C318.35,565.99,315.6,523.8,301.23,501.04z M155.41,510.34
		c0.86,16.47,8.55,31.48,14.45,46.59c-5.47-19.23-8.7-40.36-4.59-60.2c-3.23,4.59-6.76,9.2-10.04,13.46
		C155.32,510.19,155.4,510.25,155.41,510.34z M496.49,524.71c-17.92,4.72-1.54,15.35,1.05,27.42c-0.58-5.34-2.42-11.38-0.78-16.68
		c-0.51-1.78-6.75-8.19-4.12-7.87c4.83,3.6,5.82,10.33,9.43,14.66C504.78,537.14,503.3,524.25,496.49,524.71L496.49,524.71z
		 M322.84,495.6c11.1,16.73,15.51,36.64,18.22,56.19C338.05,534.42,343.81,490.96,322.84,495.6z M430.55,544.9
		c6.67-0.08,20.12-2.67,20.12-2.67l1.33-0.38c11.29-2.89,17.13-13.89,28.63-17.92c-20.46-29.8-15.06-66.07-18.17-99.92
		c-0.42-30.05-24.39-52.09-42.71-73.64c-2.08-2.76,1.39-0.12,2.08,1c2.5,0.84,4.94,1.2,7.62,1.43c2.24,1.36-4.9,1.35-5.98,0.5
		c7.43,9.46,17.87,16.05,23.6,26.76c3.41-29.66-8.91-34.62-27.13-53.56c-0.35,13.71,2.14,33.27-13.27,39.77
		c11.02,6.38,16.05,20.51,28.47,25.16c1.04,0.77,7.19,2.08,4.72,3.21c-5.62-2.49-11.52-3.97-16.18-7.79
		c-1.2,9.12-0.13,20.01,2.7,28.26c-9.09-11.18-0.06-31.92-12.97-40.75c-18,7.53-25.74-2.95-24.38,17.04
		c-2.3,13.04,4.47,14.65,11.87,23.39c7.86,9.49,13.06,20.98,16.35,32.78c0.14,0.48,1.13,2.97-0.07,2.05
		c-4.7-16.13-12.52-33.2-27.82-41.66c0.14,12.33-2.77,24.32-6.99,35.78c-3.44,13.89,4.02,26.1-6.21,38.9
		C398.05,500.74,394.01,546.28,430.55,544.9L430.55,544.9z M501.12,543.33c2.39,2.59,3.88-1.12,3.21-3.36
		c-0.29,1.61-1.28,4.39-3.23,3.33C501.1,543.32,501.12,543.33,501.12,543.33L501.12,543.33z M288.61,484.07
		c30.74,9.71,97.27,25.41,90.66-27.13c-0.58-7.61,1.6-14.92,4.44-21.92c-15.93,5.87-35.18-5.56-51.57-5.76
		c16.57-10.83,31.67-31.26,52.66-26.29c7.52,6.3-7.41,18.47,1.4,24.19c3.95-17.35,0.11-34.87,2.52-52.47
		c-1.7,2.79-21.09,11.46-11.32,4.25c42.1-16.65-22.61-44.34-21.07-68.85c-8.54-0.14-1.04,38.19-16.66,47.34
		c-33.62,27.89-70.74-7.8-73.55-43.85c-15.52,3.37-29.8,10.85-43.19,19.15c-4.75,31.01-8.43,61.85-19.52,91.03
		C229.62,465.06,245.11,467.5,288.61,484.07L288.61,484.07z M162.04,181.54c-123.5,71.59-46.15,191.1-75.67,296.76
		c38.24-95.57-18.99-224.74,75.7-296.77L162.04,181.54L162.04,181.54z M79.71,452.3c2.72,5.22,5.19,11.06,7.53,16.54
		c1.72-9.32-6.9-15.15-10.84-22.98C77.53,448.02,78.65,450.18,79.71,452.3z M69.94,402.82c1.08,19.19,7.75,37.88,16.03,55.2
		c-18.45-49.69,1.27-98.97-2.15-149.45c-6.76,30.5-16.62,60.72-14.01,92.32l-0.01-0.01C69.84,401.52,69.89,402.17,69.94,402.82z
		 M82.89,308.92c-15.54,54.71-36.1,95.22,1.39,147.13c-26.69-51.08-14.34-94.76-1.31-147.38L82.89,308.92L82.89,308.92z
		 M156.91,427.88c-1.56,3.96-4.17,9.82-5.67,13.13c4.2-6.43,4.88-6.47,6.17-14.36C157.24,427.06,157.08,427.47,156.91,427.88
		L156.91,427.88z M85.61,290.08c-17.21,48.89-46.73,96.97-13.89,147.01c-25.52-48.61,6.52-99.27,14.16-147.82
		C85.79,289.54,85.7,289.82,85.61,290.08z M335.76,428.44c73.19,21.96,54.12-23.49-0.05,0.01
		C335.72,428.45,335.74,428.44,335.76,428.44z M365.98,413.85c-5.86,0.77-11.16,4.09-16.08,7.33c7.27-0.17,14.84-0.44,22.12-0.88
		C373.71,414.2,372.06,413.27,365.98,413.85L365.98,413.85z M393.8,361.4c0.58,13.3,21.82,0.88,23.43-7.89
		c1.68-14.76,6.32-64.12-7.29-71.35c-17.98-10.77-48.01-2.01-47.57,20.15c8.88-16.9,10.89,18,1.77,10.94
		c1.44,9.8,3.74,18.87,10.98,25.97c-11.58-17.03-6.39-56.88,20.5-51.33C418.94,298.53,426.2,361.85,393.8,361.4L393.8,361.4z
		 M279.18,341.83c10.14,18.37,27.97,27.96,48.39,20.64h-0.01c20.73-7,25.16-32.86,23.02-52.01c-3.29,12.01-5.83,0.91-8.52-5.19
		c-4.95-8.21,3.83-12.8,5.96-2.99c-8.94-34.99-57.88-39.44-87.78-27.59C269.42,295.92,267.37,321.31,279.18,341.83L279.18,341.83
		L279.18,341.83c0,0,0-0.01,0-0.01C279.18,341.82,279.18,341.82,279.18,341.83L279.18,341.83z M378.8,342.6
		c8.55,9.08,11.51,3.3,13.05-6.29c-2.63-4.72-13.3-13.9-15.41-4.14C375.48,335.43,375.73,340.23,378.8,342.6L378.8,342.6z
		 M229.97,305.12c-4.08,6.92-4.57,18.33-6.75,26.15c12.49-7.97,25.4-16.17,39.88-20.21C254.86,282.35,252.01,297.15,229.97,305.12
		L229.97,305.12z M386.62,324.58c1.52,0.83,4.09,3.93,5.81,2.97C394.26,323.25,378.11,317.94,386.62,324.58z M347.17,313.73
		c3.32-1.41-0.8-11.78-2.41-15.49C339.72,299.84,345.76,309.82,347.17,313.73z M367.32,299.33c-8.18,0.44,0.86,8.37-3.24,12.05
		c4.35,5.08,4.5-1.61,4.5-4.9C368.23,304.47,370.09,299.79,367.32,299.33z M357.12,308.31c12.59,4.23,6.15-9.09-3.74-5.57
		c-0.98-0.5-2.71-0.34-3.79,0.02c0.02-0.01,0.05-0.02,0.07-0.04c-2.55,0.77,0.27,4.48-0.08,6.72
		C351.93,308.77,354.51,308.08,357.12,308.31L357.12,308.31z M306.86,198.66c-42.31,29.56-65.26,53.01-77.28,105.22
		c8.3-11.24,37.75-10.07,28.42-26.17c-0.75-1.8-1.98-4.7,0.59-4.79c113.32-30.26,69.37,69.1,117.79,6.34
		c-4.75-9.92-10-19.7-12.26-30.32C358.55,220.44,330.34,207.72,306.86,198.66L306.86,198.66z"/>
	<path class="st3" d="M348.38,304.25c-3.04-2.47,7.49-4.44,8.82-2.54c-1.98,1.58-6.1,1.57-8.8,2.54c0.02,0,0.04,0,0.06,0
		c-0.03,0-0.07,0-0.1,0H348.38z"/>
	<path class="st3" d="M349.86,310.1c-3.44-3.94,16.98-1.32,9.17-0.29h0.03c-0.03,0-0.06,0-0.1-0.01c0.02,0,0.03,0,0.05,0.01
		C355.93,309.33,352.9,310.2,349.86,310.1L349.86,310.1z"/>
	<path class="st3" d="M360.45,310.42c-0.58-0.23-2.73-0.89-1.3-1.45L359.1,309C361.17,307.61,363.95,311.22,360.45,310.42
		L360.45,310.42z"/>
	<path class="st3" d="M363.38,311.18c-0.21-0.05-0.41-0.12-0.62-0.18l0.12,0.03c-1.02-0.2-5.7-1.86-2.95-2.35
		c-0.02,0-0.05,0.01-0.08,0.01C361.37,307.94,366.79,310.26,363.38,311.18L363.38,311.18z"/>
	<path class="st3" d="M368.81,332.28c-0.33-0.35-0.59-0.76-0.8-1.2v0.01c0,0-0.01-0.03-0.01-0.04v0.01
		C367.66,328.88,370.3,332.94,368.81,332.28L368.81,332.28z"/>
	<path class="st3" d="M360.11,302.45c-1.16-1.69,1.26-4.4,1.57-6.34c-0.01,0.03-0.03,0.07-0.04,0.11c0.89-2.19,2.23-4.16,3.61-6.07
		l-0.02,0.02l0.14-0.19l-0.01,0.01c0,0,0.03-0.04,0.04-0.06c0.13-0.17,0.25-0.34,0.38-0.5c-0.02,0.02-0.03,0.05-0.05,0.07
		c3.34-4.57,7.84-8.11,12.77-10.84c0,0,0.02-0.02,0.03-0.02h0c0,0-0.02,0.02-0.02,0.03c0.01-0.03,0.04-0.06,0.08-0.07h-0.01
		c0,0,0.02,0,0.03,0h-0.01c0.19,0.02,0.09,0.22-0.03,0.27l0.01-0.01c-1.14,1.08-2.48,1.93-3.69,2.93l0.01-0.01
		c-2.9,2.19-5.38,4.88-7.55,7.79l0.01-0.02c-0.64,0.86-1.22,1.78-1.74,2.72l-0.02,0.02l0.01-0.02
		C363.35,295.22,362.72,300.27,360.11,302.45L360.11,302.45z"/>
</g>
</svg>
