<svg width="554" height="309" viewBox="0 0 554 309" fill="none" xmlns="http://www.w3.org/2000/svg">
<path d="M0.800049 120V118.8C3.92005 118.8 6.24005 118 7.76005 116.4C9.36005 114.72 10.44 112.28 11 109.08C11.64 105.8 11.92 101.76 11.84 96.96C11.84 92.08 11.84 86.44 11.84 80.04V39.96C11.84 33.56 11.84 27.96 11.84 23.16C11.92 18.28 11.64 14.24 11 11.04C10.44 7.75999 9.36005 5.31999 7.76005 3.72C6.24005 2.03999 3.92005 1.19999 0.800049 1.19999V0H34.8801V1.19999C31.7601 1.19999 29.4401 2.03999 27.92 3.72C26.4001 5.31999 25.3201 7.75999 24.68 11.04C24.12 14.24 23.8401 18.28 23.8401 23.16C23.8401 27.96 23.8401 33.56 23.8401 39.96V61.56C26.1601 58.6 29.36 54.6 33.44 49.56C37.5201 44.52 42.2001 38.64 47.48 31.92C51.4801 26.88 54.8001 22.48 57.4401 18.72C60.0801 14.88 61.8801 11.68 62.84 9.12C63.8801 6.48 63.9601 4.52 63.0801 3.23999C62.2001 1.87999 60.2 1.19999 57.0801 1.19999V0H88.6401V1.19999C85.7601 1.19999 82.7601 2.11999 79.6401 3.95999C76.6 5.71999 72.92 8.71999 68.6001 12.96C64.2801 17.2 59.1201 22.84 53.1201 29.88C47.2 36.84 39.96 45.56 31.4 56.04C37.56 55.8 43.68 57.04 49.76 59.76C55.92 62.4 61.5601 66.44 66.6801 71.88C71.8801 77.32 76.28 84.08 79.8801 92.16C83.5601 100.24 86.0401 109.52 87.3201 120H74.9601C74.3201 112.48 72.7201 105.32 70.1601 98.52C67.6801 91.64 64.2801 85.6 59.9601 80.4C55.7201 75.2 50.6401 71.12 44.7201 68.16C38.8801 65.2 32.2401 63.88 24.8 64.2C24.64 64.36 24.48 64.56 24.32 64.8C24.16 65.04 24.0001 65.24 23.8401 65.4V80.04C23.8401 86.44 23.8401 92.08 23.8401 96.96C23.8401 101.76 24.12 105.8 24.68 109.08C25.3201 112.28 26.4001 114.72 27.92 116.4C29.4401 118 31.7601 118.8 34.8801 118.8V120H0.800049Z" fill="#FE79F3"/>
<path d="M95.8813 101.76C95.8813 95.44 97.6013 90.16 101.041 85.92C104.481 81.68 108.801 77.88 114.001 74.52C119.281 71.16 125.001 67.96 131.161 64.92C137.401 61.88 143.241 58.44 148.681 54.6C147.721 51.24 146.841 48.28 146.041 45.72C145.241 43.16 144.321 41.04 143.281 39.36C142.241 37.68 141.041 36.4 139.681 35.52C138.401 34.64 136.801 34.2 134.881 34.2C132.161 34.2 129.561 35.12 127.081 36.96C124.601 38.8 122.161 40.8 119.761 42.96C117.441 45.12 115.081 47.12 112.681 48.96C110.281 50.8 107.801 51.72 105.241 51.72C103.161 51.72 101.441 51.08 100.081 49.8C98.7213 48.44 98.2413 46.72 98.6413 44.64C99.2813 43.44 100.721 42.12 102.961 40.68C105.281 39.16 108.081 37.76 111.361 36.48C114.721 35.12 118.401 34 122.401 33.12C126.401 32.24 130.401 31.8 134.401 31.8C140.321 31.8 145.041 33.24 148.561 36.12C152.161 39 155.081 42.72 157.321 47.28C159.561 51.84 161.401 56.96 162.841 62.64C164.281 68.24 165.881 73.76 167.641 79.2C170.201 87.2 172.321 93.8 174.001 99C175.681 104.12 177.321 108.16 178.921 111.12C180.521 114 182.281 116 184.201 117.12C186.121 118.24 188.561 118.8 191.521 118.8V120H173.281C171.841 120 170.641 119.8 169.681 119.4C168.721 119 167.881 118.28 167.161 117.24C166.521 116.2 165.881 114.76 165.241 112.92C164.681 111 164.001 108.6 163.201 105.72C162.961 104.92 162.521 103.4 161.881 101.16C161.241 98.92 160.481 96.32 159.601 93.36C158.801 90.32 157.881 87.08 156.841 83.64C155.881 80.2 154.961 76.92 154.081 73.8C153.121 80.36 151.601 86.56 149.521 92.4C147.441 98.16 144.841 103.24 141.721 107.64C138.601 111.96 134.961 115.4 130.801 117.96C126.641 120.52 121.961 121.8 116.761 121.8C113.401 121.8 110.401 121.28 107.761 120.24C105.201 119.2 103.041 117.76 101.281 115.92C99.5213 114.08 98.1613 111.96 97.2013 109.56C96.3213 107.08 95.8813 104.48 95.8813 101.76ZM107.881 99.48C107.881 103.48 109.121 106.76 111.601 109.32C114.161 111.88 117.441 113.16 121.441 113.16C125.521 113.16 129.121 112.24 132.241 110.4C135.361 108.48 138.041 106.04 140.281 103.08C142.601 100.12 144.521 96.8 146.041 93.12C147.561 89.36 148.721 85.68 149.521 82.08C150.401 78.48 150.961 75.08 151.201 71.88C151.441 68.68 151.481 66.12 151.321 64.2C150.921 63 150.561 61.8 150.241 60.6C150.001 59.4 149.721 58.16 149.401 56.88C144.921 60.24 140.241 63.44 135.361 66.48C130.481 69.44 126.001 72.56 121.921 75.84C117.841 79.04 114.481 82.52 111.841 86.28C109.201 90.04 107.881 94.44 107.881 99.48Z" fill="#FE79F3"/>
<path d="M207.116 37.2V101.88C207.116 103.56 207.236 105.32 207.476 107.16C207.796 109 208.276 110.72 208.916 112.32C209.556 113.92 210.436 115.24 211.556 116.28C212.756 117.32 214.196 117.84 215.876 117.84C218.756 117.84 221.316 117.12 223.556 115.68C225.796 114.16 227.596 112.28 228.956 110.04L230.156 110.88C229.596 111.92 228.756 113.08 227.636 114.36C226.516 115.56 225.196 116.72 223.676 117.84C222.236 118.96 220.596 119.88 218.756 120.6C216.916 121.4 215.036 121.8 213.116 121.8C209.516 121.8 206.556 121.2 204.236 120C201.916 118.72 200.076 117.08 198.716 115.08C197.356 113 196.396 110.64 195.836 108C195.356 105.28 195.116 102.44 195.116 99.48V37.2H182.516V33.6C184.436 33.6 186.596 32.76 188.996 31.08C191.396 29.4 193.716 27.28 195.956 24.72C198.196 22.16 200.236 19.4 202.076 16.44C203.916 13.48 205.236 10.72 206.036 8.16H207.236C207.236 10.24 207.236 12.6 207.236 15.24C207.156 17.56 207.116 20.28 207.116 23.4C207.116 26.44 207.116 29.84 207.116 33.6H226.196V37.2H207.116Z" fill="#FE79F3"/>
<path d="M225.402 76.8C225.402 70.56 226.602 64.72 229.002 59.28C231.402 53.84 234.642 49.08 238.722 45C242.882 40.92 247.682 37.72 253.122 35.4C258.642 33 264.482 31.8 270.642 31.8C276.802 31.8 282.082 32.72 286.482 34.56C290.882 36.4 294.482 38.68 297.282 41.4C300.082 44.04 302.122 46.92 303.402 50.04C304.762 53.16 305.442 56 305.442 58.56C305.442 61.12 304.962 63.2 304.002 64.8C303.042 66.4 301.802 67.68 300.282 68.64C298.762 69.52 297.042 70.12 295.122 70.44C293.282 70.76 291.442 70.92 289.602 70.92H235.602C235.602 76.68 236.722 82.08 238.962 87.12C241.202 92.08 244.202 96.4 247.962 100.08C251.802 103.76 256.202 106.64 261.162 108.72C266.122 110.8 271.362 111.84 276.882 111.84C280.962 111.84 284.802 111.28 288.402 110.16C292.002 108.96 295.242 107.4 298.122 105.48C301.082 103.48 303.602 101.16 305.682 98.52C307.842 95.8 309.522 92.96 310.722 90L311.922 90.48C310.722 95.04 308.802 99.24 306.162 103.08C303.602 106.84 300.482 110.12 296.802 112.92C293.202 115.72 289.162 117.92 284.682 119.52C280.282 121.04 275.602 121.8 270.642 121.8C264.482 121.8 258.642 120.64 253.122 118.32C247.682 115.92 242.882 112.68 238.722 108.6C234.642 104.52 231.402 99.76 229.002 94.32C226.602 88.88 225.402 83.04 225.402 76.8ZM268.002 67.8C271.122 67.8 274.162 67.72 277.122 67.56C280.162 67.4 282.842 66.96 285.162 66.24C287.562 65.52 289.482 64.44 290.922 63C292.442 61.56 293.202 59.56 293.202 57C293.202 53.72 292.522 50.8 291.162 48.24C289.882 45.68 288.002 43.48 285.522 41.64C283.122 39.8 280.202 38.4 276.762 37.44C273.402 36.48 269.642 36 265.482 36C261.002 36 256.962 36.8 253.362 38.4C249.842 39.92 246.802 42.08 244.242 44.88C241.682 47.68 239.642 51.08 238.122 55.08C236.682 59.08 235.842 63.52 235.602 68.4C238.562 68.32 241.282 68.24 243.762 68.16C246.322 68.08 248.842 68.04 251.322 68.04C253.802 67.96 256.362 67.92 259.002 67.92C261.722 67.84 264.722 67.8 268.002 67.8Z" fill="#FE79F3"/>
<path d="M0.800049 265V263.8C3.92005 263.8 6.24005 263 7.76005 261.4C9.36005 259.72 10.44 257.28 11 254.08C11.64 250.8 11.92 246.76 11.84 241.96C11.84 237.08 11.84 231.44 11.84 225.04V184.96C11.84 178.56 11.84 172.96 11.84 168.16C11.92 163.28 11.64 159.24 11 156.04C10.44 152.76 9.36005 150.32 7.76005 148.72C6.24005 147.04 3.92005 146.2 0.800049 146.2V145H34.8801V146.2C31.7601 146.2 29.4401 147.04 27.92 148.72C26.4001 150.32 25.3201 152.76 24.68 156.04C24.12 159.24 23.8401 163.28 23.8401 168.16C23.8401 172.96 23.8401 178.56 23.8401 184.96V262.6H25.0401C31.6001 262.6 37.9601 262.28 44.1201 261.64C50.2801 260.92 56.0401 259.72 61.4001 258.04C66.8401 256.36 71.76 254.08 76.16 251.2C80.5601 248.24 84.3201 244.48 87.4401 239.92H88.0401L79.2801 265H0.800049Z" fill="#FE79F3"/>
<path d="M89.2626 265V263.8C92.3826 263.8 94.7025 263 96.2225 261.4C97.8225 259.72 98.9025 257.28 99.4625 254.08C100.103 250.8 100.383 246.76 100.303 241.96C100.303 237.08 100.303 231.44 100.303 225.04C100.303 218.64 100.303 213.04 100.303 208.24C100.383 203.36 100.103 199.32 99.4625 196.12C98.9025 192.84 97.8225 190.4 96.2225 188.8C94.7025 187.12 92.3826 186.28 89.2626 186.28V185.08C93.1826 185.08 97.1825 184.28 101.263 182.68C105.343 181.08 109.063 179.12 112.423 176.8C112.423 181.28 112.423 186.12 112.423 191.32C112.343 195.8 112.303 200.92 112.303 206.68C112.303 212.44 112.303 218.56 112.303 225.04C112.303 231.44 112.303 237.08 112.303 241.96C112.303 246.76 112.583 250.8 113.143 254.08C113.783 257.28 114.863 259.72 116.383 261.4C117.903 263 120.223 263.8 123.343 263.8V265H89.2626ZM105.463 151.6C108.503 151.6 111.103 152.68 113.263 154.84C115.423 156.92 116.503 159.48 116.503 162.52C116.503 165.56 115.423 168.16 113.263 170.32C111.103 172.48 108.503 173.56 105.463 173.56C102.423 173.56 99.8226 172.48 97.6626 170.32C95.5826 168.16 94.5425 165.56 94.5425 162.52C94.5425 159.48 95.5826 156.92 97.6626 154.84C99.8226 152.68 102.423 151.6 105.463 151.6Z" fill="#FE79F3"/>
<path d="M125.708 185.08C129.628 185.08 133.628 184.28 137.708 182.68C141.788 181.08 145.508 179.12 148.868 176.8C148.868 179.6 148.868 182.72 148.868 186.16C148.788 189.04 148.748 192.48 148.748 196.48C148.748 200.4 148.748 204.68 148.748 209.32C149.948 205.72 151.508 202 153.428 198.16C155.348 194.32 157.588 190.84 160.148 187.72C162.708 184.52 165.548 181.92 168.668 179.92C171.788 177.84 175.148 176.8 178.748 176.8C182.188 176.8 185.028 178 187.268 180.4C189.508 182.72 191.388 185.68 192.908 189.28C194.428 192.88 195.708 196.8 196.748 201.04C197.788 205.2 198.828 209.12 199.868 212.8C201.388 218.08 202.908 223.72 204.428 229.72C205.948 235.72 207.628 241.24 209.468 246.28C211.388 251.32 213.548 255.52 215.948 258.88C218.428 262.16 221.348 263.8 224.708 263.8V265H209.108C206.708 265 204.708 264.24 203.108 262.72C201.588 261.12 200.228 258.96 199.028 256.24C197.908 253.44 196.868 250.2 195.908 246.52C195.028 242.84 194.068 238.88 193.028 234.64C192.148 231.04 191.188 227.08 190.148 222.76C189.108 218.36 188.148 214.36 187.268 210.76C186.308 207 185.348 203.56 184.388 200.44C183.428 197.32 182.348 194.64 181.148 192.4C180.028 190.16 178.748 188.4 177.308 187.12C175.948 185.84 174.388 185.2 172.628 185.2C169.588 185.2 166.628 186.52 163.748 189.16C160.948 191.72 158.428 194.92 156.188 198.76C153.948 202.6 152.148 206.72 150.788 211.12C149.428 215.44 148.748 219.36 148.748 222.88V225.04C148.748 231.44 148.748 237.08 148.748 241.96C148.748 246.76 149.028 250.8 149.588 254.08C150.228 257.28 151.308 259.72 152.828 261.4C154.348 263 156.668 263.8 159.788 263.8V265H125.708V263.8C128.828 263.8 131.148 263 132.668 261.4C134.268 259.72 135.348 257.28 135.908 254.08C136.548 250.8 136.828 246.76 136.748 241.96C136.748 237.08 136.748 231.44 136.748 225.04C136.748 218.64 136.748 213.04 136.748 208.24C136.828 203.36 136.548 199.32 135.908 196.12C135.348 192.84 134.268 190.4 132.668 188.8C131.148 187.12 128.828 186.28 125.708 186.28V185.08Z" fill="#FE79F3"/>
<path d="M221.066 226.36C221.066 218.84 222.426 212.12 225.146 206.2C227.866 200.28 231.426 195.24 235.826 191.08C240.226 186.84 245.226 183.52 250.826 181.12C256.426 178.72 262.146 177.32 267.986 176.92C267.746 175.96 267.506 175.12 267.266 174.4C267.106 173.68 266.946 173.04 266.786 172.48C266.626 171.84 266.466 171.28 266.306 170.8C265.266 167.52 264.386 164.64 263.666 162.16C262.946 159.68 262.186 157.6 261.386 155.92C260.586 154.24 259.626 153 258.506 152.2C257.386 151.32 255.866 150.88 253.946 150.88C252.506 150.88 251.146 151.04 249.866 151.36C248.666 151.6 247.266 151.92 245.666 152.32V151.12C247.746 150.4 249.826 149.6 251.906 148.72C253.986 147.76 255.986 146.88 257.906 146.08C259.826 145.28 261.546 144.6 263.066 144.04C264.666 143.48 265.946 143.2 266.906 143.2C268.186 143.2 269.226 143.52 270.026 144.16C270.826 144.72 271.466 145.56 271.946 146.68C272.506 147.72 272.986 149 273.386 150.52C273.786 151.96 274.226 153.52 274.706 155.2C276.466 162.16 278.266 169.12 280.106 176.08C281.626 181.92 283.266 188.16 285.026 194.8C286.786 201.44 288.426 207.44 289.946 212.8C291.466 218.08 292.986 223.72 294.506 229.72C296.026 235.72 297.706 241.24 299.546 246.28C301.466 251.32 303.626 255.52 306.026 258.88C308.506 262.16 311.426 263.8 314.786 263.8V265H299.186C295.986 265 293.466 263.6 291.626 260.8C289.786 258 288.186 254.28 286.826 249.64C283.706 254.44 279.626 258.52 274.586 261.88C269.546 265.16 263.666 266.8 256.946 266.8C250.466 266.8 244.946 265.72 240.386 263.56C235.906 261.4 232.226 258.48 229.346 254.8C226.466 251.04 224.346 246.72 222.986 241.84C221.706 236.96 221.066 231.8 221.066 226.36ZM232.106 222.76C232.106 227.56 232.666 232.36 233.786 237.16C234.906 241.88 236.626 246.16 238.946 250C241.346 253.76 244.346 256.84 247.946 259.24C251.546 261.56 255.826 262.72 260.786 262.72C263.666 262.72 266.346 262.28 268.826 261.4C271.306 260.52 273.586 259.36 275.666 257.92C277.746 256.4 279.626 254.68 281.306 252.76C283.066 250.84 284.626 248.8 285.986 246.64C285.506 244.8 285.026 242.88 284.546 240.88C284.066 238.88 283.586 236.8 283.106 234.64C281.026 225.28 278.746 216.04 276.266 206.92C273.786 197.72 271.266 188.52 268.706 179.32C262.946 179.64 257.786 181.12 253.226 183.76C248.746 186.32 244.906 189.64 241.706 193.72C238.586 197.72 236.186 202.24 234.506 207.28C232.906 212.32 232.106 217.48 232.106 222.76Z" fill="#FE79F3"/>
<path d="M350.501 176.8C357.221 176.8 363.181 177.64 368.381 179.32C373.581 180.92 378.501 183.52 383.141 187.12C383.541 189.52 382.981 191.56 381.461 193.24C379.941 194.92 377.941 195.76 375.461 195.76C372.821 195.76 370.541 194.96 368.621 193.36C366.781 191.68 364.781 189.84 362.621 187.84C360.461 185.84 357.901 184.04 354.941 182.44C352.061 180.76 348.261 179.92 343.541 179.92C341.381 179.92 339.061 180.28 336.581 181C334.101 181.64 331.821 182.64 329.741 184C327.661 185.36 325.941 187.08 324.581 189.16C323.221 191.16 322.541 193.52 322.541 196.24C322.541 200.64 324.101 204 327.221 206.32C330.421 208.56 334.381 210.4 339.101 211.84C343.901 213.28 349.061 214.56 354.581 215.68C360.181 216.8 365.341 218.36 370.061 220.36C374.861 222.28 378.821 225 381.941 228.52C385.141 231.96 386.741 236.72 386.741 242.8C386.741 246.96 385.661 250.56 383.501 253.6C381.421 256.64 378.661 259.16 375.221 261.16C371.781 263.08 367.941 264.48 363.701 265.36C359.541 266.32 355.341 266.8 351.101 266.8C347.181 266.8 343.661 266.56 340.541 266.08C337.501 265.68 334.621 265.04 331.901 264.16C329.181 263.28 326.501 262.12 323.861 260.68C321.301 259.24 318.541 257.52 315.581 255.52V230.8H316.781C317.661 235.36 319.141 239.68 321.221 243.76C323.301 247.76 325.901 251.28 329.021 254.32C332.141 257.36 335.701 259.76 339.701 261.52C343.781 263.28 348.221 264.16 353.021 264.16C356.061 264.16 359.061 263.76 362.021 262.96C365.061 262.16 367.741 261 370.061 259.48C372.461 257.88 374.381 255.92 375.821 253.6C377.341 251.2 378.101 248.48 378.101 245.44C378.101 242.32 377.141 239.76 375.221 237.76C373.381 235.68 370.941 233.96 367.901 232.6C364.861 231.16 361.381 229.96 357.461 229C353.541 228.04 349.541 227.08 345.461 226.12C341.461 225.08 337.501 223.96 333.581 222.76C329.661 221.56 326.181 220.04 323.141 218.2C320.101 216.36 317.621 214.08 315.701 211.36C313.861 208.64 312.941 205.32 312.941 201.4C312.941 197.16 314.101 193.52 316.421 190.48C318.741 187.36 321.701 184.8 325.301 182.8C328.981 180.8 333.021 179.32 337.421 178.36C341.901 177.32 346.261 176.8 350.501 176.8Z" fill="#FE79F3"/>
<path d="M395.178 246.76C395.178 240.44 396.898 235.16 400.338 230.92C403.778 226.68 408.098 222.88 413.298 219.52C418.578 216.16 424.298 212.96 430.458 209.92C436.698 206.88 442.538 203.44 447.978 199.6C447.018 196.24 446.138 193.28 445.338 190.72C444.538 188.16 443.618 186.04 442.578 184.36C441.538 182.68 440.338 181.4 438.978 180.52C437.698 179.64 436.098 179.2 434.178 179.2C431.458 179.2 428.858 180.12 426.378 181.96C423.898 183.8 421.458 185.8 419.058 187.96C416.738 190.12 414.378 192.12 411.978 193.96C409.578 195.8 407.098 196.72 404.538 196.72C402.458 196.72 400.738 196.08 399.378 194.8C398.018 193.44 397.538 191.72 397.938 189.64C398.578 188.44 400.018 187.12 402.258 185.68C404.578 184.16 407.378 182.76 410.658 181.48C414.018 180.12 417.698 179 421.698 178.12C425.698 177.24 429.698 176.8 433.698 176.8C439.618 176.8 444.338 178.24 447.858 181.12C451.458 184 454.378 187.72 456.618 192.28C458.858 196.84 460.698 201.96 462.138 207.64C463.578 213.24 465.178 218.76 466.938 224.2C469.498 232.2 471.618 238.8 473.298 244C474.978 249.12 476.618 253.16 478.218 256.12C479.818 259 481.578 261 483.498 262.12C485.418 263.24 487.858 263.8 490.818 263.8V265H472.578C471.138 265 469.938 264.8 468.978 264.4C468.018 264 467.178 263.28 466.458 262.24C465.818 261.2 465.178 259.76 464.538 257.92C463.978 256 463.298 253.6 462.498 250.72C462.258 249.92 461.818 248.4 461.178 246.16C460.538 243.92 459.778 241.32 458.898 238.36C458.098 235.32 457.178 232.08 456.138 228.64C455.178 225.2 454.258 221.92 453.378 218.8C452.418 225.36 450.898 231.56 448.818 237.4C446.738 243.16 444.138 248.24 441.018 252.64C437.898 256.96 434.258 260.4 430.098 262.96C425.938 265.52 421.258 266.8 416.058 266.8C412.698 266.8 409.698 266.28 407.058 265.24C404.498 264.2 402.338 262.76 400.578 260.92C398.818 259.08 397.458 256.96 396.498 254.56C395.618 252.08 395.178 249.48 395.178 246.76ZM407.178 244.48C407.178 248.48 408.418 251.76 410.898 254.32C413.458 256.88 416.738 258.16 420.738 258.16C424.818 258.16 428.418 257.24 431.538 255.4C434.658 253.48 437.338 251.04 439.578 248.08C441.898 245.12 443.818 241.8 445.338 238.12C446.858 234.36 448.018 230.68 448.818 227.08C449.698 223.48 450.258 220.08 450.498 216.88C450.738 213.68 450.778 211.12 450.618 209.2C450.218 208 449.858 206.8 449.538 205.6C449.298 204.4 449.018 203.16 448.698 201.88C444.218 205.24 439.538 208.44 434.658 211.48C429.778 214.44 425.298 217.56 421.218 220.84C417.138 224.04 413.778 227.52 411.138 231.28C408.498 235.04 407.178 239.44 407.178 244.48Z" fill="#FE79F3"/>
<path d="M455.578 288.28C455.578 284.84 456.378 281.68 457.978 278.8C459.578 275.92 461.698 273.44 464.338 271.36C466.898 269.36 469.858 267.8 473.218 266.68C476.578 265.56 479.978 265 483.418 265C484.938 265 486.618 265.08 488.458 265.24C490.378 265.48 492.298 265.68 494.218 265.84C496.218 266.08 498.138 266.28 499.978 266.44C501.818 266.68 503.498 266.8 505.018 266.8C505.578 266.8 506.098 266.8 506.578 266.8C507.058 266.8 507.538 266.76 508.018 266.68C506.338 265.8 504.698 264 503.098 261.28C501.578 258.48 500.058 254.88 498.538 250.48C497.338 247.04 496.018 243.08 494.578 238.6C493.138 234.04 491.778 229.88 490.498 226.12C488.578 220.44 486.738 214.84 484.978 209.32C483.218 203.8 481.378 198.88 479.458 194.56C477.538 190.16 475.378 186.6 472.978 183.88C470.658 181.16 467.938 179.8 464.818 179.8V178.6H503.218V179.8C500.178 179.8 497.778 180.64 496.018 182.32C494.338 183.92 493.498 186.2 493.498 189.16C493.498 190.6 493.738 192.48 494.218 194.8C494.698 197.12 495.338 199.76 496.138 202.72C496.938 205.6 497.818 208.72 498.778 212.08C499.818 215.36 500.858 218.72 501.898 222.16C503.258 226.8 504.618 231.36 505.978 235.84C507.418 240.24 508.778 244.2 510.058 247.72C511.338 251.16 512.578 253.96 513.778 256.12C514.978 258.28 516.098 259.36 517.138 259.36C518.098 259.36 519.018 258.72 519.898 257.44C520.858 256.16 521.338 253.4 521.338 249.16C521.338 244.36 521.138 240.04 520.738 236.2C520.418 232.36 520.058 228.64 519.658 225.04C519.258 221.36 518.858 217.64 518.458 213.88C518.138 210.04 517.978 205.76 517.978 201.04C517.978 198.32 518.298 195.56 518.938 192.76C519.578 189.88 520.538 187.28 521.818 184.96C523.178 182.56 524.858 180.6 526.858 179.08C528.938 177.56 531.418 176.8 534.298 176.8C537.498 176.8 540.298 177.76 542.698 179.68C545.098 181.52 547.058 183.96 548.578 187C550.178 189.96 551.338 193.28 552.058 196.96C552.858 200.64 553.258 204.28 553.258 207.88C553.258 216.04 552.218 224.2 550.138 232.36C548.058 240.52 545.178 248.32 541.498 255.76C537.898 263.2 533.618 270.12 528.658 276.52C523.778 282.92 518.498 288.44 512.818 293.08C507.218 297.8 501.338 301.48 495.178 304.12C489.098 306.84 483.058 308.2 477.058 308.2C474.178 308.2 471.418 307.68 468.778 306.64C466.218 305.68 463.978 304.32 462.058 302.56C460.058 300.8 458.498 298.68 457.378 296.2C456.178 293.8 455.578 291.16 455.578 288.28ZM485.218 301.96C490.418 301.96 495.458 300.72 500.338 298.24C505.298 295.84 509.898 292.52 514.138 288.28C518.458 284.12 522.378 279.2 525.898 273.52C529.498 267.92 532.578 261.88 535.138 255.4C537.698 248.92 539.658 242.2 541.018 235.24C542.458 228.2 543.178 221.28 543.178 214.48C543.178 211.12 542.978 207.88 542.578 204.76C542.258 201.56 541.658 198.72 540.778 196.24C539.898 193.76 538.698 191.8 537.178 190.36C535.658 188.84 533.738 188.08 531.418 188.08C529.498 188.08 527.938 188.68 526.738 189.88C525.538 191.08 524.618 192.6 523.978 194.44C523.338 196.28 522.898 198.32 522.658 200.56C522.498 202.72 522.418 204.8 522.418 206.8C522.418 211.68 522.498 216.2 522.658 220.36C522.818 224.44 522.978 228.28 523.138 231.88C523.378 235.4 523.578 238.76 523.738 241.96C523.898 245.08 523.978 248.12 523.978 251.08C523.978 252.28 523.818 253.8 523.498 255.64C523.178 257.4 522.538 259.12 521.578 260.8C521.418 261.2 521.018 261.88 520.378 262.84C519.818 263.72 518.898 264.64 517.618 265.6C516.338 266.56 514.698 267.4 512.698 268.12C510.778 268.84 508.338 269.2 505.378 269.2C503.218 269.2 501.338 269.16 499.738 269.08C498.218 269.08 496.738 269.04 495.298 268.96C493.858 268.88 492.378 268.8 490.858 268.72C489.338 268.72 487.578 268.72 485.578 268.72C479.738 268.72 475.018 270.4 471.418 273.76C467.898 277.12 466.138 281.4 466.138 286.6C466.138 289 466.658 291.16 467.698 293.08C468.818 295 470.258 296.6 472.018 297.88C473.858 299.24 475.898 300.24 478.138 300.88C480.458 301.6 482.818 301.96 485.218 301.96Z" fill="#FE79F3"/>
</svg>
