<svg width="100" height="100" viewBox="0 0 100 100" fill="none" xmlns="http://www.w3.org/2000/svg">
<path d="M47.8232 65.107V38.0767L37.6403 55.4565L47.8232 65.107Z" fill="#DBF4FE"/>
<path d="M71.1948 67.7677V38.0767L53.7982 67.7677H71.1948Z" fill="#DBF4FE"/>
<path d="M50 0C22.3859 0 0 22.3859 0 50C0 77.6141 22.3859 100 50 100C77.6141 100 100 77.6141 100 50C100 22.3859 77.6147 0 50 0ZM75.5484 69.9445C75.5484 71.1468 74.5739 72.1213 73.3716 72.1213H50.0095C50.0056 72.1213 50.0022 72.1213 49.9983 72.1213C49.9793 72.1213 49.9598 72.1202 49.9403 72.1196C49.9207 72.1196 49.9006 72.1191 49.8811 72.118C49.842 72.1202 49.803 72.1213 49.7633 72.1213C49.2258 72.1213 48.6872 71.9237 48.2664 71.5246L35.3803 59.3134L28.5066 71.0452C28.5066 71.0452 28.5049 71.0474 28.5044 71.0491C28.4804 71.0904 28.4547 71.1306 28.4279 71.1697C28.4262 71.1725 28.424 71.1752 28.4223 71.178C28.4 71.2099 28.3771 71.2417 28.3537 71.2724C28.3442 71.2846 28.3347 71.2969 28.3252 71.3086C28.3079 71.3299 28.2906 71.3511 28.2727 71.3717C28.2554 71.3913 28.2381 71.4108 28.2203 71.4298C28.2019 71.4499 28.1829 71.4694 28.1639 71.4884C28.1472 71.5051 28.1304 71.5207 28.1131 71.5369C28.1003 71.5492 28.0874 71.5609 28.074 71.5727C28.0562 71.5883 28.0389 71.6039 28.021 71.619C28.0054 71.6318 27.9892 71.6441 27.9736 71.6569C27.9484 71.6765 27.9228 71.696 27.8971 71.7144C27.8759 71.7295 27.8547 71.7446 27.8324 71.7591C27.8184 71.768 27.805 71.7769 27.791 71.7859C27.7659 71.8015 27.7408 71.8171 27.7151 71.8316C27.7051 71.8372 27.6956 71.8434 27.6856 71.8489C27.6085 71.8919 27.5282 71.9299 27.4461 71.9634C27.4444 71.9639 27.4422 71.965 27.4405 71.9656C27.3992 71.9823 27.3568 71.9974 27.3144 72.0119H27.3122C27.2256 72.0409 27.1369 72.0644 27.0459 72.0822C27.0431 72.0822 27.0409 72.0834 27.0381 72.0839C27.0001 72.0912 26.9616 72.0973 26.9226 72.1023C26.9108 72.104 26.8991 72.1051 26.8874 72.1068C26.8578 72.1102 26.8282 72.1129 26.7987 72.1152C26.783 72.1163 26.768 72.118 26.7523 72.1185C26.7255 72.1202 26.6982 72.1208 26.6708 72.1213C26.6563 72.1213 26.6418 72.123 26.6267 72.123C26.6078 72.123 26.5882 72.1219 26.5687 72.1213C26.5486 72.1213 26.5279 72.1202 26.5084 72.1191C26.4861 72.118 26.4638 72.1157 26.4414 72.1141C26.4208 72.1124 26.4007 72.1102 26.3806 72.1079C26.3599 72.1057 26.3393 72.1029 26.3186 72.1001C26.2935 72.0968 26.2684 72.0923 26.2438 72.0878C26.2282 72.085 26.212 72.0828 26.1964 72.0795C26.1557 72.0711 26.1155 72.0616 26.0758 72.0516C26.0664 72.0488 26.0563 72.046 26.0468 72.0432C26.0128 72.0337 25.9787 72.0236 25.9458 72.0125C25.9363 72.0091 25.9268 72.0058 25.9168 72.003C25.8297 71.9729 25.7449 71.9371 25.6628 71.8964C25.6606 71.8953 25.6578 71.8936 25.6556 71.8925C25.6154 71.8724 25.5757 71.8506 25.5367 71.8283C25.5344 71.8266 25.5316 71.8255 25.5294 71.8244C25.5277 71.8233 25.5255 71.8221 25.5238 71.821C25.4993 71.8065 25.4753 71.7914 25.4513 71.7758C25.4435 71.7708 25.4351 71.7658 25.4273 71.7608C25.4083 71.7479 25.3899 71.7351 25.3715 71.7217C25.3592 71.7127 25.3463 71.7044 25.3346 71.6954C25.3234 71.6871 25.3123 71.6781 25.3017 71.6698C25.2833 71.6553 25.2643 71.6413 25.2464 71.6262C25.2453 71.6251 25.2442 71.624 25.2425 71.6229C25.036 71.4526 24.868 71.2495 24.7402 71.0257C24.6135 70.8046 24.5247 70.559 24.4823 70.2978C24.4823 70.2956 24.4812 70.2928 24.4812 70.2906C24.4778 70.2682 24.4751 70.2454 24.4717 70.2225C24.47 70.208 24.4678 70.1935 24.4661 70.1789C24.4645 70.1644 24.4633 70.1499 24.4622 70.1354C24.46 70.112 24.4583 70.0891 24.4572 70.0656C24.4572 70.0567 24.4566 70.0478 24.4561 70.0388C24.455 70.0098 24.4538 69.9808 24.4538 69.9518C24.4538 69.9495 24.4538 69.9479 24.4538 69.9456V30.0555C24.4538 28.8532 25.4284 27.8787 26.6306 27.8787C27.8329 27.8787 28.8074 28.8532 28.8074 30.0555V61.9238L48.124 28.9554C48.124 28.9554 48.1257 28.9526 48.1268 28.9509C48.1419 28.9252 48.1575 28.9001 48.1737 28.875C48.1782 28.8683 48.1827 28.861 48.1871 28.8543C48.2005 28.8342 48.2145 28.8141 48.2284 28.7946C48.2362 28.7834 48.244 28.7723 48.2524 28.7611C48.2619 28.7483 48.2714 28.736 48.2814 28.7237C48.2948 28.7064 48.3082 28.6891 48.3216 28.6724C48.3239 28.6696 48.3267 28.6662 48.3294 28.6634C48.498 28.4603 48.6984 28.2945 48.9189 28.1678C49.1404 28.0405 49.386 27.9507 49.6478 27.9077C49.6517 27.9071 49.6551 27.9066 49.659 27.9055C49.6802 27.9021 49.7019 27.8993 49.7237 27.8965C49.7393 27.8943 49.755 27.8921 49.7706 27.8904C49.784 27.8887 49.7974 27.8882 49.8113 27.8871C49.8353 27.8848 49.8599 27.8831 49.8839 27.8815C49.8917 27.8815 49.9001 27.8809 49.9079 27.8804C49.938 27.8792 49.9676 27.8781 49.9978 27.8781C49.9994 27.8781 50.0011 27.8781 50.0028 27.8781C50.0061 27.8781 50.0095 27.8781 50.0128 27.8781C50.0447 27.8781 50.077 27.8792 50.1088 27.8804C50.1139 27.8804 50.1189 27.8809 50.1239 27.8815C50.1546 27.8831 50.1859 27.8854 50.2166 27.8887C50.2233 27.8893 50.23 27.8904 50.2367 27.891C50.2651 27.8937 50.293 27.8977 50.3215 27.9016C50.331 27.9027 50.3405 27.9044 50.35 27.906C50.3745 27.9099 50.3991 27.9144 50.4236 27.9194C50.4365 27.9217 50.4488 27.9244 50.4616 27.9272C50.4822 27.9317 50.5029 27.9367 50.5235 27.9417C50.5397 27.9457 50.5559 27.9501 50.5721 27.954C50.5889 27.9585 50.6056 27.9635 50.6223 27.9685C50.6419 27.9741 50.662 27.9808 50.6815 27.987C50.6943 27.9914 50.7072 27.9953 50.72 27.9998C50.7429 28.0076 50.7658 28.0165 50.7887 28.0249C50.7982 28.0288 50.8076 28.0322 50.8171 28.0361C50.8428 28.0467 50.8685 28.0573 50.8936 28.069C50.9003 28.0718 50.907 28.0751 50.9137 28.0779C50.9416 28.0908 50.9684 28.1042 50.9957 28.1181C51.0008 28.1209 51.0058 28.1232 51.0108 28.1259C51.0387 28.1405 51.0661 28.1555 51.0934 28.1717C51.0968 28.1734 51.1001 28.1751 51.1035 28.1773C51.1051 28.1784 51.1068 28.1795 51.1085 28.1801C51.1336 28.1952 51.1582 28.2102 51.1827 28.2264C51.19 28.2309 51.1978 28.2359 51.2051 28.2404C51.2246 28.2532 51.2436 28.2666 51.2625 28.2805C51.2743 28.2889 51.2865 28.2973 51.2983 28.3057C51.31 28.3146 51.3217 28.3235 51.3329 28.3325C51.3507 28.3464 51.3691 28.3604 51.387 28.3749C51.3887 28.3766 51.3909 28.3782 51.3926 28.3793C51.598 28.549 51.7654 28.7516 51.8927 28.9743C52.0194 29.1959 52.1087 29.4415 52.1511 29.7027C52.1511 29.7055 52.1522 29.7077 52.1522 29.7105C52.1556 29.7329 52.1584 29.7558 52.1617 29.7781C52.1634 29.7926 52.1656 29.8071 52.1673 29.8216C52.169 29.8361 52.1701 29.8506 52.1712 29.8651C52.1735 29.8886 52.1751 29.9115 52.1762 29.9349C52.1762 29.9438 52.1768 29.9528 52.1774 29.9617C52.1785 29.9907 52.1796 30.0198 52.1796 30.0488C52.1796 30.051 52.1796 30.0527 52.1796 30.0549V61.9233L71.4962 28.9548C71.4962 28.9548 71.4979 28.952 71.499 28.9503C71.514 28.9247 71.5297 28.8995 71.5459 28.8744C71.5503 28.8677 71.5548 28.8605 71.5593 28.8538C71.5727 28.8337 71.5866 28.8141 71.6006 28.7946C71.6084 28.7834 71.6162 28.7717 71.6246 28.7606C71.634 28.7483 71.6435 28.736 71.653 28.7237C71.6664 28.7064 71.6798 28.6891 71.6938 28.6718C71.696 28.669 71.6988 28.6662 71.701 28.6634C71.8679 28.4619 72.0666 28.2973 72.2849 28.1712C72.5098 28.0405 72.7598 27.9496 73.0266 27.9066H73.0294C73.0529 27.9021 73.0769 27.8993 73.1009 27.8965C73.1143 27.8949 73.1277 27.8932 73.1411 27.8915C73.1567 27.8898 73.1718 27.8887 73.1874 27.8876C73.2097 27.8859 73.232 27.8837 73.2544 27.8826C73.2639 27.8826 73.2739 27.882 73.2834 27.8815C73.3119 27.8804 73.3398 27.8792 73.3682 27.8792C73.3705 27.8792 73.3727 27.8792 73.3749 27.8792C73.3794 27.8792 73.3839 27.8792 73.3878 27.8792C73.4185 27.8792 73.4486 27.8804 73.4793 27.8815C73.486 27.8815 73.4921 27.882 73.4988 27.8826C73.5284 27.8843 73.558 27.8865 73.5876 27.8893C73.5954 27.8898 73.6032 27.891 73.6116 27.8921C73.6384 27.8949 73.6657 27.8982 73.6925 27.9021C73.7031 27.9038 73.7137 27.9055 73.7243 27.9071C73.7478 27.9111 73.7718 27.915 73.7952 27.92C73.8086 27.9228 73.822 27.9256 73.836 27.9284C73.8561 27.9328 73.8756 27.9373 73.8957 27.9423C73.9124 27.9462 73.9292 27.9507 73.9459 27.9551C73.9621 27.9596 73.9783 27.9641 73.9939 27.9691C74.014 27.9752 74.0341 27.9814 74.0542 27.9881C74.0665 27.992 74.0793 27.9965 74.0916 28.0009C74.115 28.0093 74.1379 28.0177 74.1608 28.0266C74.1703 28.0299 74.1792 28.0338 74.1887 28.0378C74.2144 28.0484 74.2401 28.059 74.2652 28.0707C74.2719 28.074 74.2791 28.0768 74.2858 28.0802C74.3132 28.093 74.34 28.1058 74.3668 28.1198C74.3724 28.1226 74.3774 28.1254 74.383 28.1282C74.4103 28.1427 74.4371 28.1572 74.4639 28.1728C74.4678 28.1751 74.4712 28.1767 74.4751 28.179C74.4767 28.1801 74.479 28.1812 74.4806 28.1823C74.5052 28.1968 74.5292 28.2119 74.5532 28.2275C74.561 28.2325 74.5694 28.2376 74.5772 28.2426C74.5962 28.2549 74.6146 28.2683 74.633 28.2811C74.6453 28.29 74.6581 28.2984 74.6704 28.3079C74.6816 28.3163 74.6922 28.3246 74.7033 28.333C74.7218 28.3475 74.7407 28.362 74.7592 28.3766C74.7603 28.3777 74.7614 28.3788 74.7625 28.3799C74.969 28.5501 75.137 28.7539 75.2648 28.9777C75.3915 29.1987 75.4803 29.4437 75.5227 29.705C75.5227 29.7078 75.5238 29.71 75.5238 29.7128C75.5272 29.7351 75.53 29.758 75.5333 29.7803C75.535 29.7948 75.5372 29.8093 75.5389 29.8238C75.5406 29.8384 75.5417 29.8529 75.5428 29.8674C75.545 29.8908 75.5467 29.9137 75.5478 29.9372C75.5478 29.9461 75.5484 29.955 75.5489 29.9639C75.5501 29.993 75.5512 30.022 75.5512 30.051C75.5512 30.0532 75.5512 30.0549 75.5512 30.0572V69.9468L75.5484 69.9445Z" fill="#DBF4FE"/>
</svg>
