<svg width="781" height="178" viewBox="0 0 781 178" fill="none" xmlns="http://www.w3.org/2000/svg">
<path d="M0.0800781 74V73.28C1.85608 73.28 3.24808 72.56 4.25608 71.12C5.26408 69.632 6.08008 67.664 6.70408 65.216C7.32808 62.72 7.80808 59.816 8.14408 56.504C8.52808 53.192 8.96008 49.712 9.44008 46.064C9.82408 43.232 10.2321 39.968 10.6641 36.272C11.1441 32.576 11.6001 28.88 12.0321 25.184C12.4641 21.44 12.8721 17.888 13.2561 14.528C13.6401 11.12 13.9521 8.33599 14.1921 6.17599C13.5201 5.11999 12.7761 4.37599 11.9601 3.94399C11.1441 3.46399 10.3761 3.15199 9.65608 3.00799C8.84008 2.81599 8.00008 2.76799 7.13608 2.86399V1.99999H20.7441C22.8081 7.95199 24.7761 13.592 26.6481 18.92C28.5681 24.2 30.4401 29.336 32.2641 34.328C34.1361 39.32 35.9841 44.264 37.8081 49.16C39.6321 54.008 41.5041 58.952 43.4241 63.992L60.6321 1.99999H72.8001V2.86399C72.4641 2.81599 72.1041 2.81599 71.7201 2.86399C71.4321 2.91199 71.1201 3.00799 70.7841 3.15199C70.4481 3.24799 70.1601 3.41599 69.9201 3.65599C69.5841 3.99199 69.2721 4.42399 68.9841 4.95199C68.6961 5.43199 68.4561 6.07999 68.2641 6.89599C68.1201 7.71199 68.0241 8.76799 67.9761 10.064C67.9761 11.36 68.0721 12.968 68.2641 14.888C68.5521 17.528 68.8881 20.384 69.2721 23.456C69.6561 26.528 70.0641 29.648 70.4961 32.816C70.9281 35.936 71.3601 39.032 71.7921 42.104C72.2241 45.128 72.6081 47.96 72.9441 50.6C73.3761 54.152 73.7361 57.344 74.0241 60.176C74.3601 62.96 74.8161 65.336 75.3921 67.304C75.9681 69.224 76.7601 70.712 77.7681 71.768C78.8241 72.776 80.2881 73.28 82.1601 73.28V74H59.9841V73.28C61.6641 73.28 62.9601 72.92 63.8721 72.2C64.8321 71.48 65.5041 70.448 65.8881 69.104C66.2721 67.712 66.4401 66.056 66.3921 64.136C66.3921 62.168 66.2721 59.984 66.0321 57.584C65.8401 55.76 65.6001 53.624 65.3121 51.176C65.0241 48.68 64.7121 46.016 64.3761 43.184C64.0401 40.304 63.6801 37.328 63.2961 34.256C62.9121 31.184 62.5281 28.184 62.1441 25.256C61.7601 22.28 61.4001 19.472 61.0641 16.832C60.7281 14.144 60.4161 11.768 60.1281 9.70399L44.3601 66.512C44.8401 67.76 45.2961 69.008 45.7281 70.256C46.2081 71.504 46.6881 72.752 47.1681 74H39.4641C37.9281 69.92 36.4881 66.128 35.1441 62.624C33.8001 59.072 32.5041 55.664 31.2561 52.4C30.0081 49.136 28.7841 45.92 27.5841 42.752C26.3841 39.536 25.1601 36.2 23.9121 32.744C22.6641 29.288 21.3441 25.64 19.9521 21.8C18.5601 17.912 17.0721 13.688 15.4881 9.12799C15.2481 11.48 14.9841 14.24 14.6961 17.408C14.4081 20.576 14.0961 23.864 13.7601 27.272C13.4721 30.68 13.1841 34.088 12.8961 37.496C12.6081 40.856 12.3441 43.952 12.1041 46.784C11.8641 49.568 11.6721 51.968 11.5281 53.984C11.4321 55.952 11.4081 57.248 11.4561 57.872C11.4561 58.4 11.4321 59.144 11.3841 60.104C11.3841 61.064 11.4321 62.12 11.5281 63.272C11.6241 64.424 11.8161 65.6 12.1041 66.8C12.4401 67.952 12.9441 69.008 13.6161 69.968C14.3361 70.928 15.2721 71.72 16.4241 72.344C17.6241 72.968 19.1361 73.28 20.9601 73.28V74H0.0800781Z" fill="#FE79F3"/>
<path d="M81.0716 26.048C83.4236 26.048 85.8236 25.568 88.2716 24.608C90.7196 23.648 92.9516 22.472 94.9676 21.08C94.9676 23.768 94.9676 26.624 94.9676 29.648C94.9196 32.24 94.8956 35.168 94.8956 38.432C94.8956 41.696 94.8956 45.08 94.8956 48.584V60.896C94.8956 64.496 95.6156 67.112 97.0556 68.744C98.4956 70.328 100.344 71.12 102.6 71.12C104.568 71.12 106.656 70.544 108.864 69.392C111.12 68.24 113.184 66.632 115.056 64.568C116.976 62.504 118.584 60.08 119.88 57.296C121.176 54.512 121.872 51.464 121.968 48.152V43.904C121.968 41.696 121.944 39.56 121.896 37.496C121.896 35.432 121.704 33.608 121.32 32.024C120.936 30.44 120.288 29.168 119.376 28.208C118.464 27.248 117.12 26.768 115.344 26.768V26.048C117.696 26.048 120.096 25.568 122.544 24.608C124.992 23.648 127.224 22.472 129.24 21.08C129.24 23.288 129.24 25.736 129.24 28.424C129.192 30.68 129.168 33.32 129.168 36.344C129.168 39.368 129.168 42.632 129.168 46.136C129.168 49.976 129.168 53.36 129.168 56.288C129.168 59.168 129.336 61.592 129.672 63.56C130.056 65.48 130.704 66.944 131.616 67.952C132.528 68.912 133.92 69.392 135.792 69.392V70.112C133.44 70.112 131.04 70.592 128.592 71.552C126.144 72.512 123.912 73.688 121.896 75.08C121.896 73.544 121.896 71.792 121.896 69.824C121.896 68.144 121.896 66.152 121.896 63.848C121.944 61.496 121.968 58.904 121.968 56.072C121.2 58.232 120.144 60.44 118.8 62.696C117.504 64.904 115.968 66.944 114.192 68.816C112.416 70.64 110.424 72.152 108.216 73.352C106.056 74.504 103.704 75.08 101.16 75.08C99.3356 75.08 97.7516 74.864 96.4076 74.432C95.0636 74.048 93.8876 73.52 92.8796 72.848C91.9196 72.176 91.1036 71.408 90.4316 70.544C89.8076 69.68 89.3036 68.792 88.9196 67.88C88.0076 65.768 87.5756 63.368 87.6236 60.68C87.6236 59.768 87.6476 58.736 87.6956 57.584V50.024C87.6956 46.184 87.6956 42.824 87.6956 39.944C87.7436 37.016 87.5756 34.592 87.1916 32.672C86.8556 30.704 86.2076 29.24 85.2476 28.28C84.3356 27.272 82.9436 26.768 81.0716 26.768V26.048Z" fill="#FE79F3"/>
<path d="M161.947 21.08C165.979 21.08 169.555 21.584 172.675 22.592C175.795 23.552 178.747 25.112 181.531 27.272C181.771 28.712 181.435 29.936 180.523 30.944C179.611 31.952 178.411 32.456 176.923 32.456C175.339 32.456 173.971 31.976 172.819 31.016C171.715 30.008 170.515 28.904 169.219 27.704C167.923 26.504 166.387 25.424 164.611 24.464C162.883 23.456 160.603 22.952 157.771 22.952C156.475 22.952 155.083 23.168 153.595 23.6C152.107 23.984 150.739 24.584 149.491 25.4C148.243 26.216 147.211 27.248 146.395 28.496C145.579 29.696 145.171 31.112 145.171 32.744C145.171 35.384 146.107 37.4 147.979 38.792C149.899 40.136 152.275 41.24 155.107 42.104C157.987 42.968 161.083 43.736 164.395 44.408C167.755 45.08 170.851 46.016 173.683 47.216C176.563 48.368 178.939 50 180.811 52.112C182.731 54.176 183.691 57.032 183.691 60.68C183.691 63.176 183.043 65.336 181.747 67.16C180.499 68.984 178.843 70.496 176.779 71.696C174.715 72.848 172.411 73.688 169.867 74.216C167.371 74.792 164.851 75.08 162.307 75.08C159.955 75.08 157.843 74.936 155.971 74.648C154.147 74.408 152.419 74.024 150.787 73.496C149.155 72.968 147.547 72.272 145.963 71.408C144.427 70.544 142.771 69.512 140.995 68.312V53.48H141.715C142.243 56.216 143.131 58.808 144.379 61.256C145.627 63.656 147.187 65.768 149.059 67.592C150.931 69.416 153.067 70.856 155.467 71.912C157.915 72.968 160.579 73.496 163.459 73.496C165.283 73.496 167.083 73.256 168.859 72.776C170.683 72.296 172.291 71.6 173.683 70.688C175.123 69.728 176.275 68.552 177.139 67.16C178.051 65.72 178.507 64.088 178.507 62.264C178.507 60.392 177.931 58.856 176.779 57.656C175.675 56.408 174.211 55.376 172.387 54.56C170.563 53.696 168.475 52.976 166.123 52.4C163.771 51.824 161.371 51.248 158.923 50.672C156.523 50.048 154.147 49.376 151.795 48.656C149.443 47.936 147.355 47.024 145.531 45.92C143.707 44.816 142.219 43.448 141.067 41.816C139.963 40.184 139.411 38.192 139.411 35.84C139.411 33.296 140.107 31.112 141.499 29.288C142.891 27.416 144.667 25.88 146.827 24.68C149.035 23.48 151.459 22.592 154.099 22.016C156.787 21.392 159.403 21.08 161.947 21.08Z" fill="#FE79F3"/>
<path d="M187.314 74V73.28C189.186 73.28 190.578 72.8 191.49 71.84C192.45 70.832 193.098 69.368 193.434 67.448C193.818 65.48 193.986 63.056 193.938 60.176C193.938 57.248 193.938 53.864 193.938 50.024C193.938 46.184 193.938 42.824 193.938 39.944C193.986 37.016 193.818 34.592 193.434 32.672C193.098 30.704 192.45 29.24 191.49 28.28C190.578 27.272 189.186 26.768 187.314 26.768V26.048C189.666 26.048 192.066 25.568 194.514 24.608C196.962 23.648 199.194 22.472 201.21 21.08C201.21 23.768 201.21 26.672 201.21 29.792C201.162 32.48 201.138 35.552 201.138 39.008C201.138 42.464 201.138 46.136 201.138 50.024C201.138 53.864 201.138 57.248 201.138 60.176C201.138 63.056 201.306 65.48 201.642 67.448C202.026 69.368 202.674 70.832 203.586 71.84C204.498 72.8 205.89 73.28 207.762 73.28V74H187.314ZM197.034 5.95999C198.858 5.95999 200.418 6.60799 201.714 7.90399C203.01 9.15199 203.658 10.688 203.658 12.512C203.658 14.336 203.01 15.896 201.714 17.192C200.418 18.488 198.858 19.136 197.034 19.136C195.21 19.136 193.65 18.488 192.354 17.192C191.106 15.896 190.482 14.336 190.482 12.512C190.482 10.688 191.106 9.15199 192.354 7.90399C193.65 6.60799 195.21 5.95999 197.034 5.95999Z" fill="#FE79F3"/>
<path d="M211.341 48.08C211.341 44.336 212.061 40.832 213.501 37.568C214.941 34.304 216.885 31.448 219.333 29C221.829 26.552 224.709 24.632 227.973 23.24C231.285 21.8 234.789 21.08 238.485 21.08C241.701 21.08 244.629 21.512 247.269 22.376C249.909 23.192 252.213 24.272 254.181 25.616C256.197 26.912 257.877 28.352 259.221 29.936C260.565 31.472 261.549 32.96 262.173 34.4C261.981 34.976 261.717 35.48 261.381 35.912C261.045 36.296 260.613 36.656 260.085 36.992C259.557 37.328 258.861 37.496 257.997 37.496C256.941 37.496 255.957 37.16 255.045 36.488C254.181 35.816 253.293 34.976 252.381 33.968C251.517 32.912 250.581 31.808 249.573 30.656C248.565 29.456 247.389 28.352 246.045 27.344C244.749 26.288 243.237 25.424 241.509 24.752C239.781 24.032 237.741 23.648 235.389 23.6C232.605 23.6 230.109 24.104 227.901 25.112C225.693 26.12 223.797 27.536 222.213 29.36C220.677 31.184 219.501 33.392 218.685 35.984C217.869 38.528 217.461 41.384 217.461 44.552C217.461 48.008 218.133 51.248 219.477 54.272C220.821 57.248 222.621 59.84 224.877 62.048C227.181 64.256 229.821 65.984 232.797 67.232C235.773 68.48 238.917 69.104 242.229 69.104C244.677 69.104 246.981 68.768 249.141 68.096C251.301 67.376 253.245 66.44 254.973 65.288C256.749 64.088 258.261 62.696 259.509 61.112C260.805 59.48 261.813 57.776 262.533 56L263.253 56.288C262.533 59.024 261.381 61.544 259.797 63.848C258.261 66.104 256.389 68.072 254.181 69.752C252.021 71.432 249.597 72.752 246.909 73.712C244.269 74.624 241.461 75.08 238.485 75.08C234.789 75.08 231.285 74.384 227.973 72.992C224.709 71.552 221.829 69.608 219.333 67.16C216.885 64.712 214.941 61.856 213.501 58.592C212.061 55.328 211.341 51.824 211.341 48.08Z" fill="#FE79F3"/>
<path d="M290.611 74V73.28C292.483 73.28 293.875 72.8 294.787 71.84C295.747 70.832 296.395 69.368 296.731 67.448C297.115 65.48 297.283 63.056 297.235 60.176C297.235 57.248 297.235 53.864 297.235 50.024V25.976C297.235 22.136 297.235 18.776 297.235 15.896C297.283 12.968 297.115 10.544 296.731 8.62399C296.395 6.65599 295.747 5.19199 294.787 4.23199C293.875 3.22399 292.483 2.71999 290.611 2.71999V1.99999H319.627C323.803 1.99999 327.427 2.47999 330.499 3.43999C333.619 4.35199 336.211 5.64799 338.275 7.32799C340.387 9.00799 341.947 11.048 342.955 13.448C344.011 15.8 344.539 18.416 344.539 21.296C344.539 24.464 343.867 27.296 342.523 29.792C341.179 32.288 339.379 34.4 337.123 36.128C334.867 37.808 332.275 39.104 329.347 40.016C326.419 40.88 323.395 41.312 320.275 41.312H304.435V50.024C304.435 53.864 304.435 57.248 304.435 60.176C304.435 63.056 304.603 65.48 304.939 67.448C305.323 69.368 305.971 70.832 306.883 71.84C307.795 72.8 309.187 73.28 311.059 73.28V74H290.611ZM304.435 3.43999V40.016H315.163C318.331 40.016 321.259 39.56 323.947 38.648C326.683 37.736 329.035 36.464 331.003 34.832C332.971 33.2 334.507 31.232 335.611 28.928C336.715 26.624 337.267 24.08 337.267 21.296C337.267 18.704 336.787 16.328 335.827 14.168C334.867 11.96 333.499 10.064 331.723 8.47999C329.947 6.89599 327.835 5.67199 325.387 4.80799C322.939 3.89599 320.203 3.43999 317.179 3.43999H304.435Z" fill="#FE79F3"/>
<path d="M348.119 26.048C350.471 26.048 352.871 25.568 355.319 24.608C357.767 23.648 359.999 22.472 362.015 21.08C362.015 23 362.015 25.112 362.015 27.416C361.967 29.384 361.943 31.688 361.943 34.328C361.943 36.92 361.943 39.752 361.943 42.824C362.039 40.28 362.639 37.736 363.743 35.192C364.895 32.6 366.407 30.272 368.279 28.208C370.151 26.096 372.311 24.392 374.759 23.096C377.207 21.752 379.799 21.08 382.535 21.08C383.399 21.08 384.383 21.128 385.487 21.224C386.639 21.32 387.575 21.632 388.295 22.16C389.063 24.32 388.871 26.024 387.719 27.272C386.615 28.52 385.031 29.144 382.967 29.144C382.247 29.144 381.599 29.072 381.023 28.928C380.447 28.784 379.871 28.616 379.295 28.424C378.719 28.232 378.071 28.064 377.351 27.92C376.679 27.776 375.815 27.704 374.759 27.704C372.695 27.704 370.871 28.4 369.287 29.792C367.703 31.184 366.359 33.032 365.255 35.336C364.199 37.64 363.383 40.28 362.807 43.256C362.231 46.184 361.943 49.208 361.943 52.328C361.943 55.592 361.943 58.52 361.943 61.112C361.943 63.704 362.111 65.912 362.447 67.736C362.831 69.512 363.479 70.88 364.391 71.84C365.303 72.8 366.695 73.28 368.567 73.28V74H348.119V73.28C349.991 73.28 351.383 72.8 352.295 71.84C353.255 70.832 353.903 69.368 354.239 67.448C354.623 65.48 354.791 63.056 354.743 60.176C354.743 57.248 354.743 53.864 354.743 50.024C354.743 46.184 354.743 42.824 354.743 39.944C354.791 37.016 354.623 34.592 354.239 32.672C353.903 30.704 353.255 29.24 352.295 28.28C351.383 27.272 349.991 26.768 348.119 26.768V26.048Z" fill="#FE79F3"/>
<path d="M386.56 48.08C386.56 44.336 387.28 40.832 388.72 37.568C390.16 34.304 392.104 31.448 394.552 29C397.048 26.552 399.928 24.632 403.192 23.24C406.504 21.8 410.008 21.08 413.704 21.08C417.4 21.08 420.88 21.8 424.144 23.24C427.456 24.632 430.336 26.552 432.784 29C435.28 31.448 437.248 34.304 438.688 37.568C440.128 40.832 440.848 44.336 440.848 48.08C440.848 51.824 440.128 55.328 438.688 58.592C437.248 61.856 435.28 64.712 432.784 67.16C430.336 69.608 427.456 71.552 424.144 72.992C420.88 74.384 417.4 75.08 413.704 75.08C410.008 75.08 406.504 74.384 403.192 72.992C399.928 71.552 397.048 69.608 394.552 67.16C392.104 64.712 390.16 61.856 388.72 58.592C387.28 55.328 386.56 51.824 386.56 48.08ZM390.88 44.552C391.024 47.768 391.936 50.96 393.616 54.128C395.296 57.248 397.456 60.056 400.096 62.552C402.784 65 405.832 66.992 409.24 68.528C412.648 70.016 416.152 70.76 419.752 70.76C422.2 70.76 424.504 70.328 426.664 69.464C428.824 68.6 430.672 67.352 432.208 65.72C433.744 64.04 434.896 62.024 435.664 59.672C436.48 57.32 436.768 54.632 436.528 51.608C436.384 48.392 435.472 45.224 433.792 42.104C432.16 38.936 430 36.128 427.312 33.68C424.672 31.184 421.648 29.192 418.24 27.704C414.832 26.168 411.328 25.4 407.728 25.4C405.28 25.4 402.976 25.832 400.816 26.696C398.656 27.56 396.784 28.832 395.2 30.512C393.664 32.144 392.488 34.136 391.672 36.488C390.904 38.84 390.64 41.528 390.88 44.552Z" fill="#FE79F3"/>
<path d="M446.607 50.816C446.607 46.304 447.423 42.272 449.055 38.72C450.687 35.168 452.823 32.144 455.463 29.648C458.103 27.104 461.103 25.112 464.463 23.672C467.823 22.232 471.255 21.392 474.759 21.152C474.615 20.576 474.471 20.072 474.327 19.64C474.231 19.208 474.135 18.824 474.039 18.488C473.943 18.104 473.847 17.768 473.751 17.48C473.127 15.512 472.599 13.784 472.167 12.296C471.735 10.808 471.279 9.55999 470.799 8.55199C470.319 7.54399 469.743 6.79999 469.071 6.31999C468.399 5.79199 467.487 5.52799 466.335 5.52799C465.471 5.52799 464.655 5.62399 463.887 5.81599C463.167 5.95999 462.327 6.15199 461.367 6.39199V5.67199C462.615 5.23999 463.863 4.75999 465.111 4.23199C466.359 3.65599 467.559 3.12799 468.711 2.64799C469.863 2.16799 470.895 1.75999 471.807 1.42399C472.767 1.08799 473.535 0.919983 474.111 0.919983C474.879 0.919983 475.503 1.11198 475.983 1.49598C476.463 1.83199 476.847 2.33599 477.135 3.00799C477.471 3.63199 477.759 4.39999 477.999 5.31199C478.239 6.17599 478.503 7.11199 478.791 8.11999C479.847 12.296 480.927 16.472 482.031 20.648C482.943 24.152 483.927 27.896 484.983 31.88C486.039 35.864 487.023 39.464 487.935 42.68C488.847 45.848 489.759 49.232 490.671 52.832C491.583 56.432 492.591 59.744 493.695 62.768C494.847 65.792 496.143 68.312 497.583 70.328C499.071 72.296 500.823 73.28 502.839 73.28V74H493.479C491.559 74 490.047 73.16 488.943 71.48C487.839 69.8 486.879 67.568 486.063 64.784C484.191 67.664 481.743 70.112 478.719 72.128C475.695 74.096 472.167 75.08 468.135 75.08C464.247 75.08 460.935 74.432 458.199 73.136C455.511 71.84 453.303 70.088 451.575 67.88C449.847 65.624 448.575 63.032 447.759 60.104C446.991 57.176 446.607 54.08 446.607 50.816ZM453.231 48.656C453.231 51.536 453.567 54.416 454.239 57.296C454.911 60.128 455.943 62.696 457.335 65C458.775 67.256 460.575 69.104 462.735 70.544C464.895 71.936 467.463 72.632 470.439 72.632C472.167 72.632 473.775 72.368 475.263 71.84C476.751 71.312 478.119 70.616 479.367 69.752C480.615 68.84 481.743 67.808 482.751 66.656C483.807 65.504 484.743 64.28 485.559 62.984C485.271 61.88 484.983 60.728 484.695 59.528C484.407 58.328 484.119 57.08 483.831 55.784C482.583 50.168 481.215 44.624 479.727 39.152C478.239 33.632 476.727 28.112 475.191 22.592C471.735 22.784 468.639 23.672 465.903 25.256C463.215 26.792 460.911 28.784 458.991 31.232C457.119 33.632 455.679 36.344 454.671 39.368C453.711 42.392 453.231 45.488 453.231 48.656Z" fill="#FE79F3"/>
<path d="M498.869 26.048C501.221 26.048 503.621 25.568 506.069 24.608C508.517 23.648 510.749 22.472 512.765 21.08C512.765 23.768 512.765 26.624 512.765 29.648C512.717 32.24 512.693 35.168 512.693 38.432C512.693 41.696 512.693 45.08 512.693 48.584V60.896C512.693 64.496 513.413 67.112 514.853 68.744C516.293 70.328 518.141 71.12 520.397 71.12C522.365 71.12 524.453 70.544 526.661 69.392C528.917 68.24 530.981 66.632 532.853 64.568C534.773 62.504 536.381 60.08 537.677 57.296C538.973 54.512 539.669 51.464 539.765 48.152V43.904C539.765 41.696 539.741 39.56 539.693 37.496C539.693 35.432 539.501 33.608 539.117 32.024C538.733 30.44 538.085 29.168 537.173 28.208C536.261 27.248 534.917 26.768 533.141 26.768V26.048C535.493 26.048 537.893 25.568 540.341 24.608C542.789 23.648 545.02 22.472 547.036 21.08C547.036 23.288 547.036 25.736 547.036 28.424C546.988 30.68 546.965 33.32 546.965 36.344C546.965 39.368 546.965 42.632 546.965 46.136C546.965 49.976 546.965 53.36 546.965 56.288C546.965 59.168 547.133 61.592 547.469 63.56C547.853 65.48 548.501 66.944 549.413 67.952C550.325 68.912 551.716 69.392 553.589 69.392V70.112C551.236 70.112 548.836 70.592 546.388 71.552C543.94 72.512 541.709 73.688 539.693 75.08C539.693 73.544 539.693 71.792 539.693 69.824C539.693 68.144 539.693 66.152 539.693 63.848C539.741 61.496 539.765 58.904 539.765 56.072C538.997 58.232 537.94 60.44 536.596 62.696C535.3 64.904 533.765 66.944 531.989 68.816C530.213 70.64 528.221 72.152 526.013 73.352C523.853 74.504 521.501 75.08 518.957 75.08C517.133 75.08 515.549 74.864 514.205 74.432C512.861 74.048 511.685 73.52 510.677 72.848C509.717 72.176 508.901 71.408 508.229 70.544C507.605 69.68 507.101 68.792 506.717 67.88C505.805 65.768 505.373 63.368 505.421 60.68C505.421 59.768 505.445 58.736 505.493 57.584V50.024C505.493 46.184 505.493 42.824 505.493 39.944C505.541 37.016 505.373 34.592 504.989 32.672C504.653 30.704 504.005 29.24 503.045 28.28C502.133 27.272 500.741 26.768 498.869 26.768V26.048Z" fill="#FE79F3"/>
<path d="M557.208 48.08C557.208 44.336 557.928 40.832 559.368 37.568C560.808 34.304 562.752 31.448 565.2 29C567.696 26.552 570.576 24.632 573.84 23.24C577.152 21.8 580.656 21.08 584.352 21.08C587.568 21.08 590.496 21.512 593.136 22.376C595.776 23.192 598.08 24.272 600.048 25.616C602.064 26.912 603.744 28.352 605.088 29.936C606.432 31.472 607.416 32.96 608.04 34.4C607.848 34.976 607.584 35.48 607.248 35.912C606.912 36.296 606.48 36.656 605.952 36.992C605.424 37.328 604.728 37.496 603.864 37.496C602.808 37.496 601.824 37.16 600.912 36.488C600.048 35.816 599.16 34.976 598.248 33.968C597.384 32.912 596.448 31.808 595.44 30.656C594.432 29.456 593.256 28.352 591.912 27.344C590.616 26.288 589.104 25.424 587.376 24.752C585.648 24.032 583.608 23.648 581.256 23.6C578.472 23.6 575.976 24.104 573.768 25.112C571.56 26.12 569.664 27.536 568.08 29.36C566.544 31.184 565.368 33.392 564.552 35.984C563.736 38.528 563.328 41.384 563.328 44.552C563.328 48.008 564 51.248 565.344 54.272C566.688 57.248 568.488 59.84 570.744 62.048C573.048 64.256 575.688 65.984 578.664 67.232C581.64 68.48 584.784 69.104 588.096 69.104C590.544 69.104 592.848 68.768 595.008 68.096C597.168 67.376 599.112 66.44 600.84 65.288C602.616 64.088 604.128 62.696 605.376 61.112C606.672 59.48 607.68 57.776 608.4 56L609.12 56.288C608.4 59.024 607.248 61.544 605.664 63.848C604.128 66.104 602.256 68.072 600.048 69.752C597.888 71.432 595.464 72.752 592.776 73.712C590.136 74.624 587.328 75.08 584.352 75.08C580.656 75.08 577.152 74.384 573.84 72.992C570.576 71.552 567.696 69.608 565.2 67.16C562.752 64.712 560.808 61.856 559.368 58.592C557.928 55.328 557.208 51.824 557.208 48.08Z" fill="#FE79F3"/>
<path d="M624.987 24.32V63.128C624.987 64.136 625.059 65.192 625.203 66.296C625.395 67.4 625.683 68.432 626.067 69.392C626.451 70.352 626.979 71.144 627.651 71.768C628.371 72.392 629.235 72.704 630.243 72.704C631.971 72.704 633.507 72.272 634.851 71.408C636.195 70.496 637.275 69.368 638.091 68.024L638.811 68.528C638.475 69.152 637.971 69.848 637.299 70.616C636.627 71.336 635.835 72.032 634.923 72.704C634.059 73.376 633.075 73.928 631.971 74.36C630.867 74.84 629.739 75.08 628.587 75.08C626.427 75.08 624.651 74.72 623.259 74C621.867 73.232 620.763 72.248 619.947 71.048C619.131 69.8 618.555 68.384 618.219 66.8C617.931 65.168 617.787 63.464 617.787 61.688V24.32H610.227V22.16C611.379 22.16 612.675 21.656 614.115 20.648C615.555 19.64 616.947 18.368 618.291 16.832C619.635 15.296 620.859 13.64 621.963 11.864C623.067 10.088 623.859 8.43199 624.339 6.89599H625.059C625.059 8.14399 625.059 9.55999 625.059 11.144C625.011 12.536 624.987 14.168 624.987 16.04C624.987 17.864 624.987 19.904 624.987 22.16H636.435V24.32H624.987Z" fill="#FE79F3"/>
<path d="M639.564 74V73.28C641.436 73.28 642.828 72.8 643.74 71.84C644.7 70.832 645.348 69.368 645.684 67.448C646.068 65.48 646.236 63.056 646.188 60.176C646.188 57.248 646.188 53.864 646.188 50.024C646.188 46.184 646.188 42.824 646.188 39.944C646.236 37.016 646.068 34.592 645.684 32.672C645.348 30.704 644.7 29.24 643.74 28.28C642.828 27.272 641.436 26.768 639.564 26.768V26.048C641.916 26.048 644.316 25.568 646.764 24.608C649.212 23.648 651.444 22.472 653.46 21.08C653.46 23.768 653.46 26.672 653.46 29.792C653.412 32.48 653.388 35.552 653.388 39.008C653.388 42.464 653.388 46.136 653.388 50.024C653.388 53.864 653.388 57.248 653.388 60.176C653.388 63.056 653.556 65.48 653.892 67.448C654.276 69.368 654.924 70.832 655.836 71.84C656.748 72.8 658.14 73.28 660.012 73.28V74H639.564ZM649.284 5.95999C651.108 5.95999 652.668 6.60799 653.964 7.90399C655.26 9.15199 655.908 10.688 655.908 12.512C655.908 14.336 655.26 15.896 653.964 17.192C652.668 18.488 651.108 19.136 649.284 19.136C647.46 19.136 645.9 18.488 644.604 17.192C643.356 15.896 642.732 14.336 642.732 12.512C642.732 10.688 643.356 9.15199 644.604 7.90399C645.9 6.60799 647.46 5.95999 649.284 5.95999Z" fill="#FE79F3"/>
<path d="M663.591 48.08C663.591 44.336 664.311 40.832 665.751 37.568C667.191 34.304 669.135 31.448 671.583 29C674.079 26.552 676.959 24.632 680.223 23.24C683.535 21.8 687.039 21.08 690.735 21.08C694.431 21.08 697.911 21.8 701.175 23.24C704.487 24.632 707.367 26.552 709.815 29C712.311 31.448 714.279 34.304 715.719 37.568C717.159 40.832 717.879 44.336 717.879 48.08C717.879 51.824 717.159 55.328 715.719 58.592C714.279 61.856 712.311 64.712 709.815 67.16C707.367 69.608 704.487 71.552 701.175 72.992C697.911 74.384 694.431 75.08 690.735 75.08C687.039 75.08 683.535 74.384 680.223 72.992C676.959 71.552 674.079 69.608 671.583 67.16C669.135 64.712 667.191 61.856 665.751 58.592C664.311 55.328 663.591 51.824 663.591 48.08ZM667.911 44.552C668.055 47.768 668.967 50.96 670.647 54.128C672.327 57.248 674.487 60.056 677.127 62.552C679.815 65 682.863 66.992 686.271 68.528C689.679 70.016 693.183 70.76 696.783 70.76C699.231 70.76 701.535 70.328 703.695 69.464C705.855 68.6 707.703 67.352 709.239 65.72C710.775 64.04 711.927 62.024 712.695 59.672C713.511 57.32 713.799 54.632 713.559 51.608C713.415 48.392 712.503 45.224 710.823 42.104C709.191 38.936 707.031 36.128 704.343 33.68C701.703 31.184 698.679 29.192 695.271 27.704C691.863 26.168 688.359 25.4 684.759 25.4C682.311 25.4 680.007 25.832 677.847 26.696C675.687 27.56 673.815 28.832 672.231 30.512C670.695 32.144 669.519 34.136 668.703 36.488C667.935 38.84 667.671 41.528 667.911 44.552Z" fill="#FE79F3"/>
<path d="M721.478 26.048C723.83 26.048 726.23 25.568 728.678 24.608C731.126 23.648 733.358 22.472 735.374 21.08C735.374 22.76 735.374 24.632 735.374 26.696C735.326 28.424 735.302 30.488 735.302 32.888C735.302 35.24 735.302 37.808 735.302 40.592C736.022 38.432 736.958 36.2 738.11 33.896C739.262 31.592 740.606 29.504 742.142 27.632C743.678 25.712 745.382 24.152 747.254 22.952C749.126 21.704 751.142 21.08 753.302 21.08C755.366 21.08 757.07 21.8 758.414 23.24C759.758 24.632 760.886 26.408 761.798 28.568C762.71 30.728 763.478 33.08 764.102 35.624C764.726 38.12 765.35 40.472 765.974 42.68C766.886 45.848 767.798 49.232 768.71 52.832C769.622 56.432 770.63 59.744 771.734 62.768C772.886 65.792 774.182 68.312 775.622 70.328C777.11 72.296 778.862 73.28 780.878 73.28V74H771.518C770.078 74 768.878 73.544 767.918 72.632C767.006 71.672 766.19 70.376 765.47 68.744C764.798 67.064 764.174 65.12 763.598 62.912C763.07 60.704 762.494 58.328 761.87 55.784C761.342 53.624 760.766 51.248 760.142 48.656C759.518 46.016 758.942 43.616 758.414 41.456C757.838 39.2 757.262 37.136 756.686 35.264C756.11 33.392 755.462 31.784 754.742 30.44C754.07 29.096 753.302 28.04 752.438 27.272C751.622 26.504 750.686 26.12 749.63 26.12C747.806 26.12 746.03 26.912 744.302 28.496C742.622 30.032 741.11 31.952 739.766 34.256C738.422 36.56 737.342 39.032 736.526 41.672C735.71 44.264 735.302 46.616 735.302 48.728V50.024C735.302 53.864 735.302 57.248 735.302 60.176C735.302 63.056 735.47 65.48 735.806 67.448C736.19 69.368 736.838 70.832 737.75 71.84C738.662 72.8 740.054 73.28 741.926 73.28V74H721.478V73.28C723.35 73.28 724.742 72.8 725.654 71.84C726.614 70.832 727.262 69.368 727.598 67.448C727.982 65.48 728.15 63.056 728.102 60.176C728.102 57.248 728.102 53.864 728.102 50.024C728.102 46.184 728.102 42.824 728.102 39.944C728.15 37.016 727.982 34.592 727.598 32.672C727.262 30.704 726.614 29.24 725.654 28.28C724.742 27.272 723.35 26.768 721.478 26.768V26.048Z" fill="#FE79F3"/>
<path d="M1.88008 121.784C1.88008 121.208 1.97608 120.344 2.16808 119.192C2.40808 117.992 2.86408 116.696 3.53608 115.304C4.20808 113.912 5.12008 112.496 6.27208 111.056C7.47208 109.568 9.03208 108.224 10.9521 107.024C12.9201 105.824 15.2961 104.84 18.0801 104.072C20.8641 103.304 24.1761 102.92 28.0161 102.92C31.6161 102.92 34.6641 103.304 37.1601 104.072C39.6561 104.792 41.6961 105.584 43.2801 106.448C45.1041 107.504 46.6161 108.704 47.8161 110.048C47.4321 111.824 46.7361 112.952 45.7281 113.432C44.7681 113.912 43.8801 114.152 43.0641 114.152C41.7681 114.152 40.2801 113.72 38.6001 112.856C36.9681 111.992 35.1681 111.056 33.2001 110.048C31.2801 109.04 29.2401 108.104 27.0801 107.24C24.9201 106.376 22.6401 105.944 20.2401 105.944C16.4001 105.944 13.3041 107.096 10.9521 109.4C8.60008 111.704 7.42408 114.752 7.42408 118.544C7.42408 121.232 8.04808 123.512 9.29608 125.384C10.5441 127.256 12.1761 128.888 14.1921 130.28C16.2081 131.624 18.5121 132.8 21.1041 133.808C23.7441 134.816 26.4081 135.824 29.0961 136.832C31.7841 137.792 34.4241 138.824 37.0161 139.928C39.6561 140.984 41.9841 142.28 44.0001 143.816C46.0161 145.352 47.6481 147.176 48.8961 149.288C50.1441 151.4 50.7681 153.944 50.7681 156.92C50.7681 161 50.0241 164.36 48.5361 167C47.0481 169.592 45.1041 171.632 42.7041 173.12C40.3041 174.608 37.5681 175.64 34.4961 176.216C31.4241 176.792 28.3041 177.08 25.1361 177.08C22.4961 177.08 19.9281 176.744 17.4321 176.072C14.9361 175.448 12.6561 174.68 10.5921 173.768C8.57608 172.856 6.82408 171.896 5.33608 170.888C3.84808 169.88 2.81608 169.016 2.24008 168.296V156.416C3.58408 158.912 5.14408 161.288 6.92008 163.544C8.69608 165.8 10.7361 167.792 13.0401 169.52C15.3921 171.2 18.0321 172.544 20.9601 173.552C23.8881 174.56 27.1521 175.064 30.7521 175.064C32.6721 175.064 34.5441 174.776 36.3681 174.2C38.2401 173.576 39.8961 172.688 41.3361 171.536C42.7761 170.384 43.9281 168.944 44.7921 167.216C45.7041 165.44 46.1601 163.4 46.1601 161.096C46.1601 158.36 45.5121 156.056 44.2161 154.184C42.9681 152.264 41.3121 150.608 39.2481 149.216C37.1841 147.824 34.8081 146.624 32.1201 145.616C29.4801 144.608 26.7681 143.624 23.9841 142.664C21.2481 141.656 18.5361 140.6 15.8481 139.496C13.2081 138.392 10.8561 137.072 8.79208 135.536C6.72808 133.952 5.04808 132.056 3.75208 129.848C2.50408 127.64 1.88008 124.952 1.88008 121.784Z" fill="#FE79F3"/>
<path d="M52.1732 128.048C54.5252 128.048 56.9252 127.568 59.3732 126.608C61.8212 125.648 64.0532 124.472 66.0692 123.08C66.0692 125.768 66.0692 128.624 66.0692 131.648C66.0212 134.24 65.9972 137.168 65.9972 140.432C65.9972 143.696 65.9972 147.08 65.9972 150.584V162.896C65.9972 166.496 66.7172 169.112 68.1572 170.744C69.5972 172.328 71.4452 173.12 73.7012 173.12C75.6692 173.12 77.7572 172.544 79.9652 171.392C82.2212 170.24 84.2852 168.632 86.1572 166.568C88.0772 164.504 89.6852 162.08 90.9812 159.296C92.2772 156.512 92.9732 153.464 93.0692 150.152V145.904C93.0692 143.696 93.0452 141.56 92.9972 139.496C92.9972 137.432 92.8052 135.608 92.4212 134.024C92.0372 132.44 91.3892 131.168 90.4772 130.208C89.5652 129.248 88.2212 128.768 86.4452 128.768V128.048C88.7972 128.048 91.1972 127.568 93.6452 126.608C96.0932 125.648 98.3252 124.472 100.341 123.08C100.341 125.288 100.341 127.736 100.341 130.424C100.293 132.68 100.269 135.32 100.269 138.344C100.269 141.368 100.269 144.632 100.269 148.136C100.269 151.976 100.269 155.36 100.269 158.288C100.269 161.168 100.437 163.592 100.773 165.56C101.157 167.48 101.805 168.944 102.717 169.952C103.629 170.912 105.021 171.392 106.893 171.392V172.112C104.541 172.112 102.141 172.592 99.6932 173.552C97.2452 174.512 95.0132 175.688 92.9972 177.08C92.9972 175.544 92.9972 173.792 92.9972 171.824C92.9972 170.144 92.9972 168.152 92.9972 165.848C93.0452 163.496 93.0692 160.904 93.0692 158.072C92.3012 160.232 91.2452 162.44 89.9012 164.696C88.6052 166.904 87.0692 168.944 85.2932 170.816C83.5172 172.64 81.5252 174.152 79.3172 175.352C77.1572 176.504 74.8052 177.08 72.2612 177.08C70.4372 177.08 68.8532 176.864 67.5092 176.432C66.1652 176.048 64.9892 175.52 63.9812 174.848C63.0212 174.176 62.2052 173.408 61.5332 172.544C60.9092 171.68 60.4052 170.792 60.0212 169.88C59.1092 167.768 58.6772 165.368 58.7252 162.68C58.7252 161.768 58.7492 160.736 58.7972 159.584V152.024C58.7972 148.184 58.7972 144.824 58.7972 141.944C58.8452 139.016 58.6772 136.592 58.2932 134.672C57.9572 132.704 57.3092 131.24 56.3492 130.28C55.4372 129.272 54.0452 128.768 52.1732 128.768V128.048Z" fill="#FE79F3"/>
<path d="M108.353 176V175.28C110.225 175.28 111.617 174.8 112.529 173.84C113.489 172.832 114.137 171.368 114.473 169.448C114.857 167.48 115.025 165.056 114.977 162.176C114.977 159.248 114.977 155.864 114.977 152.024C114.977 148.184 114.977 144.824 114.977 141.944C115.025 139.016 114.857 136.592 114.473 134.672C114.137 132.704 113.489 131.24 112.529 130.28C111.617 129.272 110.225 128.768 108.353 128.768V128.048C110.705 128.048 113.105 127.568 115.553 126.608C118.001 125.648 120.233 124.472 122.249 123.08C122.249 125.768 122.249 128.672 122.249 131.792C122.201 134.48 122.177 137.552 122.177 141.008C122.177 144.464 122.177 148.136 122.177 152.024C122.177 155.864 122.177 159.248 122.177 162.176C122.177 165.056 122.345 167.48 122.681 169.448C123.065 171.368 123.713 172.832 124.625 173.84C125.537 174.8 126.929 175.28 128.801 175.28V176H108.353ZM118.073 107.96C119.897 107.96 121.457 108.608 122.753 109.904C124.049 111.152 124.697 112.688 124.697 114.512C124.697 116.336 124.049 117.896 122.753 119.192C121.457 120.488 119.897 121.136 118.073 121.136C116.249 121.136 114.689 120.488 113.393 119.192C112.145 117.896 111.521 116.336 111.521 114.512C111.521 112.688 112.145 111.152 113.393 109.904C114.689 108.608 116.249 107.96 118.073 107.96Z" fill="#FE79F3"/>
<path d="M144.26 126.32V165.128C144.26 166.136 144.332 167.192 144.476 168.296C144.668 169.4 144.956 170.432 145.34 171.392C145.724 172.352 146.252 173.144 146.924 173.768C147.644 174.392 148.508 174.704 149.516 174.704C151.244 174.704 152.78 174.272 154.124 173.408C155.468 172.496 156.548 171.368 157.364 170.024L158.084 170.528C157.748 171.152 157.244 171.848 156.572 172.616C155.9 173.336 155.108 174.032 154.196 174.704C153.332 175.376 152.348 175.928 151.244 176.36C150.14 176.84 149.012 177.08 147.86 177.08C145.7 177.08 143.924 176.72 142.532 176C141.14 175.232 140.036 174.248 139.22 173.048C138.404 171.8 137.828 170.384 137.492 168.8C137.204 167.168 137.06 165.464 137.06 163.688V126.32H129.5V124.16C130.652 124.16 131.948 123.656 133.388 122.648C134.828 121.64 136.22 120.368 137.564 118.832C138.908 117.296 140.132 115.64 141.236 113.864C142.34 112.088 143.132 110.432 143.612 108.896H144.332C144.332 110.144 144.332 111.56 144.332 113.144C144.284 114.536 144.26 116.168 144.26 118.04C144.26 119.864 144.26 121.904 144.26 124.16H155.708V126.32H144.26Z" fill="#FE79F3"/>
<path d="M155.232 150.08C155.232 146.336 155.952 142.832 157.392 139.568C158.832 136.304 160.776 133.448 163.224 131C165.72 128.552 168.6 126.632 171.864 125.24C175.176 123.8 178.68 123.08 182.376 123.08C186.072 123.08 189.24 123.632 191.88 124.736C194.52 125.84 196.68 127.208 198.36 128.84C200.04 130.424 201.264 132.152 202.032 134.024C202.848 135.896 203.256 137.6 203.256 139.136C203.256 140.672 202.968 141.92 202.392 142.88C201.816 143.84 201.072 144.608 200.16 145.184C199.248 145.712 198.216 146.072 197.064 146.264C195.96 146.456 194.856 146.552 193.752 146.552H161.352C161.352 150.008 162.024 153.248 163.368 156.272C164.712 159.248 166.512 161.84 168.768 164.048C171.072 166.256 173.712 167.984 176.688 169.232C179.664 170.48 182.808 171.104 186.12 171.104C188.568 171.104 190.872 170.768 193.032 170.096C195.192 169.376 197.136 168.44 198.864 167.288C200.64 166.088 202.152 164.696 203.4 163.112C204.696 161.48 205.704 159.776 206.424 158L207.144 158.288C206.424 161.024 205.272 163.544 203.688 165.848C202.152 168.104 200.28 170.072 198.072 171.752C195.912 173.432 193.488 174.752 190.8 175.712C188.16 176.624 185.352 177.08 182.376 177.08C178.68 177.08 175.176 176.384 171.864 174.992C168.6 173.552 165.72 171.608 163.224 169.16C160.776 166.712 158.832 163.856 157.392 160.592C155.952 157.328 155.232 153.824 155.232 150.08ZM180.792 144.68C182.664 144.68 184.488 144.632 186.264 144.536C188.088 144.44 189.696 144.176 191.088 143.744C192.528 143.312 193.68 142.664 194.544 141.8C195.456 140.936 195.912 139.736 195.912 138.2C195.912 136.232 195.504 134.48 194.688 132.944C193.92 131.408 192.792 130.088 191.304 128.984C189.864 127.88 188.112 127.04 186.048 126.464C184.032 125.888 181.776 125.6 179.28 125.6C176.592 125.6 174.168 126.08 172.008 127.04C169.896 127.952 168.072 129.248 166.536 130.928C165 132.608 163.776 134.648 162.864 137.048C162 139.448 161.496 142.112 161.352 145.04C163.128 144.992 164.76 144.944 166.248 144.896C167.784 144.848 169.296 144.824 170.784 144.824C172.272 144.776 173.808 144.752 175.392 144.752C177.024 144.704 178.824 144.68 180.792 144.68Z" fill="#FE79F3"/>
<path d="M234.502 176V175.28C236.374 175.28 237.766 174.8 238.678 173.84C239.638 172.832 240.286 171.368 240.622 169.448C241.006 167.48 241.174 165.056 241.126 162.176C241.126 159.248 241.126 155.864 241.126 152.024V127.976C241.126 124.136 241.126 120.776 241.126 117.896C241.174 114.968 241.006 112.544 240.622 110.624C240.286 108.656 239.638 107.192 238.678 106.232C237.766 105.224 236.374 104.72 234.502 104.72V104H263.518C267.694 104 271.318 104.48 274.39 105.44C277.51 106.352 280.102 107.648 282.166 109.328C284.278 111.008 285.838 113.048 286.846 115.448C287.902 117.8 288.43 120.416 288.43 123.296C288.43 126.464 287.758 129.296 286.414 131.792C285.07 134.288 283.27 136.4 281.014 138.128C278.758 139.808 276.166 141.104 273.238 142.016C270.31 142.88 267.286 143.312 264.166 143.312H248.326V152.024C248.326 155.864 248.326 159.248 248.326 162.176C248.326 165.056 248.494 167.48 248.83 169.448C249.214 171.368 249.862 172.832 250.774 173.84C251.686 174.8 253.078 175.28 254.95 175.28V176H234.502ZM248.326 105.44V142.016H259.054C262.222 142.016 265.15 141.56 267.838 140.648C270.574 139.736 272.926 138.464 274.894 136.832C276.862 135.2 278.398 133.232 279.502 130.928C280.606 128.624 281.158 126.08 281.158 123.296C281.158 120.704 280.678 118.328 279.718 116.168C278.758 113.96 277.39 112.064 275.614 110.48C273.838 108.896 271.726 107.672 269.278 106.808C266.83 105.896 264.094 105.44 261.07 105.44H248.326Z" fill="#FE79F3"/>
<path d="M292.009 128.048C294.361 128.048 296.761 127.568 299.209 126.608C301.657 125.648 303.889 124.472 305.905 123.08C305.905 125 305.905 127.112 305.905 129.416C305.857 131.384 305.833 133.688 305.833 136.328C305.833 138.92 305.833 141.752 305.833 144.824C305.929 142.28 306.529 139.736 307.633 137.192C308.785 134.6 310.297 132.272 312.169 130.208C314.041 128.096 316.201 126.392 318.649 125.096C321.097 123.752 323.689 123.08 326.425 123.08C327.289 123.08 328.273 123.128 329.377 123.224C330.529 123.32 331.465 123.632 332.185 124.16C332.953 126.32 332.761 128.024 331.609 129.272C330.505 130.52 328.921 131.144 326.857 131.144C326.137 131.144 325.489 131.072 324.913 130.928C324.337 130.784 323.761 130.616 323.185 130.424C322.609 130.232 321.961 130.064 321.241 129.92C320.569 129.776 319.705 129.704 318.649 129.704C316.585 129.704 314.761 130.4 313.177 131.792C311.593 133.184 310.249 135.032 309.145 137.336C308.089 139.64 307.273 142.28 306.697 145.256C306.121 148.184 305.833 151.208 305.833 154.328C305.833 157.592 305.833 160.52 305.833 163.112C305.833 165.704 306.001 167.912 306.337 169.736C306.721 171.512 307.369 172.88 308.281 173.84C309.193 174.8 310.585 175.28 312.457 175.28V176H292.009V175.28C293.881 175.28 295.273 174.8 296.185 173.84C297.145 172.832 297.793 171.368 298.129 169.448C298.513 167.48 298.681 165.056 298.633 162.176C298.633 159.248 298.633 155.864 298.633 152.024C298.633 148.184 298.633 144.824 298.633 141.944C298.681 139.016 298.513 136.592 298.129 134.672C297.793 132.704 297.145 131.24 296.185 130.28C295.273 129.272 293.881 128.768 292.009 128.768V128.048Z" fill="#FE79F3"/>
<path d="M330.45 150.08C330.45 146.336 331.17 142.832 332.61 139.568C334.05 136.304 335.994 133.448 338.442 131C340.938 128.552 343.818 126.632 347.082 125.24C350.394 123.8 353.898 123.08 357.594 123.08C361.29 123.08 364.77 123.8 368.034 125.24C371.346 126.632 374.226 128.552 376.674 131C379.17 133.448 381.138 136.304 382.578 139.568C384.018 142.832 384.738 146.336 384.738 150.08C384.738 153.824 384.018 157.328 382.578 160.592C381.138 163.856 379.17 166.712 376.674 169.16C374.226 171.608 371.346 173.552 368.034 174.992C364.77 176.384 361.29 177.08 357.594 177.08C353.898 177.08 350.394 176.384 347.082 174.992C343.818 173.552 340.938 171.608 338.442 169.16C335.994 166.712 334.05 163.856 332.61 160.592C331.17 157.328 330.45 153.824 330.45 150.08ZM334.77 146.552C334.914 149.768 335.826 152.96 337.506 156.128C339.186 159.248 341.346 162.056 343.986 164.552C346.674 167 349.722 168.992 353.13 170.528C356.538 172.016 360.042 172.76 363.642 172.76C366.09 172.76 368.394 172.328 370.554 171.464C372.714 170.6 374.562 169.352 376.098 167.72C377.634 166.04 378.786 164.024 379.554 161.672C380.37 159.32 380.658 156.632 380.418 153.608C380.274 150.392 379.362 147.224 377.682 144.104C376.05 140.936 373.89 138.128 371.202 135.68C368.562 133.184 365.538 131.192 362.13 129.704C358.722 128.168 355.218 127.4 351.618 127.4C349.17 127.4 346.866 127.832 344.706 128.696C342.546 129.56 340.674 130.832 339.09 132.512C337.554 134.144 336.378 136.136 335.562 138.488C334.794 140.84 334.53 143.528 334.77 146.552Z" fill="#FE79F3"/>
</svg>
