<svg width="433" height="74" viewBox="0 0 433 74" fill="none" xmlns="http://www.w3.org/2000/svg">
<path d="M0.138672 71.28C2.01067 71.28 3.40267 70.8 4.31467 69.84C5.27467 68.832 5.92267 67.368 6.25867 65.448C6.64267 63.48 6.81067 61.056 6.76267 58.176C6.76267 55.248 6.76267 51.864 6.76267 48.024V23.976C6.76267 20.136 6.76267 16.776 6.76267 13.896C6.81067 10.968 6.64267 8.544 6.25867 6.624C5.92267 4.656 5.27467 3.192 4.31467 2.232C3.40267 1.224 2.01067 0.719995 0.138672 0.719995V0H12.2347L52.0507 54.072V45.144C52.0507 40.056 51.8587 34.896 51.4747 29.664C51.0907 24.384 50.4187 19.608 49.4587 15.336C48.5467 11.016 47.2987 7.512 45.7147 4.824C44.1307 2.088 42.1387 0.719995 39.7387 0.719995V0H60.1867V0.719995C58.3147 0.719995 56.9227 1.224 56.0107 2.232C55.0987 3.192 54.4507 4.656 54.0667 6.624C53.7307 8.544 53.5627 10.968 53.5627 13.896C53.5627 16.776 53.5627 20.136 53.5627 23.976V56.16L57.2347 61.128V73.08L8.27467 6.552V26.856C8.27467 30.216 8.34667 33.672 8.49067 37.224C8.68267 40.728 8.94667 44.136 9.28267 47.448C9.66667 50.712 10.1707 53.808 10.7947 56.736C11.4187 59.616 12.1867 62.136 13.0987 64.296C14.0107 66.456 15.0907 68.16 16.3387 69.408C17.5867 70.656 19.0027 71.28 20.5867 71.28V72H0.138672V71.28Z" fill="#FE79F3"/>
<path d="M64.1652 46.08C64.1652 42.336 64.8852 38.832 66.3252 35.568C67.7652 32.304 69.7092 29.448 72.1572 27C74.6532 24.552 77.5332 22.632 80.7972 21.24C84.1092 19.8 87.6132 19.08 91.3092 19.08C95.0052 19.08 98.1732 19.632 100.813 20.736C103.453 21.84 105.613 23.208 107.293 24.84C108.973 26.424 110.197 28.152 110.965 30.024C111.781 31.896 112.189 33.6 112.189 35.136C112.189 36.672 111.901 37.92 111.325 38.88C110.749 39.84 110.005 40.608 109.093 41.184C108.181 41.712 107.149 42.072 105.997 42.264C104.893 42.456 103.789 42.552 102.685 42.552H70.2852C70.2852 46.008 70.9572 49.248 72.3012 52.272C73.6452 55.248 75.4452 57.84 77.7012 60.048C80.0052 62.256 82.6452 63.984 85.6212 65.232C88.5972 66.48 91.7412 67.104 95.0532 67.104C97.5012 67.104 99.8052 66.768 101.965 66.096C104.125 65.376 106.069 64.44 107.797 63.288C109.573 62.088 111.085 60.696 112.333 59.112C113.629 57.48 114.637 55.776 115.357 54L116.077 54.288C115.357 57.024 114.205 59.544 112.621 61.848C111.085 64.104 109.213 66.072 107.005 67.752C104.845 69.432 102.421 70.752 99.7332 71.712C97.0932 72.624 94.2852 73.08 91.3092 73.08C87.6132 73.08 84.1092 72.384 80.7972 70.992C77.5332 69.552 74.6532 67.608 72.1572 65.16C69.7092 62.712 67.7652 59.856 66.3252 56.592C64.8852 53.328 64.1652 49.824 64.1652 46.08ZM89.7252 40.68C91.5972 40.68 93.4212 40.632 95.1972 40.536C97.0212 40.44 98.6292 40.176 100.021 39.744C101.461 39.312 102.613 38.664 103.477 37.8C104.389 36.936 104.845 35.736 104.845 34.2C104.845 32.232 104.437 30.48 103.621 28.944C102.853 27.408 101.725 26.088 100.237 24.984C98.7972 23.88 97.0452 23.04 94.9812 22.464C92.9652 21.888 90.7092 21.6 88.2132 21.6C85.5252 21.6 83.1012 22.08 80.9412 23.04C78.8292 23.952 77.0052 25.248 75.4692 26.928C73.9332 28.608 72.7092 30.648 71.7972 33.048C70.9332 35.448 70.4292 38.112 70.2852 41.04C72.0612 40.992 73.6932 40.944 75.1812 40.896C76.7172 40.848 78.2292 40.824 79.7172 40.824C81.2052 40.776 82.7412 40.752 84.3252 40.752C85.9572 40.704 87.7572 40.68 89.7252 40.68Z" fill="#FE79F3"/>
<path d="M117.904 24.048C120.256 24.048 122.656 23.568 125.104 22.608C127.552 21.648 129.784 20.472 131.8 19.08C131.8 21.768 131.8 24.624 131.8 27.648C131.752 30.24 131.728 33.168 131.728 36.432C131.728 39.696 131.728 43.08 131.728 46.584V58.896C131.728 62.496 132.448 65.112 133.888 66.744C135.328 68.328 137.176 69.12 139.432 69.12C141.4 69.12 143.488 68.544 145.696 67.392C147.952 66.24 150.016 64.632 151.888 62.568C153.808 60.504 155.416 58.08 156.712 55.296C158.008 52.512 158.704 49.464 158.8 46.152V41.904C158.8 39.696 158.776 37.56 158.728 35.496C158.728 33.432 158.536 31.608 158.152 30.024C157.768 28.44 157.12 27.168 156.208 26.208C155.296 25.248 153.952 24.768 152.176 24.768V24.048C154.528 24.048 156.928 23.568 159.376 22.608C161.824 21.648 164.056 20.472 166.072 19.08C166.072 21.288 166.072 23.736 166.072 26.424C166.024 28.68 166 31.32 166 34.344C166 37.368 166 40.632 166 44.136C166 47.976 166 51.36 166 54.288C166 57.168 166.168 59.592 166.504 61.56C166.888 63.48 167.536 64.944 168.448 65.952C169.36 66.912 170.752 67.392 172.624 67.392V68.112C170.272 68.112 167.872 68.592 165.424 69.552C162.976 70.512 160.744 71.688 158.728 73.08C158.728 71.544 158.728 69.792 158.728 67.824C158.728 66.144 158.728 64.152 158.728 61.848C158.776 59.496 158.8 56.904 158.8 54.072C158.032 56.232 156.976 58.44 155.632 60.696C154.336 62.904 152.8 64.944 151.024 66.816C149.248 68.64 147.256 70.152 145.048 71.352C142.888 72.504 140.536 73.08 137.992 73.08C136.168 73.08 134.584 72.864 133.24 72.432C131.896 72.048 130.72 71.52 129.712 70.848C128.752 70.176 127.936 69.408 127.264 68.544C126.64 67.68 126.136 66.792 125.752 65.88C124.84 63.768 124.408 61.368 124.456 58.68C124.456 57.768 124.48 56.736 124.528 55.584V48.024C124.528 44.184 124.528 40.824 124.528 37.944C124.576 35.016 124.408 32.592 124.024 30.672C123.688 28.704 123.04 27.24 122.08 26.28C121.168 25.272 119.776 24.768 117.904 24.768V24.048Z" fill="#FE79F3"/>
<path d="M188.123 22.32V61.128C188.123 62.136 188.195 63.192 188.339 64.296C188.531 65.4 188.819 66.432 189.203 67.392C189.587 68.352 190.115 69.144 190.787 69.768C191.507 70.392 192.371 70.704 193.379 70.704C195.107 70.704 196.643 70.272 197.987 69.408C199.331 68.496 200.411 67.368 201.227 66.024L201.947 66.528C201.611 67.152 201.107 67.848 200.435 68.616C199.763 69.336 198.971 70.032 198.059 70.704C197.195 71.376 196.211 71.928 195.107 72.36C194.003 72.84 192.875 73.08 191.723 73.08C189.563 73.08 187.787 72.72 186.395 72C185.003 71.232 183.899 70.248 183.083 69.048C182.267 67.8 181.691 66.384 181.355 64.8C181.067 63.168 180.923 61.464 180.923 59.688V22.32H173.363V20.16C174.515 20.16 175.811 19.656 177.251 18.648C178.691 17.64 180.083 16.368 181.427 14.832C182.771 13.296 183.995 11.64 185.099 9.864C186.203 8.088 186.995 6.432 187.475 4.896H188.195C188.195 6.144 188.195 7.56 188.195 9.144C188.147 10.536 188.123 12.168 188.123 14.04C188.123 15.864 188.123 17.904 188.123 20.16H199.571V22.32H188.123Z" fill="#FE79F3"/>
<path d="M202.701 24.048C205.053 24.048 207.453 23.568 209.901 22.608C212.349 21.648 214.581 20.472 216.597 19.08C216.597 21 216.597 23.112 216.597 25.416C216.549 27.384 216.525 29.688 216.525 32.328C216.525 34.92 216.525 37.752 216.525 40.824C216.621 38.28 217.221 35.736 218.325 33.192C219.477 30.6 220.989 28.272 222.861 26.208C224.733 24.096 226.893 22.392 229.341 21.096C231.789 19.752 234.381 19.08 237.117 19.08C237.981 19.08 238.965 19.128 240.069 19.224C241.221 19.32 242.157 19.632 242.877 20.16C243.645 22.32 243.453 24.024 242.301 25.272C241.197 26.52 239.613 27.144 237.549 27.144C236.829 27.144 236.181 27.072 235.605 26.928C235.029 26.784 234.453 26.616 233.877 26.424C233.301 26.232 232.653 26.064 231.933 25.92C231.261 25.776 230.397 25.704 229.341 25.704C227.277 25.704 225.453 26.4 223.869 27.792C222.285 29.184 220.941 31.032 219.837 33.336C218.781 35.64 217.965 38.28 217.389 41.256C216.813 44.184 216.525 47.208 216.525 50.328C216.525 53.592 216.525 56.52 216.525 59.112C216.525 61.704 216.693 63.912 217.029 65.736C217.413 67.512 218.061 68.88 218.973 69.84C219.885 70.8 221.277 71.28 223.149 71.28V72H202.701V71.28C204.573 71.28 205.965 70.8 206.877 69.84C207.837 68.832 208.485 67.368 208.821 65.448C209.205 63.48 209.373 61.056 209.325 58.176C209.325 55.248 209.325 51.864 209.325 48.024C209.325 44.184 209.325 40.824 209.325 37.944C209.373 35.016 209.205 32.592 208.821 30.672C208.485 28.704 207.837 27.24 206.877 26.28C205.965 25.272 204.573 24.768 202.701 24.768V24.048Z" fill="#FE79F3"/>
<path d="M241.142 46.08C241.142 42.336 241.862 38.832 243.302 35.568C244.742 32.304 246.686 29.448 249.134 27C251.63 24.552 254.51 22.632 257.774 21.24C261.086 19.8 264.59 19.08 268.286 19.08C271.982 19.08 275.462 19.8 278.726 21.24C282.038 22.632 284.918 24.552 287.366 27C289.862 29.448 291.83 32.304 293.27 35.568C294.71 38.832 295.43 42.336 295.43 46.08C295.43 49.824 294.71 53.328 293.27 56.592C291.83 59.856 289.862 62.712 287.366 65.16C284.918 67.608 282.038 69.552 278.726 70.992C275.462 72.384 271.982 73.08 268.286 73.08C264.59 73.08 261.086 72.384 257.774 70.992C254.51 69.552 251.63 67.608 249.134 65.16C246.686 62.712 244.742 59.856 243.302 56.592C241.862 53.328 241.142 49.824 241.142 46.08ZM245.462 42.552C245.606 45.768 246.518 48.96 248.198 52.128C249.878 55.248 252.038 58.056 254.678 60.552C257.366 63 260.414 64.992 263.822 66.528C267.23 68.016 270.734 68.76 274.334 68.76C276.782 68.76 279.086 68.328 281.246 67.464C283.406 66.6 285.254 65.352 286.79 63.72C288.326 62.04 289.478 60.024 290.246 57.672C291.062 55.32 291.35 52.632 291.11 49.608C290.966 46.392 290.054 43.224 288.374 40.104C286.742 36.936 284.582 34.128 281.894 31.68C279.254 29.184 276.23 27.192 272.822 25.704C269.414 24.168 265.91 23.4 262.31 23.4C259.862 23.4 257.558 23.832 255.398 24.696C253.238 25.56 251.366 26.832 249.782 28.512C248.246 30.144 247.07 32.136 246.254 34.488C245.486 36.84 245.222 39.528 245.462 42.552Z" fill="#FE79F3"/>
<path d="M299.029 24.048C301.381 24.048 303.781 23.568 306.229 22.608C308.677 21.648 310.909 20.472 312.925 19.08C312.925 20.76 312.925 22.632 312.925 24.696C312.877 26.424 312.853 28.488 312.853 30.888C312.853 33.24 312.853 35.808 312.853 38.592C313.573 36.432 314.509 34.2 315.661 31.896C316.813 29.592 318.157 27.504 319.693 25.632C321.229 23.712 322.933 22.152 324.805 20.952C326.677 19.704 328.693 19.08 330.853 19.08C332.917 19.08 334.621 19.8 335.965 21.24C337.309 22.632 338.437 24.408 339.349 26.568C340.261 28.728 341.029 31.08 341.653 33.624C342.277 36.12 342.901 38.472 343.525 40.68C344.437 43.848 345.349 47.232 346.261 50.832C347.173 54.432 348.181 57.744 349.285 60.768C350.437 63.792 351.733 66.312 353.173 68.328C354.661 70.296 356.413 71.28 358.429 71.28V72H349.069C347.629 72 346.429 71.544 345.469 70.632C344.557 69.672 343.741 68.376 343.021 66.744C342.349 65.064 341.725 63.12 341.149 60.912C340.621 58.704 340.045 56.328 339.421 53.784C338.893 51.624 338.317 49.248 337.693 46.656C337.069 44.016 336.493 41.616 335.965 39.456C335.389 37.2 334.813 35.136 334.237 33.264C333.661 31.392 333.013 29.784 332.293 28.44C331.621 27.096 330.853 26.04 329.989 25.272C329.173 24.504 328.237 24.12 327.181 24.12C325.357 24.12 323.581 24.912 321.853 26.496C320.173 28.032 318.661 29.952 317.317 32.256C315.973 34.56 314.893 37.032 314.077 39.672C313.261 42.264 312.853 44.616 312.853 46.728V48.024C312.853 51.864 312.853 55.248 312.853 58.176C312.853 61.056 313.021 63.48 313.357 65.448C313.741 67.368 314.389 68.832 315.301 69.84C316.213 70.8 317.605 71.28 319.477 71.28V72H299.029V71.28C300.901 71.28 302.293 70.8 303.205 69.84C304.165 68.832 304.813 67.368 305.149 65.448C305.533 63.48 305.701 61.056 305.653 58.176C305.653 55.248 305.653 51.864 305.653 48.024C305.653 44.184 305.653 40.824 305.653 37.944C305.701 35.016 305.533 32.592 305.149 30.672C304.813 28.704 304.165 27.24 303.205 26.28C302.293 25.272 300.901 24.768 299.029 24.768V24.048Z" fill="#FE79F3"/>
<path d="M407.845 0H414.613L392.653 52.704H419.005V18H426.205V52.704H431.677V54H426.205C426.205 56.88 426.229 59.4 426.277 61.56C426.373 63.72 426.637 65.52 427.069 66.96C427.501 68.4 428.149 69.48 429.013 70.2C429.925 70.92 431.197 71.28 432.829 71.28V72H412.381V71.28C414.013 71.28 415.261 70.92 416.125 70.2C417.037 69.48 417.709 68.4 418.141 66.96C418.573 65.52 418.813 63.72 418.861 61.56C418.957 59.4 419.005 56.88 419.005 54H385.381L407.845 0Z" fill="#FE79F3"/>
</svg>
