<svg width="371" height="76" viewBox="0 0 371 76" fill="none" xmlns="http://www.w3.org/2000/svg">
<path d="M0.08 74V73.28C1.952 73.28 3.344 72.8 4.256 71.84C5.216 70.832 5.864 69.368 6.2 67.448C6.584 65.48 6.752 63.056 6.704 60.176C6.704 57.248 6.704 53.864 6.704 50.024V25.976C6.704 22.136 6.704 18.776 6.704 15.896C6.752 12.968 6.584 10.544 6.2 8.624C5.864 6.656 5.216 5.192 4.256 4.232C3.344 3.224 1.952 2.72 0.08 2.72V2H29.096C33.272 2 36.896 2.48 39.968 3.44C43.088 4.352 45.68 5.648 47.744 7.328C49.856 9.008 51.416 11.048 52.424 13.448C53.48 15.8 54.008 18.416 54.008 21.296C54.008 24.464 53.336 27.296 51.992 29.792C50.648 32.288 48.848 34.4 46.592 36.128C44.336 37.808 41.744 39.104 38.816 40.016C35.888 40.88 32.864 41.312 29.744 41.312H13.904V50.024C13.904 53.864 13.904 57.248 13.904 60.176C13.904 63.056 14.072 65.48 14.408 67.448C14.792 69.368 15.44 70.832 16.352 71.84C17.264 72.8 18.656 73.28 20.528 73.28V74H0.08ZM13.904 3.44V40.016H24.632C27.8 40.016 30.728 39.56 33.416 38.648C36.152 37.736 38.504 36.464 40.472 34.832C42.44 33.2 43.976 31.232 45.08 28.928C46.184 26.624 46.736 24.08 46.736 21.296C46.736 18.704 46.256 16.328 45.296 14.168C44.336 11.96 42.968 10.064 41.192 8.48C39.416 6.896 37.304 5.672 34.856 4.808C32.408 3.896 29.672 3.44 26.648 3.44H13.904ZM53.9816 48.08C53.9816 44.336 54.7016 40.832 56.1416 37.568C57.5816 34.304 59.5256 31.448 61.9736 29C64.4696 26.552 67.3496 24.632 70.6136 23.24C73.9256 21.8 77.4296 21.08 81.1256 21.08C84.8216 21.08 88.3016 21.8 91.5656 23.24C94.8776 24.632 97.7576 26.552 100.206 29C102.702 31.448 104.67 34.304 106.11 37.568C107.55 40.832 108.27 44.336 108.27 48.08C108.27 51.824 107.55 55.328 106.11 58.592C104.67 61.856 102.702 64.712 100.206 67.16C97.7576 69.608 94.8776 71.552 91.5656 72.992C88.3016 74.384 84.8216 75.08 81.1256 75.08C77.4296 75.08 73.9256 74.384 70.6136 72.992C67.3496 71.552 64.4696 69.608 61.9736 67.16C59.5256 64.712 57.5816 61.856 56.1416 58.592C54.7016 55.328 53.9816 51.824 53.9816 48.08ZM58.3016 44.552C58.4456 47.768 59.3576 50.96 61.0376 54.128C62.7176 57.248 64.8776 60.056 67.5176 62.552C70.2056 65 73.2536 66.992 76.6616 68.528C80.0696 70.016 83.5736 70.76 87.1736 70.76C89.6216 70.76 91.9256 70.328 94.0856 69.464C96.2456 68.6 98.0936 67.352 99.6296 65.72C101.166 64.04 102.318 62.024 103.086 59.672C103.902 57.32 104.19 54.632 103.95 51.608C103.806 48.392 102.894 45.224 101.214 42.104C99.5816 38.936 97.4216 36.128 94.7336 33.68C92.0936 31.184 89.0696 29.192 85.6616 27.704C82.2536 26.168 78.7496 25.4 75.1496 25.4C72.7016 25.4 70.3976 25.832 68.2376 26.696C66.0776 27.56 64.2056 28.832 62.6216 30.512C61.0856 32.144 59.9096 34.136 59.0936 36.488C58.3256 38.84 58.0616 41.528 58.3016 44.552ZM111.868 26.048C114.22 26.048 116.62 25.568 119.068 24.608C121.516 23.648 123.748 22.472 125.764 21.08C125.764 23 125.764 25.112 125.764 27.416C125.716 29.384 125.692 31.688 125.692 34.328C125.692 36.92 125.692 39.752 125.692 42.824C125.788 40.28 126.388 37.736 127.492 35.192C128.644 32.6 130.156 30.272 132.028 28.208C133.9 26.096 136.06 24.392 138.508 23.096C140.956 21.752 143.548 21.08 146.284 21.08C147.148 21.08 148.132 21.128 149.236 21.224C150.388 21.32 151.324 21.632 152.044 22.16C152.812 24.32 152.62 26.024 151.468 27.272C150.364 28.52 148.78 29.144 146.716 29.144C145.996 29.144 145.348 29.072 144.772 28.928C144.196 28.784 143.62 28.616 143.044 28.424C142.468 28.232 141.82 28.064 141.1 27.92C140.428 27.776 139.564 27.704 138.508 27.704C136.444 27.704 134.62 28.4 133.036 29.792C131.452 31.184 130.108 33.032 129.004 35.336C127.948 37.64 127.132 40.28 126.556 43.256C125.98 46.184 125.692 49.208 125.692 52.328C125.692 55.592 125.692 58.52 125.692 61.112C125.692 63.704 125.86 65.912 126.196 67.736C126.58 69.512 127.228 70.88 128.14 71.84C129.052 72.8 130.444 73.28 132.316 73.28V74H111.868V73.28C113.74 73.28 115.132 72.8 116.044 71.84C117.004 70.832 117.652 69.368 117.988 67.448C118.372 65.48 118.54 63.056 118.492 60.176C118.492 57.248 118.492 53.864 118.492 50.024C118.492 46.184 118.492 42.824 118.492 39.944C118.54 37.016 118.372 34.592 117.988 32.672C117.652 30.704 117.004 29.24 116.044 28.28C115.132 27.272 113.74 26.768 111.868 26.768V26.048ZM173.018 24.32V32.312V63.128C173.018 64.136 173.09 65.192 173.234 66.296C173.426 67.4 173.714 68.432 174.098 69.392C174.482 70.352 175.01 71.144 175.682 71.768C176.402 72.392 177.266 72.704 178.274 72.704C180.002 72.704 181.538 72.272 182.882 71.408C184.226 70.496 185.306 69.368 186.122 68.024L186.842 68.528C186.506 69.152 186.002 69.848 185.33 70.616C184.658 71.336 183.866 72.032 182.954 72.704C182.09 73.376 181.106 73.928 180.002 74.36C178.898 74.84 177.77 75.08 176.618 75.08C174.458 75.08 172.682 74.72 171.29 74C169.898 73.232 168.794 72.248 167.978 71.048C167.162 69.8 166.586 68.384 166.25 66.8C165.962 65.168 165.818 63.464 165.818 61.688V24.32H158.258V22.16C159.41 22.16 160.706 21.656 162.146 20.648C163.586 19.64 164.978 18.368 166.322 16.832C167.666 15.296 168.89 13.64 169.994 11.864C171.098 10.088 171.89 8.432 172.37 6.896H173.09C173.09 8.144 173.09 9.56 173.09 11.144C173.042 12.536 173.018 14.168 173.018 16.04C173.018 17.864 173.018 19.904 173.018 22.16H184.466V24.32H173.018ZM187.955 74V73.28C189.827 73.28 191.219 72.8 192.131 71.84C193.091 70.832 193.739 69.368 194.075 67.448C194.459 65.48 194.627 63.056 194.579 60.176C194.579 57.248 194.579 53.864 194.579 50.024V24.608C194.579 21.008 194.987 17.744 195.803 14.816C196.619 11.888 197.795 9.392 199.331 7.328C200.867 5.264 202.739 3.68 204.947 2.576C207.203 1.47199 209.747 0.919992 212.579 0.919992C213.923 0.919992 215.267 1.01599 216.611 1.208C218.003 1.39999 219.467 1.95199 221.003 2.864C221.099 3.68 221.027 4.39999 220.787 5.024C220.547 5.6 220.211 6.08 219.779 6.464C219.347 6.848 218.867 7.136 218.339 7.328C217.811 7.52 217.307 7.616 216.827 7.616C215.819 7.616 214.955 7.4 214.235 6.968C213.563 6.536 212.915 6.08 212.291 5.6C211.667 5.072 210.995 4.592 210.275 4.16C209.603 3.728 208.763 3.512 207.755 3.512C206.315 3.512 205.187 3.992 204.371 4.952C203.603 5.912 203.027 7.208 202.643 8.84C202.259 10.472 202.019 12.368 201.923 14.528C201.827 16.64 201.779 18.848 201.779 21.152V22.16H212.795V24.32H201.779V50.024C201.779 53.864 201.779 57.248 201.779 60.176C201.779 63.056 201.947 65.48 202.283 67.448C202.667 69.368 203.315 70.832 204.227 71.84C205.139 72.8 206.531 73.28 208.403 73.28V74H187.955ZM212.818 48.08C212.818 44.336 213.538 40.832 214.978 37.568C216.418 34.304 218.362 31.448 220.81 29C223.306 26.552 226.186 24.632 229.45 23.24C232.762 21.8 236.266 21.08 239.962 21.08C243.658 21.08 247.138 21.8 250.402 23.24C253.714 24.632 256.594 26.552 259.042 29C261.538 31.448 263.506 34.304 264.946 37.568C266.386 40.832 267.106 44.336 267.106 48.08C267.106 51.824 266.386 55.328 264.946 58.592C263.506 61.856 261.538 64.712 259.042 67.16C256.594 69.608 253.714 71.552 250.402 72.992C247.138 74.384 243.658 75.08 239.962 75.08C236.266 75.08 232.762 74.384 229.45 72.992C226.186 71.552 223.306 69.608 220.81 67.16C218.362 64.712 216.418 61.856 214.978 58.592C213.538 55.328 212.818 51.824 212.818 48.08ZM217.138 44.552C217.282 47.768 218.194 50.96 219.874 54.128C221.554 57.248 223.714 60.056 226.354 62.552C229.042 65 232.09 66.992 235.498 68.528C238.906 70.016 242.41 70.76 246.01 70.76C248.458 70.76 250.762 70.328 252.922 69.464C255.082 68.6 256.93 67.352 258.466 65.72C260.002 64.04 261.154 62.024 261.922 59.672C262.738 57.32 263.026 54.632 262.786 51.608C262.642 48.392 261.73 45.224 260.05 42.104C258.418 38.936 256.258 36.128 253.57 33.68C250.93 31.184 247.906 29.192 244.498 27.704C241.09 26.168 237.586 25.4 233.986 25.4C231.538 25.4 229.234 25.832 227.074 26.696C224.914 27.56 223.042 28.832 221.458 30.512C219.922 32.144 218.746 34.136 217.93 36.488C217.162 38.84 216.898 41.528 217.138 44.552ZM270.704 73.28C272.576 73.28 273.968 72.8 274.88 71.84C275.84 70.832 276.488 69.368 276.824 67.448C277.208 65.48 277.376 63.056 277.328 60.176C277.328 57.248 277.328 53.864 277.328 50.024V26.552C277.328 23.24 277.304 20.36 277.256 17.912C277.256 15.416 277.04 13.328 276.608 11.648C276.224 9.968 275.576 8.72 274.664 7.904C273.752 7.04 272.432 6.608 270.704 6.608V5.888C273.056 5.888 275.456 5.408 277.904 4.448C280.352 3.488 282.584 2.31199 284.6 0.919992C284.6 3.22399 284.6 5.72 284.6 8.40799C284.552 10.76 284.528 13.472 284.528 16.544C284.528 19.616 284.528 22.88 284.528 26.336V50.024C284.528 53.864 284.528 57.248 284.528 60.176C284.528 63.056 284.696 65.48 285.032 67.448C285.416 69.368 286.064 70.832 286.976 71.84C287.888 72.8 289.28 73.28 291.152 73.28V74H270.704V73.28ZM292.572 74V73.28C294.444 73.28 295.836 72.8 296.748 71.84C297.708 70.832 298.356 69.368 298.692 67.448C299.076 65.48 299.244 63.056 299.196 60.176C299.196 57.248 299.196 53.864 299.196 50.024C299.196 46.184 299.196 42.824 299.196 39.944C299.244 37.016 299.076 34.592 298.692 32.672C298.356 30.704 297.708 29.24 296.748 28.28C295.836 27.272 294.444 26.768 292.572 26.768V26.048C294.924 26.048 297.324 25.568 299.772 24.608C302.22 23.648 304.452 22.472 306.468 21.08C306.468 23.768 306.468 26.672 306.468 29.792C306.42 32.48 306.396 35.552 306.396 39.008C306.396 42.464 306.396 46.136 306.396 50.024C306.396 53.864 306.396 57.248 306.396 60.176C306.396 63.056 306.564 65.48 306.9 67.448C307.284 69.368 307.932 70.832 308.844 71.84C309.756 72.8 311.148 73.28 313.02 73.28V74H292.572ZM302.292 5.96C304.116 5.96 305.676 6.608 306.972 7.904C308.268 9.152 308.916 10.688 308.916 12.512C308.916 14.336 308.268 15.896 306.972 17.192C305.676 18.488 304.116 19.136 302.292 19.136C300.468 19.136 298.908 18.488 297.612 17.192C296.364 15.896 295.74 14.336 295.74 12.512C295.74 10.688 296.364 9.152 297.612 7.904C298.908 6.608 300.468 5.96 302.292 5.96ZM316.599 48.08C316.599 44.336 317.319 40.832 318.759 37.568C320.199 34.304 322.143 31.448 324.591 29C327.087 26.552 329.967 24.632 333.231 23.24C336.543 21.8 340.047 21.08 343.743 21.08C347.439 21.08 350.919 21.8 354.183 23.24C357.495 24.632 360.375 26.552 362.823 29C365.319 31.448 367.287 34.304 368.727 37.568C370.167 40.832 370.887 44.336 370.887 48.08C370.887 51.824 370.167 55.328 368.727 58.592C367.287 61.856 365.319 64.712 362.823 67.16C360.375 69.608 357.495 71.552 354.183 72.992C350.919 74.384 347.439 75.08 343.743 75.08C340.047 75.08 336.543 74.384 333.231 72.992C329.967 71.552 327.087 69.608 324.591 67.16C322.143 64.712 320.199 61.856 318.759 58.592C317.319 55.328 316.599 51.824 316.599 48.08ZM320.919 44.552C321.063 47.768 321.975 50.96 323.655 54.128C325.335 57.248 327.495 60.056 330.135 62.552C332.823 65 335.871 66.992 339.279 68.528C342.687 70.016 346.191 70.76 349.791 70.76C352.239 70.76 354.543 70.328 356.703 69.464C358.863 68.6 360.711 67.352 362.247 65.72C363.783 64.04 364.935 62.024 365.703 59.672C366.519 57.32 366.807 54.632 366.567 51.608C366.423 48.392 365.511 45.224 363.831 42.104C362.199 38.936 360.039 36.128 357.351 33.68C354.711 31.184 351.687 29.192 348.279 27.704C344.871 26.168 341.367 25.4 337.767 25.4C335.319 25.4 333.015 25.832 330.855 26.696C328.695 27.56 326.823 28.832 325.239 30.512C323.703 32.144 322.527 34.136 321.711 36.488C320.943 38.84 320.679 41.528 320.919 44.552Z" fill="#FE79F3"/>
</svg>
