<svg width="762" height="100" viewBox="0 0 762 100" fill="none" xmlns="http://www.w3.org/2000/svg">
<path d="M9.42819 66.0319V33.9679C9.42819 28.8479 9.42819 24.3679 9.42819 20.5279C9.49219 16.6239 9.26819 13.3919 8.75619 10.8319C8.30819 8.20794 7.44419 6.25594 6.16419 4.97594C4.94819 3.63194 3.09219 2.95994 0.596191 2.95994V1.99995H39.2842C44.8522 1.99995 49.6842 2.63995 53.7802 3.91994C57.9402 5.13594 61.3962 6.86394 64.1482 9.10394C66.9642 11.3439 69.0442 14.0639 70.3882 17.2639C71.7962 20.3999 72.5002 23.8879 72.5002 27.7279C72.5002 31.9519 71.6042 35.6959 69.8122 38.9599C68.0842 42.2239 65.7162 45.0079 62.7082 47.3119C59.7642 49.5519 56.3722 51.2799 52.5322 52.4959C48.7562 53.7119 44.7882 54.3519 40.6282 54.4159C45.1082 55.4399 49.2682 57.3599 53.1082 60.1759C57.0122 62.9279 60.4362 66.2879 63.3802 70.2559C66.3882 74.1599 68.8522 78.5119 70.7722 83.3119C72.7562 88.0479 74.0682 92.9439 74.7082 97.9999H63.7642C63.1882 92.8159 61.9082 87.6319 59.9242 82.4479C58.0042 77.1999 55.4762 72.4959 52.3402 68.3359C49.2682 64.1119 45.6522 60.7199 41.4922 58.1599C37.3322 55.5359 32.7882 54.2879 27.8602 54.4159H19.0282V66.0319C19.0282 71.1519 19.0282 75.6639 19.0282 79.5679C19.0282 83.4079 19.2522 86.6399 19.7002 89.2639C20.2122 91.8239 21.0762 93.7759 22.2922 95.1199C23.5082 96.3999 25.3642 97.0399 27.8602 97.0399V97.9999H0.596191V97.0399C3.09219 97.0399 4.94819 96.3999 6.16419 95.1199C7.44419 93.7759 8.30819 91.8239 8.75619 89.2639C9.26819 86.6399 9.49219 83.4079 9.42819 79.5679C9.42819 75.6639 9.42819 71.1519 9.42819 66.0319ZM19.0282 52.6879H33.3322C37.5562 52.6879 41.4602 52.0799 45.0442 50.8639C48.6922 49.6479 51.8282 47.9519 54.4522 45.7759C57.0762 43.5999 59.1242 40.9759 60.5962 37.9039C62.0682 34.8319 62.8042 31.4399 62.8042 27.7279C62.8042 24.2719 62.1642 21.1039 60.8842 18.2239C59.6042 15.2799 57.7802 12.7519 55.4122 10.6399C53.0442 8.52794 50.2282 6.89594 46.9642 5.74394C43.7002 4.52794 40.0522 3.91994 36.0202 3.91994H19.0282V52.6879Z" fill="#FE79F3"/>
<path d="M77.6212 63.4399C77.6212 58.4479 78.5812 53.7759 80.5012 49.4239C82.4212 45.0719 85.0132 41.2639 88.2772 37.9999C91.6052 34.7359 95.4452 32.1759 99.7972 30.3199C104.213 28.3999 108.885 27.4399 113.813 27.4399C118.741 27.4399 122.965 28.1759 126.485 29.6479C130.005 31.1199 132.885 32.9439 135.125 35.1199C137.365 37.2319 138.997 39.5359 140.021 42.0319C141.109 44.5279 141.653 46.7999 141.653 48.8479C141.653 50.8959 141.269 52.5599 140.501 53.8399C139.733 55.1199 138.741 56.1439 137.525 56.9119C136.309 57.6159 134.933 58.0959 133.397 58.3519C131.925 58.6079 130.453 58.7359 128.981 58.7359H85.7812C85.7812 63.3439 86.6772 67.6639 88.4692 71.6959C90.2612 75.6639 92.6612 79.1199 95.6692 82.0639C98.7412 85.0079 102.261 87.3119 106.229 88.9759C110.197 90.6399 114.389 91.4719 118.805 91.4719C122.069 91.4719 125.141 91.0239 128.021 90.1279C130.901 89.1679 133.493 87.9199 135.797 86.3839C138.165 84.7839 140.181 82.9279 141.845 80.8159C143.573 78.6399 144.917 76.3679 145.877 73.9999L146.837 74.3839C145.877 78.0319 144.341 81.3919 142.229 84.4639C140.181 87.4719 137.685 90.0959 134.741 92.3359C131.861 94.5759 128.629 96.3359 125.045 97.6159C121.525 98.8319 117.781 99.4399 113.813 99.4399C108.885 99.4399 104.213 98.5119 99.7972 96.6559C95.4452 94.7359 91.6052 92.1439 88.2772 88.8799C85.0132 85.6159 82.4212 81.8079 80.5012 77.4559C78.5812 73.1039 77.6212 68.4319 77.6212 63.4399ZM111.701 56.2399C114.197 56.2399 116.629 56.1759 118.997 56.0479C121.429 55.9199 123.573 55.5679 125.429 54.9919C127.349 54.4159 128.885 53.5519 130.037 52.3999C131.253 51.2479 131.861 49.6479 131.861 47.5999C131.861 44.9759 131.317 42.6399 130.229 40.5919C129.205 38.5439 127.701 36.7839 125.717 35.3119C123.797 33.8399 121.461 32.7199 118.709 31.9519C116.021 31.1839 113.013 30.7999 109.685 30.7999C106.101 30.7999 102.869 31.4399 99.9892 32.7199C97.1732 33.9359 94.7412 35.6639 92.6932 37.9039C90.6452 40.1439 89.0132 42.8639 87.7972 46.0639C86.6452 49.2639 85.9732 52.8159 85.7812 56.7199C88.1492 56.6559 90.3252 56.5919 92.3092 56.5279C94.3572 56.4639 96.3732 56.4319 98.3572 56.4319C100.341 56.3679 102.389 56.3359 104.501 56.3359C106.677 56.2719 109.077 56.2399 111.701 56.2399Z" fill="#FE79F3"/>
<path d="M152.152 63.4399C152.152 58.4479 153.112 53.7759 155.032 49.4239C156.952 45.0719 159.544 41.2639 162.808 37.9999C166.136 34.7359 169.976 32.1759 174.328 30.3199C178.744 28.3999 183.416 27.4399 188.344 27.4399C192.632 27.4399 196.536 28.0159 200.056 29.1679C203.576 30.2559 206.648 31.6959 209.272 33.4879C211.96 35.2159 214.2 37.1359 215.992 39.2479C217.784 41.2959 219.096 43.2799 219.928 45.1999C219.672 45.9679 219.32 46.6399 218.872 47.2159C218.424 47.7279 217.848 48.2079 217.144 48.6559C216.44 49.1039 215.512 49.3279 214.36 49.3279C212.952 49.3279 211.64 48.8799 210.424 47.9839C209.272 47.0879 208.088 45.9679 206.872 44.6239C205.72 43.2159 204.472 41.7439 203.128 40.2079C201.784 38.6079 200.216 37.1359 198.424 35.7919C196.696 34.3839 194.68 33.2319 192.376 32.3359C190.072 31.3759 187.352 30.8639 184.216 30.7999C180.504 30.7999 177.176 31.4719 174.232 32.8159C171.288 34.1599 168.76 36.0479 166.648 38.4799C164.6 40.9119 163.032 43.8559 161.944 47.3119C160.856 50.7039 160.312 54.5119 160.312 58.7359C160.312 63.3439 161.208 67.6639 163 71.6959C164.792 75.6639 167.192 79.1199 170.2 82.0639C173.272 85.0079 176.792 87.3119 180.76 88.9759C184.728 90.6399 188.92 91.4719 193.336 91.4719C196.6 91.4719 199.672 91.0239 202.552 90.1279C205.432 89.1679 208.024 87.9199 210.328 86.3839C212.696 84.7839 214.712 82.9279 216.376 80.8159C218.104 78.6399 219.448 76.3679 220.408 73.9999L221.368 74.3839C220.408 78.0319 218.872 81.3919 216.76 84.4639C214.712 87.4719 212.216 90.0959 209.272 92.3359C206.392 94.5759 203.16 96.3359 199.576 97.6159C196.056 98.8319 192.312 99.4399 188.344 99.4399C183.416 99.4399 178.744 98.5119 174.328 96.6559C169.976 94.7359 166.136 92.1439 162.808 88.8799C159.544 85.6159 156.952 81.8079 155.032 77.4559C153.112 73.1039 152.152 68.4319 152.152 63.4399Z" fill="#FE79F3"/>
<path d="M226.684 63.4399C226.684 58.4479 227.644 53.7759 229.564 49.4239C231.484 45.0719 234.076 41.2639 237.34 37.9999C240.668 34.7359 244.508 32.1759 248.86 30.3199C253.276 28.3999 257.948 27.4399 262.876 27.4399C267.804 27.4399 272.028 28.1759 275.548 29.6479C279.068 31.1199 281.948 32.9439 284.188 35.1199C286.428 37.2319 288.06 39.5359 289.084 42.0319C290.172 44.5279 290.716 46.7999 290.716 48.8479C290.716 50.8959 290.332 52.5599 289.564 53.8399C288.796 55.1199 287.804 56.1439 286.588 56.9119C285.372 57.6159 283.996 58.0959 282.46 58.3519C280.988 58.6079 279.516 58.7359 278.044 58.7359H234.844C234.844 63.3439 235.74 67.6639 237.532 71.6959C239.324 75.6639 241.724 79.1199 244.732 82.0639C247.804 85.0079 251.324 87.3119 255.292 88.9759C259.26 90.6399 263.452 91.4719 267.868 91.4719C271.132 91.4719 274.204 91.0239 277.084 90.1279C279.964 89.1679 282.556 87.9199 284.86 86.3839C287.228 84.7839 289.244 82.9279 290.908 80.8159C292.636 78.6399 293.98 76.3679 294.94 73.9999L295.9 74.3839C294.94 78.0319 293.404 81.3919 291.292 84.4639C289.244 87.4719 286.748 90.0959 283.804 92.3359C280.924 94.5759 277.692 96.3359 274.108 97.6159C270.588 98.8319 266.844 99.4399 262.876 99.4399C257.948 99.4399 253.276 98.5119 248.86 96.6559C244.508 94.7359 240.668 92.1439 237.34 88.8799C234.076 85.6159 231.484 81.8079 229.564 77.4559C227.644 73.1039 226.684 68.4319 226.684 63.4399ZM260.764 56.2399C263.26 56.2399 265.692 56.1759 268.06 56.0479C270.492 55.9199 272.636 55.5679 274.492 54.9919C276.412 54.4159 277.948 53.5519 279.1 52.3999C280.316 51.2479 280.924 49.6479 280.924 47.5999C280.924 44.9759 280.38 42.6399 279.292 40.5919C278.268 38.5439 276.764 36.7839 274.78 35.3119C272.86 33.8399 270.524 32.7199 267.772 31.9519C265.084 31.1839 262.076 30.7999 258.748 30.7999C255.164 30.7999 251.932 31.4399 249.052 32.7199C246.236 33.9359 243.804 35.6639 241.756 37.9039C239.708 40.1439 238.076 42.8639 236.86 46.0639C235.708 49.2639 235.036 52.8159 234.844 56.7199C237.212 56.6559 239.388 56.5919 241.372 56.5279C243.42 56.4639 245.436 56.4319 247.42 56.4319C249.404 56.3679 251.452 56.3359 253.564 56.3359C255.74 56.2719 258.14 56.2399 260.764 56.2399Z" fill="#FE79F3"/>
<path d="M298.335 34.0639C301.471 34.0639 304.671 33.4239 307.935 32.1439C311.199 30.8639 314.175 29.2959 316.863 27.4399C316.863 29.6799 316.863 32.1759 316.863 34.9279C316.799 37.2319 316.767 39.9839 316.767 43.1839C316.767 46.3199 316.767 49.7439 316.767 53.4559C317.727 50.5759 318.975 47.5999 320.511 44.5279C322.047 41.4559 323.839 38.6719 325.887 36.1759C327.935 33.6159 330.207 31.5359 332.703 29.9359C335.199 28.2719 337.887 27.4399 340.767 27.4399C343.519 27.4399 345.791 28.3999 347.583 30.3199C349.375 32.1759 350.879 34.5439 352.095 37.4239C353.311 40.3039 354.335 43.4399 355.167 46.8319C355.999 50.1599 356.831 53.2959 357.663 56.2399C358.879 60.4639 360.095 64.9759 361.311 69.7759C362.527 74.5759 363.871 78.9919 365.343 83.0239C366.879 87.0559 368.607 90.4159 370.527 93.1039C372.511 95.7279 374.847 97.0399 377.535 97.0399V97.9999H365.055C363.135 97.9999 361.535 97.3919 360.255 96.1759C359.039 94.8959 357.951 93.1679 356.991 90.9919C356.095 88.7519 355.263 86.1599 354.495 83.2159C353.791 80.2719 353.023 77.1039 352.191 73.7119C351.487 70.8319 350.719 67.6639 349.887 64.2079C349.055 60.6879 348.287 57.4879 347.583 54.6079C346.815 51.5999 346.047 48.8479 345.279 46.3519C344.511 43.8559 343.647 41.7119 342.687 39.9199C341.791 38.1279 340.767 36.7199 339.615 35.6959C338.527 34.6719 337.279 34.1599 335.871 34.1599C333.439 34.1599 331.071 35.2159 328.767 37.3279C326.527 39.3759 324.511 41.9359 322.719 45.0079C320.927 48.0799 319.487 51.3759 318.399 54.8959C317.311 58.3519 316.767 61.4879 316.767 64.3039V66.0319C316.767 71.1519 316.767 75.6639 316.767 79.5679C316.767 83.4079 316.991 86.6399 317.439 89.2639C317.951 91.8239 318.815 93.7759 320.031 95.1199C321.247 96.3999 323.103 97.0399 325.599 97.0399V97.9999H298.335V97.0399C300.831 97.0399 302.687 96.3999 303.903 95.1199C305.183 93.7759 306.047 91.8239 306.495 89.2639C307.007 86.6399 307.231 83.4079 307.167 79.5679C307.167 75.6639 307.167 71.1519 307.167 66.0319C307.167 60.9119 307.167 56.4319 307.167 52.5919C307.231 48.6879 307.007 45.4559 306.495 42.8959C306.047 40.2719 305.183 38.3199 303.903 37.0399C302.687 35.6959 300.831 35.0239 298.335 35.0239V34.0639Z" fill="#FE79F3"/>
<path d="M390.461 31.7599V83.5039C390.461 84.8479 390.557 86.2559 390.749 87.7279C391.005 89.1999 391.389 90.5759 391.901 91.8559C392.413 93.1359 393.117 94.1919 394.013 95.0239C394.973 95.8559 396.125 96.2719 397.469 96.2719C399.773 96.2719 401.821 95.6959 403.613 94.5439C405.405 93.3279 406.845 91.8239 407.933 90.0319L408.893 90.7039C408.445 91.5359 407.773 92.4639 406.877 93.4879C405.981 94.4479 404.925 95.3759 403.709 96.2719C402.557 97.1679 401.245 97.9039 399.773 98.4799C398.301 99.1199 396.797 99.4399 395.261 99.4399C392.381 99.4399 390.013 98.9599 388.157 97.9999C386.301 96.9759 384.829 95.6639 383.741 94.0639C382.653 92.3999 381.885 90.5119 381.437 88.3999C381.053 86.2239 380.861 83.9519 380.861 81.5839V31.7599H370.781V28.8799C372.317 28.8799 374.045 28.2079 375.965 26.8639C377.885 25.5199 379.741 23.8239 381.533 21.7759C383.325 19.7279 384.957 17.5199 386.429 15.1519C387.901 12.7839 388.957 10.5759 389.597 8.52794H390.557C390.557 10.1919 390.557 12.0799 390.557 14.1919C390.493 16.0479 390.461 18.2239 390.461 20.7199C390.461 23.1519 390.461 25.8719 390.461 28.8799H405.725V31.7599H390.461Z" fill="#FE79F3"/>
<path d="M480.42 1.99995V2.95994C479.076 2.95994 477.764 3.02394 476.484 3.15194C475.268 3.21594 474.116 3.43994 473.028 3.82394C472.004 4.20794 471.108 4.75194 470.34 5.45594C469.572 6.15994 468.996 7.15194 468.612 8.43194C467.908 10.7359 468.036 13.9679 468.996 18.1279C469.956 22.2239 471.46 27.6959 473.508 34.5439C474.468 37.6799 475.748 41.8079 477.348 46.9279C479.012 52.0479 480.708 57.4559 482.436 63.1519C484.228 68.8479 485.988 74.4799 487.716 80.0479C489.444 85.5519 490.884 90.2879 492.036 94.2559C492.996 90.7999 494.116 86.4799 495.396 81.2959C496.74 76.1119 498.084 70.7039 499.428 65.0719C500.836 59.3759 502.18 53.7759 503.46 48.2719C504.74 42.7039 505.86 37.8399 506.82 33.6799C505.412 29.1359 504.1 24.9759 502.884 21.1999C501.668 17.4239 500.356 14.1919 498.948 11.5039C497.604 8.81594 496.068 6.73594 494.34 5.26394C492.612 3.72794 490.532 2.95994 488.1 2.95994V1.99995H524.58V2.95994C523.236 2.95994 521.924 3.02394 520.644 3.15194C519.428 3.21594 518.276 3.43994 517.188 3.82394C516.164 4.20794 515.268 4.75194 514.5 5.45594C513.732 6.15994 513.156 7.15194 512.772 8.43194C512.068 10.7359 512.196 13.9679 513.156 18.1279C514.116 22.2239 515.62 27.6959 517.668 34.5439C518.628 37.6799 519.908 41.8079 521.508 46.9279C523.172 52.0479 524.868 57.4559 526.596 63.1519C528.388 68.8479 530.148 74.4799 531.876 80.0479C533.604 85.5519 535.044 90.2879 536.196 94.2559C537.028 91.3119 537.988 87.7279 539.076 83.5039C540.164 79.2799 541.284 74.7999 542.436 70.0639C543.588 65.2639 544.74 60.4319 545.892 55.5679C547.108 50.7039 548.196 46.1599 549.156 41.9359C550.18 37.6479 551.044 33.8719 551.748 30.6079C552.452 27.3439 552.932 24.9759 553.188 23.5039C553.828 19.8559 554.148 16.7519 554.148 14.1919C554.148 11.5679 553.668 9.42394 552.708 7.75994C551.748 6.09594 550.212 4.87994 548.1 4.11194C546.052 3.34394 543.204 2.95994 539.556 2.95994V1.99995H576.036V2.95994C573.54 2.95994 571.396 3.75994 569.604 5.35994C567.876 6.89594 566.308 9.10394 564.9 11.9839C563.492 14.7999 562.148 18.1599 560.868 22.0639C559.652 25.9679 558.308 30.2879 556.836 35.0239C556.068 37.5199 555.172 40.4319 554.148 43.7599C553.124 47.0239 552.036 50.4799 550.884 54.1279C549.796 57.7119 548.676 61.3919 547.524 65.1679C546.372 68.9439 545.252 72.5599 544.164 76.0159C543.076 79.4719 542.084 82.7039 541.188 85.7119C540.292 88.6559 539.524 91.1199 538.884 93.1039C538.628 93.8719 538.404 94.576 538.212 95.216C538.084 95.7919 537.956 96.2719 537.828 96.6559C537.7 97.1679 537.572 97.6159 537.444 97.9999H526.692C526.564 97.6159 526.436 97.1679 526.308 96.6559C526.18 96.2719 526.02 95.7919 525.828 95.216C525.7 94.576 525.508 93.8719 525.252 93.1039C524.484 90.6079 523.492 87.4079 522.276 83.5039C521.06 79.5359 519.748 75.2799 518.34 70.7359C516.932 66.1279 515.492 61.4879 514.02 56.8159C512.612 52.0799 511.268 47.6959 509.988 43.6639C508.772 47.6959 507.428 52.0799 505.956 56.8159C504.484 61.4879 503.044 66.1279 501.636 70.7359C500.292 75.2799 498.98 79.5359 497.7 83.5039C496.484 87.4079 495.492 90.6079 494.724 93.1039C494.468 93.8719 494.244 94.576 494.052 95.216C493.924 95.7919 493.796 96.2719 493.668 96.6559C493.54 97.1679 493.412 97.6159 493.284 97.9999H482.532C482.404 97.6159 482.276 97.1679 482.148 96.6559C482.02 96.2719 481.86 95.7919 481.668 95.216C481.54 94.576 481.348 93.8719 481.092 93.1039C480.452 91.1199 479.684 88.6559 478.788 85.7119C477.892 82.7039 476.9 79.4719 475.812 76.0159C474.724 72.5599 473.604 68.9439 472.452 65.1679C471.3 61.3919 470.148 57.7119 468.996 54.1279C467.908 50.4799 466.852 47.0239 465.828 43.7599C464.804 40.4319 463.908 37.5199 463.14 35.0239C461.668 30.2879 460.292 25.9679 459.012 22.0639C457.796 18.1599 456.484 14.7999 455.076 11.9839C453.668 9.10394 452.068 6.89594 450.276 5.35994C448.548 3.75994 446.436 2.95994 443.94 2.95994V1.99995H480.42Z" fill="#FE79F3"/>
<path d="M563.059 63.4399C563.059 58.4479 564.019 53.7759 565.939 49.4239C567.859 45.0719 570.451 41.2639 573.715 37.9999C577.043 34.7359 580.883 32.1759 585.235 30.3199C589.651 28.3999 594.323 27.4399 599.251 27.4399C604.179 27.4399 608.819 28.3999 613.171 30.3199C617.587 32.1759 621.427 34.7359 624.691 37.9999C628.019 41.2639 630.643 45.0719 632.563 49.4239C634.483 53.7759 635.443 58.4479 635.443 63.4399C635.443 68.4319 634.483 73.1039 632.563 77.4559C630.643 81.8079 628.019 85.6159 624.691 88.8799C621.427 92.1439 617.587 94.7359 613.171 96.6559C608.819 98.5119 604.179 99.4399 599.251 99.4399C594.323 99.4399 589.651 98.5119 585.235 96.6559C580.883 94.7359 577.043 92.1439 573.715 88.8799C570.451 85.6159 567.859 81.8079 565.939 77.4559C564.019 73.1039 563.059 68.4319 563.059 63.4399ZM568.819 58.7359C569.011 63.0239 570.227 67.2799 572.467 71.5039C574.707 75.6639 577.587 79.4079 581.107 82.7359C584.691 85.9999 588.755 88.6559 593.299 90.7039C597.843 92.6879 602.515 93.6799 607.315 93.6799C610.579 93.6799 613.651 93.104 616.531 91.952C619.411 90.8 621.875 89.1359 623.923 86.9599C625.971 84.7199 627.507 82.0319 628.531 78.8959C629.619 75.7599 630.003 72.1759 629.683 68.1439C629.491 63.8559 628.275 59.6319 626.035 55.4719C623.859 51.2479 620.979 47.5039 617.395 44.2399C613.875 40.9119 609.843 38.2559 605.299 36.2719C600.755 34.2239 596.083 33.1999 591.283 33.1999C588.019 33.1999 584.947 33.7759 582.067 34.9279C579.187 36.0799 576.691 37.7759 574.579 40.0159C572.531 42.1919 570.963 44.8479 569.875 47.9839C568.851 51.1199 568.499 54.7039 568.819 58.7359Z" fill="#FE79F3"/>
<path d="M640.241 34.0639C643.377 34.0639 646.577 33.4239 649.841 32.1439C653.105 30.8639 656.081 29.2959 658.769 27.4399C658.769 29.9999 658.769 32.8159 658.769 35.8879C658.705 38.5119 658.673 41.5839 658.673 45.1039C658.673 48.5599 658.673 52.3359 658.673 56.4319C658.801 53.0399 659.601 49.6479 661.073 46.2559C662.609 42.7999 664.625 39.6959 667.121 36.9439C669.617 34.1279 672.497 31.8559 675.761 30.1279C679.025 28.3359 682.481 27.4399 686.129 27.4399C687.281 27.4399 688.593 27.5039 690.065 27.6319C691.601 27.7599 692.849 28.1759 693.809 28.8799C694.833 31.7599 694.577 34.0319 693.041 35.6959C691.569 37.3599 689.457 38.1919 686.705 38.1919C685.745 38.1919 684.881 38.0959 684.113 37.9039C683.345 37.7119 682.577 37.4879 681.809 37.2319C681.041 36.9759 680.177 36.7519 679.217 36.5599C678.321 36.3679 677.169 36.2719 675.761 36.2719C673.009 36.2719 670.577 37.1999 668.465 39.0559C666.353 40.9119 664.561 43.3759 663.089 46.4479C661.681 49.5199 660.593 53.0399 659.825 57.0079C659.057 60.9119 658.673 64.9439 658.673 69.1039C658.673 73.4559 658.673 77.3599 658.673 80.8159C658.673 84.2719 658.897 87.2159 659.345 89.6479C659.857 92.0159 660.721 93.8399 661.937 95.1199C663.153 96.3999 665.009 97.0399 667.505 97.0399V97.9999H640.241V97.0399C642.737 97.0399 644.593 96.3999 645.809 95.1199C647.089 93.7759 647.953 91.8239 648.401 89.2639C648.913 86.6399 649.137 83.4079 649.073 79.5679C649.073 75.6639 649.073 71.1519 649.073 66.0319C649.073 60.9119 649.073 56.4319 649.073 52.5919C649.137 48.6879 648.913 45.4559 648.401 42.8959C647.953 40.2719 647.089 38.3199 645.809 37.0399C644.593 35.6959 642.737 35.0239 640.241 35.0239V34.0639Z" fill="#FE79F3"/>
<path d="M696.304 7.18394C699.44 7.18394 702.64 6.54394 705.904 5.26394C709.168 3.98394 712.144 2.41594 714.832 0.559937C714.832 3.63194 714.832 6.95994 714.832 10.5439C714.768 13.6799 714.736 17.2959 714.736 21.3919C714.736 25.4879 714.736 29.8399 714.736 34.4479V61.7119C717.296 59.5999 720.112 57.2319 723.184 54.6079C726.32 51.9199 729.232 49.2319 731.92 46.5439C734.672 43.8559 736.944 41.2959 738.736 38.8639C740.528 36.3679 741.424 34.2559 741.424 32.5279C741.424 32.0159 741.328 31.4399 741.136 30.7999C741.008 30.1599 740.496 29.5199 739.6 28.8799H758.992V29.4559C757.84 29.4559 756.08 30.2559 753.712 31.8559C751.408 33.3919 748.72 35.4079 745.648 37.9039C742.64 40.3999 739.376 43.1839 735.856 46.2559C732.336 49.3279 728.848 52.3679 725.392 55.3759C728.848 55.6959 731.824 56.6559 734.32 58.2559C736.816 59.8559 738.992 61.8719 740.848 64.3039C742.704 66.6719 744.272 69.3599 745.552 72.3679C746.896 75.3119 748.08 78.3199 749.104 81.3919C750.64 85.8719 752.432 89.6159 754.48 92.6239C756.528 95.5679 758.992 97.0399 761.872 97.0399V97.9999H749.392C747.792 97.9999 746.448 97.4879 745.36 96.4639C744.336 95.3759 743.376 93.872 742.48 91.952C741.648 90.0319 740.784 87.7279 739.888 85.0399C739.056 82.2879 738 79.2479 736.72 75.9199C735.696 73.2959 734.544 71.1199 733.264 69.3919C732.048 67.6639 730.768 66.2879 729.424 65.2639C728.08 64.1759 726.704 63.4399 725.296 63.0559C723.888 62.6079 722.448 62.3839 720.976 62.3839C720.144 62.3839 719.312 62.4479 718.48 62.5759C717.712 62.7039 716.944 62.8639 716.176 63.0559L714.736 64.2079V66.0319C714.736 71.1519 714.736 75.6639 714.736 79.5679C714.736 83.4079 714.96 86.6399 715.408 89.2639C715.92 91.8239 716.784 93.7759 718 95.1199C719.216 96.3999 721.072 97.0399 723.568 97.0399V97.9999H696.304V97.0399C698.8 97.0399 700.656 96.3999 701.872 95.1199C703.152 93.7759 704.016 91.8239 704.464 89.2639C704.976 86.6399 705.2 83.4079 705.136 79.5679C705.136 75.6639 705.136 71.1519 705.136 66.0319V34.7359C705.136 30.3199 705.104 26.4799 705.04 23.2159C705.04 19.8879 704.752 17.1039 704.176 14.8639C703.664 12.6239 702.8 10.9599 701.584 9.87194C700.368 8.71994 698.608 8.14394 696.304 8.14394V7.18394Z" fill="#FE79F3"/>
</svg>
