<svg width="646" height="76" viewBox="0 0 646 76" fill="none" xmlns="http://www.w3.org/2000/svg">
<path d="M0.0986328 19.784C0.0986328 19.208 0.194633 18.344 0.386633 17.192C0.626633 15.992 1.08263 14.696 1.75463 13.304C2.42663 11.912 3.33863 10.496 4.49063 9.05599C5.69063 7.56799 7.25063 6.22399 9.17063 5.02399C11.1386 3.82399 13.5146 2.83999 16.2986 2.07199C19.0826 1.30398 22.3946 0.919983 26.2346 0.919983C29.8346 0.919983 32.8826 1.30398 35.3786 2.07199C37.8746 2.79199 39.9146 3.58399 41.4986 4.44799C43.3226 5.50399 44.8346 6.70399 46.0346 8.04799C45.6506 9.82399 44.9546 10.952 43.9466 11.432C42.9866 11.912 42.0986 12.152 41.2826 12.152C39.9866 12.152 38.4986 11.72 36.8186 10.856C35.1866 9.99199 33.3866 9.05599 31.4186 8.04799C29.4986 7.03999 27.4586 6.10399 25.2986 5.23999C23.1386 4.37599 20.8586 3.94399 18.4586 3.94399C14.6186 3.94399 11.5226 5.09599 9.17063 7.39999C6.81863 9.70399 5.64263 12.752 5.64263 16.544C5.64263 19.232 6.26663 21.512 7.51463 23.384C8.76263 25.256 10.3946 26.888 12.4106 28.28C14.4266 29.624 16.7306 30.8 19.3226 31.808C21.9626 32.816 24.6266 33.824 27.3146 34.832C30.0026 35.792 32.6426 36.824 35.2346 37.928C37.8746 38.984 40.2026 40.28 42.2186 41.816C44.2346 43.352 45.8666 45.176 47.1146 47.288C48.3626 49.4 48.9866 51.944 48.9866 54.92C48.9866 59 48.2426 62.36 46.7546 65C45.2666 67.592 43.3226 69.632 40.9226 71.12C38.5226 72.608 35.7866 73.64 32.7146 74.216C29.6426 74.792 26.5226 75.08 23.3546 75.08C20.7146 75.08 18.1466 74.744 15.6506 74.072C13.1546 73.448 10.8746 72.68 8.81063 71.768C6.79463 70.856 5.04263 69.896 3.55463 68.888C2.06663 67.88 1.03463 67.016 0.458633 66.296V54.416C1.80263 56.912 3.36263 59.288 5.13863 61.544C6.91463 63.8 8.95463 65.792 11.2586 67.52C13.6106 69.2 16.2506 70.544 19.1786 71.552C22.1066 72.56 25.3706 73.064 28.9706 73.064C30.8906 73.064 32.7626 72.776 34.5866 72.2C36.4586 71.576 38.1146 70.688 39.5546 69.536C40.9946 68.384 42.1466 66.944 43.0106 65.216C43.9226 63.44 44.3786 61.4 44.3786 59.096C44.3786 56.36 43.7306 54.056 42.4346 52.184C41.1866 50.264 39.5306 48.608 37.4666 47.216C35.4026 45.824 33.0266 44.624 30.3386 43.616C27.6986 42.608 24.9866 41.624 22.2026 40.664C19.4666 39.656 16.7546 38.6 14.0666 37.496C11.4266 36.392 9.07463 35.072 7.01063 33.536C4.94663 31.952 3.26663 30.056 1.97063 27.848C0.722633 25.64 0.0986328 22.952 0.0986328 19.784Z" fill="#FE79F3"/>
<path d="M54.7314 48.08C54.7314 44.336 55.4514 40.832 56.8914 37.568C58.3314 34.304 60.2754 31.448 62.7234 29C65.2194 26.552 68.0994 24.632 71.3634 23.24C74.6754 21.8 78.1794 21.08 81.8755 21.08C85.5714 21.08 88.7394 21.632 91.3794 22.736C94.0194 23.84 96.1795 25.208 97.8595 26.84C99.5394 28.424 100.763 30.152 101.531 32.024C102.347 33.896 102.755 35.6 102.755 37.136C102.755 38.672 102.467 39.92 101.891 40.88C101.315 41.84 100.571 42.608 99.6594 43.184C98.7474 43.712 97.7154 44.072 96.5634 44.264C95.4594 44.456 94.3554 44.552 93.2514 44.552H60.8514C60.8514 48.008 61.5234 51.248 62.8674 54.272C64.2114 57.248 66.0114 59.84 68.2674 62.048C70.5714 64.256 73.2114 65.984 76.1874 67.232C79.1634 68.48 82.3074 69.104 85.6194 69.104C88.0674 69.104 90.3715 68.768 92.5314 68.096C94.6914 67.376 96.6354 66.44 98.3634 65.288C100.139 64.088 101.651 62.696 102.899 61.112C104.195 59.48 105.203 57.776 105.923 56L106.643 56.288C105.923 59.024 104.771 61.544 103.187 63.848C101.651 66.104 99.7794 68.072 97.5714 69.752C95.4114 71.432 92.9874 72.752 90.2994 73.712C87.6594 74.624 84.8515 75.08 81.8755 75.08C78.1794 75.08 74.6754 74.384 71.3634 72.992C68.0994 71.552 65.2194 69.608 62.7234 67.16C60.2754 64.712 58.3314 61.856 56.8914 58.592C55.4514 55.328 54.7314 51.824 54.7314 48.08ZM80.2914 42.68C82.1634 42.68 83.9874 42.632 85.7634 42.536C87.5874 42.44 89.1954 42.176 90.5874 41.744C92.0274 41.312 93.1794 40.664 94.0434 39.8C94.9554 38.936 95.4114 37.736 95.4114 36.2C95.4114 34.232 95.0034 32.48 94.1874 30.944C93.4194 29.408 92.2914 28.088 90.8034 26.984C89.3634 25.88 87.6114 25.04 85.5474 24.464C83.5314 23.888 81.2755 23.6 78.7794 23.6C76.0914 23.6 73.6674 24.08 71.5074 25.04C69.3954 25.952 67.5714 27.248 66.0354 28.928C64.4994 30.608 63.2754 32.648 62.3634 35.048C61.4994 37.448 60.9954 40.112 60.8514 43.04C62.6274 42.992 64.2594 42.944 65.7474 42.896C67.2834 42.848 68.7954 42.824 70.2834 42.824C71.7714 42.776 73.3074 42.752 74.8914 42.752C76.5234 42.704 78.3234 42.68 80.2914 42.68Z" fill="#FE79F3"/>
<path d="M108.47 73.28C110.342 73.28 111.734 72.8 112.646 71.84C113.606 70.832 114.254 69.368 114.59 67.448C114.974 65.48 115.142 63.056 115.094 60.176C115.094 57.248 115.094 53.864 115.094 50.024V26.552C115.094 23.24 115.07 20.36 115.022 17.912C115.022 15.416 114.806 13.328 114.374 11.648C113.99 9.96799 113.342 8.71999 112.43 7.90399C111.518 7.03999 110.198 6.60799 108.47 6.60799V5.88799C110.822 5.88799 113.222 5.40799 115.67 4.44799C118.118 3.48799 120.35 2.31199 122.366 0.919983C122.366 3.22398 122.366 5.71999 122.366 8.40799C122.318 10.76 122.294 13.472 122.294 16.544C122.294 19.616 122.294 22.88 122.294 26.336V50.024C122.294 53.864 122.294 57.248 122.294 60.176C122.294 63.056 122.462 65.48 122.798 67.448C123.182 69.368 123.83 70.832 124.742 71.84C125.654 72.8 127.046 73.28 128.918 73.28V74H108.47V73.28Z" fill="#FE79F3"/>
<path d="M132.497 48.08C132.497 44.336 133.217 40.832 134.657 37.568C136.097 34.304 138.041 31.448 140.489 29C142.985 26.552 145.865 24.632 149.129 23.24C152.441 21.8 155.945 21.08 159.641 21.08C163.337 21.08 166.505 21.632 169.145 22.736C171.785 23.84 173.945 25.208 175.625 26.84C177.305 28.424 178.529 30.152 179.297 32.024C180.113 33.896 180.521 35.6 180.521 37.136C180.521 38.672 180.233 39.92 179.657 40.88C179.081 41.84 178.337 42.608 177.425 43.184C176.513 43.712 175.481 44.072 174.329 44.264C173.225 44.456 172.121 44.552 171.017 44.552H138.617C138.617 48.008 139.289 51.248 140.633 54.272C141.977 57.248 143.777 59.84 146.033 62.048C148.337 64.256 150.977 65.984 153.953 67.232C156.929 68.48 160.073 69.104 163.385 69.104C165.833 69.104 168.137 68.768 170.297 68.096C172.457 67.376 174.401 66.44 176.129 65.288C177.905 64.088 179.417 62.696 180.665 61.112C181.961 59.48 182.969 57.776 183.689 56L184.409 56.288C183.689 59.024 182.537 61.544 180.953 63.848C179.417 66.104 177.545 68.072 175.337 69.752C173.177 71.432 170.753 72.752 168.065 73.712C165.425 74.624 162.617 75.08 159.641 75.08C155.945 75.08 152.441 74.384 149.129 72.992C145.865 71.552 142.985 69.608 140.489 67.16C138.041 64.712 136.097 61.856 134.657 58.592C133.217 55.328 132.497 51.824 132.497 48.08ZM158.057 42.68C159.929 42.68 161.753 42.632 163.529 42.536C165.353 42.44 166.961 42.176 168.353 41.744C169.793 41.312 170.945 40.664 171.809 39.8C172.721 38.936 173.177 37.736 173.177 36.2C173.177 34.232 172.769 32.48 171.953 30.944C171.185 29.408 170.057 28.088 168.569 26.984C167.129 25.88 165.377 25.04 163.313 24.464C161.297 23.888 159.041 23.6 156.545 23.6C153.857 23.6 151.433 24.08 149.273 25.04C147.161 25.952 145.337 27.248 143.801 28.928C142.265 30.608 141.041 32.648 140.129 35.048C139.265 37.448 138.761 40.112 138.617 43.04C140.393 42.992 142.025 42.944 143.513 42.896C145.049 42.848 146.561 42.824 148.049 42.824C149.537 42.776 151.073 42.752 152.657 42.752C154.289 42.704 156.089 42.68 158.057 42.68Z" fill="#FE79F3"/>
<path d="M188.396 48.08C188.396 44.336 189.116 40.832 190.556 37.568C191.996 34.304 193.94 31.448 196.388 29C198.884 26.552 201.764 24.632 205.028 23.24C208.34 21.8 211.844 21.08 215.54 21.08C218.756 21.08 221.684 21.512 224.324 22.376C226.964 23.192 229.268 24.272 231.236 25.616C233.252 26.912 234.932 28.352 236.276 29.936C237.62 31.472 238.604 32.96 239.228 34.4C239.036 34.976 238.772 35.48 238.436 35.912C238.1 36.296 237.668 36.656 237.14 36.992C236.612 37.328 235.916 37.496 235.052 37.496C233.996 37.496 233.012 37.16 232.1 36.488C231.236 35.816 230.348 34.976 229.436 33.968C228.572 32.912 227.636 31.808 226.628 30.656C225.62 29.456 224.444 28.352 223.1 27.344C221.804 26.288 220.292 25.424 218.564 24.752C216.836 24.032 214.796 23.648 212.444 23.6C209.66 23.6 207.164 24.104 204.956 25.112C202.748 26.12 200.852 27.536 199.268 29.36C197.732 31.184 196.556 33.392 195.74 35.984C194.924 38.528 194.516 41.384 194.516 44.552C194.516 48.008 195.188 51.248 196.532 54.272C197.876 57.248 199.676 59.84 201.932 62.048C204.236 64.256 206.876 65.984 209.852 67.232C212.828 68.48 215.972 69.104 219.284 69.104C221.732 69.104 224.036 68.768 226.196 68.096C228.356 67.376 230.3 66.44 232.028 65.288C233.804 64.088 235.316 62.696 236.564 61.112C237.86 59.48 238.868 57.776 239.588 56L240.308 56.288C239.588 59.024 238.436 61.544 236.852 63.848C235.316 66.104 233.444 68.072 231.236 69.752C229.076 71.432 226.652 72.752 223.964 73.712C221.324 74.624 218.516 75.08 215.54 75.08C211.844 75.08 208.34 74.384 205.028 72.992C201.764 71.552 198.884 69.608 196.388 67.16C193.94 64.712 191.996 61.856 190.556 58.592C189.116 55.328 188.396 51.824 188.396 48.08Z" fill="#FE79F3"/>
<path d="M256.174 24.32V63.128C256.174 64.136 256.246 65.192 256.39 66.296C256.582 67.4 256.87 68.432 257.254 69.392C257.638 70.352 258.166 71.144 258.838 71.768C259.558 72.392 260.422 72.704 261.43 72.704C263.158 72.704 264.694 72.272 266.038 71.408C267.382 70.496 268.462 69.368 269.278 68.024L269.998 68.528C269.662 69.152 269.158 69.848 268.486 70.616C267.814 71.336 267.022 72.032 266.11 72.704C265.246 73.376 264.262 73.928 263.158 74.36C262.054 74.84 260.926 75.08 259.774 75.08C257.614 75.08 255.838 74.72 254.446 74C253.054 73.232 251.95 72.248 251.134 71.048C250.318 69.8 249.742 68.384 249.406 66.8C249.118 65.168 248.974 63.464 248.974 61.688V24.32H241.414V22.16C242.566 22.16 243.862 21.656 245.302 20.648C246.742 19.64 248.134 18.368 249.478 16.832C250.822 15.296 252.046 13.64 253.15 11.864C254.254 10.088 255.046 8.43199 255.526 6.89599H256.246C256.246 8.14399 256.246 9.55999 256.246 11.144C256.198 12.536 256.174 14.168 256.174 16.04C256.174 17.864 256.174 19.904 256.174 22.16H267.622V24.32H256.174Z" fill="#FE79F3"/>
<path d="M267.146 48.08C267.146 44.336 267.866 40.832 269.306 37.568C270.746 34.304 272.69 31.448 275.138 29C277.634 26.552 280.513 24.632 283.777 23.24C287.089 21.8 290.594 21.08 294.29 21.08C297.986 21.08 301.154 21.632 303.794 22.736C306.434 23.84 308.593 25.208 310.273 26.84C311.953 28.424 313.178 30.152 313.946 32.024C314.762 33.896 315.169 35.6 315.169 37.136C315.169 38.672 314.882 39.92 314.306 40.88C313.73 41.84 312.986 42.608 312.074 43.184C311.162 43.712 310.13 44.072 308.978 44.264C307.874 44.456 306.769 44.552 305.665 44.552H273.266C273.266 48.008 273.937 51.248 275.281 54.272C276.625 57.248 278.426 59.84 280.682 62.048C282.986 64.256 285.626 65.984 288.602 67.232C291.578 68.48 294.722 69.104 298.034 69.104C300.482 69.104 302.785 68.768 304.945 68.096C307.105 67.376 309.049 66.44 310.777 65.288C312.553 64.088 314.066 62.696 315.314 61.112C316.61 59.48 317.618 57.776 318.338 56L319.057 56.288C318.337 59.024 317.186 61.544 315.602 63.848C314.066 66.104 312.194 68.072 309.986 69.752C307.826 71.432 305.402 72.752 302.714 73.712C300.074 74.624 297.266 75.08 294.29 75.08C290.594 75.08 287.089 74.384 283.777 72.992C280.513 71.552 277.634 69.608 275.138 67.16C272.69 64.712 270.746 61.856 269.306 58.592C267.866 55.328 267.146 51.824 267.146 48.08ZM292.706 42.68C294.578 42.68 296.402 42.632 298.178 42.536C300.002 42.44 301.61 42.176 303.002 41.744C304.442 41.312 305.594 40.664 306.458 39.8C307.37 38.936 307.826 37.736 307.826 36.2C307.826 34.232 307.418 32.48 306.602 30.944C305.834 29.408 304.705 28.088 303.217 26.984C301.778 25.88 300.026 25.04 297.962 24.464C295.946 23.888 293.69 23.6 291.194 23.6C288.506 23.6 286.082 24.08 283.922 25.04C281.81 25.952 279.985 27.248 278.449 28.928C276.913 30.608 275.689 32.648 274.777 35.048C273.913 37.448 273.41 40.112 273.266 43.04C275.042 42.992 276.673 42.944 278.161 42.896C279.697 42.848 281.21 42.824 282.698 42.824C284.186 42.776 285.722 42.752 287.306 42.752C288.938 42.704 290.738 42.68 292.706 42.68Z" fill="#FE79F3"/>
<path d="M323.044 50.816C323.044 46.304 323.86 42.272 325.492 38.72C327.124 35.168 329.26 32.144 331.9 29.648C334.54 27.104 337.54 25.112 340.9 23.672C344.26 22.232 347.692 21.392 351.196 21.152C351.052 20.576 350.908 20.072 350.764 19.64C350.668 19.208 350.572 18.824 350.476 18.488C350.38 18.104 350.284 17.768 350.188 17.48C349.564 15.512 349.036 13.784 348.604 12.296C348.172 10.808 347.716 9.55999 347.236 8.55199C346.756 7.54399 346.18 6.79999 345.508 6.31999C344.836 5.79199 343.924 5.52799 342.772 5.52799C341.908 5.52799 341.092 5.62399 340.324 5.81599C339.604 5.95999 338.764 6.15199 337.804 6.39199V5.67199C339.052 5.23999 340.3 4.75999 341.548 4.23199C342.796 3.65599 343.996 3.12799 345.148 2.64799C346.3 2.16799 347.332 1.75999 348.244 1.42399C349.204 1.08799 349.972 0.919983 350.548 0.919983C351.316 0.919983 351.94 1.11198 352.42 1.49598C352.9 1.83199 353.284 2.33599 353.572 3.00799C353.908 3.63199 354.196 4.39999 354.436 5.31199C354.676 6.17599 354.94 7.11199 355.228 8.11999C356.284 12.296 357.364 16.472 358.468 20.648C359.38 24.152 360.364 27.896 361.42 31.88C362.476 35.864 363.46 39.464 364.372 42.68C365.284 45.848 366.196 49.232 367.108 52.832C368.02 56.432 369.028 59.744 370.132 62.768C371.284 65.792 372.58 68.312 374.02 70.328C375.508 72.296 377.26 73.28 379.276 73.28V74H369.916C367.996 74 366.484 73.16 365.38 71.48C364.276 69.8 363.316 67.568 362.5 64.784C360.628 67.664 358.18 70.112 355.156 72.128C352.132 74.096 348.604 75.08 344.572 75.08C340.684 75.08 337.372 74.432 334.636 73.136C331.948 71.84 329.74 70.088 328.012 67.88C326.284 65.624 325.012 63.032 324.196 60.104C323.428 57.176 323.044 54.08 323.044 50.816ZM329.668 48.656C329.668 51.536 330.004 54.416 330.676 57.296C331.348 60.128 332.38 62.696 333.772 65C335.212 67.256 337.012 69.104 339.172 70.544C341.332 71.936 343.9 72.632 346.876 72.632C348.604 72.632 350.212 72.368 351.7 71.84C353.188 71.312 354.556 70.616 355.804 69.752C357.052 68.84 358.18 67.808 359.188 66.656C360.244 65.504 361.18 64.28 361.996 62.984C361.708 61.88 361.42 60.728 361.132 59.528C360.844 58.328 360.556 57.08 360.268 55.784C359.02 50.168 357.652 44.624 356.164 39.152C354.676 33.632 353.164 28.112 351.628 22.592C348.172 22.784 345.076 23.672 342.34 25.256C339.652 26.792 337.348 28.784 335.428 31.232C333.556 33.632 332.116 36.344 331.108 39.368C330.148 42.392 329.668 45.488 329.668 48.656Z" fill="#FE79F3"/>
<path d="M433.963 1.99999V2.71999C432.955 2.71999 431.971 2.76799 431.011 2.86399C430.099 2.91199 429.235 3.07999 428.419 3.36799C427.651 3.65599 426.979 4.06399 426.403 4.59199C425.827 5.11999 425.395 5.86399 425.107 6.82399C424.579 8.55199 424.675 10.976 425.395 14.096C426.115 17.168 427.243 21.272 428.779 26.408C429.499 28.76 430.459 31.856 431.659 35.696C432.907 39.536 434.179 43.592 435.475 47.864C436.819 52.136 438.139 56.36 439.435 60.536C440.731 64.664 441.811 68.216 442.675 71.192C443.395 68.6 444.235 65.36 445.195 61.472C446.203 57.584 447.211 53.528 448.219 49.304C449.275 45.032 450.283 40.832 451.243 36.704C452.203 32.528 453.043 28.88 453.763 25.76C452.707 22.352 451.723 19.232 450.811 16.4C449.899 13.568 448.915 11.144 447.859 9.12799C446.851 7.11199 445.699 5.55199 444.403 4.44799C443.107 3.29599 441.547 2.71999 439.723 2.71999V1.99999H467.083V2.71999C466.075 2.71999 465.091 2.76799 464.131 2.86399C463.219 2.91199 462.355 3.07999 461.539 3.36799C460.771 3.65599 460.099 4.06399 459.523 4.59199C458.947 5.11999 458.515 5.86399 458.227 6.82399C457.699 8.55199 457.795 10.976 458.515 14.096C459.235 17.168 460.363 21.272 461.899 26.408C462.619 28.76 463.579 31.856 464.779 35.696C466.027 39.536 467.299 43.592 468.595 47.864C469.939 52.136 471.259 56.36 472.555 60.536C473.851 64.664 474.931 68.216 475.795 71.192C476.419 68.984 477.139 66.296 477.955 63.128C478.771 59.96 479.611 56.6 480.475 53.048C481.339 49.448 482.203 45.824 483.067 42.176C483.979 38.528 484.795 35.12 485.515 31.952C486.283 28.736 486.931 25.904 487.459 23.456C487.987 21.008 488.347 19.232 488.539 18.128C489.019 15.392 489.259 13.064 489.259 11.144C489.259 9.17599 488.899 7.56799 488.179 6.31999C487.459 5.07199 486.307 4.15999 484.723 3.58399C483.187 3.00799 481.051 2.71999 478.315 2.71999V1.99999H505.675V2.71999C503.803 2.71999 502.195 3.31999 500.851 4.51999C499.555 5.67199 498.379 7.32799 497.323 9.48799C496.267 11.6 495.259 14.12 494.299 17.048C493.387 19.976 492.379 23.216 491.275 26.768C490.699 28.64 490.027 30.824 489.259 33.32C488.491 35.768 487.675 38.36 486.811 41.096C485.995 43.784 485.155 46.544 484.291 49.376C483.427 52.208 482.587 54.92 481.771 57.512C480.955 60.104 480.211 62.528 479.539 64.784C478.867 66.992 478.291 68.84 477.811 70.328C477.619 70.904 477.451 71.432 477.307 71.912C477.211 72.344 477.115 72.704 477.019 72.992C476.923 73.376 476.827 73.712 476.731 74H468.667C468.571 73.712 468.475 73.376 468.379 72.992C468.283 72.704 468.163 72.344 468.019 71.912C467.923 71.432 467.779 70.904 467.587 70.328C467.011 68.456 466.267 66.056 465.355 63.128C464.443 60.152 463.459 56.96 462.403 53.552C461.347 50.096 460.267 46.616 459.163 43.112C458.107 39.56 457.099 36.272 456.139 33.248C455.227 36.272 454.219 39.56 453.115 43.112C452.011 46.616 450.931 50.096 449.875 53.552C448.867 56.96 447.883 60.152 446.923 63.128C446.011 66.056 445.267 68.456 444.691 70.328C444.499 70.904 444.331 71.432 444.187 71.912C444.091 72.344 443.995 72.704 443.899 72.992C443.803 73.376 443.707 73.712 443.611 74H435.547C435.451 73.712 435.355 73.376 435.259 72.992C435.163 72.704 435.043 72.344 434.899 71.912C434.803 71.432 434.659 70.904 434.467 70.328C433.987 68.84 433.411 66.992 432.739 64.784C432.067 62.528 431.323 60.104 430.507 57.512C429.691 54.92 428.851 52.208 427.987 49.376C427.123 46.544 426.259 43.784 425.395 41.096C424.579 38.36 423.787 35.768 423.019 33.32C422.251 30.824 421.579 28.64 421.003 26.768C419.899 23.216 418.867 19.976 417.907 17.048C416.995 14.12 416.011 11.6 414.955 9.48799C413.899 7.32799 412.699 5.67199 411.355 4.51999C410.059 3.31999 408.475 2.71999 406.603 2.71999V1.99999H433.963Z" fill="#FE79F3"/>
<path d="M495.942 48.08C495.942 44.336 496.662 40.832 498.102 37.568C499.542 34.304 501.486 31.448 503.934 29C506.43 26.552 509.31 24.632 512.574 23.24C515.886 21.8 519.39 21.08 523.086 21.08C526.782 21.08 530.262 21.8 533.526 23.24C536.838 24.632 539.718 26.552 542.166 29C544.662 31.448 546.63 34.304 548.07 37.568C549.51 40.832 550.23 44.336 550.23 48.08C550.23 51.824 549.51 55.328 548.07 58.592C546.63 61.856 544.662 64.712 542.166 67.16C539.718 69.608 536.838 71.552 533.526 72.992C530.262 74.384 526.782 75.08 523.086 75.08C519.39 75.08 515.886 74.384 512.574 72.992C509.31 71.552 506.43 69.608 503.934 67.16C501.486 64.712 499.542 61.856 498.102 58.592C496.662 55.328 495.942 51.824 495.942 48.08ZM500.262 44.552C500.406 47.768 501.318 50.96 502.998 54.128C504.678 57.248 506.838 60.056 509.478 62.552C512.166 65 515.214 66.992 518.622 68.528C522.03 70.016 525.534 70.76 529.134 70.76C531.582 70.76 533.886 70.328 536.046 69.464C538.206 68.6 540.054 67.352 541.59 65.72C543.126 64.04 544.278 62.024 545.046 59.672C545.862 57.32 546.15 54.632 545.91 51.608C545.766 48.392 544.854 45.224 543.174 42.104C541.542 38.936 539.382 36.128 536.694 33.68C534.054 31.184 531.03 29.192 527.622 27.704C524.214 26.168 520.71 25.4 517.11 25.4C514.662 25.4 512.358 25.832 510.198 26.696C508.038 27.56 506.166 28.832 504.582 30.512C503.046 32.144 501.87 34.136 501.054 36.488C500.286 38.84 500.022 41.528 500.262 44.552Z" fill="#FE79F3"/>
<path d="M553.829 26.048C556.181 26.048 558.581 25.568 561.029 24.608C563.477 23.648 565.709 22.472 567.725 21.08C567.725 23 567.725 25.112 567.725 27.416C567.677 29.384 567.653 31.688 567.653 34.328C567.653 36.92 567.653 39.752 567.653 42.824C567.749 40.28 568.349 37.736 569.453 35.192C570.605 32.6 572.117 30.272 573.989 28.208C575.861 26.096 578.021 24.392 580.469 23.096C582.917 21.752 585.509 21.08 588.245 21.08C589.109 21.08 590.093 21.128 591.197 21.224C592.349 21.32 593.285 21.632 594.005 22.16C594.773 24.32 594.581 26.024 593.429 27.272C592.325 28.52 590.741 29.144 588.677 29.144C587.957 29.144 587.309 29.072 586.733 28.928C586.157 28.784 585.581 28.616 585.005 28.424C584.429 28.232 583.781 28.064 583.061 27.92C582.389 27.776 581.525 27.704 580.469 27.704C578.405 27.704 576.581 28.4 574.997 29.792C573.413 31.184 572.069 33.032 570.965 35.336C569.909 37.64 569.093 40.28 568.517 43.256C567.941 46.184 567.653 49.208 567.653 52.328C567.653 55.592 567.653 58.52 567.653 61.112C567.653 63.704 567.821 65.912 568.157 67.736C568.541 69.512 569.189 70.88 570.101 71.84C571.013 72.8 572.405 73.28 574.277 73.28V74H553.829V73.28C555.701 73.28 557.093 72.8 558.005 71.84C558.965 70.832 559.613 69.368 559.949 67.448C560.333 65.48 560.501 63.056 560.453 60.176C560.453 57.248 560.453 53.864 560.453 50.024C560.453 46.184 560.453 42.824 560.453 39.944C560.501 37.016 560.333 34.592 559.949 32.672C559.613 30.704 558.965 29.24 558.005 28.28C557.093 27.272 555.701 26.768 553.829 26.768V26.048Z" fill="#FE79F3"/>
<path d="M595.876 5.88799C598.228 5.88799 600.628 5.40799 603.076 4.44799C605.524 3.48799 607.756 2.31199 609.772 0.919983C609.772 3.22398 609.772 5.71999 609.772 8.40799C609.724 10.76 609.7 13.472 609.7 16.544C609.7 19.616 609.7 22.88 609.7 26.336V46.784C611.62 45.2 613.732 43.424 616.036 41.456C618.388 39.44 620.572 37.424 622.588 35.408C624.652 33.392 626.356 31.472 627.7 29.648C629.044 27.776 629.716 26.192 629.716 24.896C629.716 24.512 629.644 24.08 629.5 23.6C629.404 23.12 629.02 22.64 628.348 22.16H642.892V22.592C642.028 22.592 640.708 23.192 638.932 24.392C637.204 25.544 635.188 27.056 632.884 28.928C630.628 30.8 628.18 32.888 625.54 35.192C622.9 37.496 620.284 39.776 617.692 42.032C620.284 42.272 622.516 42.992 624.388 44.192C626.26 45.392 627.892 46.904 629.284 48.728C630.676 50.504 631.852 52.52 632.812 54.776C633.82 56.984 634.708 59.24 635.476 61.544C636.628 64.904 637.972 67.712 639.508 69.968C641.044 72.176 642.892 73.28 645.052 73.28V74H635.692C634.492 74 633.484 73.616 632.668 72.848C631.9 72.032 631.18 70.904 630.508 69.464C629.884 68.024 629.236 66.296 628.564 64.28C627.94 62.216 627.148 59.936 626.188 57.44C625.42 55.472 624.556 53.84 623.596 52.544C622.684 51.248 621.724 50.216 620.716 49.448C619.708 48.632 618.676 48.08 617.62 47.792C616.564 47.456 615.484 47.288 614.38 47.288C613.756 47.288 613.132 47.336 612.508 47.432C611.932 47.528 611.356 47.648 610.78 47.792L609.7 48.656V50.024C609.7 53.864 609.7 57.248 609.7 60.176C609.7 63.056 609.868 65.48 610.204 67.448C610.588 69.368 611.236 70.832 612.148 71.84C613.06 72.8 614.452 73.28 616.324 73.28V74H595.876V73.28C597.748 73.28 599.14 72.8 600.052 71.84C601.012 70.832 601.66 69.368 601.996 67.448C602.38 65.48 602.548 63.056 602.5 60.176C602.5 57.248 602.5 53.864 602.5 50.024V26.552C602.5 23.24 602.476 20.36 602.428 17.912C602.428 15.416 602.212 13.328 601.78 11.648C601.396 9.96799 600.748 8.71999 599.836 7.90399C598.924 7.03999 597.604 6.60799 595.876 6.60799V5.88799Z" fill="#FE79F3"/>
</svg>
