<svg width="212" height="206" viewBox="0 0 212 206" fill="none" xmlns="http://www.w3.org/2000/svg">
<path d="M105.993 0L119.948 55.0375C122.071 63.3912 131.251 67.8095 139.133 64.2436L191.004 40.8022L156.538 85.9943C151.306 92.8563 153.573 102.758 161.27 106.68L212 132.479L155.055 133.786C146.417 133.985 140.06 141.927 141.785 150.38L153.174 206L116.641 162.442C111.096 155.835 100.904 155.835 95.3451 162.442L58.8121 206L70.201 150.38C71.9258 141.941 65.5685 133.985 56.9305 133.786L-0.0142822 132.479L50.7158 106.68C58.4129 102.758 60.6793 92.8563 55.4481 85.9943L20.9961 40.8022L72.8665 64.2436C80.7347 67.7953 89.9286 63.3912 92.0524 55.0375L105.993 0Z" stroke="#FE79F3" stroke-width="4"/>
</svg>
