<svg width="102" height="104" viewBox="0 0 102 104" fill="none" xmlns="http://www.w3.org/2000/svg">
<path d="M19.7382 11.7575L41.9629 28.0622C45.3383 30.5351 50.1441 29.3536 51.9983 25.5821L64.2078 0.772427L65.2389 28.3517C65.3963 32.5387 69.3033 35.5477 73.3997 34.638L100.385 28.6263L79.4389 46.7125C76.2619 49.4562 76.3304 54.3956 79.5869 57.0292L101.029 74.3449L73.8841 69.3173C69.7656 68.556 65.9446 71.7053 65.9001 75.8978L65.652 103.504L52.7492 79.1494C50.7903 75.4553 45.9505 74.4395 42.6506 77.0342L20.8976 94.1412L31.9514 68.8006C33.6265 64.9532 31.4189 60.5435 27.339 59.5896L0.469419 53.3069L27.1539 46.0593C31.2004 44.9584 33.2875 40.4676 31.5046 36.6821L19.7382 11.7575Z" fill="#FE79F3"/>
</svg>
