<svg width="454" height="76" viewBox="0 0 454 76" fill="none" xmlns="http://www.w3.org/2000/svg">
<path d="M0.0800781 18.128L3.89608 1.99999H55.3041L59.1201 18.128H58.7601C57.7041 16.256 56.4561 14.432 55.0161 12.656C53.6241 10.88 51.9921 9.31999 50.1201 7.97599C48.2961 6.58399 46.1841 5.47999 43.7841 4.66399C41.4321 3.84799 38.7681 3.43999 35.7921 3.43999H33.2001V50.024C33.2001 53.864 33.2001 57.248 33.2001 60.176C33.2001 63.056 33.3681 65.48 33.7041 67.448C34.0881 69.368 34.7361 70.832 35.6481 71.84C36.5601 72.8 37.9521 73.28 39.8241 73.28V74H19.3761V73.28C21.2481 73.28 22.6401 72.8 23.5521 71.84C24.5121 70.832 25.1601 69.368 25.4961 67.448C25.8801 65.48 26.0481 63.056 26.0001 60.176C26.0001 57.248 26.0001 53.864 26.0001 50.024V3.43999H23.4081C20.4321 3.43999 17.7441 3.84799 15.3441 4.66399C12.9921 5.47999 10.8801 6.58399 9.00808 7.97599C7.18408 9.31999 5.55208 10.88 4.11208 12.656C2.72008 14.432 1.49608 16.256 0.440078 18.128H0.0800781Z" fill="#FE79F3"/>
<path d="M42.1691 48.08C42.1691 44.336 42.8891 40.832 44.3291 37.568C45.7691 34.304 47.7131 31.448 50.1611 29C52.6571 26.552 55.5371 24.632 58.8011 23.24C62.1131 21.8 65.6171 21.08 69.3131 21.08C73.0091 21.08 76.1771 21.632 78.8171 22.736C81.4571 23.84 83.6171 25.208 85.2971 26.84C86.9771 28.424 88.2011 30.152 88.9691 32.024C89.7851 33.896 90.1931 35.6 90.1931 37.136C90.1931 38.672 89.9051 39.92 89.3291 40.88C88.7531 41.84 88.0091 42.608 87.0971 43.184C86.1851 43.712 85.1531 44.072 84.0011 44.264C82.8971 44.456 81.7931 44.552 80.6891 44.552H48.2891C48.2891 48.008 48.9611 51.248 50.3051 54.272C51.6491 57.248 53.4491 59.84 55.7051 62.048C58.0091 64.256 60.6491 65.984 63.6251 67.232C66.6011 68.48 69.7451 69.104 73.0571 69.104C75.5051 69.104 77.8091 68.768 79.9691 68.096C82.1291 67.376 84.0731 66.44 85.8011 65.288C87.5771 64.088 89.0891 62.696 90.3371 61.112C91.6331 59.48 92.6411 57.776 93.3611 56L94.0811 56.288C93.3611 59.024 92.2091 61.544 90.6251 63.848C89.0891 66.104 87.2171 68.072 85.0091 69.752C82.8491 71.432 80.4251 72.752 77.7371 73.712C75.0971 74.624 72.2891 75.08 69.3131 75.08C65.6171 75.08 62.1131 74.384 58.8011 72.992C55.5371 71.552 52.6571 69.608 50.1611 67.16C47.7131 64.712 45.7691 61.856 44.3291 58.592C42.8891 55.328 42.1691 51.824 42.1691 48.08ZM67.7291 42.68C69.6011 42.68 71.4251 42.632 73.2011 42.536C75.0251 42.44 76.6331 42.176 78.0251 41.744C79.4651 41.312 80.6171 40.664 81.4811 39.8C82.3931 38.936 82.8491 37.736 82.8491 36.2C82.8491 34.232 82.4411 32.48 81.6251 30.944C80.8571 29.408 79.7291 28.088 78.2411 26.984C76.8011 25.88 75.0491 25.04 72.9851 24.464C70.9691 23.888 68.7131 23.6 66.2171 23.6C63.5291 23.6 61.1051 24.08 58.9451 25.04C56.8331 25.952 55.0091 27.248 53.4731 28.928C51.9371 30.608 50.7131 32.648 49.8011 35.048C48.9371 37.448 48.4331 40.112 48.2891 43.04C50.0651 42.992 51.6971 42.944 53.1851 42.896C54.7211 42.848 56.2331 42.824 57.7211 42.824C59.2091 42.776 60.7451 42.752 62.3291 42.752C63.9611 42.704 65.7611 42.68 67.7291 42.68Z" fill="#FE79F3"/>
<path d="M95.9076 73.28C97.7796 73.28 99.1716 72.8 100.084 71.84C101.044 70.832 101.692 69.368 102.028 67.448C102.412 65.48 102.58 63.056 102.532 60.176C102.532 57.248 102.532 53.864 102.532 50.024V26.552C102.532 23.24 102.508 20.36 102.46 17.912C102.46 15.416 102.244 13.328 101.812 11.648C101.428 9.96799 100.78 8.71999 99.8676 7.90399C98.9556 7.03999 97.6356 6.60799 95.9076 6.60799V5.88799C98.2596 5.88799 100.66 5.40799 103.108 4.44799C105.556 3.48799 107.788 2.31199 109.804 0.919983C109.804 3.22398 109.804 5.71999 109.804 8.40799C109.756 10.76 109.732 13.472 109.732 16.544C109.732 19.616 109.732 22.88 109.732 26.336V50.024C109.732 53.864 109.732 57.248 109.732 60.176C109.732 63.056 109.9 65.48 110.236 67.448C110.62 69.368 111.268 70.832 112.18 71.84C113.092 72.8 114.484 73.28 116.356 73.28V74H95.9076V73.28Z" fill="#FE79F3"/>
<path d="M119.935 48.08C119.935 44.336 120.655 40.832 122.095 37.568C123.535 34.304 125.479 31.448 127.927 29C130.423 26.552 133.303 24.632 136.567 23.24C139.879 21.8 143.383 21.08 147.079 21.08C150.775 21.08 153.943 21.632 156.583 22.736C159.223 23.84 161.383 25.208 163.063 26.84C164.743 28.424 165.967 30.152 166.735 32.024C167.551 33.896 167.959 35.6 167.959 37.136C167.959 38.672 167.671 39.92 167.095 40.88C166.519 41.84 165.775 42.608 164.863 43.184C163.951 43.712 162.919 44.072 161.767 44.264C160.663 44.456 159.559 44.552 158.455 44.552H126.055C126.055 48.008 126.727 51.248 128.071 54.272C129.415 57.248 131.215 59.84 133.471 62.048C135.775 64.256 138.415 65.984 141.391 67.232C144.367 68.48 147.511 69.104 150.823 69.104C153.271 69.104 155.575 68.768 157.735 68.096C159.895 67.376 161.839 66.44 163.567 65.288C165.343 64.088 166.855 62.696 168.103 61.112C169.399 59.48 170.407 57.776 171.127 56L171.847 56.288C171.127 59.024 169.975 61.544 168.391 63.848C166.855 66.104 164.983 68.072 162.775 69.752C160.615 71.432 158.191 72.752 155.503 73.712C152.863 74.624 150.055 75.08 147.079 75.08C143.383 75.08 139.879 74.384 136.567 72.992C133.303 71.552 130.423 69.608 127.927 67.16C125.479 64.712 123.535 61.856 122.095 58.592C120.655 55.328 119.935 51.824 119.935 48.08ZM145.495 42.68C147.367 42.68 149.191 42.632 150.967 42.536C152.791 42.44 154.399 42.176 155.791 41.744C157.231 41.312 158.383 40.664 159.247 39.8C160.159 38.936 160.615 37.736 160.615 36.2C160.615 34.232 160.207 32.48 159.391 30.944C158.623 29.408 157.495 28.088 156.007 26.984C154.567 25.88 152.815 25.04 150.751 24.464C148.735 23.888 146.479 23.6 143.983 23.6C141.295 23.6 138.871 24.08 136.711 25.04C134.599 25.952 132.775 27.248 131.239 28.928C129.703 30.608 128.479 32.648 127.567 35.048C126.703 37.448 126.199 40.112 126.055 43.04C127.831 42.992 129.463 42.944 130.951 42.896C132.487 42.848 133.999 42.824 135.487 42.824C136.975 42.776 138.511 42.752 140.095 42.752C141.727 42.704 143.527 42.68 145.495 42.68Z" fill="#FE79F3"/>
<path d="M173.673 73.28C175.545 73.28 176.937 72.8 177.849 71.84C178.809 70.832 179.457 69.368 179.793 67.448C180.177 65.48 180.345 63.056 180.297 60.176C180.297 57.248 180.297 53.864 180.297 50.024V26.552C180.297 23.24 180.273 20.36 180.225 17.912C180.225 15.416 180.009 13.328 179.577 11.648C179.193 9.96799 178.545 8.71999 177.633 7.90399C176.721 7.03999 175.401 6.60799 173.673 6.60799V5.88799C176.025 5.88799 178.425 5.40799 180.873 4.44799C183.321 3.48799 185.553 2.31199 187.569 0.919983C187.569 3.22398 187.569 5.71999 187.569 8.40799C187.521 10.76 187.497 13.472 187.497 16.544C187.497 19.616 187.497 22.88 187.497 26.336V50.024C187.497 53.864 187.497 57.248 187.497 60.176C187.497 63.056 187.665 65.48 188.001 67.448C188.385 69.368 189.033 70.832 189.945 71.84C190.857 72.8 192.249 73.28 194.121 73.28V74H173.673V73.28Z" fill="#FE79F3"/>
<path d="M197.7 48.08C197.7 44.336 198.42 40.832 199.86 37.568C201.3 34.304 203.244 31.448 205.692 29C208.188 26.552 211.068 24.632 214.332 23.24C217.644 21.8 221.148 21.08 224.844 21.08C228.54 21.08 231.708 21.632 234.348 22.736C236.988 23.84 239.148 25.208 240.828 26.84C242.508 28.424 243.732 30.152 244.5 32.024C245.316 33.896 245.724 35.6 245.724 37.136C245.724 38.672 245.436 39.92 244.86 40.88C244.284 41.84 243.54 42.608 242.628 43.184C241.716 43.712 240.684 44.072 239.532 44.264C238.428 44.456 237.324 44.552 236.22 44.552H203.82C203.82 48.008 204.492 51.248 205.836 54.272C207.18 57.248 208.98 59.84 211.236 62.048C213.54 64.256 216.18 65.984 219.156 67.232C222.132 68.48 225.276 69.104 228.588 69.104C231.036 69.104 233.34 68.768 235.5 68.096C237.66 67.376 239.604 66.44 241.332 65.288C243.108 64.088 244.62 62.696 245.868 61.112C247.164 59.48 248.172 57.776 248.892 56L249.612 56.288C248.892 59.024 247.74 61.544 246.156 63.848C244.62 66.104 242.748 68.072 240.54 69.752C238.38 71.432 235.956 72.752 233.268 73.712C230.628 74.624 227.82 75.08 224.844 75.08C221.148 75.08 217.644 74.384 214.332 72.992C211.068 71.552 208.188 69.608 205.692 67.16C203.244 64.712 201.3 61.856 199.86 58.592C198.42 55.328 197.7 51.824 197.7 48.08ZM223.26 42.68C225.132 42.68 226.956 42.632 228.732 42.536C230.556 42.44 232.164 42.176 233.556 41.744C234.996 41.312 236.148 40.664 237.012 39.8C237.924 38.936 238.38 37.736 238.38 36.2C238.38 34.232 237.972 32.48 237.156 30.944C236.388 29.408 235.26 28.088 233.772 26.984C232.332 25.88 230.58 25.04 228.516 24.464C226.5 23.888 224.244 23.6 221.748 23.6C219.06 23.6 216.636 24.08 214.476 25.04C212.364 25.952 210.54 27.248 209.004 28.928C207.468 30.608 206.244 32.648 205.332 35.048C204.468 37.448 203.964 40.112 203.82 43.04C205.596 42.992 207.228 42.944 208.716 42.896C210.252 42.848 211.764 42.824 213.252 42.824C214.74 42.776 216.276 42.752 217.86 42.752C219.492 42.704 221.292 42.68 223.26 42.68Z" fill="#FE79F3"/>
<path d="M253.599 48.08C253.599 44.336 254.319 40.832 255.759 37.568C257.199 34.304 259.143 31.448 261.591 29C264.087 26.552 266.967 24.632 270.231 23.24C273.543 21.8 277.047 21.08 280.743 21.08C283.959 21.08 286.887 21.512 289.527 22.376C292.167 23.192 294.471 24.272 296.439 25.616C298.455 26.912 300.135 28.352 301.479 29.936C302.823 31.472 303.807 32.96 304.431 34.4C304.239 34.976 303.975 35.48 303.639 35.912C303.303 36.296 302.871 36.656 302.343 36.992C301.815 37.328 301.119 37.496 300.255 37.496C299.199 37.496 298.215 37.16 297.303 36.488C296.439 35.816 295.551 34.976 294.639 33.968C293.775 32.912 292.839 31.808 291.831 30.656C290.823 29.456 289.647 28.352 288.303 27.344C287.007 26.288 285.495 25.424 283.767 24.752C282.039 24.032 279.999 23.648 277.647 23.6C274.863 23.6 272.367 24.104 270.159 25.112C267.951 26.12 266.055 27.536 264.471 29.36C262.935 31.184 261.759 33.392 260.943 35.984C260.127 38.528 259.719 41.384 259.719 44.552C259.719 48.008 260.391 51.248 261.735 54.272C263.079 57.248 264.879 59.84 267.135 62.048C269.439 64.256 272.079 65.984 275.055 67.232C278.031 68.48 281.175 69.104 284.487 69.104C286.935 69.104 289.239 68.768 291.399 68.096C293.559 67.376 295.503 66.44 297.231 65.288C299.007 64.088 300.519 62.696 301.767 61.112C303.063 59.48 304.071 57.776 304.791 56L305.511 56.288C304.791 59.024 303.639 61.544 302.055 63.848C300.519 66.104 298.647 68.072 296.439 69.752C294.279 71.432 291.855 72.752 289.167 73.712C286.527 74.624 283.719 75.08 280.743 75.08C277.047 75.08 273.543 74.384 270.231 72.992C266.967 71.552 264.087 69.608 261.591 67.16C259.143 64.712 257.199 61.856 255.759 58.592C254.319 55.328 253.599 51.824 253.599 48.08Z" fill="#FE79F3"/>
<path d="M321.377 24.32V63.128C321.377 64.136 321.449 65.192 321.593 66.296C321.785 67.4 322.073 68.432 322.457 69.392C322.841 70.352 323.369 71.144 324.041 71.768C324.761 72.392 325.625 72.704 326.633 72.704C328.361 72.704 329.897 72.272 331.241 71.408C332.585 70.496 333.665 69.368 334.481 68.024L335.201 68.528C334.865 69.152 334.361 69.848 333.689 70.616C333.017 71.336 332.225 72.032 331.313 72.704C330.449 73.376 329.465 73.928 328.361 74.36C327.257 74.84 326.129 75.08 324.977 75.08C322.817 75.08 321.041 74.72 319.649 74C318.257 73.232 317.153 72.248 316.337 71.048C315.521 69.8 314.945 68.384 314.609 66.8C314.321 65.168 314.177 63.464 314.177 61.688V24.32H306.617V22.16C307.769 22.16 309.065 21.656 310.505 20.648C311.945 19.64 313.337 18.368 314.681 16.832C316.025 15.296 317.249 13.64 318.353 11.864C319.457 10.088 320.249 8.43199 320.729 6.89599H321.449C321.449 8.14399 321.449 9.55999 321.449 11.144C321.401 12.536 321.377 14.168 321.377 16.04C321.377 17.864 321.377 19.904 321.377 22.16H332.825V24.32H321.377Z" fill="#FE79F3"/>
<path d="M335.954 26.048C338.306 26.048 340.706 25.568 343.154 24.608C345.602 23.648 347.834 22.472 349.85 21.08C349.85 23 349.85 25.112 349.85 27.416C349.802 29.384 349.778 31.688 349.778 34.328C349.778 36.92 349.778 39.752 349.778 42.824C349.874 40.28 350.474 37.736 351.578 35.192C352.73 32.6 354.242 30.272 356.114 28.208C357.986 26.096 360.146 24.392 362.594 23.096C365.042 21.752 367.634 21.08 370.37 21.08C371.234 21.08 372.218 21.128 373.322 21.224C374.474 21.32 375.41 21.632 376.13 22.16C376.898 24.32 376.706 26.024 375.554 27.272C374.45 28.52 372.866 29.144 370.802 29.144C370.082 29.144 369.434 29.072 368.858 28.928C368.282 28.784 367.706 28.616 367.13 28.424C366.554 28.232 365.906 28.064 365.186 27.92C364.514 27.776 363.65 27.704 362.594 27.704C360.53 27.704 358.706 28.4 357.122 29.792C355.538 31.184 354.194 33.032 353.09 35.336C352.034 37.64 351.218 40.28 350.642 43.256C350.066 46.184 349.778 49.208 349.778 52.328C349.778 55.592 349.778 58.52 349.778 61.112C349.778 63.704 349.946 65.912 350.282 67.736C350.666 69.512 351.314 70.88 352.226 71.84C353.138 72.8 354.53 73.28 356.402 73.28V74H335.954V73.28C337.826 73.28 339.218 72.8 340.13 71.84C341.09 70.832 341.738 69.368 342.074 67.448C342.458 65.48 342.626 63.056 342.578 60.176C342.578 57.248 342.578 53.864 342.578 50.024C342.578 46.184 342.578 42.824 342.578 39.944C342.626 37.016 342.458 34.592 342.074 32.672C341.738 30.704 341.09 29.24 340.13 28.28C339.218 27.272 337.826 26.768 335.954 26.768V26.048Z" fill="#FE79F3"/>
<path d="M378.001 74V73.28C379.873 73.28 381.265 72.8 382.177 71.84C383.137 70.832 383.785 69.368 384.121 67.448C384.505 65.48 384.673 63.056 384.625 60.176C384.625 57.248 384.625 53.864 384.625 50.024C384.625 46.184 384.625 42.824 384.625 39.944C384.673 37.016 384.505 34.592 384.121 32.672C383.785 30.704 383.137 29.24 382.177 28.28C381.265 27.272 379.873 26.768 378.001 26.768V26.048C380.353 26.048 382.753 25.568 385.201 24.608C387.649 23.648 389.881 22.472 391.897 21.08C391.897 23.768 391.897 26.672 391.897 29.792C391.849 32.48 391.825 35.552 391.825 39.008C391.825 42.464 391.825 46.136 391.825 50.024C391.825 53.864 391.825 57.248 391.825 60.176C391.825 63.056 391.993 65.48 392.329 67.448C392.713 69.368 393.361 70.832 394.273 71.84C395.185 72.8 396.577 73.28 398.449 73.28V74H378.001ZM387.721 5.95999C389.545 5.95999 391.105 6.60799 392.401 7.90399C393.697 9.15199 394.345 10.688 394.345 12.512C394.345 14.336 393.697 15.896 392.401 17.192C391.105 18.488 389.545 19.136 387.721 19.136C385.897 19.136 384.337 18.488 383.041 17.192C381.793 15.896 381.169 14.336 381.169 12.512C381.169 10.688 381.793 9.15199 383.041 7.90399C384.337 6.60799 385.897 5.95999 387.721 5.95999Z" fill="#FE79F3"/>
<path d="M420.893 22.16V22.88C419.981 22.88 419.213 23.096 418.589 23.528C418.013 23.96 417.701 24.704 417.653 25.76C417.605 26.624 417.965 27.848 418.733 29.432C419.549 31.016 420.557 32.768 421.757 34.688C423.005 36.608 424.325 38.6 425.717 40.664C427.109 42.68 428.405 44.576 429.605 46.352C430.709 44.624 431.813 42.848 432.917 41.024C434.069 39.2 435.101 37.448 436.013 35.768C436.925 34.04 437.669 32.432 438.245 30.944C438.821 29.456 439.109 28.184 439.109 27.128C439.109 26.216 438.965 25.496 438.677 24.968C438.389 24.392 438.029 23.96 437.597 23.672C437.165 23.336 436.685 23.12 436.157 23.024C435.629 22.928 435.149 22.88 434.717 22.88V22.16H453.077V22.88C451.301 22.88 449.453 23.624 447.533 25.112C445.661 26.6 443.765 28.544 441.845 30.944C439.973 33.296 438.077 35.96 436.157 38.936C434.237 41.864 432.341 44.792 430.469 47.72C432.389 50.648 434.309 53.648 436.229 56.72C438.197 59.744 440.165 62.48 442.133 64.928C444.101 67.376 446.045 69.392 447.965 70.976C449.885 72.512 451.757 73.28 453.581 73.28V74H431.837V73.28C432.749 73.28 433.493 73.064 434.069 72.632C434.693 72.152 435.029 71.384 435.077 70.328C435.125 69.464 434.741 68.264 433.925 66.728C433.157 65.144 432.173 63.416 430.973 61.544C429.773 59.624 428.477 57.656 427.085 55.64C425.693 53.624 424.397 51.728 423.197 49.952C422.093 51.632 420.965 53.384 419.813 55.208C418.709 57.032 417.701 58.808 416.789 60.536C415.925 62.216 415.205 63.8 414.629 65.288C414.053 66.776 413.765 68.024 413.765 69.032C413.765 70.808 414.269 71.96 415.277 72.488C416.285 73.016 417.245 73.28 418.157 73.28V74H399.797V73.28C401.573 73.28 403.397 72.536 405.269 71.048C407.141 69.56 409.013 67.64 410.885 65.288C412.805 62.936 414.725 60.296 416.645 57.368C418.565 54.44 420.461 51.512 422.333 48.584C420.413 45.608 418.469 42.608 416.501 39.584C414.533 36.512 412.565 33.752 410.597 31.304C408.677 28.808 406.733 26.792 404.765 25.256C402.845 23.672 400.973 22.88 399.149 22.88V22.16H420.893Z" fill="#FE79F3"/>
</svg>
