<svg width="563" height="205" viewBox="0 0 563 205" fill="none" xmlns="http://www.w3.org/2000/svg">
<path d="M27.4401 1.99999V2.71999C26.4321 2.71999 25.4481 2.76799 24.4881 2.86399C23.5761 2.91199 22.7121 3.07999 21.8961 3.36799C21.1281 3.65599 20.4561 4.06399 19.8801 4.59199C19.3041 5.11999 18.8721 5.86399 18.5841 6.82399C18.0561 8.55199 18.1521 10.976 18.8721 14.096C19.5921 17.168 20.7201 21.272 22.2561 26.408C22.9761 28.76 23.9361 31.856 25.1361 35.696C26.3841 39.536 27.6561 43.592 28.9521 47.864C30.2961 52.136 31.6161 56.36 32.9121 60.536C34.2081 64.664 35.2881 68.216 36.1521 71.192C36.8721 68.6 37.7121 65.36 38.6721 61.472C39.6801 57.584 40.6881 53.528 41.6961 49.304C42.7521 45.032 43.7601 40.832 44.7201 36.704C45.6801 32.528 46.5201 28.88 47.2401 25.76C46.1841 22.352 45.2001 19.232 44.2881 16.4C43.3761 13.568 42.3921 11.144 41.3361 9.12799C40.3281 7.11199 39.1761 5.55199 37.8801 4.44799C36.5841 3.29599 35.0241 2.71999 33.2001 2.71999V1.99999H60.5601V2.71999C59.5521 2.71999 58.5681 2.76799 57.6081 2.86399C56.6961 2.91199 55.8321 3.07999 55.0161 3.36799C54.2481 3.65599 53.5761 4.06399 53.0001 4.59199C52.4241 5.11999 51.9921 5.86399 51.7041 6.82399C51.1761 8.55199 51.2721 10.976 51.9921 14.096C52.7121 17.168 53.8401 21.272 55.3761 26.408C56.0961 28.76 57.0561 31.856 58.2561 35.696C59.5041 39.536 60.7761 43.592 62.0721 47.864C63.4161 52.136 64.7361 56.36 66.0321 60.536C67.3281 64.664 68.4081 68.216 69.2721 71.192C69.8961 68.984 70.6161 66.296 71.4321 63.128C72.2481 59.96 73.0881 56.6 73.9521 53.048C74.8161 49.448 75.6801 45.824 76.5441 42.176C77.4561 38.528 78.2721 35.12 78.9921 31.952C79.7601 28.736 80.4081 25.904 80.9361 23.456C81.4641 21.008 81.8241 19.232 82.0161 18.128C82.4961 15.392 82.7361 13.064 82.7361 11.144C82.7361 9.17599 82.3761 7.56799 81.6561 6.31999C80.9361 5.07199 79.7841 4.15999 78.2001 3.58399C76.6641 3.00799 74.5281 2.71999 71.7921 2.71999V1.99999H99.1521V2.71999C97.2801 2.71999 95.6721 3.31999 94.3281 4.51999C93.0321 5.67199 91.8561 7.32799 90.8001 9.48799C89.7441 11.6 88.7361 14.12 87.7761 17.048C86.8641 19.976 85.8561 23.216 84.7521 26.768C84.1761 28.64 83.5041 30.824 82.7361 33.32C81.9681 35.768 81.1521 38.36 80.2881 41.096C79.4721 43.784 78.6321 46.544 77.7681 49.376C76.9041 52.208 76.0641 54.92 75.2481 57.512C74.4321 60.104 73.6881 62.528 73.0161 64.784C72.3441 66.992 71.7681 68.84 71.2881 70.328C71.0961 70.904 70.9281 71.432 70.7841 71.912C70.6881 72.344 70.5921 72.704 70.4961 72.992C70.4001 73.376 70.3041 73.712 70.2081 74H62.1441C62.0481 73.712 61.9521 73.376 61.8561 72.992C61.7601 72.704 61.6401 72.344 61.4961 71.912C61.4001 71.432 61.2561 70.904 61.0641 70.328C60.4881 68.456 59.7441 66.056 58.8321 63.128C57.9201 60.152 56.9361 56.96 55.8801 53.552C54.8241 50.096 53.7441 46.616 52.6401 43.112C51.5841 39.56 50.5761 36.272 49.6161 33.248C48.7041 36.272 47.6961 39.56 46.5921 43.112C45.4881 46.616 44.4081 50.096 43.3521 53.552C42.3441 56.96 41.3601 60.152 40.4001 63.128C39.4881 66.056 38.7441 68.456 38.1681 70.328C37.9761 70.904 37.8081 71.432 37.6641 71.912C37.5681 72.344 37.4721 72.704 37.3761 72.992C37.2801 73.376 37.1841 73.712 37.0881 74H29.0241C28.9281 73.712 28.8321 73.376 28.7361 72.992C28.6401 72.704 28.5201 72.344 28.3761 71.912C28.2801 71.432 28.1361 70.904 27.9441 70.328C27.4641 68.84 26.8881 66.992 26.2161 64.784C25.5441 62.528 24.8001 60.104 23.9841 57.512C23.1681 54.92 22.3281 52.208 21.4641 49.376C20.6001 46.544 19.7361 43.784 18.8721 41.096C18.0561 38.36 17.2641 35.768 16.4961 33.32C15.7281 30.824 15.0561 28.64 14.4801 26.768C13.3761 23.216 12.3441 19.976 11.3841 17.048C10.4721 14.12 9.48808 11.6 8.43208 9.48799C7.37608 7.32799 6.17608 5.67199 4.83208 4.51999C3.53608 3.31999 1.95208 2.71999 0.0800781 2.71999V1.99999H27.4401Z" fill="#FE79F3"/>
<path d="M89.4191 48.08C89.4191 44.336 90.1391 40.832 91.5791 37.568C93.0191 34.304 94.9631 31.448 97.4111 29C99.9071 26.552 102.787 24.632 106.051 23.24C109.363 21.8 112.867 21.08 116.563 21.08C120.259 21.08 123.739 21.8 127.003 23.24C130.315 24.632 133.195 26.552 135.643 29C138.139 31.448 140.107 34.304 141.547 37.568C142.987 40.832 143.707 44.336 143.707 48.08C143.707 51.824 142.987 55.328 141.547 58.592C140.107 61.856 138.139 64.712 135.643 67.16C133.195 69.608 130.315 71.552 127.003 72.992C123.739 74.384 120.259 75.08 116.563 75.08C112.867 75.08 109.363 74.384 106.051 72.992C102.787 71.552 99.9071 69.608 97.4111 67.16C94.9631 64.712 93.0191 61.856 91.5791 58.592C90.1391 55.328 89.4191 51.824 89.4191 48.08ZM93.7391 44.552C93.8831 47.768 94.7951 50.96 96.4751 54.128C98.1551 57.248 100.315 60.056 102.955 62.552C105.643 65 108.691 66.992 112.099 68.528C115.507 70.016 119.011 70.76 122.611 70.76C125.059 70.76 127.363 70.328 129.523 69.464C131.683 68.6 133.531 67.352 135.067 65.72C136.603 64.04 137.755 62.024 138.523 59.672C139.339 57.32 139.627 54.632 139.387 51.608C139.243 48.392 138.331 45.224 136.651 42.104C135.019 38.936 132.859 36.128 130.171 33.68C127.531 31.184 124.507 29.192 121.099 27.704C117.691 26.168 114.187 25.4 110.587 25.4C108.139 25.4 105.835 25.832 103.675 26.696C101.515 27.56 99.6431 28.832 98.0591 30.512C96.5231 32.144 95.3471 34.136 94.5311 36.488C93.7631 38.84 93.4991 41.528 93.7391 44.552Z" fill="#FE79F3"/>
<path d="M147.306 26.048C149.658 26.048 152.058 25.568 154.506 24.608C156.954 23.648 159.186 22.472 161.202 21.08C161.202 23 161.202 25.112 161.202 27.416C161.154 29.384 161.13 31.688 161.13 34.328C161.13 36.92 161.13 39.752 161.13 42.824C161.226 40.28 161.826 37.736 162.93 35.192C164.082 32.6 165.594 30.272 167.466 28.208C169.338 26.096 171.498 24.392 173.946 23.096C176.394 21.752 178.986 21.08 181.722 21.08C182.586 21.08 183.57 21.128 184.674 21.224C185.826 21.32 186.762 21.632 187.482 22.16C188.25 24.32 188.058 26.024 186.906 27.272C185.802 28.52 184.218 29.144 182.154 29.144C181.434 29.144 180.786 29.072 180.21 28.928C179.634 28.784 179.058 28.616 178.482 28.424C177.906 28.232 177.258 28.064 176.538 27.92C175.866 27.776 175.002 27.704 173.946 27.704C171.882 27.704 170.058 28.4 168.474 29.792C166.89 31.184 165.546 33.032 164.442 35.336C163.386 37.64 162.57 40.28 161.994 43.256C161.418 46.184 161.13 49.208 161.13 52.328C161.13 55.592 161.13 58.52 161.13 61.112C161.13 63.704 161.298 65.912 161.634 67.736C162.018 69.512 162.666 70.88 163.578 71.84C164.49 72.8 165.882 73.28 167.754 73.28V74H147.306V73.28C149.178 73.28 150.57 72.8 151.482 71.84C152.442 70.832 153.09 69.368 153.426 67.448C153.81 65.48 153.978 63.056 153.93 60.176C153.93 57.248 153.93 53.864 153.93 50.024C153.93 46.184 153.93 42.824 153.93 39.944C153.978 37.016 153.81 34.592 153.426 32.672C153.09 30.704 152.442 29.24 151.482 28.28C150.57 27.272 149.178 26.768 147.306 26.768V26.048Z" fill="#FE79F3"/>
<path d="M184.341 50.816C184.341 46.304 185.157 42.272 186.789 38.72C188.421 35.168 190.557 32.144 193.197 29.648C195.837 27.104 198.837 25.112 202.197 23.672C205.557 22.232 208.989 21.392 212.493 21.152C212.349 20.576 212.205 20.072 212.061 19.64C211.965 19.208 211.869 18.824 211.773 18.488C211.677 18.104 211.581 17.768 211.485 17.48C210.861 15.512 210.333 13.784 209.901 12.296C209.469 10.808 209.013 9.55999 208.533 8.55199C208.053 7.54399 207.477 6.79999 206.805 6.31999C206.133 5.79199 205.221 5.52799 204.069 5.52799C203.205 5.52799 202.389 5.62399 201.621 5.81599C200.901 5.95999 200.061 6.15199 199.101 6.39199V5.67199C200.349 5.23999 201.597 4.75999 202.845 4.23199C204.093 3.65599 205.293 3.12799 206.445 2.64799C207.597 2.16799 208.629 1.75999 209.541 1.42399C210.501 1.08799 211.269 0.919983 211.845 0.919983C212.613 0.919983 213.237 1.11198 213.717 1.49598C214.197 1.83199 214.581 2.33599 214.869 3.00799C215.205 3.63199 215.493 4.39999 215.733 5.31199C215.973 6.17599 216.237 7.11199 216.525 8.11999C217.581 12.296 218.661 16.472 219.765 20.648C220.677 24.152 221.661 27.896 222.717 31.88C223.773 35.864 224.757 39.464 225.669 42.68C226.581 45.848 227.493 49.232 228.405 52.832C229.317 56.432 230.325 59.744 231.429 62.768C232.581 65.792 233.877 68.312 235.317 70.328C236.805 72.296 238.557 73.28 240.573 73.28V74H231.213C229.293 74 227.781 73.16 226.677 71.48C225.573 69.8 224.613 67.568 223.797 64.784C221.925 67.664 219.477 70.112 216.453 72.128C213.429 74.096 209.901 75.08 205.869 75.08C201.981 75.08 198.669 74.432 195.933 73.136C193.245 71.84 191.037 70.088 189.309 67.88C187.581 65.624 186.309 63.032 185.493 60.104C184.725 57.176 184.341 54.08 184.341 50.816ZM190.965 48.656C190.965 51.536 191.301 54.416 191.973 57.296C192.645 60.128 193.677 62.696 195.069 65C196.509 67.256 198.309 69.104 200.469 70.544C202.629 71.936 205.197 72.632 208.173 72.632C209.901 72.632 211.509 72.368 212.997 71.84C214.485 71.312 215.853 70.616 217.101 69.752C218.349 68.84 219.477 67.808 220.485 66.656C221.541 65.504 222.477 64.28 223.293 62.984C223.005 61.88 222.717 60.728 222.429 59.528C222.141 58.328 221.853 57.08 221.565 55.784C220.317 50.168 218.949 44.624 217.461 39.152C215.973 33.632 214.461 28.112 212.925 22.592C209.469 22.784 206.373 23.672 203.637 25.256C200.949 26.792 198.645 28.784 196.725 31.232C194.853 33.632 193.413 36.344 192.405 39.368C191.445 42.392 190.965 45.488 190.965 48.656Z" fill="#FE79F3"/>
<path d="M239.466 19.784C239.466 19.208 239.562 18.344 239.754 17.192C239.994 15.992 240.45 14.696 241.122 13.304C241.794 11.912 242.706 10.496 243.858 9.05599C245.058 7.56799 246.618 6.22399 248.538 5.02399C250.506 3.82399 252.882 2.83999 255.666 2.07199C258.45 1.30398 261.762 0.919983 265.602 0.919983C269.202 0.919983 272.25 1.30398 274.746 2.07199C277.242 2.79199 279.282 3.58399 280.866 4.44799C282.69 5.50399 284.202 6.70399 285.402 8.04799C285.018 9.82399 284.322 10.952 283.314 11.432C282.354 11.912 281.466 12.152 280.65 12.152C279.354 12.152 277.866 11.72 276.186 10.856C274.554 9.99199 272.754 9.05599 270.786 8.04799C268.866 7.03999 266.826 6.10399 264.666 5.23999C262.506 4.37599 260.226 3.94399 257.826 3.94399C253.986 3.94399 250.89 5.09599 248.538 7.39999C246.186 9.70399 245.01 12.752 245.01 16.544C245.01 19.232 245.634 21.512 246.882 23.384C248.13 25.256 249.762 26.888 251.778 28.28C253.794 29.624 256.098 30.8 258.69 31.808C261.33 32.816 263.994 33.824 266.682 34.832C269.37 35.792 272.01 36.824 274.602 37.928C277.242 38.984 279.57 40.28 281.586 41.816C283.602 43.352 285.234 45.176 286.482 47.288C287.73 49.4 288.354 51.944 288.354 54.92C288.354 59 287.61 62.36 286.122 65C284.634 67.592 282.69 69.632 280.29 71.12C277.89 72.608 275.154 73.64 272.082 74.216C269.01 74.792 265.89 75.08 262.722 75.08C260.082 75.08 257.514 74.744 255.018 74.072C252.522 73.448 250.242 72.68 248.178 71.768C246.162 70.856 244.41 69.896 242.922 68.888C241.434 67.88 240.402 67.016 239.826 66.296V54.416C241.17 56.912 242.73 59.288 244.506 61.544C246.282 63.8 248.322 65.792 250.626 67.52C252.978 69.2 255.618 70.544 258.546 71.552C261.474 72.56 264.738 73.064 268.338 73.064C270.258 73.064 272.13 72.776 273.954 72.2C275.826 71.576 277.482 70.688 278.922 69.536C280.362 68.384 281.514 66.944 282.378 65.216C283.29 63.44 283.746 61.4 283.746 59.096C283.746 56.36 283.098 54.056 281.802 52.184C280.554 50.264 278.898 48.608 276.834 47.216C274.77 45.824 272.394 44.624 269.706 43.616C267.066 42.608 264.354 41.624 261.57 40.664C258.834 39.656 256.122 38.6 253.434 37.496C250.794 36.392 248.442 35.072 246.378 33.536C244.314 31.952 242.634 30.056 241.338 27.848C240.09 25.64 239.466 22.952 239.466 19.784Z" fill="#FE79F3"/>
<path d="M303.799 24.32V63.128C303.799 64.136 303.871 65.192 304.015 66.296C304.207 67.4 304.495 68.432 304.879 69.392C305.263 70.352 305.791 71.144 306.463 71.768C307.183 72.392 308.047 72.704 309.055 72.704C310.783 72.704 312.319 72.272 313.663 71.408C315.007 70.496 316.087 69.368 316.903 68.024L317.623 68.528C317.287 69.152 316.783 69.848 316.111 70.616C315.439 71.336 314.647 72.032 313.735 72.704C312.871 73.376 311.887 73.928 310.783 74.36C309.679 74.84 308.551 75.08 307.399 75.08C305.239 75.08 303.463 74.72 302.071 74C300.679 73.232 299.575 72.248 298.759 71.048C297.943 69.8 297.367 68.384 297.031 66.8C296.743 65.168 296.599 63.464 296.599 61.688V24.32H289.039V22.16C290.191 22.16 291.487 21.656 292.927 20.648C294.367 19.64 295.759 18.368 297.103 16.832C298.447 15.296 299.671 13.64 300.775 11.864C301.879 10.088 302.671 8.43199 303.151 6.89599H303.871C303.871 8.14399 303.871 9.55999 303.871 11.144C303.823 12.536 303.799 14.168 303.799 16.04C303.799 17.864 303.799 19.904 303.799 22.16H315.247V24.32H303.799Z" fill="#FE79F3"/>
<path d="M318.376 26.048C320.728 26.048 323.128 25.568 325.576 24.608C328.024 23.648 330.256 22.472 332.272 21.08C332.272 23 332.272 25.112 332.272 27.416C332.224 29.384 332.2 31.688 332.2 34.328C332.2 36.92 332.2 39.752 332.2 42.824C332.296 40.28 332.896 37.736 334 35.192C335.152 32.6 336.664 30.272 338.536 28.208C340.408 26.096 342.568 24.392 345.016 23.096C347.464 21.752 350.056 21.08 352.792 21.08C353.656 21.08 354.64 21.128 355.744 21.224C356.896 21.32 357.832 21.632 358.552 22.16C359.32 24.32 359.128 26.024 357.976 27.272C356.872 28.52 355.288 29.144 353.224 29.144C352.504 29.144 351.856 29.072 351.28 28.928C350.704 28.784 350.128 28.616 349.552 28.424C348.976 28.232 348.328 28.064 347.608 27.92C346.936 27.776 346.072 27.704 345.016 27.704C342.952 27.704 341.128 28.4 339.544 29.792C337.96 31.184 336.616 33.032 335.512 35.336C334.456 37.64 333.64 40.28 333.064 43.256C332.488 46.184 332.2 49.208 332.2 52.328C332.2 55.592 332.2 58.52 332.2 61.112C332.2 63.704 332.368 65.912 332.704 67.736C333.088 69.512 333.736 70.88 334.648 71.84C335.56 72.8 336.952 73.28 338.824 73.28V74H318.376V73.28C320.248 73.28 321.64 72.8 322.552 71.84C323.512 70.832 324.16 69.368 324.496 67.448C324.88 65.48 325.048 63.056 325 60.176C325 57.248 325 53.864 325 50.024C325 46.184 325 42.824 325 39.944C325.048 37.016 324.88 34.592 324.496 32.672C324.16 30.704 323.512 29.24 322.552 28.28C321.64 27.272 320.248 26.768 318.376 26.768V26.048Z" fill="#FE79F3"/>
<path d="M356.818 48.08C356.818 44.336 357.538 40.832 358.978 37.568C360.418 34.304 362.362 31.448 364.81 29C367.306 26.552 370.186 24.632 373.45 23.24C376.762 21.8 380.266 21.08 383.962 21.08C387.658 21.08 390.826 21.632 393.466 22.736C396.106 23.84 398.266 25.208 399.946 26.84C401.626 28.424 402.85 30.152 403.618 32.024C404.434 33.896 404.842 35.6 404.842 37.136C404.842 38.672 404.554 39.92 403.978 40.88C403.402 41.84 402.658 42.608 401.746 43.184C400.834 43.712 399.802 44.072 398.65 44.264C397.546 44.456 396.442 44.552 395.338 44.552H362.938C362.938 48.008 363.61 51.248 364.954 54.272C366.298 57.248 368.098 59.84 370.354 62.048C372.658 64.256 375.298 65.984 378.274 67.232C381.25 68.48 384.394 69.104 387.706 69.104C390.154 69.104 392.458 68.768 394.618 68.096C396.778 67.376 398.722 66.44 400.45 65.288C402.226 64.088 403.738 62.696 404.986 61.112C406.282 59.48 407.29 57.776 408.01 56L408.73 56.288C408.01 59.024 406.858 61.544 405.274 63.848C403.738 66.104 401.866 68.072 399.658 69.752C397.498 71.432 395.074 72.752 392.386 73.712C389.746 74.624 386.938 75.08 383.962 75.08C380.266 75.08 376.762 74.384 373.45 72.992C370.186 71.552 367.306 69.608 364.81 67.16C362.362 64.712 360.418 61.856 358.978 58.592C357.538 55.328 356.818 51.824 356.818 48.08ZM382.378 42.68C384.25 42.68 386.074 42.632 387.85 42.536C389.674 42.44 391.282 42.176 392.674 41.744C394.114 41.312 395.266 40.664 396.13 39.8C397.042 38.936 397.498 37.736 397.498 36.2C397.498 34.232 397.09 32.48 396.274 30.944C395.506 29.408 394.378 28.088 392.89 26.984C391.45 25.88 389.698 25.04 387.634 24.464C385.618 23.888 383.362 23.6 380.866 23.6C378.178 23.6 375.754 24.08 373.594 25.04C371.482 25.952 369.658 27.248 368.122 28.928C366.586 30.608 365.362 32.648 364.45 35.048C363.586 37.448 363.082 40.112 362.938 43.04C364.714 42.992 366.346 42.944 367.834 42.896C369.37 42.848 370.882 42.824 372.37 42.824C373.858 42.776 375.394 42.752 376.978 42.752C378.61 42.704 380.41 42.68 382.378 42.68Z" fill="#FE79F3"/>
<path d="M411.996 63.056C411.996 59.264 413.028 56.096 415.092 53.552C417.156 51.008 419.748 48.728 422.868 46.712C426.036 44.696 429.468 42.776 433.164 40.952C436.908 39.128 440.412 37.064 443.676 34.76C443.1 32.744 442.572 30.968 442.092 29.432C441.612 27.896 441.06 26.624 440.436 25.616C439.812 24.608 439.092 23.84 438.276 23.312C437.508 22.784 436.548 22.52 435.396 22.52C433.764 22.52 432.204 23.072 430.716 24.176C429.228 25.28 427.764 26.48 426.324 27.776C424.932 29.072 423.516 30.272 422.076 31.376C420.636 32.48 419.148 33.032 417.612 33.032C416.364 33.032 415.332 32.648 414.516 31.88C413.7 31.064 413.412 30.032 413.652 28.784C414.036 28.064 414.9 27.272 416.244 26.408C417.636 25.496 419.316 24.656 421.284 23.888C423.3 23.072 425.508 22.4 427.908 21.872C430.308 21.344 432.708 21.08 435.108 21.08C438.66 21.08 441.492 21.944 443.604 23.672C445.764 25.4 447.516 27.632 448.86 30.368C450.204 33.104 451.308 36.176 452.172 39.584C453.036 42.944 453.996 46.256 455.052 49.52C456.588 54.32 457.86 58.28 458.868 61.4C459.876 64.472 460.86 66.896 461.82 68.672C462.78 70.4 463.836 71.6 464.988 72.272C466.14 72.944 467.604 73.28 469.38 73.28V74H458.436C457.572 74 456.852 73.88 456.276 73.64C455.7 73.4 455.196 72.968 454.764 72.344C454.38 71.72 453.996 70.856 453.612 69.752C453.276 68.6 452.868 67.16 452.388 65.432C452.244 64.952 451.98 64.04 451.596 62.696C451.212 61.352 450.756 59.792 450.228 58.016C449.748 56.192 449.196 54.248 448.572 52.184C447.996 50.12 447.444 48.152 446.916 46.28C446.34 50.216 445.428 53.936 444.18 57.44C442.932 60.896 441.372 63.944 439.5 66.584C437.628 69.176 435.444 71.24 432.948 72.776C430.452 74.312 427.644 75.08 424.524 75.08C422.508 75.08 420.708 74.768 419.124 74.144C417.588 73.52 416.292 72.656 415.236 71.552C414.18 70.448 413.364 69.176 412.788 67.736C412.26 66.248 411.996 64.688 411.996 63.056ZM419.196 61.688C419.196 64.088 419.94 66.056 421.428 67.592C422.964 69.128 424.932 69.896 427.332 69.896C429.78 69.896 431.94 69.344 433.812 68.24C435.684 67.088 437.292 65.624 438.636 63.848C440.028 62.072 441.18 60.08 442.092 57.872C443.004 55.616 443.7 53.408 444.18 51.248C444.708 49.088 445.044 47.048 445.188 45.128C445.332 43.208 445.356 41.672 445.26 40.52C445.02 39.8 444.804 39.08 444.612 38.36C444.468 37.64 444.3 36.896 444.108 36.128C441.42 38.144 438.612 40.064 435.684 41.888C432.756 43.664 430.068 45.536 427.62 47.504C425.172 49.424 423.156 51.512 421.572 53.768C419.988 56.024 419.196 58.664 419.196 61.688Z" fill="#FE79F3"/>
<path d="M471.165 73.28C473.037 73.28 474.429 72.8 475.341 71.84C476.301 70.832 476.949 69.368 477.285 67.448C477.669 65.48 477.837 63.056 477.789 60.176C477.789 57.248 477.789 53.864 477.789 50.024C477.789 46.184 477.789 42.824 477.789 39.944C477.837 37.016 477.669 34.592 477.285 32.672C476.949 30.704 476.301 29.24 475.341 28.28C474.429 27.272 473.037 26.768 471.165 26.768V26.048C473.517 26.048 475.917 25.568 478.365 24.608C480.813 23.648 483.045 22.472 485.061 21.08C485.061 22.76 485.061 24.632 485.061 26.696C485.013 28.424 484.989 30.488 484.989 32.888C484.989 35.24 484.989 37.808 484.989 40.592C485.709 38.432 486.645 36.2 487.797 33.896C488.949 31.592 490.293 29.504 491.829 27.632C493.365 25.712 495.069 24.152 496.941 22.952C498.813 21.704 500.829 21.08 502.989 21.08C505.053 21.08 506.757 21.8 508.101 23.24C509.445 24.632 510.573 26.408 511.485 28.568C512.397 30.728 513.165 33.08 513.789 35.624C514.413 38.12 515.037 40.472 515.661 42.68C515.853 43.208 515.973 43.664 516.021 44.048C516.549 41.84 517.365 39.416 518.469 36.776C519.621 34.088 521.013 31.592 522.645 29.288C524.277 26.936 526.125 24.992 528.189 23.456C530.301 21.872 532.581 21.08 535.029 21.08C537.093 21.08 538.797 21.8 540.141 23.24C541.485 24.632 542.613 26.408 543.525 28.568C544.437 30.728 545.205 33.08 545.829 35.624C546.453 38.12 547.077 40.472 547.701 42.68C548.613 45.848 549.525 49.232 550.437 52.832C551.349 56.432 552.357 59.744 553.461 62.768C554.613 65.792 555.909 68.312 557.349 70.328C558.837 72.296 560.589 73.28 562.605 73.28V74H553.245C551.805 74 550.605 73.544 549.645 72.632C548.733 71.672 547.917 70.376 547.197 68.744C546.525 67.064 545.901 65.12 545.325 62.912C544.797 60.704 544.221 58.328 543.597 55.784C543.069 53.624 542.493 51.248 541.869 48.656C541.245 46.016 540.669 43.616 540.141 41.456C539.565 39.2 538.989 37.136 538.413 35.264C537.837 33.392 537.189 31.784 536.469 30.44C535.797 29.096 535.029 28.04 534.165 27.272C533.349 26.504 532.413 26.12 531.357 26.12C529.629 26.12 527.925 26.864 526.245 28.352C524.565 29.792 523.053 31.616 521.709 33.824C520.413 35.984 519.333 38.336 518.469 40.88C517.653 43.424 517.173 45.752 517.029 47.864C517.845 50.84 518.661 53.84 519.477 56.864C520.341 59.888 521.301 62.624 522.357 65.072C523.413 67.472 524.613 69.44 525.957 70.976C527.301 72.512 528.837 73.28 530.565 73.28V74H521.205C519.765 74 518.565 73.544 517.605 72.632C516.693 71.672 515.877 70.376 515.157 68.744C514.485 67.064 513.861 65.12 513.285 62.912C512.757 60.704 512.181 58.328 511.557 55.784C511.029 53.624 510.453 51.248 509.829 48.656C509.205 46.016 508.629 43.616 508.101 41.456C507.525 39.2 506.949 37.136 506.373 35.264C505.797 33.392 505.149 31.784 504.429 30.44C503.757 29.096 502.989 28.04 502.125 27.272C501.309 26.504 500.373 26.12 499.317 26.12C497.541 26.12 495.789 26.912 494.061 28.496C492.333 30.032 490.797 31.952 489.453 34.256C488.157 36.56 487.077 39.032 486.213 41.672C485.397 44.264 484.989 46.616 484.989 48.728V50.024C484.989 53.864 484.989 57.248 484.989 60.176C484.989 63.056 485.157 65.48 485.493 67.448C485.877 69.368 486.525 70.832 487.437 71.84C488.349 72.8 489.741 73.28 491.613 73.28V74H471.165V73.28Z" fill="#FE79F3"/>
<path d="M35.1441 102.92C38.7441 102.92 41.7921 103.304 44.2881 104.072C46.7841 104.792 48.8241 105.584 50.4081 106.448C52.2321 107.504 53.7441 108.704 54.9441 110.048C54.5601 111.824 53.8641 112.952 52.8561 113.432C51.8961 113.912 51.0081 114.152 50.1921 114.152C48.8961 114.152 47.4081 113.72 45.7281 112.856C44.0961 111.992 42.2961 111.056 40.3281 110.048C38.4081 109.04 36.3681 108.104 34.2081 107.24C32.0481 106.376 29.7681 105.944 27.3681 105.944C25.3041 105.944 23.1441 106.664 20.8881 108.104C18.6801 109.544 16.6401 111.608 14.7681 114.296C12.9441 116.936 11.4321 120.152 10.2321 123.944C9.08008 127.736 8.50408 132.008 8.50408 136.76C8.50408 141.896 9.36808 146.744 11.0961 151.304C12.8721 155.816 15.2001 159.752 18.0801 163.112C21.0081 166.472 24.3441 169.136 28.0881 171.104C31.8321 173.024 35.7201 173.984 39.7521 173.984C42.4401 173.984 44.7681 173.648 46.7361 172.976C48.7521 172.304 50.4321 171.416 51.7761 170.312C53.1681 169.208 54.2001 167.96 54.8721 166.568C55.5441 165.128 55.8801 163.64 55.8801 162.104C55.8801 161.144 55.7121 160.376 55.3761 159.8C55.0881 159.224 54.9441 158.48 54.9441 157.568C54.9441 157.04 55.0881 156.608 55.3761 156.272C55.7121 155.888 56.1441 155.696 56.6721 155.696C56.8641 155.696 57.1281 155.744 57.4641 155.84C57.8001 155.936 58.1121 156.128 58.4001 156.416C58.7361 156.704 59.0001 157.136 59.1921 157.712C59.4321 158.24 59.5521 158.984 59.5521 159.944C59.5521 161.864 58.9761 163.832 57.8241 165.848C56.7201 167.864 55.1121 169.712 53.0001 171.392C50.9361 173.024 48.3921 174.392 45.3681 175.496C42.3441 176.552 38.9361 177.08 35.1441 177.08C30.5361 177.08 26.2161 176.12 22.1841 174.2C18.1521 172.232 14.6241 169.568 11.6001 166.208C8.62408 162.848 6.24808 158.912 4.47208 154.4C2.74408 149.888 1.88008 145.088 1.88008 140C1.88008 134.864 2.69608 130.064 4.32808 125.6C5.96008 121.088 8.24008 117.152 11.1681 113.792C14.1441 110.432 17.6721 107.792 21.7521 105.872C25.8321 103.904 30.2961 102.92 35.1441 102.92Z" fill="#FE79F3"/>
<path d="M62.8241 165.056C62.8241 161.264 63.8561 158.096 65.9201 155.552C67.9841 153.008 70.5761 150.728 73.6961 148.712C76.8641 146.696 80.2961 144.776 83.9921 142.952C87.7361 141.128 91.2401 139.064 94.5041 136.76C93.9281 134.744 93.4001 132.968 92.9201 131.432C92.4401 129.896 91.8881 128.624 91.2641 127.616C90.6401 126.608 89.9201 125.84 89.1041 125.312C88.3361 124.784 87.3761 124.52 86.2241 124.52C84.5921 124.52 83.0321 125.072 81.5441 126.176C80.0561 127.28 78.5921 128.48 77.1521 129.776C75.7601 131.072 74.3441 132.272 72.9041 133.376C71.4641 134.48 69.9761 135.032 68.4401 135.032C67.1921 135.032 66.1601 134.648 65.3441 133.88C64.5281 133.064 64.2401 132.032 64.4801 130.784C64.8641 130.064 65.7281 129.272 67.0721 128.408C68.4641 127.496 70.1441 126.656 72.1121 125.888C74.1281 125.072 76.3361 124.4 78.7361 123.872C81.1361 123.344 83.5361 123.08 85.9361 123.08C89.4881 123.08 92.3201 123.944 94.4321 125.672C96.5921 127.4 98.3441 129.632 99.6881 132.368C101.032 135.104 102.136 138.176 103 141.584C103.864 144.944 104.824 148.256 105.88 151.52C107.416 156.32 108.688 160.28 109.696 163.4C110.704 166.472 111.688 168.896 112.648 170.672C113.608 172.4 114.664 173.6 115.816 174.272C116.968 174.944 118.432 175.28 120.208 175.28V176H109.264C108.4 176 107.68 175.88 107.104 175.64C106.528 175.4 106.024 174.968 105.592 174.344C105.208 173.72 104.824 172.856 104.44 171.752C104.104 170.6 103.696 169.16 103.216 167.432C103.072 166.952 102.808 166.04 102.424 164.696C102.04 163.352 101.584 161.792 101.056 160.016C100.576 158.192 100.024 156.248 99.4001 154.184C98.8241 152.12 98.2721 150.152 97.7441 148.28C97.1681 152.216 96.2561 155.936 95.0081 159.44C93.7601 162.896 92.2001 165.944 90.3281 168.584C88.4561 171.176 86.2721 173.24 83.7761 174.776C81.2801 176.312 78.4721 177.08 75.3521 177.08C73.3361 177.08 71.5361 176.768 69.9521 176.144C68.4161 175.52 67.1201 174.656 66.0641 173.552C65.0081 172.448 64.1921 171.176 63.6161 169.736C63.0881 168.248 62.8241 166.688 62.8241 165.056ZM70.0241 163.688C70.0241 166.088 70.7681 168.056 72.2561 169.592C73.7921 171.128 75.7601 171.896 78.1601 171.896C80.6081 171.896 82.7681 171.344 84.6401 170.24C86.5121 169.088 88.1201 167.624 89.4641 165.848C90.8561 164.072 92.0081 162.08 92.9201 159.872C93.8321 157.616 94.5281 155.408 95.0081 153.248C95.5361 151.088 95.8721 149.048 96.0161 147.128C96.1601 145.208 96.1841 143.672 96.0881 142.52C95.8481 141.8 95.6321 141.08 95.4401 140.36C95.2961 139.64 95.1281 138.896 94.9361 138.128C92.2481 140.144 89.4401 142.064 86.5121 143.888C83.5841 145.664 80.8961 147.536 78.4481 149.504C76.0001 151.424 73.9841 153.512 72.4001 155.768C70.8161 158.024 70.0241 160.664 70.0241 163.688Z" fill="#FE79F3"/>
<path d="M121.994 175.28C123.866 175.28 125.258 174.8 126.17 173.84C127.13 172.832 127.778 171.368 128.114 169.448C128.498 167.48 128.666 165.056 128.618 162.176C128.618 159.248 128.618 155.864 128.618 152.024C128.618 148.184 128.618 144.824 128.618 141.944C128.666 139.016 128.498 136.592 128.114 134.672C127.778 132.704 127.13 131.24 126.17 130.28C125.258 129.272 123.866 128.768 121.994 128.768V128.048C124.346 128.048 126.746 127.568 129.194 126.608C131.642 125.648 133.874 124.472 135.89 123.08C135.89 124.76 135.89 126.632 135.89 128.696C135.842 130.424 135.818 132.488 135.818 134.888C135.818 137.24 135.818 139.808 135.818 142.592C136.538 140.432 137.474 138.2 138.626 135.896C139.778 133.592 141.122 131.504 142.658 129.632C144.194 127.712 145.898 126.152 147.77 124.952C149.642 123.704 151.658 123.08 153.818 123.08C155.882 123.08 157.586 123.8 158.93 125.24C160.274 126.632 161.402 128.408 162.314 130.568C163.226 132.728 163.994 135.08 164.618 137.624C165.242 140.12 165.866 142.472 166.49 144.68C166.682 145.208 166.802 145.664 166.85 146.048C167.378 143.84 168.194 141.416 169.298 138.776C170.45 136.088 171.842 133.592 173.474 131.288C175.106 128.936 176.954 126.992 179.018 125.456C181.13 123.872 183.41 123.08 185.858 123.08C187.922 123.08 189.626 123.8 190.97 125.24C192.314 126.632 193.442 128.408 194.354 130.568C195.266 132.728 196.034 135.08 196.658 137.624C197.282 140.12 197.906 142.472 198.53 144.68C199.442 147.848 200.354 151.232 201.266 154.832C202.178 158.432 203.186 161.744 204.29 164.768C205.442 167.792 206.738 170.312 208.178 172.328C209.666 174.296 211.418 175.28 213.434 175.28V176H204.074C202.634 176 201.434 175.544 200.474 174.632C199.562 173.672 198.746 172.376 198.026 170.744C197.354 169.064 196.73 167.12 196.154 164.912C195.626 162.704 195.05 160.328 194.426 157.784C193.898 155.624 193.322 153.248 192.698 150.656C192.074 148.016 191.498 145.616 190.97 143.456C190.394 141.2 189.818 139.136 189.242 137.264C188.666 135.392 188.018 133.784 187.298 132.44C186.626 131.096 185.858 130.04 184.994 129.272C184.178 128.504 183.242 128.12 182.186 128.12C180.458 128.12 178.754 128.864 177.074 130.352C175.394 131.792 173.882 133.616 172.538 135.824C171.242 137.984 170.162 140.336 169.298 142.88C168.482 145.424 168.002 147.752 167.858 149.864C168.674 152.84 169.49 155.84 170.306 158.864C171.17 161.888 172.13 164.624 173.186 167.072C174.242 169.472 175.442 171.44 176.786 172.976C178.13 174.512 179.666 175.28 181.394 175.28V176H172.034C170.594 176 169.394 175.544 168.434 174.632C167.522 173.672 166.706 172.376 165.986 170.744C165.314 169.064 164.69 167.12 164.114 164.912C163.586 162.704 163.01 160.328 162.386 157.784C161.858 155.624 161.282 153.248 160.658 150.656C160.034 148.016 159.458 145.616 158.93 143.456C158.354 141.2 157.778 139.136 157.202 137.264C156.626 135.392 155.978 133.784 155.258 132.44C154.586 131.096 153.818 130.04 152.954 129.272C152.138 128.504 151.202 128.12 150.146 128.12C148.37 128.12 146.618 128.912 144.89 130.496C143.162 132.032 141.626 133.952 140.282 136.256C138.986 138.56 137.906 141.032 137.042 143.672C136.226 146.264 135.818 148.616 135.818 150.728V152.024C135.818 155.864 135.818 159.248 135.818 162.176C135.818 165.056 135.986 167.48 136.322 169.448C136.706 171.368 137.354 172.832 138.266 173.84C139.178 174.8 140.57 175.28 142.442 175.28V176H121.994V175.28Z" fill="#FE79F3"/>
<path d="M212.697 128.048C215.049 128.048 217.449 127.568 219.897 126.608C222.345 125.648 224.577 124.472 226.593 123.08C226.593 123.896 226.593 124.832 226.593 125.888C226.593 126.848 226.593 127.976 226.593 129.272C226.593 130.52 226.569 131.936 226.521 133.52C228.441 130.496 230.889 128 233.865 126.032C236.889 124.064 240.369 123.08 244.305 123.08C247.857 123.08 251.001 123.728 253.737 125.024C256.521 126.272 258.849 128 260.721 130.208C262.641 132.416 264.081 135.008 265.041 137.984C266.049 140.96 266.553 144.152 266.553 147.56C266.553 151.448 265.785 155.168 264.249 158.72C262.713 162.272 260.601 165.416 257.913 168.152C255.273 170.84 252.129 173 248.481 174.632C244.881 176.264 240.993 177.08 236.817 177.08C234.705 177.08 232.881 176.912 231.345 176.576C229.857 176.24 228.249 175.592 226.521 174.632V178.088C226.521 181.928 226.521 185.288 226.521 188.168C226.521 191.096 226.689 193.52 227.025 195.44C227.409 197.408 228.057 198.872 228.969 199.832C229.881 200.84 231.273 201.344 233.145 201.344V202.064H212.697V201.344C214.569 201.344 215.961 200.84 216.873 199.832C217.833 198.872 218.481 197.408 218.817 195.44C219.201 193.52 219.369 191.096 219.321 188.168C219.321 185.288 219.321 181.928 219.321 178.088V148.712C219.321 145.496 219.297 142.664 219.249 140.216C219.201 137.72 218.985 135.632 218.601 133.952C218.217 132.224 217.569 130.928 216.657 130.064C215.745 129.2 214.425 128.768 212.697 128.768V128.048ZM237.609 175.496C241.017 175.496 244.065 174.728 246.753 173.192C249.441 171.656 251.697 169.64 253.521 167.144C255.393 164.648 256.809 161.792 257.769 158.576C258.777 155.36 259.281 152.072 259.281 148.712C259.281 145.592 258.921 142.64 258.201 139.856C257.529 137.072 256.497 134.624 255.105 132.512C253.713 130.352 251.961 128.624 249.849 127.328C247.737 126.032 245.241 125.336 242.361 125.24C240.441 125.192 238.665 125.48 237.033 126.104C235.449 126.728 233.985 127.592 232.641 128.696C231.345 129.8 230.169 131.12 229.113 132.656C228.105 134.144 227.241 135.752 226.521 137.48V169.808C227.865 171.248 229.497 172.568 231.417 173.768C233.385 174.92 235.449 175.496 237.609 175.496Z" fill="#FE79F3"/>
<path d="M271.582 165.056C271.582 161.264 272.614 158.096 274.678 155.552C276.742 153.008 279.334 150.728 282.454 148.712C285.622 146.696 289.054 144.776 292.75 142.952C296.494 141.128 299.998 139.064 303.262 136.76C302.686 134.744 302.158 132.968 301.678 131.432C301.198 129.896 300.646 128.624 300.022 127.616C299.398 126.608 298.678 125.84 297.862 125.312C297.094 124.784 296.134 124.52 294.982 124.52C293.35 124.52 291.79 125.072 290.302 126.176C288.814 127.28 287.35 128.48 285.91 129.776C284.518 131.072 283.102 132.272 281.662 133.376C280.222 134.48 278.734 135.032 277.198 135.032C275.95 135.032 274.918 134.648 274.102 133.88C273.286 133.064 272.998 132.032 273.238 130.784C273.622 130.064 274.486 129.272 275.83 128.408C277.222 127.496 278.902 126.656 280.87 125.888C282.886 125.072 285.094 124.4 287.494 123.872C289.894 123.344 292.294 123.08 294.694 123.08C298.246 123.08 301.078 123.944 303.19 125.672C305.35 127.4 307.102 129.632 308.446 132.368C309.79 135.104 310.894 138.176 311.758 141.584C312.622 144.944 313.582 148.256 314.638 151.52C316.174 156.32 317.446 160.28 318.454 163.4C319.462 166.472 320.446 168.896 321.406 170.672C322.366 172.4 323.422 173.6 324.574 174.272C325.726 174.944 327.19 175.28 328.966 175.28V176H318.022C317.158 176 316.438 175.88 315.862 175.64C315.286 175.4 314.782 174.968 314.35 174.344C313.966 173.72 313.582 172.856 313.198 171.752C312.862 170.6 312.454 169.16 311.974 167.432C311.83 166.952 311.566 166.04 311.182 164.696C310.798 163.352 310.342 161.792 309.814 160.016C309.334 158.192 308.782 156.248 308.158 154.184C307.582 152.12 307.03 150.152 306.502 148.28C305.926 152.216 305.014 155.936 303.766 159.44C302.518 162.896 300.958 165.944 299.086 168.584C297.214 171.176 295.03 173.24 292.534 174.776C290.038 176.312 287.23 177.08 284.11 177.08C282.094 177.08 280.294 176.768 278.71 176.144C277.174 175.52 275.878 174.656 274.822 173.552C273.766 172.448 272.95 171.176 272.374 169.736C271.846 168.248 271.582 166.688 271.582 165.056ZM278.782 163.688C278.782 166.088 279.526 168.056 281.014 169.592C282.55 171.128 284.518 171.896 286.918 171.896C289.366 171.896 291.526 171.344 293.398 170.24C295.27 169.088 296.878 167.624 298.222 165.848C299.614 164.072 300.766 162.08 301.678 159.872C302.59 157.616 303.286 155.408 303.766 153.248C304.294 151.088 304.63 149.048 304.774 147.128C304.918 145.208 304.942 143.672 304.846 142.52C304.606 141.8 304.39 141.08 304.198 140.36C304.054 139.64 303.886 138.896 303.694 138.128C301.006 140.144 298.198 142.064 295.27 143.888C292.342 145.664 289.654 147.536 287.206 149.504C284.758 151.424 282.742 153.512 281.158 155.768C279.574 158.024 278.782 160.664 278.782 163.688Z" fill="#FE79F3"/>
<path d="M330.751 176V175.28C332.623 175.28 334.015 174.8 334.927 173.84C335.887 172.832 336.535 171.368 336.871 169.448C337.255 167.48 337.423 165.056 337.375 162.176C337.375 159.248 337.375 155.864 337.375 152.024C337.375 148.184 337.375 144.824 337.375 141.944C337.423 139.016 337.255 136.592 336.871 134.672C336.535 132.704 335.887 131.24 334.927 130.28C334.015 129.272 332.623 128.768 330.751 128.768V128.048C333.103 128.048 335.503 127.568 337.951 126.608C340.399 125.648 342.631 124.472 344.647 123.08C344.647 125.768 344.647 128.672 344.647 131.792C344.599 134.48 344.575 137.552 344.575 141.008C344.575 144.464 344.575 148.136 344.575 152.024C344.575 155.864 344.575 159.248 344.575 162.176C344.575 165.056 344.743 167.48 345.079 169.448C345.463 171.368 346.111 172.832 347.023 173.84C347.935 174.8 349.327 175.28 351.199 175.28V176H330.751ZM340.471 107.96C342.295 107.96 343.855 108.608 345.151 109.904C346.447 111.152 347.095 112.688 347.095 114.512C347.095 116.336 346.447 117.896 345.151 119.192C343.855 120.488 342.295 121.136 340.471 121.136C338.647 121.136 337.087 120.488 335.791 119.192C334.543 117.896 333.919 116.336 333.919 114.512C333.919 112.688 334.543 111.152 335.791 109.904C337.087 108.608 338.647 107.96 340.471 107.96Z" fill="#FE79F3"/>
<path d="M354.779 146.696C354.779 143.288 355.283 140.36 356.291 137.912C357.347 135.416 358.787 133.28 360.611 131.504C362.435 129.68 364.595 128.12 367.091 126.824C369.587 125.528 372.251 124.352 375.083 123.296C377.963 122.192 380.963 121.136 384.083 120.128C387.203 119.12 390.323 118.016 393.443 116.816L394.379 119.768L378.179 124.16C381.347 124.112 384.395 124.64 387.323 125.744C390.251 126.848 392.819 128.408 395.027 130.424C397.283 132.44 399.059 134.84 400.355 137.624C401.699 140.408 402.371 143.432 402.371 146.696C402.371 149.096 401.987 151.4 401.219 153.608C400.451 155.768 399.395 157.784 398.051 159.656C396.707 161.48 395.099 163.088 393.227 164.48C391.355 165.872 389.291 166.976 387.035 167.792C383.915 169.136 380.939 170.384 378.107 171.536C375.275 172.688 372.779 173.816 370.619 174.92C368.459 176.024 366.731 177.104 365.435 178.16C364.139 179.216 363.491 180.32 363.491 181.472C363.491 182.288 363.755 182.912 364.283 183.344C364.859 183.824 365.579 184.064 366.443 184.064C368.843 184.064 371.171 183.488 373.427 182.336C375.731 181.184 378.083 179.888 380.483 178.448C382.931 177.056 385.499 175.784 388.187 174.632C390.923 173.48 393.875 172.904 397.043 172.904C399.635 172.904 401.651 173.648 403.091 175.136C404.579 176.624 405.323 178.424 405.323 180.536C405.323 182.792 404.627 184.616 403.235 186.008C401.843 187.448 400.067 188.6 397.907 189.464C395.747 190.376 393.371 191.12 390.779 191.696C388.187 192.32 385.715 192.968 383.363 193.64C381.011 194.312 378.923 195.08 377.099 195.944C375.323 196.856 374.123 198.08 373.499 199.616C373.307 200.096 373.163 200.624 373.067 201.2C373.019 201.776 372.923 202.304 372.779 202.784C372.683 203.312 372.515 203.744 372.275 204.08C372.035 204.416 371.651 204.584 371.123 204.584C370.595 204.584 370.115 204.392 369.683 204.008C369.299 203.624 369.107 203.096 369.107 202.424C369.107 200.264 369.899 198.512 371.483 197.168C373.115 195.824 375.131 194.696 377.531 193.784C379.931 192.872 382.523 192.104 385.307 191.48C388.139 190.856 390.755 190.184 393.155 189.464C395.603 188.744 397.619 187.88 399.203 186.872C400.835 185.912 401.651 184.64 401.651 183.056C401.651 182.192 401.315 181.352 400.643 180.536C400.019 179.768 398.939 179.384 397.403 179.384C395.003 179.384 392.555 179.96 390.059 181.112C387.563 182.264 384.995 183.536 382.355 184.928C379.763 186.368 377.099 187.664 374.363 188.816C371.627 189.968 368.795 190.544 365.867 190.544C363.515 190.544 361.547 189.944 359.963 188.744C358.427 187.592 357.659 186.008 357.659 183.992C357.659 182.168 358.355 180.584 359.747 179.24C361.187 177.896 362.963 176.696 365.075 175.64C367.187 174.536 369.467 173.504 371.915 172.544C374.411 171.536 376.739 170.456 378.899 169.304C375.731 169.352 372.683 168.824 369.755 167.72C366.875 166.568 364.307 164.984 362.051 162.968C359.843 160.952 358.067 158.552 356.723 155.768C355.427 152.984 354.779 149.96 354.779 146.696ZM360.827 142.376C360.827 145.448 361.451 148.424 362.699 151.304C363.995 154.136 365.699 156.656 367.811 158.864C369.923 161.072 372.371 162.848 375.155 164.192C377.939 165.488 380.867 166.136 383.939 166.136C385.955 166.136 387.731 165.752 389.267 164.984C390.803 164.168 392.075 163.064 393.083 161.672C394.139 160.28 394.931 158.648 395.459 156.776C395.987 154.856 396.251 152.816 396.251 150.656C396.251 147.584 395.627 144.632 394.379 141.8C393.131 138.92 391.427 136.376 389.267 134.168C387.155 131.96 384.707 130.208 381.923 128.912C379.139 127.568 376.211 126.896 373.139 126.896C371.123 126.896 369.347 127.304 367.811 128.12C366.275 128.888 364.979 129.968 363.923 131.36C362.915 132.752 362.147 134.384 361.619 136.256C361.091 138.128 360.827 140.168 360.827 142.376Z" fill="#FE79F3"/>
<path d="M406.056 128.048C408.408 128.048 410.808 127.568 413.256 126.608C415.704 125.648 417.936 124.472 419.952 123.08C419.952 124.76 419.952 126.632 419.952 128.696C419.904 130.424 419.88 132.488 419.88 134.888C419.88 137.24 419.88 139.808 419.88 142.592C420.6 140.432 421.536 138.2 422.688 135.896C423.84 133.592 425.184 131.504 426.72 129.632C428.256 127.712 429.96 126.152 431.832 124.952C433.704 123.704 435.72 123.08 437.88 123.08C439.944 123.08 441.648 123.8 442.992 125.24C444.336 126.632 445.464 128.408 446.376 130.568C447.288 132.728 448.056 135.08 448.68 137.624C449.304 140.12 449.928 142.472 450.552 144.68C451.464 147.848 452.376 151.232 453.288 154.832C454.2 158.432 455.208 161.744 456.312 164.768C457.464 167.792 458.76 170.312 460.2 172.328C461.688 174.296 463.44 175.28 465.456 175.28V176H456.096C454.656 176 453.456 175.544 452.496 174.632C451.584 173.672 450.768 172.376 450.048 170.744C449.376 169.064 448.752 167.12 448.176 164.912C447.648 162.704 447.072 160.328 446.448 157.784C445.92 155.624 445.344 153.248 444.72 150.656C444.096 148.016 443.52 145.616 442.992 143.456C442.416 141.2 441.84 139.136 441.264 137.264C440.688 135.392 440.04 133.784 439.32 132.44C438.648 131.096 437.88 130.04 437.016 129.272C436.2 128.504 435.264 128.12 434.208 128.12C432.384 128.12 430.608 128.912 428.88 130.496C427.2 132.032 425.688 133.952 424.344 136.256C423 138.56 421.92 141.032 421.104 143.672C420.288 146.264 419.88 148.616 419.88 150.728V152.024C419.88 155.864 419.88 159.248 419.88 162.176C419.88 165.056 420.048 167.48 420.384 169.448C420.768 171.368 421.416 172.832 422.328 173.84C423.24 174.8 424.632 175.28 426.504 175.28V176H406.056V175.28C407.928 175.28 409.32 174.8 410.232 173.84C411.192 172.832 411.84 171.368 412.176 169.448C412.56 167.48 412.728 165.056 412.68 162.176C412.68 159.248 412.68 155.864 412.68 152.024C412.68 148.184 412.68 144.824 412.68 141.944C412.728 139.016 412.56 136.592 412.176 134.672C411.84 132.704 411.192 131.24 410.232 130.28C409.32 129.272 407.928 128.768 406.056 128.768V128.048Z" fill="#FE79F3"/>
<path d="M488.69 123.08C492.722 123.08 496.298 123.584 499.418 124.592C502.538 125.552 505.49 127.112 508.274 129.272C508.514 130.712 508.178 131.936 507.266 132.944C506.354 133.952 505.154 134.456 503.666 134.456C502.082 134.456 500.714 133.976 499.562 133.016C498.458 132.008 497.258 130.904 495.962 129.704C494.666 128.504 493.13 127.424 491.354 126.464C489.626 125.456 487.346 124.952 484.514 124.952C483.218 124.952 481.826 125.168 480.338 125.6C478.85 125.984 477.482 126.584 476.234 127.4C474.986 128.216 473.954 129.248 473.138 130.496C472.322 131.696 471.914 133.112 471.914 134.744C471.914 137.384 472.85 139.4 474.722 140.792C476.642 142.136 479.018 143.24 481.85 144.104C484.73 144.968 487.826 145.736 491.138 146.408C494.498 147.08 497.594 148.016 500.426 149.216C503.306 150.368 505.682 152 507.554 154.112C509.474 156.176 510.434 159.032 510.434 162.68C510.434 165.176 509.786 167.336 508.49 169.16C507.242 170.984 505.586 172.496 503.522 173.696C501.458 174.848 499.154 175.688 496.61 176.216C494.114 176.792 491.594 177.08 489.05 177.08C486.698 177.08 484.586 176.936 482.714 176.648C480.89 176.408 479.162 176.024 477.53 175.496C475.898 174.968 474.29 174.272 472.706 173.408C471.17 172.544 469.514 171.512 467.738 170.312V155.48H468.458C468.986 158.216 469.874 160.808 471.122 163.256C472.37 165.656 473.93 167.768 475.802 169.592C477.674 171.416 479.81 172.856 482.21 173.912C484.658 174.968 487.322 175.496 490.202 175.496C492.026 175.496 493.826 175.256 495.602 174.776C497.426 174.296 499.034 173.6 500.426 172.688C501.866 171.728 503.018 170.552 503.882 169.16C504.794 167.72 505.25 166.088 505.25 164.264C505.25 162.392 504.674 160.856 503.522 159.656C502.418 158.408 500.954 157.376 499.13 156.56C497.306 155.696 495.218 154.976 492.866 154.4C490.514 153.824 488.114 153.248 485.666 152.672C483.266 152.048 480.89 151.376 478.538 150.656C476.186 149.936 474.098 149.024 472.274 147.92C470.45 146.816 468.962 145.448 467.81 143.816C466.706 142.184 466.154 140.192 466.154 137.84C466.154 135.296 466.85 133.112 468.242 131.288C469.634 129.416 471.41 127.88 473.57 126.68C475.778 125.48 478.202 124.592 480.842 124.016C483.53 123.392 486.146 123.08 488.69 123.08Z" fill="#FE79F3"/>
</svg>
