<svg width="563" height="205" viewBox="0 0 563 205" fill="none" xmlns="http://www.w3.org/2000/svg">
<path d="M27.4401 1.99999V2.71999C26.4321 2.71999 25.4481 2.76799 24.4881 2.86399C23.5761 2.91199 22.7121 3.07999 21.8961 3.36799C21.1281 3.65599 20.4561 4.06399 19.8801 4.59199C19.3041 5.11999 18.8721 5.86399 18.5841 6.82399C18.0561 8.55199 18.1521 10.976 18.8721 14.096C19.5921 17.168 20.7201 21.272 22.2561 26.408C22.9761 28.76 23.9361 31.856 25.1361 35.696C26.3841 39.536 27.6561 43.592 28.9521 47.864C30.2961 52.136 31.6161 56.36 32.9121 60.536C34.2081 64.664 35.2881 68.216 36.1521 71.192C36.8721 68.6 37.7121 65.36 38.6721 61.472C39.6801 57.584 40.6881 53.528 41.6961 49.304C42.7521 45.032 43.7601 40.832 44.7201 36.704C45.6801 32.528 46.5201 28.88 47.2401 25.76C46.1841 22.352 45.2001 19.232 44.2881 16.4C43.3761 13.568 42.3921 11.144 41.3361 9.12799C40.3281 7.11199 39.1761 5.55199 37.8801 4.44799C36.5841 3.29599 35.0241 2.71999 33.2001 2.71999V1.99999H60.5601V2.71999C59.5521 2.71999 58.5681 2.76799 57.6081 2.86399C56.6961 2.91199 55.8321 3.07999 55.0161 3.36799C54.2481 3.65599 53.5761 4.06399 53.0001 4.59199C52.4241 5.11999 51.9921 5.86399 51.7041 6.82399C51.1761 8.55199 51.2721 10.976 51.9921 14.096C52.7121 17.168 53.8401 21.272 55.3761 26.408C56.0961 28.76 57.0561 31.856 58.2561 35.696C59.5041 39.536 60.7761 43.592 62.0721 47.864C63.4161 52.136 64.7361 56.36 66.0321 60.536C67.3281 64.664 68.4081 68.216 69.2721 71.192C69.8961 68.984 70.6161 66.296 71.4321 63.128C72.2481 59.96 73.0881 56.6 73.9521 53.048C74.8161 49.448 75.6801 45.824 76.5441 42.176C77.4561 38.528 78.2721 35.12 78.9921 31.952C79.7601 28.736 80.4081 25.904 80.9361 23.456C81.4641 21.008 81.8241 19.232 82.0161 18.128C82.4961 15.392 82.7361 13.064 82.7361 11.144C82.7361 9.17599 82.3761 7.56799 81.6561 6.31999C80.9361 5.07199 79.7841 4.15999 78.2001 3.58399C76.6641 3.00799 74.5281 2.71999 71.7921 2.71999V1.99999H99.1521V2.71999C97.2801 2.71999 95.6721 3.31999 94.3281 4.51999C93.0321 5.67199 91.8561 7.32799 90.8001 9.48799C89.7441 11.6 88.7361 14.12 87.7761 17.048C86.8641 19.976 85.8561 23.216 84.7521 26.768C84.1761 28.64 83.5041 30.824 82.7361 33.32C81.9681 35.768 81.1521 38.36 80.2881 41.096C79.4721 43.784 78.6321 46.544 77.7681 49.376C76.9041 52.208 76.0641 54.92 75.2481 57.512C74.4321 60.104 73.6881 62.528 73.0161 64.784C72.3441 66.992 71.7681 68.84 71.2881 70.328C71.0961 70.904 70.9281 71.432 70.7841 71.912C70.6881 72.344 70.5921 72.704 70.4961 72.992C70.4001 73.376 70.3041 73.712 70.2081 74H62.1441C62.0481 73.712 61.9521 73.376 61.8561 72.992C61.7601 72.704 61.6401 72.344 61.4961 71.912C61.4001 71.432 61.2561 70.904 61.0641 70.328C60.4881 68.456 59.7441 66.056 58.8321 63.128C57.9201 60.152 56.9361 56.96 55.8801 53.552C54.8241 50.096 53.7441 46.616 52.6401 43.112C51.5841 39.56 50.5761 36.272 49.6161 33.248C48.7041 36.272 47.6961 39.56 46.5921 43.112C45.4881 46.616 44.4081 50.096 43.3521 53.552C42.3441 56.96 41.3601 60.152 40.4001 63.128C39.4881 66.056 38.7441 68.456 38.1681 70.328C37.9761 70.904 37.8081 71.432 37.6641 71.912C37.5681 72.344 37.4721 72.704 37.3761 72.992C37.2801 73.376 37.1841 73.712 37.0881 74H29.0241C28.9281 73.712 28.8321 73.376 28.7361 72.992C28.6401 72.704 28.5201 72.344 28.3761 71.912C28.2801 71.432 28.1361 70.904 27.9441 70.328C27.4641 68.84 26.8881 66.992 26.2161 64.784C25.5441 62.528 24.8001 60.104 23.9841 57.512C23.1681 54.92 22.3281 52.208 21.4641 49.376C20.6001 46.544 19.7361 43.784 18.8721 41.096C18.0561 38.36 17.2641 35.768 16.4961 33.32C15.7281 30.824 15.0561 28.64 14.4801 26.768C13.3761 23.216 12.3441 19.976 11.3841 17.048C10.4721 14.12 9.48808 11.6 8.43208 9.48799C7.37608 7.32799 6.17608 5.67199 4.83208 4.51999C3.53608 3.31999 1.95208 2.71999 0.0800781 2.71999V1.99999H27.4401Z" fill="#FE79F3"/>
<path d="M89.4191 48.08C89.4191 44.336 90.1391 40.832 91.5791 37.568C93.0191 34.304 94.9631 31.448 97.4111 29C99.9071 26.552 102.787 24.632 106.051 23.24C109.363 21.8 112.867 21.08 116.563 21.08C120.259 21.08 123.739 21.8 127.003 23.24C130.315 24.632 133.195 26.552 135.643 29C138.139 31.448 140.107 34.304 141.547 37.568C142.987 40.832 143.707 44.336 143.707 48.08C143.707 51.824 142.987 55.328 141.547 58.592C140.107 61.856 138.139 64.712 135.643 67.16C133.195 69.608 130.315 71.552 127.003 72.992C123.739 74.384 120.259 75.08 116.563 75.08C112.867 75.08 109.363 74.384 106.051 72.992C102.787 71.552 99.9071 69.608 97.4111 67.16C94.9631 64.712 93.0191 61.856 91.5791 58.592C90.1391 55.328 89.4191 51.824 89.4191 48.08ZM93.7391 44.552C93.8831 47.768 94.7951 50.96 96.4751 54.128C98.1551 57.248 100.315 60.056 102.955 62.552C105.643 65 108.691 66.992 112.099 68.528C115.507 70.016 119.011 70.76 122.611 70.76C125.059 70.76 127.363 70.328 129.523 69.464C131.683 68.6 133.531 67.352 135.067 65.72C136.603 64.04 137.755 62.024 138.523 59.672C139.339 57.32 139.627 54.632 139.387 51.608C139.243 48.392 138.331 45.224 136.651 42.104C135.019 38.936 132.859 36.128 130.171 33.68C127.531 31.184 124.507 29.192 121.099 27.704C117.691 26.168 114.187 25.4 110.587 25.4C108.139 25.4 105.835 25.832 103.675 26.696C101.515 27.56 99.6431 28.832 98.0591 30.512C96.5231 32.144 95.3471 34.136 94.5311 36.488C93.7631 38.84 93.4991 41.528 93.7391 44.552Z" fill="#FE79F3"/>
<path d="M147.306 26.048C149.658 26.048 152.058 25.568 154.506 24.608C156.954 23.648 159.186 22.472 161.202 21.08C161.202 23 161.202 25.112 161.202 27.416C161.154 29.384 161.13 31.688 161.13 34.328C161.13 36.92 161.13 39.752 161.13 42.824C161.226 40.28 161.826 37.736 162.93 35.192C164.082 32.6 165.594 30.272 167.466 28.208C169.338 26.096 171.498 24.392 173.946 23.096C176.394 21.752 178.986 21.08 181.722 21.08C182.586 21.08 183.57 21.128 184.674 21.224C185.826 21.32 186.762 21.632 187.482 22.16C188.25 24.32 188.058 26.024 186.906 27.272C185.802 28.52 184.218 29.144 182.154 29.144C181.434 29.144 180.786 29.072 180.21 28.928C179.634 28.784 179.058 28.616 178.482 28.424C177.906 28.232 177.258 28.064 176.538 27.92C175.866 27.776 175.002 27.704 173.946 27.704C171.882 27.704 170.058 28.4 168.474 29.792C166.89 31.184 165.546 33.032 164.442 35.336C163.386 37.64 162.57 40.28 161.994 43.256C161.418 46.184 161.13 49.208 161.13 52.328C161.13 55.592 161.13 58.52 161.13 61.112C161.13 63.704 161.298 65.912 161.634 67.736C162.018 69.512 162.666 70.88 163.578 71.84C164.49 72.8 165.882 73.28 167.754 73.28V74H147.306V73.28C149.178 73.28 150.57 72.8 151.482 71.84C152.442 70.832 153.09 69.368 153.426 67.448C153.81 65.48 153.978 63.056 153.93 60.176C153.93 57.248 153.93 53.864 153.93 50.024C153.93 46.184 153.93 42.824 153.93 39.944C153.978 37.016 153.81 34.592 153.426 32.672C153.09 30.704 152.442 29.24 151.482 28.28C150.57 27.272 149.178 26.768 147.306 26.768V26.048Z" fill="#FE79F3"/>
<path d="M184.341 50.816C184.341 46.304 185.157 42.272 186.789 38.72C188.421 35.168 190.557 32.144 193.197 29.648C195.837 27.104 198.837 25.112 202.197 23.672C205.557 22.232 208.989 21.392 212.493 21.152C212.349 20.576 212.205 20.072 212.061 19.64C211.965 19.208 211.869 18.824 211.773 18.488C211.677 18.104 211.581 17.768 211.485 17.48C210.861 15.512 210.333 13.784 209.901 12.296C209.469 10.808 209.013 9.55999 208.533 8.55199C208.053 7.54399 207.477 6.79999 206.805 6.31999C206.133 5.79199 205.221 5.52799 204.069 5.52799C203.205 5.52799 202.389 5.62399 201.621 5.81599C200.901 5.95999 200.061 6.15199 199.101 6.39199V5.67199C200.349 5.23999 201.597 4.75999 202.845 4.23199C204.093 3.65599 205.293 3.12799 206.445 2.64799C207.597 2.16799 208.629 1.75999 209.541 1.42399C210.501 1.08799 211.269 0.919983 211.845 0.919983C212.613 0.919983 213.237 1.11198 213.717 1.49598C214.197 1.83199 214.581 2.33599 214.869 3.00799C215.205 3.63199 215.493 4.39999 215.733 5.31199C215.973 6.17599 216.237 7.11199 216.525 8.11999C217.581 12.296 218.661 16.472 219.765 20.648C220.677 24.152 221.661 27.896 222.717 31.88C223.773 35.864 224.757 39.464 225.669 42.68C226.581 45.848 227.493 49.232 228.405 52.832C229.317 56.432 230.325 59.744 231.429 62.768C232.581 65.792 233.877 68.312 235.317 70.328C236.805 72.296 238.557 73.28 240.573 73.28V74H231.213C229.293 74 227.781 73.16 226.677 71.48C225.573 69.8 224.613 67.568 223.797 64.784C221.925 67.664 219.477 70.112 216.453 72.128C213.429 74.096 209.901 75.08 205.869 75.08C201.981 75.08 198.669 74.432 195.933 73.136C193.245 71.84 191.037 70.088 189.309 67.88C187.581 65.624 186.309 63.032 185.493 60.104C184.725 57.176 184.341 54.08 184.341 50.816ZM190.965 48.656C190.965 51.536 191.301 54.416 191.973 57.296C192.645 60.128 193.677 62.696 195.069 65C196.509 67.256 198.309 69.104 200.469 70.544C202.629 71.936 205.197 72.632 208.173 72.632C209.901 72.632 211.509 72.368 212.997 71.84C214.485 71.312 215.853 70.616 217.101 69.752C218.349 68.84 219.477 67.808 220.485 66.656C221.541 65.504 222.477 64.28 223.293 62.984C223.005 61.88 222.717 60.728 222.429 59.528C222.141 58.328 221.853 57.08 221.565 55.784C220.317 50.168 218.949 44.624 217.461 39.152C215.973 33.632 214.461 28.112 212.925 22.592C209.469 22.784 206.373 23.672 203.637 25.256C200.949 26.792 198.645 28.784 196.725 31.232C194.853 33.632 193.413 36.344 192.405 39.368C191.445 42.392 190.965 45.488 190.965 48.656Z" fill="#FE79F3"/>
<path d="M239.466 19.784C239.466 19.208 239.562 18.344 239.754 17.192C239.994 15.992 240.45 14.696 241.122 13.304C241.794 11.912 242.706 10.496 243.858 9.05599C245.058 7.56799 246.618 6.22399 248.538 5.02399C250.506 3.82399 252.882 2.83999 255.666 2.07199C258.45 1.30398 261.762 0.919983 265.602 0.919983C269.202 0.919983 272.25 1.30398 274.746 2.07199C277.242 2.79199 279.282 3.58399 280.866 4.44799C282.69 5.50399 284.202 6.70399 285.402 8.04799C285.018 9.82399 284.322 10.952 283.314 11.432C282.354 11.912 281.466 12.152 280.65 12.152C279.354 12.152 277.866 11.72 276.186 10.856C274.554 9.99199 272.754 9.05599 270.786 8.04799C268.866 7.03999 266.826 6.10399 264.666 5.23999C262.506 4.37599 260.226 3.94399 257.826 3.94399C253.986 3.94399 250.89 5.09599 248.538 7.39999C246.186 9.70399 245.01 12.752 245.01 16.544C245.01 19.232 245.634 21.512 246.882 23.384C248.13 25.256 249.762 26.888 251.778 28.28C253.794 29.624 256.098 30.8 258.69 31.808C261.33 32.816 263.994 33.824 266.682 34.832C269.37 35.792 272.01 36.824 274.602 37.928C277.242 38.984 279.57 40.28 281.586 41.816C283.602 43.352 285.234 45.176 286.482 47.288C287.73 49.4 288.354 51.944 288.354 54.92C288.354 59 287.61 62.36 286.122 65C284.634 67.592 282.69 69.632 280.29 71.12C277.89 72.608 275.154 73.64 272.082 74.216C269.01 74.792 265.89 75.08 262.722 75.08C260.082 75.08 257.514 74.744 255.018 74.072C252.522 73.448 250.242 72.68 248.178 71.768C246.162 70.856 244.41 69.896 242.922 68.888C241.434 67.88 240.402 67.016 239.826 66.296V54.416C241.17 56.912 242.73 59.288 244.506 61.544C246.282 63.8 248.322 65.792 250.626 67.52C252.978 69.2 255.618 70.544 258.546 71.552C261.474 72.56 264.738 73.064 268.338 73.064C270.258 73.064 272.13 72.776 273.954 72.2C275.826 71.576 277.482 70.688 278.922 69.536C280.362 68.384 281.514 66.944 282.378 65.216C283.29 63.44 283.746 61.4 283.746 59.096C283.746 56.36 283.098 54.056 281.802 52.184C280.554 50.264 278.898 48.608 276.834 47.216C274.77 45.824 272.394 44.624 269.706 43.616C267.066 42.608 264.354 41.624 261.57 40.664C258.834 39.656 256.122 38.6 253.434 37.496C250.794 36.392 248.442 35.072 246.378 33.536C244.314 31.952 242.634 30.056 241.338 27.848C240.09 25.64 239.466 22.952 239.466 19.784Z" fill="#FE79F3"/>
<path d="M303.799 24.32V63.128C303.799 64.136 303.871 65.192 304.015 66.296C304.207 67.4 304.495 68.432 304.879 69.392C305.263 70.352 305.791 71.144 306.463 71.768C307.183 72.392 308.047 72.704 309.055 72.704C310.783 72.704 312.319 72.272 313.663 71.408C315.007 70.496 316.087 69.368 316.903 68.024L317.623 68.528C317.287 69.152 316.783 69.848 316.111 70.616C315.439 71.336 314.647 72.032 313.735 72.704C312.871 73.376 311.887 73.928 310.783 74.36C309.679 74.84 308.551 75.08 307.399 75.08C305.239 75.08 303.463 74.72 302.071 74C300.679 73.232 299.575 72.248 298.759 71.048C297.943 69.8 297.367 68.384 297.031 66.8C296.743 65.168 296.599 63.464 296.599 61.688V24.32H289.039V22.16C290.191 22.16 291.487 21.656 292.927 20.648C294.367 19.64 295.759 18.368 297.103 16.832C298.447 15.296 299.671 13.64 300.775 11.864C301.879 10.088 302.671 8.43199 303.151 6.89599H303.871C303.871 8.14399 303.871 9.55999 303.871 11.144C303.823 12.536 303.799 14.168 303.799 16.04C303.799 17.864 303.799 19.904 303.799 22.16H315.247V24.32H303.799Z" fill="#FE79F3"/>
<path d="M318.376 26.048C320.728 26.048 323.128 25.568 325.576 24.608C328.024 23.648 330.256 22.472 332.272 21.08C332.272 23 332.272 25.112 332.272 27.416C332.224 29.384 332.2 31.688 332.2 34.328C332.2 36.92 332.2 39.752 332.2 42.824C332.296 40.28 332.896 37.736 334 35.192C335.152 32.6 336.664 30.272 338.536 28.208C340.408 26.096 342.568 24.392 345.016 23.096C347.464 21.752 350.056 21.08 352.792 21.08C353.656 21.08 354.64 21.128 355.744 21.224C356.896 21.32 357.832 21.632 358.552 22.16C359.32 24.32 359.128 26.024 357.976 27.272C356.872 28.52 355.288 29.144 353.224 29.144C352.504 29.144 351.856 29.072 351.28 28.928C350.704 28.784 350.128 28.616 349.552 28.424C348.976 28.232 348.328 28.064 347.608 27.92C346.936 27.776 346.072 27.704 345.016 27.704C342.952 27.704 341.128 28.4 339.544 29.792C337.96 31.184 336.616 33.032 335.512 35.336C334.456 37.64 333.64 40.28 333.064 43.256C332.488 46.184 332.2 49.208 332.2 52.328C332.2 55.592 332.2 58.52 332.2 61.112C332.2 63.704 332.368 65.912 332.704 67.736C333.088 69.512 333.736 70.88 334.648 71.84C335.56 72.8 336.952 73.28 338.824 73.28V74H318.376V73.28C320.248 73.28 321.64 72.8 322.552 71.84C323.512 70.832 324.16 69.368 324.496 67.448C324.88 65.48 325.048 63.056 325 60.176C325 57.248 325 53.864 325 50.024C325 46.184 325 42.824 325 39.944C325.048 37.016 324.88 34.592 324.496 32.672C324.16 30.704 323.512 29.24 322.552 28.28C321.64 27.272 320.248 26.768 318.376 26.768V26.048Z" fill="#FE79F3"/>
<path d="M356.818 48.08C356.818 44.336 357.538 40.832 358.978 37.568C360.418 34.304 362.362 31.448 364.81 29C367.306 26.552 370.186 24.632 373.45 23.24C376.762 21.8 380.266 21.08 383.962 21.08C387.658 21.08 390.826 21.632 393.466 22.736C396.106 23.84 398.266 25.208 399.946 26.84C401.626 28.424 402.85 30.152 403.618 32.024C404.434 33.896 404.842 35.6 404.842 37.136C404.842 38.672 404.554 39.92 403.978 40.88C403.402 41.84 402.658 42.608 401.746 43.184C400.834 43.712 399.802 44.072 398.65 44.264C397.546 44.456 396.442 44.552 395.338 44.552H362.938C362.938 48.008 363.61 51.248 364.954 54.272C366.298 57.248 368.098 59.84 370.354 62.048C372.658 64.256 375.298 65.984 378.274 67.232C381.25 68.48 384.394 69.104 387.706 69.104C390.154 69.104 392.458 68.768 394.618 68.096C396.778 67.376 398.722 66.44 400.45 65.288C402.226 64.088 403.738 62.696 404.986 61.112C406.282 59.48 407.29 57.776 408.01 56L408.73 56.288C408.01 59.024 406.858 61.544 405.274 63.848C403.738 66.104 401.866 68.072 399.658 69.752C397.498 71.432 395.074 72.752 392.386 73.712C389.746 74.624 386.938 75.08 383.962 75.08C380.266 75.08 376.762 74.384 373.45 72.992C370.186 71.552 367.306 69.608 364.81 67.16C362.362 64.712 360.418 61.856 358.978 58.592C357.538 55.328 356.818 51.824 356.818 48.08ZM382.378 42.68C384.25 42.68 386.074 42.632 387.85 42.536C389.674 42.44 391.282 42.176 392.674 41.744C394.114 41.312 395.266 40.664 396.13 39.8C397.042 38.936 397.498 37.736 397.498 36.2C397.498 34.232 397.09 32.48 396.274 30.944C395.506 29.408 394.378 28.088 392.89 26.984C391.45 25.88 389.698 25.04 387.634 24.464C385.618 23.888 383.362 23.6 380.866 23.6C378.178 23.6 375.754 24.08 373.594 25.04C371.482 25.952 369.658 27.248 368.122 28.928C366.586 30.608 365.362 32.648 364.45 35.048C363.586 37.448 363.082 40.112 362.938 43.04C364.714 42.992 366.346 42.944 367.834 42.896C369.37 42.848 370.882 42.824 372.37 42.824C373.858 42.776 375.394 42.752 376.978 42.752C378.61 42.704 380.41 42.68 382.378 42.68Z" fill="#FE79F3"/>
<path d="M411.996 63.056C411.996 59.264 413.028 56.096 415.092 53.552C417.156 51.008 419.748 48.728 422.868 46.712C426.036 44.696 429.468 42.776 433.164 40.952C436.908 39.128 440.412 37.064 443.676 34.76C443.1 32.744 442.572 30.968 442.092 29.432C441.612 27.896 441.06 26.624 440.436 25.616C439.812 24.608 439.092 23.84 438.276 23.312C437.508 22.784 436.548 22.52 435.396 22.52C433.764 22.52 432.204 23.072 430.716 24.176C429.228 25.28 427.764 26.48 426.324 27.776C424.932 29.072 423.516 30.272 422.076 31.376C420.636 32.48 419.148 33.032 417.612 33.032C416.364 33.032 415.332 32.648 414.516 31.88C413.7 31.064 413.412 30.032 413.652 28.784C414.036 28.064 414.9 27.272 416.244 26.408C417.636 25.496 419.316 24.656 421.284 23.888C423.3 23.072 425.508 22.4 427.908 21.872C430.308 21.344 432.708 21.08 435.108 21.08C438.66 21.08 441.492 21.944 443.604 23.672C445.764 25.4 447.516 27.632 448.86 30.368C450.204 33.104 451.308 36.176 452.172 39.584C453.036 42.944 453.996 46.256 455.052 49.52C456.588 54.32 457.86 58.28 458.868 61.4C459.876 64.472 460.86 66.896 461.82 68.672C462.78 70.4 463.836 71.6 464.988 72.272C466.14 72.944 467.604 73.28 469.38 73.28V74H458.436C457.572 74 456.852 73.88 456.276 73.64C455.7 73.4 455.196 72.968 454.764 72.344C454.38 71.72 453.996 70.856 453.612 69.752C453.276 68.6 452.868 67.16 452.388 65.432C452.244 64.952 451.98 64.04 451.596 62.696C451.212 61.352 450.756 59.792 450.228 58.016C449.748 56.192 449.196 54.248 448.572 52.184C447.996 50.12 447.444 48.152 446.916 46.28C446.34 50.216 445.428 53.936 444.18 57.44C442.932 60.896 441.372 63.944 439.5 66.584C437.628 69.176 435.444 71.24 432.948 72.776C430.452 74.312 427.644 75.08 424.524 75.08C422.508 75.08 420.708 74.768 419.124 74.144C417.588 73.52 416.292 72.656 415.236 71.552C414.18 70.448 413.364 69.176 412.788 67.736C412.26 66.248 411.996 64.688 411.996 63.056ZM419.196 61.688C419.196 64.088 419.94 66.056 421.428 67.592C422.964 69.128 424.932 69.896 427.332 69.896C429.78 69.896 431.94 69.344 433.812 68.24C435.684 67.088 437.292 65.624 438.636 63.848C440.028 62.072 441.18 60.08 442.092 57.872C443.004 55.616 443.7 53.408 444.18 51.248C444.708 49.088 445.044 47.048 445.188 45.128C445.332 43.208 445.356 41.672 445.26 40.52C445.02 39.8 444.804 39.08 444.612 38.36C444.468 37.64 444.3 36.896 444.108 36.128C441.42 38.144 438.612 40.064 435.684 41.888C432.756 43.664 430.068 45.536 427.62 47.504C425.172 49.424 423.156 51.512 421.572 53.768C419.988 56.024 419.196 58.664 419.196 61.688Z" fill="#FE79F3"/>
<path d="M471.165 73.28C473.037 73.28 474.429 72.8 475.341 71.84C476.301 70.832 476.949 69.368 477.285 67.448C477.669 65.48 477.837 63.056 477.789 60.176C477.789 57.248 477.789 53.864 477.789 50.024C477.789 46.184 477.789 42.824 477.789 39.944C477.837 37.016 477.669 34.592 477.285 32.672C476.949 30.704 476.301 29.24 475.341 28.28C474.429 27.272 473.037 26.768 471.165 26.768V26.048C473.517 26.048 475.917 25.568 478.365 24.608C480.813 23.648 483.045 22.472 485.061 21.08C485.061 22.76 485.061 24.632 485.061 26.696C485.013 28.424 484.989 30.488 484.989 32.888C484.989 35.24 484.989 37.808 484.989 40.592C485.709 38.432 486.645 36.2 487.797 33.896C488.949 31.592 490.293 29.504 491.829 27.632C493.365 25.712 495.069 24.152 496.941 22.952C498.813 21.704 500.829 21.08 502.989 21.08C505.053 21.08 506.757 21.8 508.101 23.24C509.445 24.632 510.573 26.408 511.485 28.568C512.397 30.728 513.165 33.08 513.789 35.624C514.413 38.12 515.037 40.472 515.661 42.68C515.853 43.208 515.973 43.664 516.021 44.048C516.549 41.84 517.365 39.416 518.469 36.776C519.621 34.088 521.013 31.592 522.645 29.288C524.277 26.936 526.125 24.992 528.189 23.456C530.301 21.872 532.581 21.08 535.029 21.08C537.093 21.08 538.797 21.8 540.141 23.24C541.485 24.632 542.613 26.408 543.525 28.568C544.437 30.728 545.205 33.08 545.829 35.624C546.453 38.12 547.077 40.472 547.701 42.68C548.613 45.848 549.525 49.232 550.437 52.832C551.349 56.432 552.357 59.744 553.461 62.768C554.613 65.792 555.909 68.312 557.349 70.328C558.837 72.296 560.589 73.28 562.605 73.28V74H553.245C551.805 74 550.605 73.544 549.645 72.632C548.733 71.672 547.917 70.376 547.197 68.744C546.525 67.064 545.901 65.12 545.325 62.912C544.797 60.704 544.221 58.328 543.597 55.784C543.069 53.624 542.493 51.248 541.869 48.656C541.245 46.016 540.669 43.616 540.141 41.456C539.565 39.2 538.989 37.136 538.413 35.264C537.837 33.392 537.189 31.784 536.469 30.44C535.797 29.096 535.029 28.04 534.165 27.272C533.349 26.504 532.413 26.12 531.357 26.12C529.629 26.12 527.925 26.864 526.245 28.352C524.565 29.792 523.053 31.616 521.709 33.824C520.413 35.984 519.333 38.336 518.469 40.88C517.653 43.424 517.173 45.752 517.029 47.864C517.845 50.84 518.661 53.84 519.477 56.864C520.341 59.888 521.301 62.624 522.357 65.072C523.413 67.472 524.613 69.44 525.957 70.976C527.301 72.512 528.837 73.28 530.565 73.28V74H521.205C519.765 74 518.565 73.544 517.605 72.632C516.693 71.672 515.877 70.376 515.157 68.744C514.485 67.064 513.861 65.12 513.285 62.912C512.757 60.704 512.181 58.328 511.557 55.784C511.029 53.624 510.453 51.248 509.829 48.656C509.205 46.016 508.629 43.616 508.101 41.456C507.525 39.2 506.949 37.136 506.373 35.264C505.797 33.392 505.149 31.784 504.429 30.44C503.757 29.096 502.989 28.04 502.125 27.272C501.309 26.504 500.373 26.12 499.317 26.12C497.541 26.12 495.789 26.912 494.061 28.496C492.333 30.032 490.797 31.952 489.453 34.256C488.157 36.56 487.077 39.032 486.213 41.672C485.397 44.264 484.989 46.616 484.989 48.728V50.024C484.989 53.864 484.989 57.248 484.989 60.176C484.989 63.056 485.157 65.48 485.493 67.448C485.877 69.368 486.525 70.832 487.437 71.84C488.349 72.8 489.741 73.28 491.613 73.28V74H471.165V73.28Z" fill="#FE79F3"/>
<path d="M0.0800781 176V175.28C1.95208 175.28 3.34408 174.8 4.25608 173.84C5.21608 172.832 5.86408 171.368 6.20008 169.448C6.58408 167.48 6.75208 165.056 6.70408 162.176C6.70408 159.248 6.70408 155.864 6.70408 152.024V127.976C6.70408 124.136 6.70408 120.776 6.70408 117.896C6.75208 114.968 6.58408 112.544 6.20008 110.624C5.86408 108.656 5.21608 107.192 4.25608 106.232C3.34408 105.224 1.95208 104.72 0.0800781 104.72V104H29.0961C33.2721 104 36.8961 104.48 39.9681 105.44C43.0881 106.352 45.6801 107.648 47.7441 109.328C49.8561 111.008 51.4161 113.048 52.4241 115.448C53.4801 117.8 54.0081 120.416 54.0081 123.296C54.0081 126.464 53.3361 129.296 51.9921 131.792C50.6481 134.288 48.8481 136.4 46.5921 138.128C44.3361 139.808 41.7441 141.104 38.8161 142.016C35.8881 142.88 32.8641 143.312 29.7441 143.312H13.9041V152.024C13.9041 155.864 13.9041 159.248 13.9041 162.176C13.9041 165.056 14.0721 167.48 14.4081 169.448C14.7921 171.368 15.4401 172.832 16.3521 173.84C17.2641 174.8 18.6561 175.28 20.5281 175.28V176H0.0800781ZM13.9041 105.44V142.016H24.6321C27.8001 142.016 30.7281 141.56 33.4161 140.648C36.1521 139.736 38.5041 138.464 40.4721 136.832C42.4401 135.2 43.9761 133.232 45.0801 130.928C46.1841 128.624 46.7361 126.08 46.7361 123.296C46.7361 120.704 46.2561 118.328 45.2961 116.168C44.3361 113.96 42.9681 112.064 41.1921 110.48C39.4161 108.896 37.3041 107.672 34.8561 106.808C32.4081 105.896 29.6721 105.44 26.6481 105.44H13.9041Z" fill="#FE79F3"/>
<path d="M57.5873 128.048C59.9393 128.048 62.3393 127.568 64.7873 126.608C67.2353 125.648 69.4673 124.472 71.4833 123.08C71.4833 125 71.4833 127.112 71.4833 129.416C71.4353 131.384 71.4113 133.688 71.4113 136.328C71.4113 138.92 71.4113 141.752 71.4113 144.824C71.5073 142.28 72.1073 139.736 73.2113 137.192C74.3633 134.6 75.8753 132.272 77.7473 130.208C79.6193 128.096 81.7793 126.392 84.2273 125.096C86.6753 123.752 89.2673 123.08 92.0033 123.08C92.8673 123.08 93.8513 123.128 94.9553 123.224C96.1073 123.32 97.0433 123.632 97.7633 124.16C98.5313 126.32 98.3393 128.024 97.1873 129.272C96.0833 130.52 94.4993 131.144 92.4353 131.144C91.7153 131.144 91.0673 131.072 90.4913 130.928C89.9153 130.784 89.3393 130.616 88.7633 130.424C88.1873 130.232 87.5393 130.064 86.8193 129.92C86.1473 129.776 85.2833 129.704 84.2273 129.704C82.1633 129.704 80.3393 130.4 78.7553 131.792C77.1713 133.184 75.8273 135.032 74.7233 137.336C73.6673 139.64 72.8513 142.28 72.2753 145.256C71.6993 148.184 71.4113 151.208 71.4113 154.328C71.4113 157.592 71.4113 160.52 71.4113 163.112C71.4113 165.704 71.5793 167.912 71.9153 169.736C72.2993 171.512 72.9473 172.88 73.8593 173.84C74.7713 174.8 76.1633 175.28 78.0353 175.28V176H57.5873V175.28C59.4593 175.28 60.8513 174.8 61.7633 173.84C62.7233 172.832 63.3713 171.368 63.7073 169.448C64.0913 167.48 64.2593 165.056 64.2113 162.176C64.2113 159.248 64.2113 155.864 64.2113 152.024C64.2113 148.184 64.2113 144.824 64.2113 141.944C64.2593 139.016 64.0913 136.592 63.7073 134.672C63.3713 132.704 62.7233 131.24 61.7633 130.28C60.8513 129.272 59.4593 128.768 57.5873 128.768V128.048Z" fill="#FE79F3"/>
<path d="M99.6341 176V175.28C101.506 175.28 102.898 174.8 103.81 173.84C104.77 172.832 105.418 171.368 105.754 169.448C106.138 167.48 106.306 165.056 106.258 162.176C106.258 159.248 106.258 155.864 106.258 152.024C106.258 148.184 106.258 144.824 106.258 141.944C106.306 139.016 106.138 136.592 105.754 134.672C105.418 132.704 104.77 131.24 103.81 130.28C102.898 129.272 101.506 128.768 99.6341 128.768V128.048C101.986 128.048 104.386 127.568 106.834 126.608C109.282 125.648 111.514 124.472 113.53 123.08C113.53 125.768 113.53 128.672 113.53 131.792C113.482 134.48 113.458 137.552 113.458 141.008C113.458 144.464 113.458 148.136 113.458 152.024C113.458 155.864 113.458 159.248 113.458 162.176C113.458 165.056 113.626 167.48 113.962 169.448C114.346 171.368 114.994 172.832 115.906 173.84C116.818 174.8 118.21 175.28 120.082 175.28V176H99.6341ZM109.354 107.96C111.178 107.96 112.738 108.608 114.034 109.904C115.33 111.152 115.978 112.688 115.978 114.512C115.978 116.336 115.33 117.896 114.034 119.192C112.738 120.488 111.178 121.136 109.354 121.136C107.53 121.136 105.97 120.488 104.674 119.192C103.426 117.896 102.802 116.336 102.802 114.512C102.802 112.688 103.426 111.152 104.674 109.904C105.97 108.608 107.53 107.96 109.354 107.96Z" fill="#FE79F3"/>
<path d="M123.661 150.08C123.661 146.336 124.381 142.832 125.821 139.568C127.261 136.304 129.205 133.448 131.653 131C134.149 128.552 137.029 126.632 140.293 125.24C143.605 123.8 147.109 123.08 150.805 123.08C154.021 123.08 156.949 123.512 159.589 124.376C162.229 125.192 164.533 126.272 166.501 127.616C168.517 128.912 170.197 130.352 171.541 131.936C172.885 133.472 173.869 134.96 174.493 136.4C174.301 136.976 174.037 137.48 173.701 137.912C173.365 138.296 172.933 138.656 172.405 138.992C171.877 139.328 171.181 139.496 170.317 139.496C169.261 139.496 168.277 139.16 167.365 138.488C166.501 137.816 165.613 136.976 164.701 135.968C163.837 134.912 162.901 133.808 161.893 132.656C160.885 131.456 159.709 130.352 158.365 129.344C157.069 128.288 155.557 127.424 153.829 126.752C152.101 126.032 150.061 125.648 147.709 125.6C144.925 125.6 142.429 126.104 140.221 127.112C138.013 128.12 136.117 129.536 134.533 131.36C132.997 133.184 131.821 135.392 131.005 137.984C130.189 140.528 129.781 143.384 129.781 146.552C129.781 150.008 130.453 153.248 131.797 156.272C133.141 159.248 134.941 161.84 137.197 164.048C139.501 166.256 142.141 167.984 145.117 169.232C148.093 170.48 151.237 171.104 154.549 171.104C156.997 171.104 159.301 170.768 161.461 170.096C163.621 169.376 165.565 168.44 167.293 167.288C169.069 166.088 170.581 164.696 171.829 163.112C173.125 161.48 174.133 159.776 174.853 158L175.573 158.288C174.853 161.024 173.701 163.544 172.117 165.848C170.581 168.104 168.709 170.072 166.501 171.752C164.341 173.432 161.917 174.752 159.229 175.712C156.589 176.624 153.781 177.08 150.805 177.08C147.109 177.08 143.605 176.384 140.293 174.992C137.029 173.552 134.149 171.608 131.653 169.16C129.205 166.712 127.261 163.856 125.821 160.592C124.381 157.328 123.661 153.824 123.661 150.08Z" fill="#FE79F3"/>
<path d="M177.4 176V175.28C179.272 175.28 180.664 174.8 181.576 173.84C182.536 172.832 183.184 171.368 183.52 169.448C183.904 167.48 184.072 165.056 184.024 162.176C184.024 159.248 184.024 155.864 184.024 152.024C184.024 148.184 184.024 144.824 184.024 141.944C184.072 139.016 183.904 136.592 183.52 134.672C183.184 132.704 182.536 131.24 181.576 130.28C180.664 129.272 179.272 128.768 177.4 128.768V128.048C179.752 128.048 182.152 127.568 184.6 126.608C187.048 125.648 189.28 124.472 191.296 123.08C191.296 125.768 191.296 128.672 191.296 131.792C191.248 134.48 191.224 137.552 191.224 141.008C191.224 144.464 191.224 148.136 191.224 152.024C191.224 155.864 191.224 159.248 191.224 162.176C191.224 165.056 191.392 167.48 191.728 169.448C192.112 171.368 192.76 172.832 193.672 173.84C194.584 174.8 195.976 175.28 197.848 175.28V176H177.4ZM187.12 107.96C188.944 107.96 190.504 108.608 191.8 109.904C193.096 111.152 193.744 112.688 193.744 114.512C193.744 116.336 193.096 117.896 191.8 119.192C190.504 120.488 188.944 121.136 187.12 121.136C185.296 121.136 183.736 120.488 182.44 119.192C181.192 117.896 180.568 116.336 180.568 114.512C180.568 112.688 181.192 111.152 182.44 109.904C183.736 108.608 185.296 107.96 187.12 107.96Z" fill="#FE79F3"/>
<path d="M199.267 128.048C201.619 128.048 204.019 127.568 206.467 126.608C208.915 125.648 211.147 124.472 213.163 123.08C213.163 124.76 213.163 126.632 213.163 128.696C213.115 130.424 213.091 132.488 213.091 134.888C213.091 137.24 213.091 139.808 213.091 142.592C213.811 140.432 214.747 138.2 215.899 135.896C217.051 133.592 218.395 131.504 219.931 129.632C221.467 127.712 223.171 126.152 225.043 124.952C226.915 123.704 228.931 123.08 231.091 123.08C233.155 123.08 234.859 123.8 236.203 125.24C237.547 126.632 238.675 128.408 239.587 130.568C240.499 132.728 241.267 135.08 241.891 137.624C242.515 140.12 243.139 142.472 243.763 144.68C244.675 147.848 245.587 151.232 246.499 154.832C247.411 158.432 248.419 161.744 249.523 164.768C250.675 167.792 251.971 170.312 253.411 172.328C254.899 174.296 256.651 175.28 258.667 175.28V176H249.307C247.867 176 246.667 175.544 245.707 174.632C244.795 173.672 243.979 172.376 243.259 170.744C242.587 169.064 241.963 167.12 241.387 164.912C240.859 162.704 240.283 160.328 239.659 157.784C239.131 155.624 238.555 153.248 237.931 150.656C237.307 148.016 236.731 145.616 236.203 143.456C235.627 141.2 235.051 139.136 234.475 137.264C233.899 135.392 233.251 133.784 232.531 132.44C231.859 131.096 231.091 130.04 230.227 129.272C229.411 128.504 228.475 128.12 227.419 128.12C225.595 128.12 223.819 128.912 222.091 130.496C220.411 132.032 218.899 133.952 217.555 136.256C216.211 138.56 215.131 141.032 214.315 143.672C213.499 146.264 213.091 148.616 213.091 150.728V152.024C213.091 155.864 213.091 159.248 213.091 162.176C213.091 165.056 213.259 167.48 213.595 169.448C213.979 171.368 214.627 172.832 215.539 173.84C216.451 174.8 217.843 175.28 219.715 175.28V176H199.267V175.28C201.139 175.28 202.531 174.8 203.443 173.84C204.403 172.832 205.051 171.368 205.387 169.448C205.771 167.48 205.939 165.056 205.891 162.176C205.891 159.248 205.891 155.864 205.891 152.024C205.891 148.184 205.891 144.824 205.891 141.944C205.939 139.016 205.771 136.592 205.387 134.672C205.051 132.704 204.403 131.24 203.443 130.28C202.531 129.272 201.139 128.768 199.267 128.768V128.048Z" fill="#FE79F3"/>
<path d="M254.302 146.696C254.302 143.288 254.806 140.36 255.814 137.912C256.87 135.416 258.31 133.28 260.134 131.504C261.958 129.68 264.118 128.12 266.614 126.824C269.11 125.528 271.774 124.352 274.606 123.296C277.486 122.192 280.486 121.136 283.606 120.128C286.726 119.12 289.846 118.016 292.966 116.816L293.902 119.768L277.702 124.16C280.87 124.112 283.918 124.64 286.846 125.744C289.774 126.848 292.342 128.408 294.55 130.424C296.806 132.44 298.582 134.84 299.878 137.624C301.222 140.408 301.894 143.432 301.894 146.696C301.894 149.096 301.51 151.4 300.742 153.608C299.974 155.768 298.918 157.784 297.574 159.656C296.23 161.48 294.622 163.088 292.75 164.48C290.878 165.872 288.814 166.976 286.558 167.792C283.438 169.136 280.462 170.384 277.63 171.536C274.798 172.688 272.302 173.816 270.142 174.92C267.982 176.024 266.254 177.104 264.958 178.16C263.662 179.216 263.014 180.32 263.014 181.472C263.014 182.288 263.278 182.912 263.806 183.344C264.382 183.824 265.102 184.064 265.966 184.064C268.366 184.064 270.694 183.488 272.95 182.336C275.254 181.184 277.606 179.888 280.006 178.448C282.454 177.056 285.022 175.784 287.71 174.632C290.446 173.48 293.398 172.904 296.566 172.904C299.158 172.904 301.174 173.648 302.614 175.136C304.102 176.624 304.846 178.424 304.846 180.536C304.846 182.792 304.15 184.616 302.758 186.008C301.366 187.448 299.59 188.6 297.43 189.464C295.27 190.376 292.894 191.12 290.302 191.696C287.71 192.32 285.238 192.968 282.886 193.64C280.534 194.312 278.446 195.08 276.622 195.944C274.846 196.856 273.646 198.08 273.022 199.616C272.83 200.096 272.686 200.624 272.59 201.2C272.542 201.776 272.446 202.304 272.302 202.784C272.206 203.312 272.038 203.744 271.798 204.08C271.558 204.416 271.174 204.584 270.646 204.584C270.118 204.584 269.638 204.392 269.206 204.008C268.822 203.624 268.63 203.096 268.63 202.424C268.63 200.264 269.422 198.512 271.006 197.168C272.638 195.824 274.654 194.696 277.054 193.784C279.454 192.872 282.046 192.104 284.83 191.48C287.662 190.856 290.278 190.184 292.678 189.464C295.126 188.744 297.142 187.88 298.726 186.872C300.358 185.912 301.174 184.64 301.174 183.056C301.174 182.192 300.838 181.352 300.166 180.536C299.542 179.768 298.462 179.384 296.926 179.384C294.526 179.384 292.078 179.96 289.582 181.112C287.086 182.264 284.518 183.536 281.878 184.928C279.286 186.368 276.622 187.664 273.886 188.816C271.15 189.968 268.318 190.544 265.39 190.544C263.038 190.544 261.07 189.944 259.486 188.744C257.95 187.592 257.182 186.008 257.182 183.992C257.182 182.168 257.878 180.584 259.27 179.24C260.71 177.896 262.486 176.696 264.598 175.64C266.71 174.536 268.99 173.504 271.438 172.544C273.934 171.536 276.262 170.456 278.422 169.304C275.254 169.352 272.206 168.824 269.278 167.72C266.398 166.568 263.83 164.984 261.574 162.968C259.366 160.952 257.59 158.552 256.246 155.768C254.95 152.984 254.302 149.96 254.302 146.696ZM260.35 142.376C260.35 145.448 260.974 148.424 262.222 151.304C263.518 154.136 265.222 156.656 267.334 158.864C269.446 161.072 271.894 162.848 274.678 164.192C277.462 165.488 280.39 166.136 283.462 166.136C285.478 166.136 287.254 165.752 288.79 164.984C290.326 164.168 291.598 163.064 292.606 161.672C293.662 160.28 294.454 158.648 294.982 156.776C295.51 154.856 295.774 152.816 295.774 150.656C295.774 147.584 295.15 144.632 293.902 141.8C292.654 138.92 290.95 136.376 288.79 134.168C286.678 131.96 284.23 130.208 281.446 128.912C278.662 127.568 275.734 126.896 272.662 126.896C270.646 126.896 268.87 127.304 267.334 128.12C265.798 128.888 264.502 129.968 263.446 131.36C262.438 132.752 261.67 134.384 261.142 136.256C260.614 138.128 260.35 140.168 260.35 142.376Z" fill="#FE79F3"/>
<path d="M331.111 176V175.28C332.983 175.28 334.375 174.8 335.287 173.84C336.247 172.832 336.895 171.368 337.231 169.448C337.615 167.48 337.783 165.056 337.735 162.176C337.735 159.248 337.735 155.864 337.735 152.024V127.976C337.735 124.136 337.735 120.776 337.735 117.896C337.783 114.968 337.615 112.544 337.231 110.624C336.895 108.656 336.247 107.192 335.287 106.232C334.375 105.224 332.983 104.72 331.111 104.72V104H360.127C364.303 104 367.927 104.48 370.999 105.44C374.119 106.352 376.711 107.648 378.775 109.328C380.887 111.008 382.447 113.048 383.455 115.448C384.511 117.8 385.039 120.416 385.039 123.296C385.039 126.464 384.367 129.296 383.023 131.792C381.679 134.288 379.879 136.4 377.623 138.128C375.367 139.808 372.775 141.104 369.847 142.016C366.919 142.88 363.895 143.312 360.775 143.312H344.935V152.024C344.935 155.864 344.935 159.248 344.935 162.176C344.935 165.056 345.103 167.48 345.439 169.448C345.823 171.368 346.471 172.832 347.383 173.84C348.295 174.8 349.687 175.28 351.559 175.28V176H331.111ZM344.935 105.44V142.016H355.663C358.831 142.016 361.759 141.56 364.447 140.648C367.183 139.736 369.535 138.464 371.503 136.832C373.471 135.2 375.007 133.232 376.111 130.928C377.215 128.624 377.767 126.08 377.767 123.296C377.767 120.704 377.287 118.328 376.327 116.168C375.367 113.96 373.999 112.064 372.223 110.48C370.447 108.896 368.335 107.672 365.887 106.808C363.439 105.896 360.703 105.44 357.679 105.44H344.935Z" fill="#FE79F3"/>
<path d="M388.652 165.056C388.652 161.264 389.684 158.096 391.748 155.552C393.812 153.008 396.404 150.728 399.524 148.712C402.692 146.696 406.124 144.776 409.82 142.952C413.564 141.128 417.068 139.064 420.332 136.76C419.756 134.744 419.228 132.968 418.748 131.432C418.268 129.896 417.716 128.624 417.092 127.616C416.468 126.608 415.748 125.84 414.932 125.312C414.164 124.784 413.204 124.52 412.052 124.52C410.42 124.52 408.86 125.072 407.372 126.176C405.884 127.28 404.42 128.48 402.98 129.776C401.588 131.072 400.172 132.272 398.732 133.376C397.292 134.48 395.804 135.032 394.268 135.032C393.02 135.032 391.988 134.648 391.172 133.88C390.356 133.064 390.068 132.032 390.308 130.784C390.692 130.064 391.556 129.272 392.9 128.408C394.292 127.496 395.972 126.656 397.94 125.888C399.956 125.072 402.164 124.4 404.564 123.872C406.964 123.344 409.364 123.08 411.764 123.08C415.316 123.08 418.148 123.944 420.26 125.672C422.42 127.4 424.172 129.632 425.516 132.368C426.86 135.104 427.964 138.176 428.828 141.584C429.692 144.944 430.652 148.256 431.708 151.52C433.244 156.32 434.516 160.28 435.524 163.4C436.532 166.472 437.516 168.896 438.476 170.672C439.436 172.4 440.492 173.6 441.644 174.272C442.796 174.944 444.26 175.28 446.036 175.28V176H435.092C434.228 176 433.508 175.88 432.932 175.64C432.356 175.4 431.852 174.968 431.42 174.344C431.036 173.72 430.652 172.856 430.268 171.752C429.932 170.6 429.524 169.16 429.044 167.432C428.9 166.952 428.636 166.04 428.252 164.696C427.868 163.352 427.412 161.792 426.884 160.016C426.404 158.192 425.852 156.248 425.228 154.184C424.652 152.12 424.1 150.152 423.572 148.28C422.996 152.216 422.084 155.936 420.836 159.44C419.588 162.896 418.028 165.944 416.156 168.584C414.284 171.176 412.1 173.24 409.604 174.776C407.108 176.312 404.3 177.08 401.18 177.08C399.164 177.08 397.364 176.768 395.78 176.144C394.244 175.52 392.948 174.656 391.892 173.552C390.836 172.448 390.02 171.176 389.444 169.736C388.916 168.248 388.652 166.688 388.652 165.056ZM395.852 163.688C395.852 166.088 396.596 168.056 398.084 169.592C399.62 171.128 401.588 171.896 403.988 171.896C406.436 171.896 408.596 171.344 410.468 170.24C412.34 169.088 413.948 167.624 415.292 165.848C416.684 164.072 417.836 162.08 418.748 159.872C419.66 157.616 420.356 155.408 420.836 153.248C421.364 151.088 421.7 149.048 421.844 147.128C421.988 145.208 422.012 143.672 421.916 142.52C421.676 141.8 421.46 141.08 421.268 140.36C421.124 139.64 420.956 138.896 420.764 138.128C418.076 140.144 415.268 142.064 412.34 143.888C409.412 145.664 406.724 147.536 404.276 149.504C401.828 151.424 399.812 153.512 398.228 155.768C396.644 158.024 395.852 160.664 395.852 163.688Z" fill="#FE79F3"/>
<path d="M441.333 146.696C441.333 143.288 441.837 140.36 442.845 137.912C443.901 135.416 445.341 133.28 447.165 131.504C448.989 129.68 451.149 128.12 453.645 126.824C456.141 125.528 458.805 124.352 461.637 123.296C464.517 122.192 467.517 121.136 470.637 120.128C473.757 119.12 476.877 118.016 479.997 116.816L480.933 119.768L464.733 124.16C467.901 124.112 470.949 124.64 473.877 125.744C476.805 126.848 479.373 128.408 481.581 130.424C483.837 132.44 485.613 134.84 486.909 137.624C488.253 140.408 488.925 143.432 488.925 146.696C488.925 149.096 488.541 151.4 487.773 153.608C487.005 155.768 485.949 157.784 484.605 159.656C483.261 161.48 481.653 163.088 479.781 164.48C477.909 165.872 475.845 166.976 473.589 167.792C470.469 169.136 467.493 170.384 464.661 171.536C461.829 172.688 459.333 173.816 457.173 174.92C455.013 176.024 453.285 177.104 451.989 178.16C450.693 179.216 450.045 180.32 450.045 181.472C450.045 182.288 450.309 182.912 450.837 183.344C451.413 183.824 452.133 184.064 452.997 184.064C455.397 184.064 457.725 183.488 459.981 182.336C462.285 181.184 464.637 179.888 467.037 178.448C469.485 177.056 472.053 175.784 474.741 174.632C477.477 173.48 480.429 172.904 483.597 172.904C486.189 172.904 488.205 173.648 489.645 175.136C491.133 176.624 491.877 178.424 491.877 180.536C491.877 182.792 491.181 184.616 489.789 186.008C488.397 187.448 486.621 188.6 484.461 189.464C482.301 190.376 479.925 191.12 477.333 191.696C474.741 192.32 472.269 192.968 469.917 193.64C467.565 194.312 465.477 195.08 463.653 195.944C461.877 196.856 460.677 198.08 460.053 199.616C459.861 200.096 459.717 200.624 459.621 201.2C459.573 201.776 459.477 202.304 459.333 202.784C459.237 203.312 459.069 203.744 458.829 204.08C458.589 204.416 458.205 204.584 457.677 204.584C457.149 204.584 456.669 204.392 456.237 204.008C455.853 203.624 455.661 203.096 455.661 202.424C455.661 200.264 456.453 198.512 458.037 197.168C459.669 195.824 461.685 194.696 464.085 193.784C466.485 192.872 469.077 192.104 471.861 191.48C474.693 190.856 477.309 190.184 479.709 189.464C482.157 188.744 484.173 187.88 485.757 186.872C487.389 185.912 488.205 184.64 488.205 183.056C488.205 182.192 487.869 181.352 487.197 180.536C486.573 179.768 485.493 179.384 483.957 179.384C481.557 179.384 479.109 179.96 476.613 181.112C474.117 182.264 471.549 183.536 468.909 184.928C466.317 186.368 463.653 187.664 460.917 188.816C458.181 189.968 455.349 190.544 452.421 190.544C450.069 190.544 448.101 189.944 446.517 188.744C444.981 187.592 444.213 186.008 444.213 183.992C444.213 182.168 444.909 180.584 446.301 179.24C447.741 177.896 449.517 176.696 451.629 175.64C453.741 174.536 456.021 173.504 458.469 172.544C460.965 171.536 463.293 170.456 465.453 169.304C462.285 169.352 459.237 168.824 456.309 167.72C453.429 166.568 450.861 164.984 448.605 162.968C446.397 160.952 444.621 158.552 443.277 155.768C441.981 152.984 441.333 149.96 441.333 146.696ZM447.381 142.376C447.381 145.448 448.005 148.424 449.253 151.304C450.549 154.136 452.253 156.656 454.365 158.864C456.477 161.072 458.925 162.848 461.709 164.192C464.493 165.488 467.421 166.136 470.493 166.136C472.509 166.136 474.285 165.752 475.821 164.984C477.357 164.168 478.629 163.064 479.637 161.672C480.693 160.28 481.485 158.648 482.013 156.776C482.541 154.856 482.805 152.816 482.805 150.656C482.805 147.584 482.181 144.632 480.933 141.8C479.685 138.92 477.981 136.376 475.821 134.168C473.709 131.96 471.261 130.208 468.477 128.912C465.693 127.568 462.765 126.896 459.693 126.896C457.677 126.896 455.901 127.304 454.365 128.12C452.829 128.888 451.533 129.968 450.477 131.36C449.469 132.752 448.701 134.384 448.173 136.256C447.645 138.128 447.381 140.168 447.381 142.376Z" fill="#FE79F3"/>
<path d="M494.771 150.08C494.771 146.336 495.491 142.832 496.931 139.568C498.371 136.304 500.315 133.448 502.763 131C505.259 128.552 508.139 126.632 511.403 125.24C514.715 123.8 518.219 123.08 521.915 123.08C525.611 123.08 528.779 123.632 531.419 124.736C534.059 125.84 536.219 127.208 537.899 128.84C539.579 130.424 540.803 132.152 541.571 134.024C542.387 135.896 542.795 137.6 542.795 139.136C542.795 140.672 542.507 141.92 541.931 142.88C541.355 143.84 540.611 144.608 539.699 145.184C538.787 145.712 537.755 146.072 536.603 146.264C535.499 146.456 534.395 146.552 533.291 146.552H500.891C500.891 150.008 501.563 153.248 502.907 156.272C504.251 159.248 506.051 161.84 508.307 164.048C510.611 166.256 513.251 167.984 516.227 169.232C519.203 170.48 522.347 171.104 525.659 171.104C528.107 171.104 530.411 170.768 532.571 170.096C534.731 169.376 536.675 168.44 538.403 167.288C540.179 166.088 541.691 164.696 542.939 163.112C544.235 161.48 545.243 159.776 545.963 158L546.683 158.288C545.963 161.024 544.811 163.544 543.227 165.848C541.691 168.104 539.819 170.072 537.611 171.752C535.451 173.432 533.027 174.752 530.339 175.712C527.699 176.624 524.891 177.08 521.915 177.08C518.219 177.08 514.715 176.384 511.403 174.992C508.139 173.552 505.259 171.608 502.763 169.16C500.315 166.712 498.371 163.856 496.931 160.592C495.491 157.328 494.771 153.824 494.771 150.08ZM520.331 144.68C522.203 144.68 524.027 144.632 525.803 144.536C527.627 144.44 529.235 144.176 530.627 143.744C532.067 143.312 533.219 142.664 534.083 141.8C534.995 140.936 535.451 139.736 535.451 138.2C535.451 136.232 535.043 134.48 534.227 132.944C533.459 131.408 532.331 130.088 530.843 128.984C529.403 127.88 527.651 127.04 525.587 126.464C523.571 125.888 521.315 125.6 518.819 125.6C516.131 125.6 513.707 126.08 511.547 127.04C509.435 127.952 507.611 129.248 506.075 130.928C504.539 132.608 503.315 134.648 502.403 137.048C501.539 139.448 501.035 142.112 500.891 145.04C502.667 144.992 504.299 144.944 505.787 144.896C507.323 144.848 508.835 144.824 510.323 144.824C511.811 144.776 513.347 144.752 514.931 144.752C516.563 144.704 518.363 144.68 520.331 144.68Z" fill="#FE79F3"/>
</svg>
